<svg xmlns="http://www.w3.org/2000/svg" width="1782" height="434" viewBox="0 0 1782 434">
<rect width="100%" height="100%" fill="#ffffff"/>
<text x="230" y="28" font-family="Arial, sans-serif" font-size="18" font-weight="700" fill="#111827">Plain + SNAPPY absolute wins by column</text>
<rect x="230" y="40" width="14" height="10" fill="#2563eb"/><text x="250" y="49" font-family="Arial, sans-serif" font-size="12" fill="#374151">plain + snappy</text>
<rect x="360" y="40" width="14" height="10" fill="#16a34a"/><text x="380" y="49" font-family="Arial, sans-serif" font-size="12" fill="#374151">rle-dict + snappy</text>
<rect x="515" y="40" width="14" height="10" fill="#dc2626"/><text x="535" y="49" font-family="Arial, sans-serif" font-size="12" fill="#374151">rle wins only without dict page</text>
<rect x="730" y="40" width="14" height="10" fill="#9ca3af"/><text x="750" y="49" font-family="Arial, sans-serif" font-size="12" fill="#374151">tie</text>
<text x="666" y="68" font-family="Arial, sans-serif" font-size="10" fill="#6b7280">windows</text>
<text x="708" y="59" font-family="Arial, sans-serif" font-size="10" fill="#6b7280">compressed / uncompressed min/median/max</text>
<text x="708" y="74" font-family="Arial, sans-serif" font-size="10" font-weight="700" fill="#374151">P agg</text>
<text x="824" y="74" font-family="Arial, sans-serif" font-size="10" font-weight="700" fill="#374151">R agg</text>
<text x="940" y="74" font-family="Arial, sans-serif" font-size="10" font-weight="700" fill="#374151">R gap</text>
<text x="1056" y="74" font-family="Arial, sans-serif" font-size="10" font-weight="700" fill="#374151">P all</text>
<text x="1172" y="74" font-family="Arial, sans-serif" font-size="10" font-weight="700" fill="#374151">R all</text>
<text x="1288" y="74" font-family="Arial, sans-serif" font-size="10" font-weight="700" fill="#374151">Pwin P</text>
<text x="1404" y="74" font-family="Arial, sans-serif" font-size="10" font-weight="700" fill="#374151">Pwin R</text>
<text x="1520" y="74" font-family="Arial, sans-serif" font-size="10" font-weight="700" fill="#374151">Rwin R</text>
<text x="1636" y="74" font-family="Arial, sans-serif" font-size="10" font-weight="700" fill="#374151">Rwin P</text>
<text x="220" y="95" font-family="Arial, sans-serif" font-size="11" text-anchor="end" fill="#374151">WatchID</text>
<rect x="230" y="84" width="430" height="14" fill="#f3f4f6"/>
<rect x="230.00" y="84" width="0.00" height="14" fill="#2563eb"/>
<rect x="230.00" y="84" width="0.00" height="14" fill="#16a34a"/>
<rect x="230.00" y="84" width="430.00" height="14" fill="#dc2626"/>
<rect x="660.00" y="84" width="0.00" height="14" fill="#9ca3af"/>
<text x="666" y="95" font-family="Arial, sans-serif" font-size="10" fill="#6b7280">121</text>
<text x="708" y="95" font-family="Arial, sans-serif" font-size="9" fill="#374151">100%</text>
<text x="824" y="95" font-family="Arial, sans-serif" font-size="9" fill="#374151">123%</text>
<text x="940" y="95" font-family="Arial, sans-serif" font-size="9" fill="#374151">-22.8%</text>
<text x="1056" y="95" font-family="Arial, sans-serif" font-size="9" fill="#374151">100%/100%/100%</text>
<text x="1172" y="95" font-family="Arial, sans-serif" font-size="9" fill="#374151">120%/123%/123%</text>
<text x="1288" y="95" font-family="Arial, sans-serif" font-size="9" fill="#374151">100%/100%/100%</text>
<text x="1404" y="95" font-family="Arial, sans-serif" font-size="9" fill="#374151">120%/123%/123%</text>
<text x="1520" y="95" font-family="Arial, sans-serif" font-size="9" fill="#374151">n/a</text>
<text x="1636" y="95" font-family="Arial, sans-serif" font-size="9" fill="#374151">n/a</text>
<text x="220" y="119" font-family="Arial, sans-serif" font-size="11" text-anchor="end" fill="#374151">HID</text>
<rect x="230" y="108" width="430" height="14" fill="#f3f4f6"/>
<rect x="230.00" y="108" width="0.00" height="14" fill="#2563eb"/>
<rect x="230.00" y="108" width="0.00" height="14" fill="#16a34a"/>
<rect x="230.00" y="108" width="430.00" height="14" fill="#dc2626"/>
<rect x="660.00" y="108" width="0.00" height="14" fill="#9ca3af"/>
<text x="666" y="119" font-family="Arial, sans-serif" font-size="10" fill="#6b7280">121</text>
<text x="708" y="119" font-family="Arial, sans-serif" font-size="9" fill="#374151">92.1%</text>
<text x="824" y="119" font-family="Arial, sans-serif" font-size="9" fill="#374151">112%</text>
<text x="940" y="119" font-family="Arial, sans-serif" font-size="9" fill="#374151">-19.5%</text>
<text x="1056" y="119" font-family="Arial, sans-serif" font-size="9" fill="#374151">82.9%/87.0%/100%</text>
<text x="1172" y="119" font-family="Arial, sans-serif" font-size="9" fill="#374151">90.5%/98.2%/141%</text>
<text x="1288" y="119" font-family="Arial, sans-serif" font-size="9" fill="#374151">82.9%/87.0%/100%</text>
<text x="1404" y="119" font-family="Arial, sans-serif" font-size="9" fill="#374151">90.5%/98.2%/141%</text>
<text x="1520" y="119" font-family="Arial, sans-serif" font-size="9" fill="#374151">n/a</text>
<text x="1636" y="119" font-family="Arial, sans-serif" font-size="9" fill="#374151">n/a</text>
<text x="220" y="143" font-family="Arial, sans-serif" font-size="11" text-anchor="end" fill="#374151">EventTime</text>
<rect x="230" y="132" width="430" height="14" fill="#f3f4f6"/>
<rect x="230.00" y="132" width="0.00" height="14" fill="#2563eb"/>
<rect x="230.00" y="132" width="0.00" height="14" fill="#16a34a"/>
<rect x="230.00" y="132" width="430.00" height="14" fill="#dc2626"/>
<rect x="660.00" y="132" width="0.00" height="14" fill="#9ca3af"/>
<text x="666" y="143" font-family="Arial, sans-serif" font-size="10" fill="#6b7280">121</text>
<text x="708" y="143" font-family="Arial, sans-serif" font-size="9" fill="#374151">53.5%</text>
<text x="824" y="143" font-family="Arial, sans-serif" font-size="9" fill="#374151">69.2%</text>
<text x="940" y="143" font-family="Arial, sans-serif" font-size="9" fill="#374151">-15.7%</text>
<text x="1056" y="143" font-family="Arial, sans-serif" font-size="9" fill="#374151">43.1%/59.4%/64.4%</text>
<text x="1172" y="143" font-family="Arial, sans-serif" font-size="9" fill="#374151">55.6%/75.4%/84.6%</text>
<text x="1288" y="143" font-family="Arial, sans-serif" font-size="9" fill="#374151">43.1%/59.4%/64.4%</text>
<text x="1404" y="143" font-family="Arial, sans-serif" font-size="9" fill="#374151">55.6%/75.4%/84.6%</text>
<text x="1520" y="143" font-family="Arial, sans-serif" font-size="9" fill="#374151">n/a</text>
<text x="1636" y="143" font-family="Arial, sans-serif" font-size="9" fill="#374151">n/a</text>
<text x="220" y="167" font-family="Arial, sans-serif" font-size="11" text-anchor="end" fill="#374151">LocalEventTime</text>
<rect x="230" y="156" width="430" height="14" fill="#f3f4f6"/>
<rect x="230.00" y="156" width="0.00" height="14" fill="#2563eb"/>
<rect x="230.00" y="156" width="0.00" height="14" fill="#16a34a"/>
<rect x="230.00" y="156" width="430.00" height="14" fill="#dc2626"/>
<rect x="660.00" y="156" width="0.00" height="14" fill="#9ca3af"/>
<text x="666" y="167" font-family="Arial, sans-serif" font-size="10" fill="#6b7280">121</text>
<text x="708" y="167" font-family="Arial, sans-serif" font-size="9" fill="#374151">53.5%</text>
<text x="824" y="167" font-family="Arial, sans-serif" font-size="9" fill="#374151">69.2%</text>
<text x="940" y="167" font-family="Arial, sans-serif" font-size="9" fill="#374151">-15.7%</text>
<text x="1056" y="167" font-family="Arial, sans-serif" font-size="9" fill="#374151">43.2%/59.6%/64.5%</text>
<text x="1172" y="167" font-family="Arial, sans-serif" font-size="9" fill="#374151">55.6%/75.8%/84.4%</text>
<text x="1288" y="167" font-family="Arial, sans-serif" font-size="9" fill="#374151">43.2%/59.6%/64.5%</text>
<text x="1404" y="167" font-family="Arial, sans-serif" font-size="9" fill="#374151">55.6%/75.8%/84.4%</text>
<text x="1520" y="167" font-family="Arial, sans-serif" font-size="9" fill="#374151">n/a</text>
<text x="1636" y="167" font-family="Arial, sans-serif" font-size="9" fill="#374151">n/a</text>
<text x="220" y="191" font-family="Arial, sans-serif" font-size="11" text-anchor="end" fill="#374151">ClientEventTime</text>
<rect x="230" y="180" width="430" height="14" fill="#f3f4f6"/>
<rect x="230.00" y="180" width="0.00" height="14" fill="#2563eb"/>
<rect x="230.00" y="180" width="0.00" height="14" fill="#16a34a"/>
<rect x="230.00" y="180" width="430.00" height="14" fill="#dc2626"/>
<rect x="660.00" y="180" width="0.00" height="14" fill="#9ca3af"/>
<text x="666" y="191" font-family="Arial, sans-serif" font-size="10" fill="#6b7280">121</text>
<text x="708" y="191" font-family="Arial, sans-serif" font-size="9" fill="#374151">52.8%</text>
<text x="824" y="191" font-family="Arial, sans-serif" font-size="9" fill="#374151">68.0%</text>
<text x="940" y="191" font-family="Arial, sans-serif" font-size="9" fill="#374151">-15.1%</text>
<text x="1056" y="191" font-family="Arial, sans-serif" font-size="9" fill="#374151">42.1%/59.7%/64.6%</text>
<text x="1172" y="191" font-family="Arial, sans-serif" font-size="9" fill="#374151">53.1%/76.0%/84.5%</text>
<text x="1288" y="191" font-family="Arial, sans-serif" font-size="9" fill="#374151">42.1%/59.7%/64.6%</text>
<text x="1404" y="191" font-family="Arial, sans-serif" font-size="9" fill="#374151">53.1%/76.0%/84.5%</text>
<text x="1520" y="191" font-family="Arial, sans-serif" font-size="9" fill="#374151">n/a</text>
<text x="1636" y="191" font-family="Arial, sans-serif" font-size="9" fill="#374151">n/a</text>
<text x="220" y="215" font-family="Arial, sans-serif" font-size="11" text-anchor="end" fill="#374151">ClientIP</text>
<rect x="230" y="204" width="430" height="14" fill="#f3f4f6"/>
<rect x="230.00" y="204" width="0.00" height="14" fill="#2563eb"/>
<rect x="230.00" y="204" width="17.77" height="14" fill="#16a34a"/>
<rect x="247.77" y="204" width="412.23" height="14" fill="#dc2626"/>
<rect x="660.00" y="204" width="0.00" height="14" fill="#9ca3af"/>
<text x="666" y="215" font-family="Arial, sans-serif" font-size="10" fill="#6b7280">121</text>
<text x="708" y="215" font-family="Arial, sans-serif" font-size="9" fill="#374151">18.0%</text>
<text x="824" y="215" font-family="Arial, sans-serif" font-size="9" fill="#374151">20.8%</text>
<text x="940" y="215" font-family="Arial, sans-serif" font-size="9" fill="#374151">-2.84%</text>
<text x="1056" y="215" font-family="Arial, sans-serif" font-size="9" fill="#374151">14.5%/17.3%/28.2%</text>
<text x="1172" y="215" font-family="Arial, sans-serif" font-size="9" fill="#374151">15.8%/20.0%/33.4%</text>
<text x="1288" y="215" font-family="Arial, sans-serif" font-size="9" fill="#374151">14.5%/17.3%/28.2%</text>
<text x="1404" y="215" font-family="Arial, sans-serif" font-size="9" fill="#374151">15.8%/20.1%/33.4%</text>
<text x="1520" y="215" font-family="Arial, sans-serif" font-size="9" fill="#374151">15.8%/17.6%/27.0%</text>
<text x="1636" y="215" font-family="Arial, sans-serif" font-size="9" fill="#374151">16.3%/20.8%/27.5%</text>
<text x="220" y="239" font-family="Arial, sans-serif" font-size="11" text-anchor="end" fill="#374151">IPNetworkID</text>
<rect x="230" y="228" width="430" height="14" fill="#f3f4f6"/>
<rect x="230.00" y="228" width="0.00" height="14" fill="#2563eb"/>
<rect x="230.00" y="228" width="7.11" height="14" fill="#16a34a"/>
<rect x="237.11" y="228" width="422.89" height="14" fill="#dc2626"/>
<rect x="660.00" y="228" width="0.00" height="14" fill="#9ca3af"/>
<text x="666" y="239" font-family="Arial, sans-serif" font-size="10" fill="#6b7280">121</text>
<text x="708" y="239" font-family="Arial, sans-serif" font-size="9" fill="#374151">14.0%</text>
<text x="824" y="239" font-family="Arial, sans-serif" font-size="9" fill="#374151">16.0%</text>
<text x="940" y="239" font-family="Arial, sans-serif" font-size="9" fill="#374151">-1.98%</text>
<text x="1056" y="239" font-family="Arial, sans-serif" font-size="9" fill="#374151">11.7%/13.7%/20.3%</text>
<text x="1172" y="239" font-family="Arial, sans-serif" font-size="9" fill="#374151">13.5%/15.5%/25.8%</text>
<text x="1288" y="239" font-family="Arial, sans-serif" font-size="9" fill="#374151">11.7%/13.7%/20.3%</text>
<text x="1404" y="239" font-family="Arial, sans-serif" font-size="9" fill="#374151">13.5%/15.5%/25.8%</text>
<text x="1520" y="239" font-family="Arial, sans-serif" font-size="9" fill="#374151">13.8%/14.7%/15.6%</text>
<text x="1636" y="239" font-family="Arial, sans-serif" font-size="9" fill="#374151">15.4%/16.1%/16.8%</text>
<text x="220" y="263" font-family="Arial, sans-serif" font-size="11" text-anchor="end" fill="#374151">URLHash</text>
<rect x="230" y="252" width="430" height="14" fill="#f3f4f6"/>
<rect x="230.00" y="252" width="0.00" height="14" fill="#2563eb"/>
<rect x="230.00" y="252" width="209.67" height="14" fill="#16a34a"/>
<rect x="439.67" y="252" width="220.33" height="14" fill="#dc2626"/>
<rect x="660.00" y="252" width="0.00" height="14" fill="#9ca3af"/>
<text x="666" y="263" font-family="Arial, sans-serif" font-size="10" fill="#6b7280">121</text>
<text x="708" y="263" font-family="Arial, sans-serif" font-size="9" fill="#374151">54.8%</text>
<text x="824" y="263" font-family="Arial, sans-serif" font-size="9" fill="#374151">56.6%</text>
<text x="940" y="263" font-family="Arial, sans-serif" font-size="9" fill="#374151">-1.80%</text>
<text x="1056" y="263" font-family="Arial, sans-serif" font-size="9" fill="#374151">45.8%/56.7%/66.2%</text>
<text x="1172" y="263" font-family="Arial, sans-serif" font-size="9" fill="#374151">42.9%/59.4%/74.0%</text>
<text x="1288" y="263" font-family="Arial, sans-serif" font-size="9" fill="#374151">52.6%/62.7%/66.2%</text>
<text x="1404" y="263" font-family="Arial, sans-serif" font-size="9" fill="#374151">55.6%/68.9%/74.0%</text>
<text x="1520" y="263" font-family="Arial, sans-serif" font-size="9" fill="#374151">42.9%/44.9%/55.6%</text>
<text x="1636" y="263" font-family="Arial, sans-serif" font-size="9" fill="#374151">45.8%/47.3%/57.4%</text>
<text x="220" y="287" font-family="Arial, sans-serif" font-size="11" text-anchor="end" fill="#374151">WindowClientHeight</text>
<rect x="230" y="276" width="430" height="14" fill="#f3f4f6"/>
<rect x="230.00" y="276" width="0.00" height="14" fill="#2563eb"/>
<rect x="230.00" y="276" width="31.98" height="14" fill="#16a34a"/>
<rect x="261.98" y="276" width="398.02" height="14" fill="#dc2626"/>
<rect x="660.00" y="276" width="0.00" height="14" fill="#9ca3af"/>
<text x="666" y="287" font-family="Arial, sans-serif" font-size="10" fill="#6b7280">121</text>
<text x="708" y="287" font-family="Arial, sans-serif" font-size="9" fill="#374151">13.8%</text>
<text x="824" y="287" font-family="Arial, sans-serif" font-size="9" fill="#374151">15.2%</text>
<text x="940" y="287" font-family="Arial, sans-serif" font-size="9" fill="#374151">-1.38%</text>
<text x="1056" y="287" font-family="Arial, sans-serif" font-size="9" fill="#374151">10.9%/14.2%/18.6%</text>
<text x="1172" y="287" font-family="Arial, sans-serif" font-size="9" fill="#374151">12.5%/15.4%/19.1%</text>
<text x="1288" y="287" font-family="Arial, sans-serif" font-size="9" fill="#374151">10.9%/12.6%/18.6%</text>
<text x="1404" y="287" font-family="Arial, sans-serif" font-size="9" fill="#374151">12.5%/14.8%/19.1%</text>
<text x="1520" y="287" font-family="Arial, sans-serif" font-size="9" fill="#374151">13.1%/16.5%/17.6%</text>
<text x="1636" y="287" font-family="Arial, sans-serif" font-size="9" fill="#374151">14.2%/17.0%/18.6%</text>
<text x="220" y="311" font-family="Arial, sans-serif" font-size="11" text-anchor="end" fill="#374151">RemoteIP</text>
<rect x="230" y="300" width="430" height="14" fill="#f3f4f6"/>
<rect x="230.00" y="300" width="0.00" height="14" fill="#2563eb"/>
<rect x="230.00" y="300" width="177.69" height="14" fill="#16a34a"/>
<rect x="407.69" y="300" width="252.31" height="14" fill="#dc2626"/>
<rect x="660.00" y="300" width="0.00" height="14" fill="#9ca3af"/>
<text x="666" y="311" font-family="Arial, sans-serif" font-size="10" fill="#6b7280">121</text>
<text x="708" y="311" font-family="Arial, sans-serif" font-size="9" fill="#374151">17.7%</text>
<text x="824" y="311" font-family="Arial, sans-serif" font-size="9" fill="#374151">18.8%</text>
<text x="940" y="311" font-family="Arial, sans-serif" font-size="9" fill="#374151">-1.10%</text>
<text x="1056" y="311" font-family="Arial, sans-serif" font-size="9" fill="#374151">14.5%/16.9%/28.2%</text>
<text x="1172" y="311" font-family="Arial, sans-serif" font-size="9" fill="#374151">13.1%/17.8%/33.4%</text>
<text x="1288" y="311" font-family="Arial, sans-serif" font-size="9" fill="#374151">14.5%/16.6%/28.2%</text>
<text x="1404" y="311" font-family="Arial, sans-serif" font-size="9" fill="#374151">15.8%/18.6%/33.4%</text>
<text x="1520" y="311" font-family="Arial, sans-serif" font-size="9" fill="#374151">13.1%/16.4%/27.1%</text>
<text x="1636" y="311" font-family="Arial, sans-serif" font-size="9" fill="#374151">15.9%/17.6%/27.7%</text>
<text x="220" y="335" font-family="Arial, sans-serif" font-size="11" text-anchor="end" fill="#374151">UserID</text>
<rect x="230" y="324" width="430" height="14" fill="#f3f4f6"/>
<rect x="230.00" y="324" width="0.00" height="14" fill="#2563eb"/>
<rect x="230.00" y="324" width="131.49" height="14" fill="#16a34a"/>
<rect x="361.49" y="324" width="298.51" height="14" fill="#dc2626"/>
<rect x="660.00" y="324" width="0.00" height="14" fill="#9ca3af"/>
<text x="666" y="335" font-family="Arial, sans-serif" font-size="10" fill="#6b7280">121</text>
<text x="708" y="335" font-family="Arial, sans-serif" font-size="9" fill="#374151">13.6%</text>
<text x="824" y="335" font-family="Arial, sans-serif" font-size="9" fill="#374151">14.1%</text>
<text x="940" y="335" font-family="Arial, sans-serif" font-size="9" fill="#374151">-0.51%</text>
<text x="1056" y="335" font-family="Arial, sans-serif" font-size="9" fill="#374151">11.1%/13.2%/19.9%</text>
<text x="1172" y="335" font-family="Arial, sans-serif" font-size="9" fill="#374151">10.8%/13.4%/22.5%</text>
<text x="1288" y="335" font-family="Arial, sans-serif" font-size="9" fill="#374151">11.1%/13.2%/19.9%</text>
<text x="1404" y="335" font-family="Arial, sans-serif" font-size="9" fill="#374151">12.0%/14.1%/22.5%</text>
<text x="1520" y="335" font-family="Arial, sans-serif" font-size="9" fill="#374151">10.8%/12.3%/18.5%</text>
<text x="1636" y="335" font-family="Arial, sans-serif" font-size="9" fill="#374151">11.1%/12.8%/19.4%</text>
<text x="220" y="359" font-family="Arial, sans-serif" font-size="11" text-anchor="end" fill="#374151">FetchTiming</text>
<rect x="230" y="348" width="430" height="14" fill="#f3f4f6"/>
<rect x="230.00" y="348" width="7.11" height="14" fill="#2563eb"/>
<rect x="237.11" y="348" width="191.90" height="14" fill="#16a34a"/>
<rect x="429.01" y="348" width="230.99" height="14" fill="#dc2626"/>
<rect x="660.00" y="348" width="0.00" height="14" fill="#9ca3af"/>
<text x="666" y="359" font-family="Arial, sans-serif" font-size="10" fill="#6b7280">121</text>
<text x="708" y="359" font-family="Arial, sans-serif" font-size="9" fill="#374151">20.2%</text>
<text x="824" y="359" font-family="Arial, sans-serif" font-size="9" fill="#374151">20.4%</text>
<text x="940" y="359" font-family="Arial, sans-serif" font-size="9" fill="#374151">-0.22%</text>
<text x="1056" y="359" font-family="Arial, sans-serif" font-size="9" fill="#374151">9.69%/18.2%/26.9%</text>
<text x="1172" y="359" font-family="Arial, sans-serif" font-size="9" fill="#374151">7.95%/17.7%/29.6%</text>
<text x="1288" y="359" font-family="Arial, sans-serif" font-size="9" fill="#374151">9.69%/24.7%/26.9%</text>
<text x="1404" y="359" font-family="Arial, sans-serif" font-size="9" fill="#374151">13.5%/25.4%/29.6%</text>
<text x="1520" y="359" font-family="Arial, sans-serif" font-size="9" fill="#374151">7.95%/17.0%/26.3%</text>
<text x="1636" y="359" font-family="Arial, sans-serif" font-size="9" fill="#374151">9.69%/17.6%/26.6%</text>
<text x="230" y="398" font-family="Arial, sans-serif" font-size="11" fill="#6b7280">bar width = share of overlap comparison windows won; rows sorted by R agg - P agg</text>
<text x="230" y="414" font-family="Arial, sans-serif" font-size="11" fill="#6b7280">ratio = compressed bytes after SNAPPY / plain uncompressed encoded bytes; lower is better</text>
</svg>
