<svg xmlns="http://www.w3.org/2000/svg" width="920" height="270" viewBox="0 0 920 270">
<rect width="100%" height="100%" fill="#ffffff"/>
<text x="260" y="26" font-family="Arial, sans-serif" font-size="16" font-weight="700" fill="#111827">Column wins by compression + encoding</text>
<text x="260" y="256" font-family="Arial, sans-serif" font-size="11" fill="#6b7280">columns won</text>
<line x1="260.00" y1="42" x2="260.00" y2="222" stroke="#eef2f7" stroke-width="1"/>
<text x="260.00" y="238" font-family="Arial, sans-serif" font-size="10" text-anchor="middle" fill="#6b7280">0</text>
<line x1="402.00" y1="42" x2="402.00" y2="222" stroke="#eef2f7" stroke-width="1"/>
<text x="402.00" y="238" font-family="Arial, sans-serif" font-size="10" text-anchor="middle" fill="#6b7280">13.50</text>
<line x1="544.00" y1="42" x2="544.00" y2="222" stroke="#eef2f7" stroke-width="1"/>
<text x="544.00" y="238" font-family="Arial, sans-serif" font-size="10" text-anchor="middle" fill="#6b7280">27</text>
<line x1="686.00" y1="42" x2="686.00" y2="222" stroke="#eef2f7" stroke-width="1"/>
<text x="686.00" y="238" font-family="Arial, sans-serif" font-size="10" text-anchor="middle" fill="#6b7280">40.50</text>
<line x1="828.00" y1="42" x2="828.00" y2="222" stroke="#eef2f7" stroke-width="1"/>
<text x="828.00" y="238" font-family="Arial, sans-serif" font-size="10" text-anchor="middle" fill="#6b7280">54</text>
<line x1="260" y1="222" x2="828" y2="222" stroke="#9ca3af" stroke-width="1"/>
<text x="248" y="67" font-family="Arial, sans-serif" font-size="12" text-anchor="end" fill="#374151">zstd-3 + plain</text>
<rect x="260" y="52" width="568.00" height="18" rx="3" fill="#2563eb"/>
<text x="836.00" y="66" font-family="Arial, sans-serif" font-size="12" font-weight="700" fill="#111827">54</text>
<text x="248" y="101" font-family="Arial, sans-serif" font-size="12" text-anchor="end" fill="#374151">zstd-3 + rle-dict</text>
<rect x="260" y="86" width="483.85" height="18" rx="3" fill="#2563eb"/>
<text x="751.85" y="100" font-family="Arial, sans-serif" font-size="12" font-weight="700" fill="#111827">46</text>
<text x="248" y="135" font-family="Arial, sans-serif" font-size="12" text-anchor="end" fill="#374151">snappy + rle-dict</text>
<rect x="260" y="120" width="21.04" height="18" rx="3" fill="#0f766e"/>
<text x="289.04" y="134" font-family="Arial, sans-serif" font-size="12" font-weight="700" fill="#111827">2</text>
<text x="248" y="169" font-family="Arial, sans-serif" font-size="12" text-anchor="end" fill="#374151">zstd-3 + delta-binary-packed</text>
<rect x="260" y="154" width="21.04" height="18" rx="3" fill="#2563eb"/>
<text x="289.04" y="168" font-family="Arial, sans-serif" font-size="12" font-weight="700" fill="#111827">2</text>
<text x="248" y="203" font-family="Arial, sans-serif" font-size="12" text-anchor="end" fill="#374151">snappy + plain</text>
<rect x="260" y="188" width="10.52" height="18" rx="3" fill="#0f766e"/>
<text x="278.52" y="202" font-family="Arial, sans-serif" font-size="12" font-weight="700" fill="#111827">1</text>
</svg>
