<svg xmlns="http://www.w3.org/2000/svg" width="920" height="168" viewBox="0 0 920 168">
<rect width="100%" height="100%" fill="#ffffff"/>
<text x="260" y="26" font-family="Arial, sans-serif" font-size="16" font-weight="700" fill="#111827">Delta-binary-packed winner improvement over second best</text>
<text x="260" y="154" font-family="Arial, sans-serif" font-size="11" fill="#6b7280">columns where delta-binary-packed is best</text>
<line x1="260.00" y1="42" x2="260.00" y2="120" stroke="#eef2f7" stroke-width="1"/>
<text x="260.00" y="136" font-family="Arial, sans-serif" font-size="10" text-anchor="middle" fill="#6b7280">0</text>
<line x1="402.00" y1="42" x2="402.00" y2="120" stroke="#eef2f7" stroke-width="1"/>
<text x="402.00" y="136" font-family="Arial, sans-serif" font-size="10" text-anchor="middle" fill="#6b7280">0.50</text>
<line x1="544.00" y1="42" x2="544.00" y2="120" stroke="#eef2f7" stroke-width="1"/>
<text x="544.00" y="136" font-family="Arial, sans-serif" font-size="10" text-anchor="middle" fill="#6b7280">1</text>
<line x1="686.00" y1="42" x2="686.00" y2="120" stroke="#eef2f7" stroke-width="1"/>
<text x="686.00" y="136" font-family="Arial, sans-serif" font-size="10" text-anchor="middle" fill="#6b7280">1.50</text>
<line x1="828.00" y1="42" x2="828.00" y2="120" stroke="#eef2f7" stroke-width="1"/>
<text x="828.00" y="136" font-family="Arial, sans-serif" font-size="10" text-anchor="middle" fill="#6b7280">2</text>
<line x1="260" y1="120" x2="828" y2="120" stroke="#9ca3af" stroke-width="1"/>
<text x="248" y="67" font-family="Arial, sans-serif" font-size="12" text-anchor="end" fill="#374151">0-10%</text>
<rect x="260" y="52" width="568.00" height="18" rx="3" fill="#7c3aed"/>
<text x="836.00" y="66" font-family="Arial, sans-serif" font-size="12" font-weight="700" fill="#111827">2</text>
<text x="248" y="101" font-family="Arial, sans-serif" font-size="12" text-anchor="end" fill="#374151">10-20%</text>
<rect x="260" y="86" width="0.00" height="18" rx="3" fill="#7c3aed"/>
<text x="268.00" y="100" font-family="Arial, sans-serif" font-size="12" font-weight="700" fill="#111827">0</text>
</svg>
