<svg xmlns="http://www.w3.org/2000/svg" width="1040" height="472" viewBox="0 0 1040 472">
<rect width="100%" height="100%" fill="#ffffff"/>
<text x="260" y="28" font-family="Arial, sans-serif" font-size="16" font-weight="700" fill="#111827">Encoding rank distribution by compression</text>
<text x="260" y="458" font-family="Arial, sans-serif" font-size="11" fill="#6b7280">columns ranked</text>
<rect x="260" y="44" width="10" height="10" rx="2" fill="#16a34a"/>
<text x="276" y="54" font-family="Arial, sans-serif" font-size="11" fill="#374151">rank 1</text>
<rect x="338" y="44" width="10" height="10" rx="2" fill="#2563eb"/>
<text x="354" y="54" font-family="Arial, sans-serif" font-size="11" fill="#374151">rank 2</text>
<rect x="416" y="44" width="10" height="10" rx="2" fill="#f59e0b"/>
<text x="432" y="54" font-family="Arial, sans-serif" font-size="11" fill="#374151">rank 3</text>
<rect x="494" y="44" width="10" height="10" rx="2" fill="#dc2626"/>
<text x="510" y="54" font-family="Arial, sans-serif" font-size="11" fill="#374151">rank 4</text>
<line x1="260.00" y1="72" x2="260.00" y2="422" stroke="#eef2f7" stroke-width="1"/>
<text x="260.00" y="440" font-family="Arial, sans-serif" font-size="10" text-anchor="middle" fill="#6b7280">0</text>
<line x1="432.00" y1="72" x2="432.00" y2="422" stroke="#eef2f7" stroke-width="1"/>
<text x="432.00" y="440" font-family="Arial, sans-serif" font-size="10" text-anchor="middle" fill="#6b7280">26.25</text>
<line x1="604.00" y1="72" x2="604.00" y2="422" stroke="#eef2f7" stroke-width="1"/>
<text x="604.00" y="440" font-family="Arial, sans-serif" font-size="10" text-anchor="middle" fill="#6b7280">52.50</text>
<line x1="776.00" y1="72" x2="776.00" y2="422" stroke="#eef2f7" stroke-width="1"/>
<text x="776.00" y="440" font-family="Arial, sans-serif" font-size="10" text-anchor="middle" fill="#6b7280">78.75</text>
<line x1="948.00" y1="72" x2="948.00" y2="422" stroke="#eef2f7" stroke-width="1"/>
<text x="948.00" y="440" font-family="Arial, sans-serif" font-size="10" text-anchor="middle" fill="#6b7280">105</text>
<line x1="260" y1="422" x2="948" y2="422" stroke="#9ca3af" stroke-width="1"/>
<text x="248" y="97" font-family="Arial, sans-serif" font-size="12" text-anchor="end" fill="#374151">zstd-3 + plain</text>
<rect x="260.00" y="82" width="360.38" height="18" rx="2" fill="#16a34a"/>
<text x="440.19" y="95" font-family="Arial, sans-serif" font-size="10" font-weight="700" text-anchor="middle" fill="#ffffff">55</text>
<rect x="620.38" y="82" width="268.65" height="18" rx="2" fill="#2563eb"/>
<text x="754.70" y="95" font-family="Arial, sans-serif" font-size="10" font-weight="700" text-anchor="middle" fill="#ffffff">41</text>
<rect x="889.03" y="82" width="58.97" height="18" rx="2" fill="#f59e0b"/>
<text x="918.51" y="95" font-family="Arial, sans-serif" font-size="10" font-weight="700" text-anchor="middle" fill="#ffffff">9</text>
<text x="956.00" y="95" font-family="Arial, sans-serif" font-size="11" fill="#111827">105</text>
<text x="248" y="131" font-family="Arial, sans-serif" font-size="12" text-anchor="end" fill="#374151">zstd-3 + rle-dict</text>
<rect x="260.00" y="116" width="314.51" height="18" rx="2" fill="#16a34a"/>
<text x="417.26" y="129" font-family="Arial, sans-serif" font-size="10" font-weight="700" text-anchor="middle" fill="#ffffff">48</text>
<rect x="574.51" y="116" width="196.57" height="18" rx="2" fill="#2563eb"/>
<text x="672.80" y="129" font-family="Arial, sans-serif" font-size="10" font-weight="700" text-anchor="middle" fill="#ffffff">30</text>
<rect x="771.09" y="116" width="144.15" height="18" rx="2" fill="#f59e0b"/>
<text x="843.16" y="129" font-family="Arial, sans-serif" font-size="10" font-weight="700" text-anchor="middle" fill="#ffffff">22</text>
<rect x="915.24" y="116" width="32.76" height="18" rx="2" fill="#dc2626"/>
<text x="931.62" y="129" font-family="Arial, sans-serif" font-size="10" font-weight="700" text-anchor="middle" fill="#ffffff">5</text>
<text x="956.00" y="129" font-family="Arial, sans-serif" font-size="11" fill="#111827">105</text>
<text x="248" y="165" font-family="Arial, sans-serif" font-size="12" text-anchor="end" fill="#374151">zstd-3 + delta-binary-packed</text>
<rect x="260.00" y="150" width="13.10" height="18" rx="2" fill="#16a34a"/>
<rect x="273.10" y="150" width="170.36" height="18" rx="2" fill="#2563eb"/>
<text x="358.29" y="163" font-family="Arial, sans-serif" font-size="10" font-weight="700" text-anchor="middle" fill="#ffffff">26</text>
<rect x="443.47" y="150" width="321.07" height="18" rx="2" fill="#f59e0b"/>
<text x="604.00" y="163" font-family="Arial, sans-serif" font-size="10" font-weight="700" text-anchor="middle" fill="#ffffff">49</text>
<text x="772.53" y="163" font-family="Arial, sans-serif" font-size="11" fill="#111827">77</text>
<text x="248" y="199" font-family="Arial, sans-serif" font-size="12" text-anchor="end" fill="#374151">zstd-3 + delta-byte-array</text>
<rect x="260.00" y="184" width="6.55" height="18" rx="2" fill="#2563eb"/>
<rect x="266.55" y="184" width="52.42" height="18" rx="2" fill="#f59e0b"/>
<text x="292.76" y="197" font-family="Arial, sans-serif" font-size="10" font-weight="700" text-anchor="middle" fill="#ffffff">8</text>
<rect x="318.97" y="184" width="124.50" height="18" rx="2" fill="#dc2626"/>
<text x="381.22" y="197" font-family="Arial, sans-serif" font-size="10" font-weight="700" text-anchor="middle" fill="#ffffff">19</text>
<text x="451.47" y="197" font-family="Arial, sans-serif" font-size="11" fill="#111827">28</text>
<text x="248" y="233" font-family="Arial, sans-serif" font-size="12" text-anchor="end" fill="#374151">zstd-3 + delta-length-byte-array</text>
<rect x="260.00" y="218" width="45.87" height="18" rx="2" fill="#2563eb"/>
<text x="282.93" y="231" font-family="Arial, sans-serif" font-size="10" font-weight="700" text-anchor="middle" fill="#ffffff">7</text>
<rect x="305.87" y="218" width="111.39" height="18" rx="2" fill="#f59e0b"/>
<text x="361.56" y="231" font-family="Arial, sans-serif" font-size="10" font-weight="700" text-anchor="middle" fill="#ffffff">17</text>
<rect x="417.26" y="218" width="26.21" height="18" rx="2" fill="#dc2626"/>
<text x="430.36" y="231" font-family="Arial, sans-serif" font-size="10" font-weight="700" text-anchor="middle" fill="#ffffff">4</text>
<text x="451.47" y="231" font-family="Arial, sans-serif" font-size="11" fill="#111827">28</text>
<text x="248" y="267" font-family="Arial, sans-serif" font-size="12" text-anchor="end" fill="#374151">snappy + plain</text>
<rect x="260.00" y="252" width="45.87" height="18" rx="2" fill="#16a34a"/>
<text x="282.93" y="265" font-family="Arial, sans-serif" font-size="10" font-weight="700" text-anchor="middle" fill="#ffffff">7</text>
<rect x="305.87" y="252" width="117.94" height="18" rx="2" fill="#2563eb"/>
<text x="364.84" y="265" font-family="Arial, sans-serif" font-size="10" font-weight="700" text-anchor="middle" fill="#ffffff">18</text>
<rect x="423.81" y="252" width="366.93" height="18" rx="2" fill="#f59e0b"/>
<text x="607.28" y="265" font-family="Arial, sans-serif" font-size="10" font-weight="700" text-anchor="middle" fill="#ffffff">56</text>
<rect x="790.74" y="252" width="157.26" height="18" rx="2" fill="#dc2626"/>
<text x="869.37" y="265" font-family="Arial, sans-serif" font-size="10" font-weight="700" text-anchor="middle" fill="#ffffff">24</text>
<text x="956.00" y="265" font-family="Arial, sans-serif" font-size="11" fill="#111827">105</text>
<text x="248" y="301" font-family="Arial, sans-serif" font-size="12" text-anchor="end" fill="#374151">snappy + rle-dict</text>
<rect x="260.00" y="286" width="596.27" height="18" rx="2" fill="#16a34a"/>
<text x="558.13" y="299" font-family="Arial, sans-serif" font-size="10" font-weight="700" text-anchor="middle" fill="#ffffff">91</text>
<rect x="856.27" y="286" width="52.42" height="18" rx="2" fill="#2563eb"/>
<text x="882.48" y="299" font-family="Arial, sans-serif" font-size="10" font-weight="700" text-anchor="middle" fill="#ffffff">8</text>
<rect x="908.69" y="286" width="39.31" height="18" rx="2" fill="#f59e0b"/>
<text x="928.34" y="299" font-family="Arial, sans-serif" font-size="10" font-weight="700" text-anchor="middle" fill="#ffffff">6</text>
<text x="956.00" y="299" font-family="Arial, sans-serif" font-size="11" fill="#111827">105</text>
<text x="248" y="335" font-family="Arial, sans-serif" font-size="12" text-anchor="end" fill="#374151">snappy + delta-binary-packed</text>
<rect x="260.00" y="320" width="45.87" height="18" rx="2" fill="#16a34a"/>
<text x="282.93" y="333" font-family="Arial, sans-serif" font-size="10" font-weight="700" text-anchor="middle" fill="#ffffff">7</text>
<rect x="305.87" y="320" width="334.17" height="18" rx="2" fill="#2563eb"/>
<text x="472.95" y="333" font-family="Arial, sans-serif" font-size="10" font-weight="700" text-anchor="middle" fill="#ffffff">51</text>
<rect x="640.04" y="320" width="124.50" height="18" rx="2" fill="#f59e0b"/>
<text x="702.29" y="333" font-family="Arial, sans-serif" font-size="10" font-weight="700" text-anchor="middle" fill="#ffffff">19</text>
<text x="772.53" y="333" font-family="Arial, sans-serif" font-size="11" fill="#111827">77</text>
<text x="248" y="369" font-family="Arial, sans-serif" font-size="12" text-anchor="end" fill="#374151">snappy + delta-byte-array</text>
<rect x="260.00" y="354" width="78.63" height="18" rx="2" fill="#2563eb"/>
<text x="299.31" y="367" font-family="Arial, sans-serif" font-size="10" font-weight="700" text-anchor="middle" fill="#ffffff">12</text>
<rect x="338.63" y="354" width="104.84" height="18" rx="2" fill="#f59e0b"/>
<text x="391.05" y="367" font-family="Arial, sans-serif" font-size="10" font-weight="700" text-anchor="middle" fill="#ffffff">16</text>
<text x="451.47" y="367" font-family="Arial, sans-serif" font-size="11" fill="#111827">28</text>
<text x="248" y="403" font-family="Arial, sans-serif" font-size="12" text-anchor="end" fill="#374151">snappy + delta-length-byte-array</text>
<rect x="260.00" y="388" width="104.84" height="18" rx="2" fill="#2563eb"/>
<text x="312.42" y="401" font-family="Arial, sans-serif" font-size="10" font-weight="700" text-anchor="middle" fill="#ffffff">16</text>
<rect x="364.84" y="388" width="52.42" height="18" rx="2" fill="#f59e0b"/>
<text x="391.05" y="401" font-family="Arial, sans-serif" font-size="10" font-weight="700" text-anchor="middle" fill="#ffffff">8</text>
<rect x="417.26" y="388" width="26.21" height="18" rx="2" fill="#dc2626"/>
<text x="430.36" y="401" font-family="Arial, sans-serif" font-size="10" font-weight="700" text-anchor="middle" fill="#ffffff">4</text>
<text x="451.47" y="401" font-family="Arial, sans-serif" font-size="11" fill="#111827">28</text>
</svg>
