<svg xmlns="http://www.w3.org/2000/svg" width="920" height="440" viewBox="0 0 920 440">
<rect width="100%" height="100%" fill="#ffffff"/>
<text x="260" y="26" font-family="Arial, sans-serif" font-size="16" font-weight="700" fill="#111827">Snappy RLE dictionary improvement over plain</text>
<text x="260" y="426" font-family="Arial, sans-serif" font-size="11" fill="#6b7280">columns where rle-dict is smaller</text>
<line x1="260.00" y1="42" x2="260.00" y2="392" stroke="#eef2f7" stroke-width="1"/>
<text x="260.00" y="408" font-family="Arial, sans-serif" font-size="10" text-anchor="middle" fill="#6b7280">0</text>
<line x1="402.00" y1="42" x2="402.00" y2="392" stroke="#eef2f7" stroke-width="1"/>
<text x="402.00" y="408" font-family="Arial, sans-serif" font-size="10" text-anchor="middle" fill="#6b7280">9</text>
<line x1="544.00" y1="42" x2="544.00" y2="392" stroke="#eef2f7" stroke-width="1"/>
<text x="544.00" y="408" font-family="Arial, sans-serif" font-size="10" text-anchor="middle" fill="#6b7280">18</text>
<line x1="686.00" y1="42" x2="686.00" y2="392" stroke="#eef2f7" stroke-width="1"/>
<text x="686.00" y="408" font-family="Arial, sans-serif" font-size="10" text-anchor="middle" fill="#6b7280">27</text>
<line x1="828.00" y1="42" x2="828.00" y2="392" stroke="#eef2f7" stroke-width="1"/>
<text x="828.00" y="408" font-family="Arial, sans-serif" font-size="10" text-anchor="middle" fill="#6b7280">36</text>
<line x1="260" y1="392" x2="828" y2="392" stroke="#9ca3af" stroke-width="1"/>
<text x="248" y="67" font-family="Arial, sans-serif" font-size="12" text-anchor="end" fill="#374151">0-10%</text>
<rect x="260" y="52" width="78.89" height="18" rx="3" fill="#0f766e"/>
<text x="346.89" y="66" font-family="Arial, sans-serif" font-size="12" font-weight="700" fill="#111827">5</text>
<text x="248" y="101" font-family="Arial, sans-serif" font-size="12" text-anchor="end" fill="#374151">10-20%</text>
<rect x="260" y="86" width="47.33" height="18" rx="3" fill="#0f766e"/>
<text x="315.33" y="100" font-family="Arial, sans-serif" font-size="12" font-weight="700" fill="#111827">3</text>
<text x="248" y="135" font-family="Arial, sans-serif" font-size="12" text-anchor="end" fill="#374151">20-30%</text>
<rect x="260" y="120" width="78.89" height="18" rx="3" fill="#0f766e"/>
<text x="346.89" y="134" font-family="Arial, sans-serif" font-size="12" font-weight="700" fill="#111827">5</text>
<text x="248" y="169" font-family="Arial, sans-serif" font-size="12" text-anchor="end" fill="#374151">30-40%</text>
<rect x="260" y="154" width="31.56" height="18" rx="3" fill="#0f766e"/>
<text x="299.56" y="168" font-family="Arial, sans-serif" font-size="12" font-weight="700" fill="#111827">2</text>
<text x="248" y="203" font-family="Arial, sans-serif" font-size="12" text-anchor="end" fill="#374151">40-50%</text>
<rect x="260" y="188" width="78.89" height="18" rx="3" fill="#0f766e"/>
<text x="346.89" y="202" font-family="Arial, sans-serif" font-size="12" font-weight="700" fill="#111827">5</text>
<text x="248" y="237" font-family="Arial, sans-serif" font-size="12" text-anchor="end" fill="#374151">50-60%</text>
<rect x="260" y="222" width="110.44" height="18" rx="3" fill="#0f766e"/>
<text x="378.44" y="236" font-family="Arial, sans-serif" font-size="12" font-weight="700" fill="#111827">7</text>
<text x="248" y="271" font-family="Arial, sans-serif" font-size="12" text-anchor="end" fill="#374151">60-70%</text>
<rect x="260" y="256" width="142.00" height="18" rx="3" fill="#0f766e"/>
<text x="410.00" y="270" font-family="Arial, sans-serif" font-size="12" font-weight="700" fill="#111827">9</text>
<text x="248" y="305" font-family="Arial, sans-serif" font-size="12" text-anchor="end" fill="#374151">70-80%</text>
<rect x="260" y="290" width="126.22" height="18" rx="3" fill="#0f766e"/>
<text x="394.22" y="304" font-family="Arial, sans-serif" font-size="12" font-weight="700" fill="#111827">8</text>
<text x="248" y="339" font-family="Arial, sans-serif" font-size="12" text-anchor="end" fill="#374151">80-90%</text>
<rect x="260" y="324" width="205.11" height="18" rx="3" fill="#0f766e"/>
<text x="473.11" y="338" font-family="Arial, sans-serif" font-size="12" font-weight="700" fill="#111827">13</text>
<text x="248" y="373" font-family="Arial, sans-serif" font-size="12" text-anchor="end" fill="#374151">90-100%</text>
<rect x="260" y="358" width="568.00" height="18" rx="3" fill="#0f766e"/>
<text x="836.00" y="372" font-family="Arial, sans-serif" font-size="12" font-weight="700" fill="#111827">36</text>
</svg>
