<svg xmlns="http://www.w3.org/2000/svg" width="980" height="650" viewBox="0 0 980 650">
<rect width="100%" height="100%" fill="#ffffff"/>
<text x="104" y="28" font-family="Arial, sans-serif" font-size="16" font-weight="700" fill="#111827">Snappy RLE dictionary worse: Medium-cardinality fixed-width numeric streams</text>
<text x="104" y="48" font-family="Arial, sans-serif" font-size="11" fill="#6b7280">same log byte scale on both axes; points above the diagonal are larger with rle-dict + snappy</text>
<line x1="104.00" y1="72" x2="104.00" y2="512" stroke="#eef2f7" stroke-width="1"/>
<line x1="104" y1="512.00" x2="544" y2="512.00" stroke="#eef2f7" stroke-width="1"/>
<text x="104.00" y="534" font-family="Arial, sans-serif" font-size="10" text-anchor="middle" fill="#6b7280">97.66 KiB</text>
<text x="96" y="516.00" font-family="Arial, sans-serif" font-size="10" text-anchor="end" fill="#6b7280">97.66 KiB</text>
<line x1="214.00" y1="72" x2="214.00" y2="512" stroke="#eef2f7" stroke-width="1"/>
<line x1="104" y1="402.00" x2="544" y2="402.00" stroke="#eef2f7" stroke-width="1"/>
<text x="214.00" y="534" font-family="Arial, sans-serif" font-size="10" text-anchor="middle" fill="#6b7280">308.82 KiB</text>
<text x="96" y="406.00" font-family="Arial, sans-serif" font-size="10" text-anchor="end" fill="#6b7280">308.82 KiB</text>
<line x1="324.00" y1="72" x2="324.00" y2="512" stroke="#eef2f7" stroke-width="1"/>
<line x1="104" y1="292.00" x2="544" y2="292.00" stroke="#eef2f7" stroke-width="1"/>
<text x="324.00" y="534" font-family="Arial, sans-serif" font-size="10" text-anchor="middle" fill="#6b7280">976.56 KiB</text>
<text x="96" y="296.00" font-family="Arial, sans-serif" font-size="10" text-anchor="end" fill="#6b7280">976.56 KiB</text>
<line x1="434.00" y1="72" x2="434.00" y2="512" stroke="#eef2f7" stroke-width="1"/>
<line x1="104" y1="182.00" x2="544" y2="182.00" stroke="#eef2f7" stroke-width="1"/>
<text x="434.00" y="534" font-family="Arial, sans-serif" font-size="10" text-anchor="middle" fill="#6b7280">3.02 MiB</text>
<text x="96" y="186.00" font-family="Arial, sans-serif" font-size="10" text-anchor="end" fill="#6b7280">3.02 MiB</text>
<line x1="544.00" y1="72" x2="544.00" y2="512" stroke="#eef2f7" stroke-width="1"/>
<line x1="104" y1="72.00" x2="544" y2="72.00" stroke="#eef2f7" stroke-width="1"/>
<text x="544.00" y="534" font-family="Arial, sans-serif" font-size="10" text-anchor="middle" fill="#6b7280">9.54 MiB</text>
<text x="96" y="76.00" font-family="Arial, sans-serif" font-size="10" text-anchor="end" fill="#6b7280">9.54 MiB</text>
<rect x="104" y="72" width="440" height="440" fill="none" stroke="#9ca3af" stroke-width="1"/>
<line x1="104" y1="512" x2="544" y2="72" stroke="#111827" stroke-width="1.4" stroke-dasharray="5 5"/>
<text x="116" y="500" font-family="Arial, sans-serif" font-size="10" fill="#111827">equal size</text>
<circle cx="292.49" cy="310.00" r="5.5" fill="#f97316" stroke="#ffffff" stroke-width="1.2" opacity="0.88"><title>ClientIP
plain+snappy: 719,059 B (702.21 KiB)
rle-dict+snappy: 828,313 B (808.90 KiB)
worse by: 15.194024%
plain baseline / rle-dict+snappy: 4.84x</title></circle>
<circle cx="268.63" cy="335.12" r="5.5" fill="#f59e0b" stroke="#ffffff" stroke-width="1.2" opacity="0.88"><title>IPNetworkID
plain+snappy: 560,148 B (547.02 KiB)
rle-dict+snappy: 636,803 B (621.88 KiB)
worse by: 13.684776%
plain baseline / rle-dict+snappy: 6.29x</title></circle>
<circle cx="267.11" cy="340.59" r="5.5" fill="#f59e0b" stroke="#ffffff" stroke-width="1.2" opacity="0.88"><title>WindowClientHeight
plain+snappy: 551,321 B (538.40 KiB)
rle-dict+snappy: 601,354 B (587.26 KiB)
worse by: 9.075112%
plain baseline / rle-dict+snappy: 6.66x</title></circle>
<circle cx="290.84" cy="319.62" r="5.5" fill="#f59e0b" stroke="#ffffff" stroke-width="1.2" opacity="0.88"><title>RemoteIP
plain+snappy: 706,731 B (690.17 KiB)
rle-dict+snappy: 748,986 B (731.43 KiB)
worse by: 5.978937%
plain baseline / rle-dict+snappy: 5.35x</title></circle>
<circle cx="331.77" cy="281.13" r="5.5" fill="#f59e0b" stroke="#ffffff" stroke-width="1.2" opacity="0.88"><title>UserID
plain+snappy: 1,084,714 B (1.03 MiB)
rle-dict+snappy: 1,120,481 B (1.07 MiB)
worse by: 3.297367%
plain baseline / rle-dict+snappy: 7.15x</title></circle>
<circle cx="303.70" cy="311.94" r="5.5" fill="#f97316" stroke="#ffffff" stroke-width="1.2" opacity="0.88"><title>FetchTiming
plain+snappy: 808,624 B (789.67 KiB)
rle-dict+snappy: 811,674 B (792.65 KiB)
worse by: 0.377184%
plain baseline / rle-dict+snappy: 4.93x</title></circle>
<text x="324" y="616" font-family="Arial, sans-serif" font-size="11" text-anchor="middle" fill="#374151">plain + snappy compressed bytes</text>
<text x="20" y="292" transform="rotate(-90 20 292)" font-family="Arial, sans-serif" font-size="11" text-anchor="middle" fill="#374151">rle-dict + snappy compressed bytes</text>
<text x="590" y="78" font-family="Arial, sans-serif" font-size="12" font-weight="700" fill="#111827">Color: plain baseline / rle-dict+snappy</text>
<rect x="590" y="90" width="13" height="13" rx="2" fill="#991b1b"/>
<text x="610" y="101" font-family="Arial, sans-serif" font-size="11" fill="#374151">&lt;1x</text>
<rect x="590" y="112" width="13" height="13" rx="2" fill="#dc2626"/>
<text x="610" y="123" font-family="Arial, sans-serif" font-size="11" fill="#374151">1-2x</text>
<rect x="590" y="134" width="13" height="13" rx="2" fill="#f97316"/>
<text x="610" y="145" font-family="Arial, sans-serif" font-size="11" fill="#374151">2-5x</text>
<rect x="590" y="156" width="13" height="13" rx="2" fill="#f59e0b"/>
<text x="610" y="167" font-family="Arial, sans-serif" font-size="11" fill="#374151">5-10x</text>
<rect x="590" y="178" width="13" height="13" rx="2" fill="#84cc16"/>
<text x="610" y="189" font-family="Arial, sans-serif" font-size="11" fill="#374151">10-25x</text>
<rect x="590" y="200" width="13" height="13" rx="2" fill="#22c55e"/>
<text x="610" y="211" font-family="Arial, sans-serif" font-size="11" fill="#374151">25-50x</text>
<rect x="590" y="222" width="13" height="13" rx="2" fill="#14b8a6"/>
<text x="610" y="233" font-family="Arial, sans-serif" font-size="11" fill="#374151">50-100x</text>
<rect x="590" y="244" width="13" height="13" rx="2" fill="#2563eb"/>
<text x="610" y="255" font-family="Arial, sans-serif" font-size="11" fill="#374151">100x+</text>
<text x="590" y="288" font-family="Arial, sans-serif" font-size="11" fill="#6b7280">points: 6 losing columns</text>
</svg>
