<svg xmlns="http://www.w3.org/2000/svg" width="920" height="202" viewBox="0 0 920 202">
<rect width="100%" height="100%" fill="#ffffff"/>
<text x="260" y="26" font-family="Arial, sans-serif" font-size="16" font-weight="700" fill="#111827">Second place when ZSTD plain ranks first</text>
<text x="260" y="188" font-family="Arial, sans-serif" font-size="11" fill="#6b7280">columns where zstd + plain is rank 1</text>
<line x1="260.00" y1="42" x2="260.00" y2="154" stroke="#eef2f7" stroke-width="1"/>
<text x="260.00" y="170" font-family="Arial, sans-serif" font-size="10" text-anchor="middle" fill="#6b7280">0</text>
<line x1="402.00" y1="42" x2="402.00" y2="154" stroke="#eef2f7" stroke-width="1"/>
<text x="402.00" y="170" font-family="Arial, sans-serif" font-size="10" text-anchor="middle" fill="#6b7280">7.25</text>
<line x1="544.00" y1="42" x2="544.00" y2="154" stroke="#eef2f7" stroke-width="1"/>
<text x="544.00" y="170" font-family="Arial, sans-serif" font-size="10" text-anchor="middle" fill="#6b7280">14.50</text>
<line x1="686.00" y1="42" x2="686.00" y2="154" stroke="#eef2f7" stroke-width="1"/>
<text x="686.00" y="170" font-family="Arial, sans-serif" font-size="10" text-anchor="middle" fill="#6b7280">21.75</text>
<line x1="828.00" y1="42" x2="828.00" y2="154" stroke="#eef2f7" stroke-width="1"/>
<text x="828.00" y="170" font-family="Arial, sans-serif" font-size="10" text-anchor="middle" fill="#6b7280">29</text>
<line x1="260" y1="154" x2="828" y2="154" stroke="#9ca3af" stroke-width="1"/>
<text x="248" y="67" font-family="Arial, sans-serif" font-size="12" text-anchor="end" fill="#374151">zstd + rle-dict</text>
<rect x="260" y="52" width="568.00" height="18" rx="3" fill="#0f766e"/>
<text x="836.00" y="66" font-family="Arial, sans-serif" font-size="12" font-weight="700" fill="#111827">29</text>
<text x="248" y="101" font-family="Arial, sans-serif" font-size="12" text-anchor="end" fill="#374151">zstd + delta-binary-packed</text>
<rect x="260" y="86" width="391.72" height="18" rx="3" fill="#7c3aed"/>
<text x="659.72" y="100" font-family="Arial, sans-serif" font-size="12" font-weight="700" fill="#111827">20</text>
<text x="248" y="135" font-family="Arial, sans-serif" font-size="12" text-anchor="end" fill="#374151">zstd + delta-length-byte-array</text>
<rect x="260" y="120" width="117.52" height="18" rx="3" fill="#be123c"/>
<text x="385.52" y="134" font-family="Arial, sans-serif" font-size="12" font-weight="700" fill="#111827">6</text>
</svg>
