<svg xmlns="http://www.w3.org/2000/svg" width="980" height="650" viewBox="0 0 980 650">
<rect width="100%" height="100%" fill="#ffffff"/>
<text x="104" y="28" font-family="Arial, sans-serif" font-size="16" font-weight="700" fill="#111827">RLE dictionary worse: Structured medium/high-cardinality numeric streams</text>
<text x="104" y="48" font-family="Arial, sans-serif" font-size="11" fill="#6b7280">same log byte scale on both axes; points above the diagonal are larger with rle-dict + zstd</text>
<line x1="104.00" y1="72" x2="104.00" y2="512" stroke="#eef2f7" stroke-width="1"/>
<line x1="104" y1="512.00" x2="544" y2="512.00" stroke="#eef2f7" stroke-width="1"/>
<text x="104.00" y="534" font-family="Arial, sans-serif" font-size="10" text-anchor="middle" fill="#6b7280">976.56 KiB</text>
<text x="96" y="516.00" font-family="Arial, sans-serif" font-size="10" text-anchor="end" fill="#6b7280">976.56 KiB</text>
<line x1="214.00" y1="72" x2="214.00" y2="512" stroke="#eef2f7" stroke-width="1"/>
<line x1="104" y1="402.00" x2="544" y2="402.00" stroke="#eef2f7" stroke-width="1"/>
<text x="214.00" y="534" font-family="Arial, sans-serif" font-size="10" text-anchor="middle" fill="#6b7280">1.70 MiB</text>
<text x="96" y="406.00" font-family="Arial, sans-serif" font-size="10" text-anchor="end" fill="#6b7280">1.70 MiB</text>
<line x1="324.00" y1="72" x2="324.00" y2="512" stroke="#eef2f7" stroke-width="1"/>
<line x1="104" y1="292.00" x2="544" y2="292.00" stroke="#eef2f7" stroke-width="1"/>
<text x="324.00" y="534" font-family="Arial, sans-serif" font-size="10" text-anchor="middle" fill="#6b7280">3.02 MiB</text>
<text x="96" y="296.00" font-family="Arial, sans-serif" font-size="10" text-anchor="end" fill="#6b7280">3.02 MiB</text>
<line x1="434.00" y1="72" x2="434.00" y2="512" stroke="#eef2f7" stroke-width="1"/>
<line x1="104" y1="182.00" x2="544" y2="182.00" stroke="#eef2f7" stroke-width="1"/>
<text x="434.00" y="534" font-family="Arial, sans-serif" font-size="10" text-anchor="middle" fill="#6b7280">5.36 MiB</text>
<text x="96" y="186.00" font-family="Arial, sans-serif" font-size="10" text-anchor="end" fill="#6b7280">5.36 MiB</text>
<line x1="544.00" y1="72" x2="544.00" y2="512" stroke="#eef2f7" stroke-width="1"/>
<line x1="104" y1="72.00" x2="544" y2="72.00" stroke="#eef2f7" stroke-width="1"/>
<text x="544.00" y="534" font-family="Arial, sans-serif" font-size="10" text-anchor="middle" fill="#6b7280">9.54 MiB</text>
<text x="96" y="76.00" font-family="Arial, sans-serif" font-size="10" text-anchor="end" fill="#6b7280">9.54 MiB</text>
<rect x="104" y="72" width="440" height="440" fill="none" stroke="#9ca3af" stroke-width="1"/>
<line x1="104" y1="512" x2="544" y2="72" stroke="#111827" stroke-width="1.4" stroke-dasharray="5 5"/>
<text x="116" y="500" font-family="Arial, sans-serif" font-size="10" fill="#111827">equal size</text>
<circle cx="277.10" cy="249.10" r="5.5" fill="#f97316" stroke="#ffffff" stroke-width="1.2" opacity="0.88"><title>ClientEventTime
plain+zstd: 2,474,093 B (2.36 MiB)
rle-dict+zstd: 3,958,277 B (3.77 MiB)
worse by: 59.989014%
plain baseline / rle-dict+zstd: 2.02x</title></circle>
<circle cx="280.20" cy="246.06" r="5.5" fill="#dc2626" stroke="#ffffff" stroke-width="1.2" opacity="0.88"><title>EventTime
plain+zstd: 2,514,539 B (2.40 MiB)
rle-dict+zstd: 4,021,616 B (3.84 MiB)
worse by: 59.934525%
plain baseline / rle-dict+zstd: 1.99x</title></circle>
<circle cx="280.41" cy="245.98" r="5.5" fill="#dc2626" stroke="#ffffff" stroke-width="1.2" opacity="0.88"><title>LocalEventTime
plain+zstd: 2,517,265 B (2.40 MiB)
rle-dict+zstd: 4,023,316 B (3.84 MiB)
worse by: 59.828862%
plain baseline / rle-dict+zstd: 1.99x</title></circle>
<circle cx="347.71" cy="223.34" r="5.5" fill="#dc2626" stroke="#ffffff" stroke-width="1.2" opacity="0.88"><title>URLHash
plain+zstd: 3,580,060 B (3.41 MiB)
rle-dict+zstd: 4,529,372 B (4.32 MiB)
worse by: 26.516651%
plain baseline / rle-dict+zstd: 1.77x</title></circle>
<circle cx="145.99" cy="427.42" r="5.5" fill="#f97316" stroke="#ffffff" stroke-width="1.2" opacity="0.88"><title>ResponseStartTiming
plain+zstd: 1,245,745 B (1.19 MiB)
rle-dict+zstd: 1,556,751 B (1.48 MiB)
worse by: 24.965462%
plain baseline / rle-dict+zstd: 2.57x</title></circle>
<circle cx="303.59" cy="272.45" r="5.5" fill="#f97316" stroke="#ffffff" stroke-width="1.2" opacity="0.88"><title>RefererHash
plain+zstd: 2,841,886 B (2.71 MiB)
rle-dict+zstd: 3,502,907 B (3.34 MiB)
worse by: 23.259941%
plain baseline / rle-dict+zstd: 2.29x</title></circle>
<text x="324" y="616" font-family="Arial, sans-serif" font-size="11" text-anchor="middle" fill="#374151">plain + zstd compressed bytes</text>
<text x="20" y="292" transform="rotate(-90 20 292)" font-family="Arial, sans-serif" font-size="11" text-anchor="middle" fill="#374151">rle-dict + zstd compressed bytes</text>
<text x="590" y="78" font-family="Arial, sans-serif" font-size="12" font-weight="700" fill="#111827">Color: plain baseline / rle-dict+zstd</text>
<rect x="590" y="90" width="13" height="13" rx="2" fill="#991b1b"/>
<text x="610" y="101" font-family="Arial, sans-serif" font-size="11" fill="#374151">&lt;1x</text>
<rect x="590" y="112" width="13" height="13" rx="2" fill="#dc2626"/>
<text x="610" y="123" font-family="Arial, sans-serif" font-size="11" fill="#374151">1-2x</text>
<rect x="590" y="134" width="13" height="13" rx="2" fill="#f97316"/>
<text x="610" y="145" font-family="Arial, sans-serif" font-size="11" fill="#374151">2-5x</text>
<rect x="590" y="156" width="13" height="13" rx="2" fill="#f59e0b"/>
<text x="610" y="167" font-family="Arial, sans-serif" font-size="11" fill="#374151">5-10x</text>
<rect x="590" y="178" width="13" height="13" rx="2" fill="#84cc16"/>
<text x="610" y="189" font-family="Arial, sans-serif" font-size="11" fill="#374151">10-25x</text>
<rect x="590" y="200" width="13" height="13" rx="2" fill="#22c55e"/>
<text x="610" y="211" font-family="Arial, sans-serif" font-size="11" fill="#374151">25-50x</text>
<rect x="590" y="222" width="13" height="13" rx="2" fill="#14b8a6"/>
<text x="610" y="233" font-family="Arial, sans-serif" font-size="11" fill="#374151">50-100x</text>
<rect x="590" y="244" width="13" height="13" rx="2" fill="#2563eb"/>
<text x="610" y="255" font-family="Arial, sans-serif" font-size="11" fill="#374151">100x+</text>
<text x="590" y="288" font-family="Arial, sans-serif" font-size="11" fill="#6b7280">points: 6 losing columns</text>
</svg>
