<svg xmlns="http://www.w3.org/2000/svg" width="920" height="360" viewBox="0 0 920 360">
<rect width="100%" height="100%" fill="#ffffff"/>
<text x="64" y="28" font-family="Arial, sans-serif" font-size="16" font-weight="700" fill="#111827">ZSTD plain vs RLE dictionary improvement</text>
<rect x="64" y="42" width="10" height="10" fill="#2563eb"/>
<text x="80" y="52" font-family="Arial, sans-serif" font-size="11" fill="#374151">zstd + plain better</text>
<rect x="224" y="42" width="10" height="10" fill="#0f766e"/>
<text x="240" y="52" font-family="Arial, sans-serif" font-size="11" fill="#374151">zstd + rle-dict better</text>
<text x="18" y="175" transform="rotate(-90 18 175)" font-family="Arial, sans-serif" font-size="11" fill="#6b7280">columns</text>
<line x1="64" y1="288.00" x2="892" y2="288.00" stroke="#e5e7eb" stroke-width="1"/>
<text x="56" y="291.00" font-family="Arial, sans-serif" font-size="10" text-anchor="end" fill="#6b7280">0</text>
<line x1="64" y1="228.53" x2="892" y2="228.53" stroke="#e5e7eb" stroke-width="1"/>
<text x="56" y="231.53" font-family="Arial, sans-serif" font-size="10" text-anchor="end" fill="#6b7280">5</text>
<line x1="64" y1="169.05" x2="892" y2="169.05" stroke="#e5e7eb" stroke-width="1"/>
<text x="56" y="172.05" font-family="Arial, sans-serif" font-size="10" text-anchor="end" fill="#6b7280">10</text>
<line x1="64" y1="121.47" x2="892" y2="121.47" stroke="#e5e7eb" stroke-width="1"/>
<text x="56" y="124.47" font-family="Arial, sans-serif" font-size="10" text-anchor="end" fill="#6b7280">14</text>
<line x1="64" y1="62.00" x2="892" y2="62.00" stroke="#e5e7eb" stroke-width="1"/>
<text x="56" y="65.00" font-family="Arial, sans-serif" font-size="10" text-anchor="end" fill="#6b7280">19</text>
<line x1="64" y1="288" x2="892" y2="288" stroke="#9ca3af" stroke-width="1"/>
<line x1="64" y1="62" x2="64" y2="288" stroke="#9ca3af" stroke-width="1"/>
<rect x="103.00" y="216.63" width="28.00" height="71.37" rx="2" fill="#2563eb"/>
<rect x="135.00" y="133.37" width="28.00" height="154.63" rx="2" fill="#0f766e"/>
<text x="117.00" y="212.63" font-family="Arial, sans-serif" font-size="10" text-anchor="middle" fill="#111827">6</text>
<text x="149.00" y="129.37" font-family="Arial, sans-serif" font-size="10" text-anchor="middle" fill="#111827">13</text>
<text x="133.00" y="308" font-family="Arial, sans-serif" font-size="10" text-anchor="middle" fill="#374151">0-10%</text>
<rect x="241.00" y="62.00" width="28.00" height="226.00" rx="2" fill="#2563eb"/>
<rect x="273.00" y="109.58" width="28.00" height="178.42" rx="2" fill="#0f766e"/>
<text x="255.00" y="58.00" font-family="Arial, sans-serif" font-size="10" text-anchor="middle" fill="#111827">19</text>
<text x="287.00" y="105.58" font-family="Arial, sans-serif" font-size="10" text-anchor="middle" fill="#111827">15</text>
<text x="271.00" y="308" font-family="Arial, sans-serif" font-size="10" text-anchor="middle" fill="#374151">10-20%</text>
<rect x="379.00" y="109.58" width="28.00" height="178.42" rx="2" fill="#2563eb"/>
<rect x="411.00" y="169.05" width="28.00" height="118.95" rx="2" fill="#0f766e"/>
<text x="393.00" y="105.58" font-family="Arial, sans-serif" font-size="10" text-anchor="middle" fill="#111827">15</text>
<text x="425.00" y="165.05" font-family="Arial, sans-serif" font-size="10" text-anchor="middle" fill="#111827">10</text>
<text x="409.00" y="308" font-family="Arial, sans-serif" font-size="10" text-anchor="middle" fill="#374151">20-30%</text>
<rect x="517.00" y="204.74" width="28.00" height="83.26" rx="2" fill="#2563eb"/>
<rect x="549.00" y="228.53" width="28.00" height="59.47" rx="2" fill="#0f766e"/>
<text x="531.00" y="200.74" font-family="Arial, sans-serif" font-size="10" text-anchor="middle" fill="#111827">7</text>
<text x="563.00" y="224.53" font-family="Arial, sans-serif" font-size="10" text-anchor="middle" fill="#111827">5</text>
<text x="547.00" y="308" font-family="Arial, sans-serif" font-size="10" text-anchor="middle" fill="#374151">30-40%</text>
<rect x="655.00" y="192.84" width="28.00" height="95.16" rx="2" fill="#2563eb"/>
<rect x="687.00" y="240.42" width="28.00" height="47.58" rx="2" fill="#0f766e"/>
<text x="669.00" y="188.84" font-family="Arial, sans-serif" font-size="10" text-anchor="middle" fill="#111827">8</text>
<text x="701.00" y="236.42" font-family="Arial, sans-serif" font-size="10" text-anchor="middle" fill="#111827">4</text>
<text x="685.00" y="308" font-family="Arial, sans-serif" font-size="10" text-anchor="middle" fill="#374151">40-50%</text>
<rect x="793.00" y="276.11" width="28.00" height="11.89" rx="2" fill="#2563eb"/>
<rect x="825.00" y="264.21" width="28.00" height="23.79" rx="2" fill="#0f766e"/>
<text x="807.00" y="272.11" font-family="Arial, sans-serif" font-size="10" text-anchor="middle" fill="#111827">1</text>
<text x="839.00" y="260.21" font-family="Arial, sans-serif" font-size="10" text-anchor="middle" fill="#111827">2</text>
<text x="823.00" y="308" font-family="Arial, sans-serif" font-size="10" text-anchor="middle" fill="#374151">50-60%</text>
<text x="64" y="346" font-family="Arial, sans-serif" font-size="11" fill="#6b7280">compressed-byte improvement bucket</text>
</svg>
