<svg xmlns="http://www.w3.org/2000/svg" width="920" height="542" viewBox="0 0 920 542">
<rect width="100%" height="100%" fill="#ffffff"/>
<text x="260" y="26" font-family="Arial, sans-serif" font-size="16" font-weight="700" fill="#111827">RLE dictionary worse: Structured medium/high-cardinality numeric streams</text>
<text x="260" y="528" font-family="Arial, sans-serif" font-size="11" fill="#6b7280">columns where rle-dict is worse</text>
<line x1="260.00" y1="42" x2="260.00" y2="494" stroke="#eef2f7" stroke-width="1"/>
<text x="260.00" y="510" font-family="Arial, sans-serif" font-size="10" text-anchor="middle" fill="#6b7280">0</text>
<line x1="402.00" y1="42" x2="402.00" y2="494" stroke="#eef2f7" stroke-width="1"/>
<text x="402.00" y="510" font-family="Arial, sans-serif" font-size="10" text-anchor="middle" fill="#6b7280">0.75</text>
<line x1="544.00" y1="42" x2="544.00" y2="494" stroke="#eef2f7" stroke-width="1"/>
<text x="544.00" y="510" font-family="Arial, sans-serif" font-size="10" text-anchor="middle" fill="#6b7280">1.50</text>
<line x1="686.00" y1="42" x2="686.00" y2="494" stroke="#eef2f7" stroke-width="1"/>
<text x="686.00" y="510" font-family="Arial, sans-serif" font-size="10" text-anchor="middle" fill="#6b7280">2.25</text>
<line x1="828.00" y1="42" x2="828.00" y2="494" stroke="#eef2f7" stroke-width="1"/>
<text x="828.00" y="510" font-family="Arial, sans-serif" font-size="10" text-anchor="middle" fill="#6b7280">3</text>
<line x1="260" y1="494" x2="828" y2="494" stroke="#9ca3af" stroke-width="1"/>
<text x="248" y="67" font-family="Arial, sans-serif" font-size="12" text-anchor="end" fill="#374151">0-10%</text>
<rect x="260" y="52" width="0.00" height="18" rx="3" fill="#dc2626"/>
<text x="268.00" y="66" font-family="Arial, sans-serif" font-size="12" font-weight="700" fill="#111827">0</text>
<text x="248" y="101" font-family="Arial, sans-serif" font-size="12" text-anchor="end" fill="#374151">10-20%</text>
<rect x="260" y="86" width="0.00" height="18" rx="3" fill="#dc2626"/>
<text x="268.00" y="100" font-family="Arial, sans-serif" font-size="12" font-weight="700" fill="#111827">0</text>
<text x="248" y="135" font-family="Arial, sans-serif" font-size="12" text-anchor="end" fill="#374151">20-30%</text>
<rect x="260" y="120" width="568.00" height="18" rx="3" fill="#dc2626"/>
<text x="836.00" y="134" font-family="Arial, sans-serif" font-size="12" font-weight="700" fill="#111827">3</text>
<text x="248" y="169" font-family="Arial, sans-serif" font-size="12" text-anchor="end" fill="#374151">30-40%</text>
<rect x="260" y="154" width="0.00" height="18" rx="3" fill="#dc2626"/>
<text x="268.00" y="168" font-family="Arial, sans-serif" font-size="12" font-weight="700" fill="#111827">0</text>
<text x="248" y="203" font-family="Arial, sans-serif" font-size="12" text-anchor="end" fill="#374151">40-50%</text>
<rect x="260" y="188" width="0.00" height="18" rx="3" fill="#dc2626"/>
<text x="268.00" y="202" font-family="Arial, sans-serif" font-size="12" font-weight="700" fill="#111827">0</text>
<text x="248" y="237" font-family="Arial, sans-serif" font-size="12" text-anchor="end" fill="#374151">50-60%</text>
<rect x="260" y="222" width="568.00" height="18" rx="3" fill="#dc2626"/>
<text x="836.00" y="236" font-family="Arial, sans-serif" font-size="12" font-weight="700" fill="#111827">3</text>
<text x="248" y="271" font-family="Arial, sans-serif" font-size="12" text-anchor="end" fill="#374151">60-70%</text>
<rect x="260" y="256" width="0.00" height="18" rx="3" fill="#dc2626"/>
<text x="268.00" y="270" font-family="Arial, sans-serif" font-size="12" font-weight="700" fill="#111827">0</text>
<text x="248" y="305" font-family="Arial, sans-serif" font-size="12" text-anchor="end" fill="#374151">70-80%</text>
<rect x="260" y="290" width="0.00" height="18" rx="3" fill="#dc2626"/>
<text x="268.00" y="304" font-family="Arial, sans-serif" font-size="12" font-weight="700" fill="#111827">0</text>
<text x="248" y="339" font-family="Arial, sans-serif" font-size="12" text-anchor="end" fill="#374151">80-90%</text>
<rect x="260" y="324" width="0.00" height="18" rx="3" fill="#dc2626"/>
<text x="268.00" y="338" font-family="Arial, sans-serif" font-size="12" font-weight="700" fill="#111827">0</text>
<text x="248" y="373" font-family="Arial, sans-serif" font-size="12" text-anchor="end" fill="#374151">90-100%</text>
<rect x="260" y="358" width="0.00" height="18" rx="3" fill="#dc2626"/>
<text x="268.00" y="372" font-family="Arial, sans-serif" font-size="12" font-weight="700" fill="#111827">0</text>
<text x="248" y="407" font-family="Arial, sans-serif" font-size="12" text-anchor="end" fill="#374151">100-200%</text>
<rect x="260" y="392" width="0.00" height="18" rx="3" fill="#dc2626"/>
<text x="268.00" y="406" font-family="Arial, sans-serif" font-size="12" font-weight="700" fill="#111827">0</text>
<text x="248" y="441" font-family="Arial, sans-serif" font-size="12" text-anchor="end" fill="#374151">200-500%</text>
<rect x="260" y="426" width="0.00" height="18" rx="3" fill="#dc2626"/>
<text x="268.00" y="440" font-family="Arial, sans-serif" font-size="12" font-weight="700" fill="#111827">0</text>
<text x="248" y="475" font-family="Arial, sans-serif" font-size="12" text-anchor="end" fill="#374151">500%+</text>
<rect x="260" y="460" width="0.00" height="18" rx="3" fill="#dc2626"/>
<text x="268.00" y="474" font-family="Arial, sans-serif" font-size="12" font-weight="700" fill="#111827">0</text>
</svg>
