<svg xmlns="http://www.w3.org/2000/svg" width="980" height="650" viewBox="0 0 980 650">
<rect width="100%" height="100%" fill="#ffffff"/>
<text x="104" y="28" font-family="Arial, sans-serif" font-size="16" font-weight="700" fill="#111827">RLE dictionary worse: True dictionary bloat</text>
<text x="104" y="48" font-family="Arial, sans-serif" font-size="11" fill="#6b7280">same log byte scale on both axes; points above the diagonal are larger with rle-dict + zstd</text>
<line x1="104.00" y1="72" x2="104.00" y2="512" stroke="#eef2f7" stroke-width="1"/>
<line x1="104" y1="512.00" x2="544" y2="512.00" stroke="#eef2f7" stroke-width="1"/>
<text x="104.00" y="534" font-family="Arial, sans-serif" font-size="10" text-anchor="middle" fill="#6b7280">976.56 KiB</text>
<text x="96" y="516.00" font-family="Arial, sans-serif" font-size="10" text-anchor="end" fill="#6b7280">976.56 KiB</text>
<line x1="214.00" y1="72" x2="214.00" y2="512" stroke="#eef2f7" stroke-width="1"/>
<line x1="104" y1="402.00" x2="544" y2="402.00" stroke="#eef2f7" stroke-width="1"/>
<text x="214.00" y="534" font-family="Arial, sans-serif" font-size="10" text-anchor="middle" fill="#6b7280">1.70 MiB</text>
<text x="96" y="406.00" font-family="Arial, sans-serif" font-size="10" text-anchor="end" fill="#6b7280">1.70 MiB</text>
<line x1="324.00" y1="72" x2="324.00" y2="512" stroke="#eef2f7" stroke-width="1"/>
<line x1="104" y1="292.00" x2="544" y2="292.00" stroke="#eef2f7" stroke-width="1"/>
<text x="324.00" y="534" font-family="Arial, sans-serif" font-size="10" text-anchor="middle" fill="#6b7280">3.02 MiB</text>
<text x="96" y="296.00" font-family="Arial, sans-serif" font-size="10" text-anchor="end" fill="#6b7280">3.02 MiB</text>
<line x1="434.00" y1="72" x2="434.00" y2="512" stroke="#eef2f7" stroke-width="1"/>
<line x1="104" y1="182.00" x2="544" y2="182.00" stroke="#eef2f7" stroke-width="1"/>
<text x="434.00" y="534" font-family="Arial, sans-serif" font-size="10" text-anchor="middle" fill="#6b7280">5.36 MiB</text>
<text x="96" y="186.00" font-family="Arial, sans-serif" font-size="10" text-anchor="end" fill="#6b7280">5.36 MiB</text>
<line x1="544.00" y1="72" x2="544.00" y2="512" stroke="#eef2f7" stroke-width="1"/>
<line x1="104" y1="72.00" x2="544" y2="72.00" stroke="#eef2f7" stroke-width="1"/>
<text x="544.00" y="534" font-family="Arial, sans-serif" font-size="10" text-anchor="middle" fill="#6b7280">9.54 MiB</text>
<text x="96" y="76.00" font-family="Arial, sans-serif" font-size="10" text-anchor="end" fill="#6b7280">9.54 MiB</text>
<rect x="104" y="72" width="440" height="440" fill="none" stroke="#9ca3af" stroke-width="1"/>
<line x1="104" y1="512" x2="544" y2="72" stroke="#111827" stroke-width="1.4" stroke-dasharray="5 5"/>
<text x="116" y="500" font-family="Arial, sans-serif" font-size="10" fill="#111827">equal size</text>
<circle cx="501.49" cy="75.17" r="5.5" fill="#991b1b" stroke="#ffffff" stroke-width="1.2" opacity="0.88"><title>WatchID
plain+zstd: 8,005,353 B (7.63 MiB)
rle-dict+zstd: 9,835,734 B (9.38 MiB)
worse by: 22.864463%
plain baseline / rle-dict+zstd: 0.81x</title></circle>
<circle cx="358.71" cy="224.91" r="5.5" fill="#991b1b" stroke="#ffffff" stroke-width="1.2" opacity="0.88"><title>HID
plain+zstd: 3,792,143 B (3.62 MiB)
rle-dict+zstd: 4,492,493 B (4.28 MiB)
worse by: 18.468449%
plain baseline / rle-dict+zstd: 0.89x</title></circle>
<text x="324" y="616" font-family="Arial, sans-serif" font-size="11" text-anchor="middle" fill="#374151">plain + zstd compressed bytes</text>
<text x="20" y="292" transform="rotate(-90 20 292)" font-family="Arial, sans-serif" font-size="11" text-anchor="middle" fill="#374151">rle-dict + zstd compressed bytes</text>
<text x="590" y="78" font-family="Arial, sans-serif" font-size="12" font-weight="700" fill="#111827">Color: plain baseline / rle-dict+zstd</text>
<rect x="590" y="90" width="13" height="13" rx="2" fill="#991b1b"/>
<text x="610" y="101" font-family="Arial, sans-serif" font-size="11" fill="#374151">&lt;1x</text>
<rect x="590" y="112" width="13" height="13" rx="2" fill="#dc2626"/>
<text x="610" y="123" font-family="Arial, sans-serif" font-size="11" fill="#374151">1-2x</text>
<rect x="590" y="134" width="13" height="13" rx="2" fill="#f97316"/>
<text x="610" y="145" font-family="Arial, sans-serif" font-size="11" fill="#374151">2-5x</text>
<rect x="590" y="156" width="13" height="13" rx="2" fill="#f59e0b"/>
<text x="610" y="167" font-family="Arial, sans-serif" font-size="11" fill="#374151">5-10x</text>
<rect x="590" y="178" width="13" height="13" rx="2" fill="#84cc16"/>
<text x="610" y="189" font-family="Arial, sans-serif" font-size="11" fill="#374151">10-25x</text>
<rect x="590" y="200" width="13" height="13" rx="2" fill="#22c55e"/>
<text x="610" y="211" font-family="Arial, sans-serif" font-size="11" fill="#374151">25-50x</text>
<rect x="590" y="222" width="13" height="13" rx="2" fill="#14b8a6"/>
<text x="610" y="233" font-family="Arial, sans-serif" font-size="11" fill="#374151">50-100x</text>
<rect x="590" y="244" width="13" height="13" rx="2" fill="#2563eb"/>
<text x="610" y="255" font-family="Arial, sans-serif" font-size="11" fill="#374151">100x+</text>
<text x="590" y="288" font-family="Arial, sans-serif" font-size="11" fill="#6b7280">points: 2 losing columns</text>
</svg>
