<svg xmlns="http://www.w3.org/2000/svg" width="920" height="300" viewBox="0 0 920 300">
<rect width="100%" height="100%" fill="#ffffff"/>
<text x="72" y="24" font-family="Arial, sans-serif" font-size="16" font-weight="700" fill="#111827">BrowserCountry page min/max lexical rank</text>
<text x="72" y="288" font-family="Arial, sans-serif" font-size="11" fill="#6b7280">page/row-group index</text>
<text x="18" y="144" transform="rotate(-90 18 144)" font-family="Arial, sans-serif" font-size="11" fill="#6b7280">lexical rank</text>
<line x1="72" y1="246.00" x2="892" y2="246.00" stroke="#e5e7eb" stroke-width="1"/>
<text x="64" y="249.00" font-family="Arial, sans-serif" font-size="10" text-anchor="end" fill="#6b7280">1</text>
<line x1="72" y1="195.00" x2="892" y2="195.00" stroke="#e5e7eb" stroke-width="1"/>
<text x="64" y="198.00" font-family="Arial, sans-serif" font-size="10" text-anchor="end" fill="#6b7280">5.25</text>
<line x1="72" y1="144.00" x2="892" y2="144.00" stroke="#e5e7eb" stroke-width="1"/>
<text x="64" y="147.00" font-family="Arial, sans-serif" font-size="10" text-anchor="end" fill="#6b7280">9.50</text>
<line x1="72" y1="93.00" x2="892" y2="93.00" stroke="#e5e7eb" stroke-width="1"/>
<text x="64" y="96.00" font-family="Arial, sans-serif" font-size="10" text-anchor="end" fill="#6b7280">13.75</text>
<line x1="72" y1="42.00" x2="892" y2="42.00" stroke="#e5e7eb" stroke-width="1"/>
<text x="64" y="45.00" font-family="Arial, sans-serif" font-size="10" text-anchor="end" fill="#6b7280">18</text>
<line x1="72" y1="246" x2="892" y2="246" stroke="#9ca3af" stroke-width="1"/>
<line x1="72" y1="42" x2="72" y2="246" stroke="#9ca3af" stroke-width="1"/>
<circle cx="72" cy="266" r="4" fill="#2563eb"/>
<text x="80" y="270" font-family="Arial, sans-serif" font-size="11" fill="#374151">page min rank</text>
<circle cx="252" cy="266" r="4" fill="#b91c1c"/>
<text x="260" y="270" font-family="Arial, sans-serif" font-size="11" fill="#374151">page max rank</text>
<polyline fill="none" stroke="#2563eb" stroke-width="1.8" points="72.00,78.00 82.51,54.00 93.03,78.00 103.54,54.00 114.05,90.00 124.56,90.00 135.08,90.00 145.59,54.00 156.10,90.00 166.62,78.00 177.13,90.00 187.64,90.00 198.15,78.00 208.67,198.00 219.18,54.00 229.69,78.00 240.21,90.00 250.72,90.00 261.23,90.00 271.74,126.00 282.26,54.00 292.77,54.00 303.28,102.00 313.79,102.00 324.31,90.00 334.82,90.00 345.33,90.00 355.85,222.00 366.36,78.00 376.87,222.00 387.38,102.00 397.90,66.00 408.41,102.00 418.92,54.00 429.44,54.00 439.95,54.00 450.46,54.00 460.97,54.00 471.49,174.00 482.00,78.00 492.51,54.00 503.03,54.00 513.54,78.00 524.05,114.00 534.56,90.00 545.08,102.00 555.59,90.00 566.10,78.00 576.62,114.00 587.13,138.00 597.64,114.00 608.15,114.00 618.67,114.00 629.18,114.00 639.69,114.00 650.21,234.00 660.72,114.00 671.23,114.00 681.74,114.00 692.26,114.00 702.77,114.00 713.28,114.00 723.79,114.00 734.31,174.00 744.82,162.00 755.33,186.00 765.85,114.00 776.36,114.00 786.87,222.00 797.38,114.00 807.90,150.00 818.41,222.00 828.92,114.00 839.44,210.00 849.95,246.00 860.46,234.00 870.97,114.00 881.49,234.00 892.00,114.00"/>
<polyline fill="none" stroke="#b91c1c" stroke-width="1.8" points="72.00,42.00 82.51,42.00 93.03,42.00 103.54,42.00 114.05,42.00 124.56,42.00 135.08,42.00 145.59,42.00 156.10,42.00 166.62,42.00 177.13,42.00 187.64,42.00 198.15,42.00 208.67,42.00 219.18,42.00 229.69,42.00 240.21,42.00 250.72,42.00 261.23,42.00 271.74,42.00 282.26,42.00 292.77,42.00 303.28,42.00 313.79,42.00 324.31,42.00 334.82,42.00 345.33,42.00 355.85,42.00 366.36,42.00 376.87,42.00 387.38,42.00 397.90,42.00 408.41,42.00 418.92,42.00 429.44,42.00 439.95,42.00 450.46,42.00 460.97,42.00 471.49,42.00 482.00,42.00 492.51,42.00 503.03,42.00 513.54,42.00 524.05,42.00 534.56,42.00 545.08,42.00 555.59,42.00 566.10,42.00 576.62,42.00 587.13,42.00 597.64,42.00 608.15,42.00 618.67,42.00 629.18,42.00 639.69,42.00 650.21,42.00 660.72,42.00 671.23,42.00 681.74,42.00 692.26,42.00 702.77,42.00 713.28,42.00 723.79,42.00 734.31,42.00 744.82,42.00 755.33,42.00 765.85,42.00 776.36,42.00 786.87,42.00 797.38,42.00 807.90,42.00 818.41,42.00 828.92,42.00 839.44,42.00 849.95,42.00 860.46,42.00 870.97,42.00 881.49,42.00 892.00,42.00"/>
</svg>
