<svg xmlns="http://www.w3.org/2000/svg" width="920" height="300" viewBox="0 0 920 300">
<rect width="100%" height="100%" fill="#ffffff"/>
<text x="72" y="24" font-family="Arial, sans-serif" font-size="16" font-weight="700" fill="#111827">BrowserCountry row-group cardinality</text>
<text x="72" y="288" font-family="Arial, sans-serif" font-size="11" fill="#6b7280">page/row-group index</text>
<text x="18" y="144" transform="rotate(-90 18 144)" font-family="Arial, sans-serif" font-size="11" fill="#6b7280">distinct values</text>
<line x1="72" y1="246.00" x2="892" y2="246.00" stroke="#e5e7eb" stroke-width="1"/>
<text x="64" y="249.00" font-family="Arial, sans-serif" font-size="10" text-anchor="end" fill="#6b7280">3</text>
<line x1="72" y1="195.00" x2="892" y2="195.00" stroke="#e5e7eb" stroke-width="1"/>
<text x="64" y="198.00" font-family="Arial, sans-serif" font-size="10" text-anchor="end" fill="#6b7280">5</text>
<line x1="72" y1="144.00" x2="892" y2="144.00" stroke="#e5e7eb" stroke-width="1"/>
<text x="64" y="147.00" font-family="Arial, sans-serif" font-size="10" text-anchor="end" fill="#6b7280">7</text>
<line x1="72" y1="93.00" x2="892" y2="93.00" stroke="#e5e7eb" stroke-width="1"/>
<text x="64" y="96.00" font-family="Arial, sans-serif" font-size="10" text-anchor="end" fill="#6b7280">9</text>
<line x1="72" y1="42.00" x2="892" y2="42.00" stroke="#e5e7eb" stroke-width="1"/>
<text x="64" y="45.00" font-family="Arial, sans-serif" font-size="10" text-anchor="end" fill="#6b7280">11</text>
<line x1="72" y1="246" x2="892" y2="246" stroke="#9ca3af" stroke-width="1"/>
<line x1="72" y1="42" x2="72" y2="246" stroke="#9ca3af" stroke-width="1"/>
<circle cx="72" cy="266" r="4" fill="#2563eb"/>
<text x="80" y="270" font-family="Arial, sans-serif" font-size="11" fill="#374151">row group cardinality</text>
<polyline fill="none" stroke="#2563eb" stroke-width="1.8" points="72.00,220.50 82.51,246.00 93.03,220.50 103.54,246.00 114.05,195.00 124.56,195.00 135.08,195.00 145.59,220.50 156.10,220.50 166.62,220.50 177.13,220.50 187.64,220.50 198.15,195.00 208.67,144.00 219.18,246.00 229.69,220.50 240.21,195.00 250.72,195.00 261.23,220.50 271.74,220.50 282.26,220.50 292.77,246.00 303.28,220.50 313.79,169.50 324.31,220.50 334.82,220.50 345.33,220.50 355.85,169.50 366.36,169.50 376.87,195.00 387.38,195.00 397.90,220.50 408.41,195.00 418.92,220.50 429.44,220.50 439.95,246.00 450.46,246.00 460.97,246.00 471.49,220.50 482.00,220.50 492.51,246.00 503.03,246.00 513.54,220.50 524.05,169.50 534.56,220.50 545.08,118.50 555.59,195.00 566.10,195.00 576.62,195.00 587.13,118.50 597.64,169.50 608.15,169.50 618.67,144.00 629.18,144.00 639.69,144.00 650.21,118.50 660.72,144.00 671.23,169.50 681.74,144.00 692.26,118.50 702.77,118.50 713.28,144.00 723.79,93.00 734.31,144.00 744.82,118.50 755.33,144.00 765.85,169.50 776.36,169.50 786.87,67.50 797.38,169.50 807.90,67.50 818.41,118.50 828.92,144.00 839.44,42.00 849.95,93.00 860.46,93.00 870.97,144.00 881.49,144.00 892.00,169.50"/>
</svg>
