<svg xmlns="http://www.w3.org/2000/svg" width="920" height="300" viewBox="0 0 920 300">
<rect width="100%" height="100%" fill="#ffffff"/>
<text x="72" y="24" font-family="Arial, sans-serif" font-size="16" font-weight="700" fill="#111827">BrowserLanguage page min/max lexical rank</text>
<text x="72" y="288" font-family="Arial, sans-serif" font-size="11" fill="#6b7280">page/row-group index</text>
<text x="18" y="144" transform="rotate(-90 18 144)" font-family="Arial, sans-serif" font-size="11" fill="#6b7280">lexical rank</text>
<line x1="72" y1="246.00" x2="892" y2="246.00" stroke="#e5e7eb" stroke-width="1"/>
<text x="64" y="249.00" font-family="Arial, sans-serif" font-size="10" text-anchor="end" fill="#6b7280">1</text>
<line x1="72" y1="195.00" x2="892" y2="195.00" stroke="#e5e7eb" stroke-width="1"/>
<text x="64" y="198.00" font-family="Arial, sans-serif" font-size="10" text-anchor="end" fill="#6b7280">2.25</text>
<line x1="72" y1="144.00" x2="892" y2="144.00" stroke="#e5e7eb" stroke-width="1"/>
<text x="64" y="147.00" font-family="Arial, sans-serif" font-size="10" text-anchor="end" fill="#6b7280">3.50</text>
<line x1="72" y1="93.00" x2="892" y2="93.00" stroke="#e5e7eb" stroke-width="1"/>
<text x="64" y="96.00" font-family="Arial, sans-serif" font-size="10" text-anchor="end" fill="#6b7280">4.75</text>
<line x1="72" y1="42.00" x2="892" y2="42.00" stroke="#e5e7eb" stroke-width="1"/>
<text x="64" y="45.00" font-family="Arial, sans-serif" font-size="10" text-anchor="end" fill="#6b7280">6</text>
<line x1="72" y1="246" x2="892" y2="246" stroke="#9ca3af" stroke-width="1"/>
<line x1="72" y1="42" x2="72" y2="246" stroke="#9ca3af" stroke-width="1"/>
<circle cx="72" cy="266" r="4" fill="#2563eb"/>
<text x="80" y="270" font-family="Arial, sans-serif" font-size="11" fill="#374151">page min rank</text>
<circle cx="252" cy="266" r="4" fill="#b91c1c"/>
<text x="260" y="270" font-family="Arial, sans-serif" font-size="11" fill="#374151">page max rank</text>
<polyline fill="none" stroke="#2563eb" stroke-width="1.8" points="72.00,123.60 82.51,123.60 93.03,123.60 103.54,123.60 114.05,123.60 124.56,123.60 135.08,123.60 145.59,123.60 156.10,123.60 166.62,123.60 177.13,123.60 187.64,123.60 198.15,123.60 208.67,123.60 219.18,123.60 229.69,123.60 240.21,123.60 250.72,123.60 261.23,123.60 271.74,123.60 282.26,123.60 292.77,123.60 303.28,205.20 313.79,123.60 324.31,123.60 334.82,123.60 345.33,123.60 355.85,123.60 366.36,123.60 376.87,123.60 387.38,123.60 397.90,123.60 408.41,123.60 418.92,123.60 429.44,123.60 439.95,123.60 450.46,123.60 460.97,123.60 471.49,123.60 482.00,123.60 492.51,123.60 503.03,123.60 513.54,123.60 524.05,123.60 534.56,123.60 545.08,205.20 555.59,123.60 566.10,123.60 576.62,123.60 587.13,123.60 597.64,123.60 608.15,123.60 618.67,205.20 629.18,123.60 639.69,123.60 650.21,123.60 660.72,123.60 671.23,123.60 681.74,205.20 692.26,123.60 702.77,123.60 713.28,123.60 723.79,123.60 734.31,123.60 744.82,123.60 755.33,205.20 765.85,123.60 776.36,246.00 786.87,123.60 797.38,246.00 807.90,123.60 818.41,123.60 828.92,123.60 839.44,123.60 849.95,123.60 860.46,123.60 870.97,123.60 881.49,164.40 892.00,123.60"/>
<polyline fill="none" stroke="#b91c1c" stroke-width="1.8" points="72.00,42.00 82.51,42.00 93.03,42.00 103.54,42.00 114.05,42.00 124.56,42.00 135.08,42.00 145.59,42.00 156.10,42.00 166.62,42.00 177.13,42.00 187.64,42.00 198.15,42.00 208.67,42.00 219.18,42.00 229.69,42.00 240.21,42.00 250.72,42.00 261.23,42.00 271.74,42.00 282.26,82.80 292.77,42.00 303.28,42.00 313.79,42.00 324.31,42.00 334.82,42.00 345.33,42.00 355.85,42.00 366.36,42.00 376.87,42.00 387.38,42.00 397.90,42.00 408.41,42.00 418.92,82.80 429.44,42.00 439.95,42.00 450.46,42.00 460.97,42.00 471.49,42.00 482.00,42.00 492.51,42.00 503.03,42.00 513.54,42.00 524.05,82.80 534.56,42.00 545.08,42.00 555.59,42.00 566.10,42.00 576.62,42.00 587.13,42.00 597.64,42.00 608.15,42.00 618.67,42.00 629.18,42.00 639.69,42.00 650.21,42.00 660.72,42.00 671.23,42.00 681.74,42.00 692.26,42.00 702.77,42.00 713.28,42.00 723.79,42.00 734.31,42.00 744.82,42.00 755.33,42.00 765.85,42.00 776.36,42.00 786.87,42.00 797.38,42.00 807.90,42.00 818.41,42.00 828.92,42.00 839.44,42.00 849.95,42.00 860.46,42.00 870.97,42.00 881.49,42.00 892.00,42.00"/>
</svg>
