<svg xmlns="http://www.w3.org/2000/svg" width="920" height="300" viewBox="0 0 920 300">
<rect width="100%" height="100%" fill="#ffffff"/>
<text x="72" y="24" font-family="Arial, sans-serif" font-size="16" font-weight="700" fill="#111827">BrowserLanguage row-group cardinality</text>
<text x="72" y="288" font-family="Arial, sans-serif" font-size="11" fill="#6b7280">page/row-group index</text>
<text x="18" y="144" transform="rotate(-90 18 144)" font-family="Arial, sans-serif" font-size="11" fill="#6b7280">distinct values</text>
<line x1="72" y1="246.00" x2="892" y2="246.00" stroke="#e5e7eb" stroke-width="1"/>
<text x="64" y="249.00" font-family="Arial, sans-serif" font-size="10" text-anchor="end" fill="#6b7280">3</text>
<line x1="72" y1="195.00" x2="892" y2="195.00" stroke="#e5e7eb" stroke-width="1"/>
<text x="64" y="198.00" font-family="Arial, sans-serif" font-size="10" text-anchor="end" fill="#6b7280">5.75</text>
<line x1="72" y1="144.00" x2="892" y2="144.00" stroke="#e5e7eb" stroke-width="1"/>
<text x="64" y="147.00" font-family="Arial, sans-serif" font-size="10" text-anchor="end" fill="#6b7280">8.50</text>
<line x1="72" y1="93.00" x2="892" y2="93.00" stroke="#e5e7eb" stroke-width="1"/>
<text x="64" y="96.00" font-family="Arial, sans-serif" font-size="10" text-anchor="end" fill="#6b7280">11.25</text>
<line x1="72" y1="42.00" x2="892" y2="42.00" stroke="#e5e7eb" stroke-width="1"/>
<text x="64" y="45.00" font-family="Arial, sans-serif" font-size="10" text-anchor="end" fill="#6b7280">14</text>
<line x1="72" y1="246" x2="892" y2="246" stroke="#9ca3af" stroke-width="1"/>
<line x1="72" y1="42" x2="72" y2="246" stroke="#9ca3af" stroke-width="1"/>
<circle cx="72" cy="266" r="4" fill="#2563eb"/>
<text x="80" y="270" font-family="Arial, sans-serif" font-size="11" fill="#374151">row group cardinality</text>
<polyline fill="none" stroke="#2563eb" stroke-width="1.8" points="72.00,208.91 82.51,227.45 93.03,190.36 103.54,171.82 114.05,190.36 124.56,208.91 135.08,116.18 145.59,208.91 156.10,190.36 166.62,134.73 177.13,208.91 187.64,208.91 198.15,171.82 208.67,171.82 219.18,171.82 229.69,208.91 240.21,190.36 250.72,190.36 261.23,208.91 271.74,208.91 282.26,208.91 292.77,208.91 303.28,153.27 313.79,171.82 324.31,153.27 334.82,190.36 345.33,227.45 355.85,171.82 366.36,190.36 376.87,190.36 387.38,171.82 397.90,208.91 408.41,171.82 418.92,227.45 429.44,227.45 439.95,246.00 450.46,227.45 460.97,246.00 471.49,208.91 482.00,227.45 492.51,208.91 503.03,227.45 513.54,171.82 524.05,171.82 534.56,134.73 545.08,79.09 555.59,134.73 566.10,171.82 576.62,190.36 587.13,171.82 597.64,153.27 608.15,134.73 618.67,134.73 629.18,134.73 639.69,153.27 650.21,42.00 660.72,153.27 671.23,153.27 681.74,79.09 692.26,153.27 702.77,116.18 713.28,97.64 723.79,116.18 734.31,116.18 744.82,97.64 755.33,97.64 765.85,116.18 776.36,134.73 786.87,97.64 797.38,97.64 807.90,97.64 818.41,116.18 828.92,116.18 839.44,79.09 849.95,97.64 860.46,97.64 870.97,153.27 881.49,79.09 892.00,153.27"/>
</svg>
