<svg xmlns="http://www.w3.org/2000/svg" width="920" height="300" viewBox="0 0 920 300">
<rect width="100%" height="100%" fill="#ffffff"/>
<text x="72" y="24" font-family="Arial, sans-serif" font-size="16" font-weight="700" fill="#111827">ClientEventTime page cardinality per row group</text>
<text x="72" y="288" font-family="Arial, sans-serif" font-size="11" fill="#6b7280">page/row-group index</text>
<text x="18" y="144" transform="rotate(-90 18 144)" font-family="Arial, sans-serif" font-size="11" fill="#6b7280">distinct values</text>
<line x1="72" y1="246.00" x2="892" y2="246.00" stroke="#e5e7eb" stroke-width="1"/>
<text x="64" y="249.00" font-family="Arial, sans-serif" font-size="10" text-anchor="end" fill="#6b7280">5666</text>
<line x1="72" y1="195.00" x2="892" y2="195.00" stroke="#e5e7eb" stroke-width="1"/>
<text x="64" y="198.00" font-family="Arial, sans-serif" font-size="10" text-anchor="end" fill="#6b7280">7519</text>
<line x1="72" y1="144.00" x2="892" y2="144.00" stroke="#e5e7eb" stroke-width="1"/>
<text x="64" y="147.00" font-family="Arial, sans-serif" font-size="10" text-anchor="end" fill="#6b7280">9372</text>
<line x1="72" y1="93.00" x2="892" y2="93.00" stroke="#e5e7eb" stroke-width="1"/>
<text x="64" y="96.00" font-family="Arial, sans-serif" font-size="10" text-anchor="end" fill="#6b7280">11225</text>
<line x1="72" y1="42.00" x2="892" y2="42.00" stroke="#e5e7eb" stroke-width="1"/>
<text x="64" y="45.00" font-family="Arial, sans-serif" font-size="10" text-anchor="end" fill="#6b7280">13078</text>
<line x1="72" y1="246" x2="892" y2="246" stroke="#9ca3af" stroke-width="1"/>
<line x1="72" y1="42" x2="72" y2="246" stroke="#9ca3af" stroke-width="1"/>
<circle cx="72" cy="266" r="4" fill="#0f766e"/>
<text x="80" y="270" font-family="Arial, sans-serif" font-size="11" fill="#374151">min page cardinality</text>
<circle cx="252" cy="266" r="4" fill="#b91c1c"/>
<text x="260" y="270" font-family="Arial, sans-serif" font-size="11" fill="#374151">max page cardinality</text>
<polyline fill="none" stroke="#0f766e" stroke-width="1.8" points="72.00,244.13 82.51,243.85 93.03,243.28 103.54,242.81 114.05,240.06 124.56,240.91 135.08,245.12 145.59,243.22 156.10,243.47 166.62,243.50 177.13,241.57 187.64,240.41 198.15,246.00 208.67,243.19 219.18,242.34 229.69,241.24 240.21,240.36 250.72,240.77 261.23,240.44 271.74,242.78 282.26,241.38 292.77,242.53 303.28,243.85 313.79,241.54 324.31,242.70 334.82,242.34 345.33,241.46 355.85,240.52 366.36,240.83 376.87,242.01 387.38,244.10 397.90,241.60 408.41,239.70 418.92,241.73 429.44,242.75 439.95,240.72 450.46,241.57 460.97,238.82 471.49,242.09 482.00,241.49 492.51,241.10 503.03,245.06 513.54,229.27 524.05,104.81 534.56,107.75 545.08,111.36 555.59,103.62 566.10,101.42 576.62,100.24 587.13,44.56 597.64,47.64 608.15,51.03 618.67,52.49 629.18,50.89 639.69,59.72 650.21,55.43 660.72,44.53 671.23,47.70 681.74,48.99 692.26,53.53 702.77,48.72 713.28,47.28 723.79,47.23 734.31,54.00 744.82,47.26 755.33,52.87 765.85,48.19 776.36,55.73 786.87,50.48 797.38,45.25 807.90,43.05 818.41,48.66 828.92,47.06 839.44,54.14 849.95,45.25 860.46,42.00 870.97,51.47 881.49,51.58 892.00,159.94"/>
<polyline fill="none" stroke="#b91c1c" stroke-width="1.8" points="72.00,244.13 82.51,243.85 93.03,243.28 103.54,242.81 114.05,240.06 124.56,240.91 135.08,245.12 145.59,243.22 156.10,243.47 166.62,243.50 177.13,241.57 187.64,240.41 198.15,246.00 208.67,243.19 219.18,242.34 229.69,241.24 240.21,240.36 250.72,240.77 261.23,240.44 271.74,242.78 282.26,241.38 292.77,242.53 303.28,243.85 313.79,241.54 324.31,242.70 334.82,242.34 345.33,241.46 355.85,240.52 366.36,240.83 376.87,242.01 387.38,244.10 397.90,241.60 408.41,239.70 418.92,241.73 429.44,242.75 439.95,240.72 450.46,241.57 460.97,238.82 471.49,242.09 482.00,241.49 492.51,241.10 503.03,245.06 513.54,229.27 524.05,104.81 534.56,107.75 545.08,111.36 555.59,103.62 566.10,101.42 576.62,100.24 587.13,44.56 597.64,47.64 608.15,51.03 618.67,52.49 629.18,50.89 639.69,59.72 650.21,55.43 660.72,44.53 671.23,47.70 681.74,48.99 692.26,53.53 702.77,48.72 713.28,47.28 723.79,47.23 734.31,54.00 744.82,47.26 755.33,52.87 765.85,48.19 776.36,55.73 786.87,50.48 797.38,45.25 807.90,43.05 818.41,48.66 828.92,47.06 839.44,54.14 849.95,45.25 860.46,42.00 870.97,51.47 881.49,51.58 892.00,159.94"/>
</svg>
