<svg xmlns="http://www.w3.org/2000/svg" width="920" height="300" viewBox="0 0 920 300">
<rect width="100%" height="100%" fill="#ffffff"/>
<text x="72" y="24" font-family="Arial, sans-serif" font-size="16" font-weight="700" fill="#111827">ClientTimeZone page cardinality per row group</text>
<text x="72" y="288" font-family="Arial, sans-serif" font-size="11" fill="#6b7280">page/row-group index</text>
<text x="18" y="144" transform="rotate(-90 18 144)" font-family="Arial, sans-serif" font-size="11" fill="#6b7280">distinct values</text>
<line x1="72" y1="246.00" x2="892" y2="246.00" stroke="#e5e7eb" stroke-width="1"/>
<text x="64" y="249.00" font-family="Arial, sans-serif" font-size="10" text-anchor="end" fill="#6b7280">10</text>
<line x1="72" y1="195.00" x2="892" y2="195.00" stroke="#e5e7eb" stroke-width="1"/>
<text x="64" y="198.00" font-family="Arial, sans-serif" font-size="10" text-anchor="end" fill="#6b7280">12.50</text>
<line x1="72" y1="144.00" x2="892" y2="144.00" stroke="#e5e7eb" stroke-width="1"/>
<text x="64" y="147.00" font-family="Arial, sans-serif" font-size="10" text-anchor="end" fill="#6b7280">15</text>
<line x1="72" y1="93.00" x2="892" y2="93.00" stroke="#e5e7eb" stroke-width="1"/>
<text x="64" y="96.00" font-family="Arial, sans-serif" font-size="10" text-anchor="end" fill="#6b7280">17.50</text>
<line x1="72" y1="42.00" x2="892" y2="42.00" stroke="#e5e7eb" stroke-width="1"/>
<text x="64" y="45.00" font-family="Arial, sans-serif" font-size="10" text-anchor="end" fill="#6b7280">20</text>
<line x1="72" y1="246" x2="892" y2="246" stroke="#9ca3af" stroke-width="1"/>
<line x1="72" y1="42" x2="72" y2="246" stroke="#9ca3af" stroke-width="1"/>
<circle cx="72" cy="266" r="4" fill="#0f766e"/>
<text x="80" y="270" font-family="Arial, sans-serif" font-size="11" fill="#374151">min page cardinality</text>
<circle cx="252" cy="266" r="4" fill="#b91c1c"/>
<text x="260" y="270" font-family="Arial, sans-serif" font-size="11" fill="#374151">max page cardinality</text>
<polyline fill="none" stroke="#0f766e" stroke-width="1.8" points="72.00,164.40 82.51,184.80 93.03,164.40 103.54,144.00 114.05,103.20 124.56,123.60 135.08,184.80 145.59,144.00 156.10,164.40 166.62,144.00 177.13,164.40 187.64,205.20 198.15,184.80 208.67,184.80 219.18,205.20 229.69,184.80 240.21,184.80 250.72,184.80 261.23,144.00 271.74,184.80 282.26,184.80 292.77,184.80 303.28,123.60 313.79,184.80 324.31,164.40 334.82,164.40 345.33,246.00 355.85,144.00 366.36,144.00 376.87,164.40 387.38,184.80 397.90,205.20 408.41,184.80 418.92,184.80 429.44,144.00 439.95,184.80 450.46,205.20 460.97,225.60 471.49,144.00 482.00,184.80 492.51,144.00 503.03,205.20 513.54,184.80 524.05,103.20 534.56,82.80 545.08,123.60 555.59,103.20 566.10,103.20 576.62,164.40 587.13,144.00 597.64,82.80 608.15,82.80 618.67,164.40 629.18,103.20 639.69,123.60 650.21,123.60 660.72,62.40 671.23,123.60 681.74,144.00 692.26,144.00 702.77,82.80 713.28,82.80 723.79,103.20 734.31,42.00 744.82,42.00 755.33,123.60 765.85,123.60 776.36,82.80 786.87,184.80 797.38,103.20 807.90,62.40 818.41,164.40 828.92,144.00 839.44,123.60 849.95,103.20 860.46,144.00 870.97,144.00 881.49,225.60 892.00,103.20"/>
<polyline fill="none" stroke="#b91c1c" stroke-width="1.8" points="72.00,164.40 82.51,184.80 93.03,164.40 103.54,144.00 114.05,103.20 124.56,123.60 135.08,184.80 145.59,144.00 156.10,164.40 166.62,144.00 177.13,164.40 187.64,205.20 198.15,184.80 208.67,184.80 219.18,205.20 229.69,184.80 240.21,184.80 250.72,184.80 261.23,144.00 271.74,184.80 282.26,184.80 292.77,184.80 303.28,123.60 313.79,184.80 324.31,164.40 334.82,164.40 345.33,246.00 355.85,144.00 366.36,144.00 376.87,164.40 387.38,184.80 397.90,205.20 408.41,184.80 418.92,184.80 429.44,144.00 439.95,184.80 450.46,205.20 460.97,225.60 471.49,144.00 482.00,184.80 492.51,144.00 503.03,205.20 513.54,184.80 524.05,103.20 534.56,82.80 545.08,123.60 555.59,103.20 566.10,103.20 576.62,164.40 587.13,144.00 597.64,82.80 608.15,82.80 618.67,164.40 629.18,103.20 639.69,123.60 650.21,123.60 660.72,62.40 671.23,123.60 681.74,144.00 692.26,144.00 702.77,82.80 713.28,82.80 723.79,103.20 734.31,42.00 744.82,42.00 755.33,123.60 765.85,123.60 776.36,82.80 786.87,184.80 797.38,103.20 807.90,62.40 818.41,164.40 828.92,144.00 839.44,123.60 849.95,103.20 860.46,144.00 870.97,144.00 881.49,225.60 892.00,103.20"/>
</svg>
