<svg xmlns="http://www.w3.org/2000/svg" width="920" height="300" viewBox="0 0 920 300">
<rect width="100%" height="100%" fill="#ffffff"/>
<text x="72" y="24" font-family="Arial, sans-serif" font-size="16" font-weight="700" fill="#111827">ClientIP row-group cardinality</text>
<text x="72" y="288" font-family="Arial, sans-serif" font-size="11" fill="#6b7280">page/row-group index</text>
<text x="18" y="144" transform="rotate(-90 18 144)" font-family="Arial, sans-serif" font-size="11" fill="#6b7280">distinct values</text>
<line x1="72" y1="246.00" x2="892" y2="246.00" stroke="#e5e7eb" stroke-width="1"/>
<text x="64" y="249.00" font-family="Arial, sans-serif" font-size="10" text-anchor="end" fill="#6b7280">744</text>
<line x1="72" y1="195.00" x2="892" y2="195.00" stroke="#e5e7eb" stroke-width="1"/>
<text x="64" y="198.00" font-family="Arial, sans-serif" font-size="10" text-anchor="end" fill="#6b7280">1047.25</text>
<line x1="72" y1="144.00" x2="892" y2="144.00" stroke="#e5e7eb" stroke-width="1"/>
<text x="64" y="147.00" font-family="Arial, sans-serif" font-size="10" text-anchor="end" fill="#6b7280">1350.50</text>
<line x1="72" y1="93.00" x2="892" y2="93.00" stroke="#e5e7eb" stroke-width="1"/>
<text x="64" y="96.00" font-family="Arial, sans-serif" font-size="10" text-anchor="end" fill="#6b7280">1653.75</text>
<line x1="72" y1="42.00" x2="892" y2="42.00" stroke="#e5e7eb" stroke-width="1"/>
<text x="64" y="45.00" font-family="Arial, sans-serif" font-size="10" text-anchor="end" fill="#6b7280">1957</text>
<line x1="72" y1="246" x2="892" y2="246" stroke="#9ca3af" stroke-width="1"/>
<line x1="72" y1="42" x2="72" y2="246" stroke="#9ca3af" stroke-width="1"/>
<circle cx="72" cy="266" r="4" fill="#2563eb"/>
<text x="80" y="270" font-family="Arial, sans-serif" font-size="11" fill="#374151">row group cardinality</text>
<polyline fill="none" stroke="#2563eb" stroke-width="1.8" points="72.00,224.81 82.51,206.48 93.03,234.40 103.54,226.49 114.05,227.67 124.56,227.67 135.08,231.70 145.59,225.82 156.10,215.56 166.62,220.27 177.13,236.58 187.64,222.62 198.15,227.16 208.67,235.07 219.18,245.33 229.69,246.00 240.21,225.15 250.72,215.73 261.23,230.36 271.74,231.37 282.26,238.26 292.77,219.76 303.28,235.74 313.79,228.34 324.31,222.12 334.82,231.70 345.33,243.65 355.85,222.96 366.36,232.55 376.87,231.20 387.38,243.81 397.90,237.93 408.41,235.74 418.92,243.81 429.44,243.48 439.95,230.36 450.46,229.69 460.97,239.61 471.49,212.03 482.00,236.75 492.51,228.51 503.03,235.40 513.54,207.49 524.05,49.74 534.56,42.00 545.08,42.50 555.59,54.45 566.10,64.70 576.62,90.10 587.13,137.86 597.64,175.37 608.15,162.25 618.67,168.13 629.18,172.34 639.69,170.66 650.21,160.57 660.72,145.09 671.23,184.45 681.74,144.08 692.26,170.99 702.77,151.99 713.28,156.87 723.79,167.29 734.31,177.22 744.82,158.21 755.33,170.32 765.85,175.87 776.36,169.82 786.87,155.18 797.38,149.97 807.90,149.47 818.41,164.60 828.92,156.53 839.44,149.47 849.95,142.23 860.46,151.48 870.97,147.11 881.49,172.17 892.00,244.99"/>
</svg>
