<svg xmlns="http://www.w3.org/2000/svg" width="920" height="300" viewBox="0 0 920 300">
<rect width="100%" height="100%" fill="#ffffff"/>
<text x="72" y="24" font-family="Arial, sans-serif" font-size="16" font-weight="700" fill="#111827">ClientIP page min/max</text>
<text x="72" y="288" font-family="Arial, sans-serif" font-size="11" fill="#6b7280">page/row-group index</text>
<text x="18" y="144" transform="rotate(-90 18 144)" font-family="Arial, sans-serif" font-size="11" fill="#6b7280">value</text>
<line x1="72" y1="246.00" x2="892" y2="246.00" stroke="#e5e7eb" stroke-width="1"/>
<text x="64" y="249.00" font-family="Arial, sans-serif" font-size="10" text-anchor="end" fill="#6b7280">-2.15e+09</text>
<line x1="72" y1="195.00" x2="892" y2="195.00" stroke="#e5e7eb" stroke-width="1"/>
<text x="64" y="198.00" font-family="Arial, sans-serif" font-size="10" text-anchor="end" fill="#6b7280">-1.07e+09</text>
<line x1="72" y1="144.00" x2="892" y2="144.00" stroke="#e5e7eb" stroke-width="1"/>
<text x="64" y="147.00" font-family="Arial, sans-serif" font-size="10" text-anchor="end" fill="#6b7280">33071.50</text>
<line x1="72" y1="93.00" x2="892" y2="93.00" stroke="#e5e7eb" stroke-width="1"/>
<text x="64" y="96.00" font-family="Arial, sans-serif" font-size="10" text-anchor="end" fill="#6b7280">1.07e+09</text>
<line x1="72" y1="42.00" x2="892" y2="42.00" stroke="#e5e7eb" stroke-width="1"/>
<text x="64" y="45.00" font-family="Arial, sans-serif" font-size="10" text-anchor="end" fill="#6b7280">2.15e+09</text>
<line x1="72" y1="246" x2="892" y2="246" stroke="#9ca3af" stroke-width="1"/>
<line x1="72" y1="42" x2="72" y2="246" stroke="#9ca3af" stroke-width="1"/>
<circle cx="72" cy="266" r="4" fill="#2563eb"/>
<text x="80" y="270" font-family="Arial, sans-serif" font-size="11" fill="#374151">page min</text>
<circle cx="252" cy="266" r="4" fill="#b91c1c"/>
<text x="260" y="270" font-family="Arial, sans-serif" font-size="11" fill="#374151">page max</text>
<polyline fill="none" stroke="#2563eb" stroke-width="1.8" points="72.00,245.62 82.51,245.58 93.03,245.58 103.54,245.81 114.05,245.79 124.56,245.62 135.08,245.60 145.59,245.98 156.10,245.97 166.62,245.14 177.13,245.78 187.64,245.97 198.15,245.51 208.67,245.90 219.18,245.62 229.69,245.82 240.21,245.58 250.72,244.68 261.23,245.60 271.74,245.73 282.26,245.69 292.77,245.49 303.28,245.95 313.79,245.86 324.31,245.85 334.82,245.97 345.33,245.58 355.85,245.96 366.36,244.65 376.87,245.80 387.38,244.97 397.90,245.97 408.41,245.66 418.92,245.88 429.44,245.59 439.95,245.75 450.46,245.97 460.97,245.95 471.49,245.93 482.00,245.58 492.51,245.98 503.03,245.97 513.54,244.44 524.05,245.16 534.56,245.88 545.08,245.67 555.59,245.87 566.10,245.97 576.62,246.00 587.13,245.87 597.64,245.95 608.15,245.98 618.67,245.47 629.18,245.97 639.69,245.87 650.21,245.81 660.72,246.00 671.23,245.77 681.74,245.98 692.26,245.68 702.77,245.96 713.28,245.95 723.79,245.46 734.31,245.86 744.82,245.81 755.33,245.98 765.85,245.72 776.36,245.46 786.87,245.86 797.38,245.97 807.90,245.84 818.41,245.72 828.92,245.61 839.44,245.72 849.95,245.81 860.46,245.91 870.97,245.94 881.49,245.96 892.00,246.00"/>
<polyline fill="none" stroke="#b91c1c" stroke-width="1.8" points="72.00,42.12 82.51,42.29 93.03,42.03 103.54,42.02 114.05,42.14 124.56,42.01 135.08,42.02 145.59,42.10 156.10,42.01 166.62,42.17 177.13,42.07 187.64,42.33 198.15,42.02 208.67,42.02 219.18,42.01 229.69,42.46 240.21,42.02 250.72,42.19 261.23,42.07 271.74,42.03 282.26,42.11 292.77,42.27 303.28,42.10 313.79,42.15 324.31,42.07 334.82,42.11 345.33,42.11 355.85,42.02 366.36,42.11 376.87,42.11 387.38,42.03 397.90,42.06 408.41,42.11 418.92,42.14 429.44,42.15 439.95,42.17 450.46,42.15 460.97,42.14 471.49,42.23 482.00,42.36 492.51,42.19 503.03,42.04 513.54,42.01 524.05,42.00 534.56,42.01 545.08,42.10 555.59,42.07 566.10,42.03 576.62,42.02 587.13,42.01 597.64,42.07 608.15,42.25 618.67,42.02 629.18,42.04 639.69,42.27 650.21,42.01 660.72,42.17 671.23,42.27 681.74,42.02 692.26,42.16 702.77,42.01 713.28,42.01 723.79,42.08 734.31,42.02 744.82,42.00 755.33,42.21 765.85,42.00 776.36,42.01 786.87,42.00 797.38,42.14 807.90,42.00 818.41,42.13 828.92,42.22 839.44,42.11 849.95,42.06 860.46,42.02 870.97,42.02 881.49,42.09 892.00,42.09"/>
</svg>
