<svg xmlns="http://www.w3.org/2000/svg" width="920" height="300" viewBox="0 0 920 300">
<rect width="100%" height="100%" fill="#ffffff"/>
<text x="72" y="24" font-family="Arial, sans-serif" font-size="16" font-weight="700" fill="#111827">ClientTimeZone page min/max</text>
<text x="72" y="288" font-family="Arial, sans-serif" font-size="11" fill="#6b7280">page/row-group index</text>
<text x="18" y="144" transform="rotate(-90 18 144)" font-family="Arial, sans-serif" font-size="11" fill="#6b7280">value</text>
<line x1="72" y1="246.00" x2="892" y2="246.00" stroke="#e5e7eb" stroke-width="1"/>
<text x="64" y="249.00" font-family="Arial, sans-serif" font-size="10" text-anchor="end" fill="#6b7280">-961</text>
<line x1="72" y1="195.00" x2="892" y2="195.00" stroke="#e5e7eb" stroke-width="1"/>
<text x="64" y="198.00" font-family="Arial, sans-serif" font-size="10" text-anchor="end" fill="#6b7280">-476.75</text>
<line x1="72" y1="144.00" x2="892" y2="144.00" stroke="#e5e7eb" stroke-width="1"/>
<text x="64" y="147.00" font-family="Arial, sans-serif" font-size="10" text-anchor="end" fill="#6b7280">7.50</text>
<line x1="72" y1="93.00" x2="892" y2="93.00" stroke="#e5e7eb" stroke-width="1"/>
<text x="64" y="96.00" font-family="Arial, sans-serif" font-size="10" text-anchor="end" fill="#6b7280">491.75</text>
<line x1="72" y1="42.00" x2="892" y2="42.00" stroke="#e5e7eb" stroke-width="1"/>
<text x="64" y="45.00" font-family="Arial, sans-serif" font-size="10" text-anchor="end" fill="#6b7280">976</text>
<line x1="72" y1="246" x2="892" y2="246" stroke="#9ca3af" stroke-width="1"/>
<line x1="72" y1="42" x2="72" y2="246" stroke="#9ca3af" stroke-width="1"/>
<circle cx="72" cy="266" r="4" fill="#2563eb"/>
<text x="80" y="270" font-family="Arial, sans-serif" font-size="11" fill="#374151">page min</text>
<circle cx="252" cy="266" r="4" fill="#b91c1c"/>
<text x="260" y="270" font-family="Arial, sans-serif" font-size="11" fill="#374151">page max</text>
<polyline fill="none" stroke="#2563eb" stroke-width="1.8" points="72.00,186.60 82.51,178.70 93.03,186.60 103.54,228.41 114.05,216.72 124.56,216.72 135.08,178.70 145.59,178.70 156.10,144.90 166.62,216.72 177.13,178.70 187.64,178.70 198.15,144.90 208.67,144.90 219.18,144.90 229.69,228.41 240.21,159.01 250.72,178.70 261.23,178.70 271.74,178.70 282.26,228.41 292.77,186.60 303.28,159.01 313.79,178.70 324.31,178.70 334.82,216.72 345.33,159.01 355.85,228.41 366.36,178.70 376.87,216.72 387.38,178.70 397.90,216.72 408.41,178.70 418.92,228.41 429.44,216.72 439.95,178.70 450.46,144.90 460.97,216.72 471.49,228.41 482.00,144.90 492.51,216.72 503.03,144.90 513.54,178.70 524.05,178.70 534.56,216.72 545.08,178.70 555.59,228.41 566.10,228.41 576.62,178.70 587.13,216.72 597.64,178.70 608.15,246.00 618.67,144.90 629.18,228.41 639.69,216.72 650.21,178.70 660.72,186.60 671.23,175.44 681.74,178.70 692.26,178.70 702.77,178.70 713.28,178.70 723.79,216.72 734.31,216.72 744.82,244.53 755.33,178.70 765.85,186.60 776.36,216.72 786.87,144.90 797.38,216.72 807.90,178.70 818.41,178.70 828.92,178.70 839.44,178.70 849.95,216.72 860.46,178.70 870.97,216.72 881.49,170.38 892.00,178.70"/>
<polyline fill="none" stroke="#b91c1c" stroke-width="1.8" points="72.00,42.00 82.51,42.00 93.03,42.00 103.54,42.00 114.05,42.00 124.56,42.00 135.08,42.00 145.59,42.00 156.10,42.00 166.62,42.00 177.13,42.00 187.64,61.17 198.15,42.00 208.67,42.00 219.18,42.00 229.69,42.00 240.21,42.00 250.72,42.00 261.23,42.00 271.74,42.00 282.26,42.00 292.77,42.00 303.28,42.00 313.79,42.00 324.31,42.00 334.82,42.00 345.33,61.17 355.85,42.00 366.36,42.00 376.87,42.00 387.38,42.00 397.90,42.00 408.41,42.00 418.92,61.17 429.44,42.00 439.95,42.00 450.46,42.00 460.97,61.17 471.49,42.00 482.00,42.00 492.51,42.00 503.03,42.00 513.54,42.00 524.05,42.00 534.56,42.00 545.08,42.00 555.59,42.00 566.10,42.00 576.62,42.00 587.13,42.00 597.64,42.00 608.15,42.00 618.67,42.00 629.18,42.00 639.69,42.00 650.21,42.00 660.72,42.00 671.23,42.00 681.74,42.00 692.26,42.00 702.77,42.00 713.28,42.00 723.79,42.00 734.31,42.00 744.82,42.00 755.33,42.00 765.85,42.00 776.36,42.00 786.87,42.00 797.38,42.00 807.90,42.00 818.41,42.00 828.92,42.00 839.44,42.00 849.95,42.00 860.46,42.00 870.97,42.00 881.49,42.00 892.00,42.00"/>
</svg>
