<svg xmlns="http://www.w3.org/2000/svg" width="920" height="300" viewBox="0 0 920 300">
<rect width="100%" height="100%" fill="#ffffff"/>
<text x="72" y="24" font-family="Arial, sans-serif" font-size="16" font-weight="700" fill="#111827">ClientEventTime page min/max</text>
<text x="72" y="288" font-family="Arial, sans-serif" font-size="11" fill="#6b7280">page/row-group index</text>
<text x="18" y="144" transform="rotate(-90 18 144)" font-family="Arial, sans-serif" font-size="11" fill="#6b7280">value</text>
<line x1="72" y1="246.00" x2="892" y2="246.00" stroke="#e5e7eb" stroke-width="1"/>
<text x="64" y="249.00" font-family="Arial, sans-serif" font-size="10" text-anchor="end" fill="#6b7280">3.15e+10</text>
<line x1="72" y1="195.00" x2="892" y2="195.00" stroke="#e5e7eb" stroke-width="1"/>
<text x="64" y="198.00" font-family="Arial, sans-serif" font-size="10" text-anchor="end" fill="#6b7280">4.58e+11</text>
<line x1="72" y1="144.00" x2="892" y2="144.00" stroke="#e5e7eb" stroke-width="1"/>
<text x="64" y="147.00" font-family="Arial, sans-serif" font-size="10" text-anchor="end" fill="#6b7280">8.85e+11</text>
<line x1="72" y1="93.00" x2="892" y2="93.00" stroke="#e5e7eb" stroke-width="1"/>
<text x="64" y="96.00" font-family="Arial, sans-serif" font-size="10" text-anchor="end" fill="#6b7280">1.31e+12</text>
<line x1="72" y1="42.00" x2="892" y2="42.00" stroke="#e5e7eb" stroke-width="1"/>
<text x="64" y="45.00" font-family="Arial, sans-serif" font-size="10" text-anchor="end" fill="#6b7280">1.74e+12</text>
<line x1="72" y1="246" x2="892" y2="246" stroke="#9ca3af" stroke-width="1"/>
<line x1="72" y1="42" x2="72" y2="246" stroke="#9ca3af" stroke-width="1"/>
<circle cx="72" cy="266" r="4" fill="#2563eb"/>
<text x="80" y="270" font-family="Arial, sans-serif" font-size="11" fill="#374151">page min</text>
<circle cx="252" cy="266" r="4" fill="#b91c1c"/>
<text x="260" y="270" font-family="Arial, sans-serif" font-size="11" fill="#374151">page max</text>
<polyline fill="none" stroke="#2563eb" stroke-width="1.8" points="72.00,246.00 82.51,246.00 93.03,246.00 103.54,245.99 114.05,245.99 124.56,245.99 135.08,246.00 145.59,245.99 156.10,246.00 166.62,245.99 177.13,246.00 187.64,246.00 198.15,245.99 208.67,246.00 219.18,245.99 229.69,246.00 240.21,246.00 250.72,246.00 261.23,245.99 271.74,246.00 282.26,125.35 292.77,246.00 303.28,246.00 313.79,246.00 324.31,246.00 334.82,246.00 345.33,246.00 355.85,245.99 366.36,246.00 376.87,246.00 387.38,246.00 397.90,245.99 408.41,246.00 418.92,129.12 429.44,246.00 439.95,246.00 450.46,245.99 460.97,246.00 471.49,246.00 482.00,246.00 492.51,246.00 503.03,246.00 513.54,245.99 524.05,129.09 534.56,245.99 545.08,246.00 555.59,125.37 566.10,93.18 576.62,246.00 587.13,246.00 597.64,246.00 608.15,245.99 618.67,245.99 629.18,129.11 639.69,246.00 650.21,246.00 660.72,246.00 671.23,246.00 681.74,246.00 692.26,117.81 702.77,246.00 713.28,246.00 723.79,246.00 734.31,245.99 744.82,246.00 755.33,246.00 765.85,246.00 776.36,245.99 786.87,246.00 797.38,246.00 807.90,246.00 818.41,246.00 828.92,246.00 839.44,246.00 849.95,246.00 860.46,246.00 870.97,246.00 881.49,245.99 892.00,246.00"/>
<polyline fill="none" stroke="#b91c1c" stroke-width="1.8" points="72.00,85.45 82.51,85.47 93.03,85.32 103.54,85.33 114.05,85.01 124.56,85.64 135.08,85.32 145.59,85.34 156.10,85.62 166.62,84.39 177.13,85.63 187.64,85.62 198.15,85.01 208.67,85.59 219.18,85.63 229.69,85.61 240.21,85.33 250.72,85.48 261.23,85.63 271.74,85.63 282.26,85.63 292.77,85.63 303.28,77.80 313.79,85.63 324.31,85.01 334.82,85.63 345.33,85.62 355.85,81.82 366.36,85.63 376.87,85.60 387.38,85.62 397.90,85.62 408.41,42.00 418.92,85.63 429.44,85.45 439.95,85.63 450.46,85.64 460.97,85.45 471.49,85.33 482.00,84.76 492.51,85.63 503.03,85.64 513.54,85.33 524.05,84.31 534.56,85.33 545.08,85.60 555.59,85.34 566.10,85.58 576.62,84.48 587.13,85.62 597.64,85.58 608.15,85.63 618.67,58.92 629.18,83.67 639.69,85.64 650.21,85.32 660.72,85.33 671.23,85.33 681.74,85.32 692.26,85.34 702.77,84.39 713.28,85.54 723.79,85.63 734.31,85.59 744.82,85.44 755.33,85.30 765.85,85.63 776.36,85.63 786.87,85.02 797.38,85.63 807.90,85.59 818.41,84.70 828.92,85.58 839.44,85.23 849.95,85.62 860.46,85.63 870.97,85.64 881.49,85.63 892.00,85.39"/>
</svg>
