<svg xmlns="http://www.w3.org/2000/svg" width="920" height="300" viewBox="0 0 920 300">
<rect width="100%" height="100%" fill="#ffffff"/>
<text x="72" y="24" font-family="Arial, sans-serif" font-size="16" font-weight="700" fill="#111827">ConnectTiming page cardinality per row group</text>
<text x="72" y="288" font-family="Arial, sans-serif" font-size="11" fill="#6b7280">page/row-group index</text>
<text x="18" y="144" transform="rotate(-90 18 144)" font-family="Arial, sans-serif" font-size="11" fill="#6b7280">distinct values</text>
<line x1="72" y1="246.00" x2="892" y2="246.00" stroke="#e5e7eb" stroke-width="1"/>
<text x="64" y="249.00" font-family="Arial, sans-serif" font-size="10" text-anchor="end" fill="#6b7280">117</text>
<line x1="72" y1="195.00" x2="892" y2="195.00" stroke="#e5e7eb" stroke-width="1"/>
<text x="64" y="198.00" font-family="Arial, sans-serif" font-size="10" text-anchor="end" fill="#6b7280">244.75</text>
<line x1="72" y1="144.00" x2="892" y2="144.00" stroke="#e5e7eb" stroke-width="1"/>
<text x="64" y="147.00" font-family="Arial, sans-serif" font-size="10" text-anchor="end" fill="#6b7280">372.50</text>
<line x1="72" y1="93.00" x2="892" y2="93.00" stroke="#e5e7eb" stroke-width="1"/>
<text x="64" y="96.00" font-family="Arial, sans-serif" font-size="10" text-anchor="end" fill="#6b7280">500.25</text>
<line x1="72" y1="42.00" x2="892" y2="42.00" stroke="#e5e7eb" stroke-width="1"/>
<text x="64" y="45.00" font-family="Arial, sans-serif" font-size="10" text-anchor="end" fill="#6b7280">628</text>
<line x1="72" y1="246" x2="892" y2="246" stroke="#9ca3af" stroke-width="1"/>
<line x1="72" y1="42" x2="72" y2="246" stroke="#9ca3af" stroke-width="1"/>
<circle cx="72" cy="266" r="4" fill="#0f766e"/>
<text x="80" y="270" font-family="Arial, sans-serif" font-size="11" fill="#374151">min page cardinality</text>
<circle cx="252" cy="266" r="4" fill="#b91c1c"/>
<text x="260" y="270" font-family="Arial, sans-serif" font-size="11" fill="#374151">max page cardinality</text>
<polyline fill="none" stroke="#0f766e" stroke-width="1.8" points="72.00,237.22 82.51,230.43 93.03,209.67 103.54,214.06 114.05,228.83 124.56,215.66 135.08,223.24 145.59,222.45 156.10,225.24 166.62,197.69 177.13,221.25 187.64,235.22 198.15,200.09 208.67,209.67 219.18,218.45 229.69,227.64 240.21,216.86 250.72,228.83 261.23,218.85 271.74,229.63 282.26,207.68 292.77,205.68 303.28,216.06 313.79,204.08 324.31,231.63 334.82,222.45 345.33,228.04 355.85,222.85 366.36,199.29 376.87,239.61 387.38,234.42 397.90,224.04 408.41,217.66 418.92,238.81 429.44,241.61 439.95,206.48 450.46,229.63 460.97,233.23 471.49,237.62 482.00,237.62 492.51,246.00 503.03,224.44 513.54,226.84 524.05,171.35 534.56,171.75 545.08,159.37 555.59,174.94 566.10,146.99 576.62,148.59 587.13,100.68 597.64,110.67 608.15,93.50 618.67,59.57 629.18,114.26 639.69,96.29 650.21,89.91 660.72,89.11 671.23,95.89 681.74,94.70 692.26,99.49 702.77,108.27 713.28,99.09 723.79,113.06 734.31,85.51 744.82,68.75 755.33,87.51 765.85,80.72 776.36,109.87 786.87,98.69 797.38,69.55 807.90,42.00 818.41,66.35 828.92,96.69 839.44,95.50 849.95,82.72 860.46,91.10 870.97,105.87 881.49,76.73 892.00,143.00"/>
<polyline fill="none" stroke="#b91c1c" stroke-width="1.8" points="72.00,237.22 82.51,230.43 93.03,209.67 103.54,214.06 114.05,228.83 124.56,215.66 135.08,223.24 145.59,222.45 156.10,225.24 166.62,197.69 177.13,221.25 187.64,235.22 198.15,200.09 208.67,209.67 219.18,218.45 229.69,227.64 240.21,216.86 250.72,228.83 261.23,218.85 271.74,229.63 282.26,207.68 292.77,205.68 303.28,216.06 313.79,204.08 324.31,231.63 334.82,222.45 345.33,228.04 355.85,222.85 366.36,199.29 376.87,239.61 387.38,234.42 397.90,224.04 408.41,217.66 418.92,238.81 429.44,241.61 439.95,206.48 450.46,229.63 460.97,233.23 471.49,237.62 482.00,237.62 492.51,246.00 503.03,224.44 513.54,226.84 524.05,171.35 534.56,171.75 545.08,159.37 555.59,174.94 566.10,146.99 576.62,148.59 587.13,100.68 597.64,110.67 608.15,93.50 618.67,59.57 629.18,114.26 639.69,96.29 650.21,89.91 660.72,89.11 671.23,95.89 681.74,94.70 692.26,99.49 702.77,108.27 713.28,99.09 723.79,113.06 734.31,85.51 744.82,68.75 755.33,87.51 765.85,80.72 776.36,109.87 786.87,98.69 797.38,69.55 807.90,42.00 818.41,66.35 828.92,96.69 839.44,95.50 849.95,82.72 860.46,91.10 870.97,105.87 881.49,76.73 892.00,143.00"/>
</svg>
