<svg xmlns="http://www.w3.org/2000/svg" width="920" height="300" viewBox="0 0 920 300">
<rect width="100%" height="100%" fill="#ffffff"/>
<text x="72" y="24" font-family="Arial, sans-serif" font-size="16" font-weight="700" fill="#111827">CounterID page min/max</text>
<text x="72" y="288" font-family="Arial, sans-serif" font-size="11" fill="#6b7280">page/row-group index</text>
<text x="18" y="144" transform="rotate(-90 18 144)" font-family="Arial, sans-serif" font-size="11" fill="#6b7280">value</text>
<line x1="72" y1="246.00" x2="892" y2="246.00" stroke="#e5e7eb" stroke-width="1"/>
<text x="64" y="249.00" font-family="Arial, sans-serif" font-size="10" text-anchor="end" fill="#6b7280">17</text>
<line x1="72" y1="195.00" x2="892" y2="195.00" stroke="#e5e7eb" stroke-width="1"/>
<text x="64" y="198.00" font-family="Arial, sans-serif" font-size="10" text-anchor="end" fill="#6b7280">28.25</text>
<line x1="72" y1="144.00" x2="892" y2="144.00" stroke="#e5e7eb" stroke-width="1"/>
<text x="64" y="147.00" font-family="Arial, sans-serif" font-size="10" text-anchor="end" fill="#6b7280">39.50</text>
<line x1="72" y1="93.00" x2="892" y2="93.00" stroke="#e5e7eb" stroke-width="1"/>
<text x="64" y="96.00" font-family="Arial, sans-serif" font-size="10" text-anchor="end" fill="#6b7280">50.75</text>
<line x1="72" y1="42.00" x2="892" y2="42.00" stroke="#e5e7eb" stroke-width="1"/>
<text x="64" y="45.00" font-family="Arial, sans-serif" font-size="10" text-anchor="end" fill="#6b7280">62</text>
<line x1="72" y1="246" x2="892" y2="246" stroke="#9ca3af" stroke-width="1"/>
<line x1="72" y1="42" x2="72" y2="246" stroke="#9ca3af" stroke-width="1"/>
<circle cx="72" cy="266" r="4" fill="#2563eb"/>
<text x="80" y="270" font-family="Arial, sans-serif" font-size="11" fill="#374151">page min</text>
<circle cx="252" cy="266" r="4" fill="#b91c1c"/>
<text x="260" y="270" font-family="Arial, sans-serif" font-size="11" fill="#374151">page max</text>
<polyline fill="none" stroke="#2563eb" stroke-width="1.8" points="72.00,246.00 82.51,150.80 93.03,150.80 103.54,150.80 114.05,150.80 124.56,150.80 135.08,150.80 145.59,150.80 156.10,150.80 166.62,150.80 177.13,150.80 187.64,150.80 198.15,150.80 208.67,150.80 219.18,150.80 229.69,150.80 240.21,150.80 250.72,150.80 261.23,150.80 271.74,150.80 282.26,150.80 292.77,150.80 303.28,150.80 313.79,150.80 324.31,150.80 334.82,150.80 345.33,150.80 355.85,150.80 366.36,150.80 376.87,150.80 387.38,150.80 397.90,150.80 408.41,150.80 418.92,150.80 429.44,150.80 439.95,150.80 450.46,150.80 460.97,150.80 471.49,150.80 482.00,150.80 492.51,150.80 503.03,150.80 513.54,150.80 524.05,55.60 534.56,55.60 545.08,55.60 555.59,55.60 566.10,55.60 576.62,55.60 587.13,42.00 597.64,42.00 608.15,42.00 618.67,42.00 629.18,42.00 639.69,42.00 650.21,42.00 660.72,42.00 671.23,42.00 681.74,42.00 692.26,42.00 702.77,42.00 713.28,42.00 723.79,42.00 734.31,42.00 744.82,42.00 755.33,42.00 765.85,42.00 776.36,42.00 786.87,42.00 797.38,42.00 807.90,42.00 818.41,42.00 828.92,42.00 839.44,42.00 849.95,42.00 860.46,42.00 870.97,42.00 881.49,42.00 892.00,42.00"/>
<polyline fill="none" stroke="#b91c1c" stroke-width="1.8" points="72.00,150.80 82.51,150.80 93.03,150.80 103.54,150.80 114.05,150.80 124.56,150.80 135.08,150.80 145.59,150.80 156.10,150.80 166.62,150.80 177.13,150.80 187.64,150.80 198.15,150.80 208.67,150.80 219.18,150.80 229.69,150.80 240.21,150.80 250.72,150.80 261.23,150.80 271.74,150.80 282.26,150.80 292.77,150.80 303.28,150.80 313.79,150.80 324.31,150.80 334.82,150.80 345.33,150.80 355.85,150.80 366.36,150.80 376.87,150.80 387.38,150.80 397.90,150.80 408.41,150.80 418.92,150.80 429.44,150.80 439.95,150.80 450.46,150.80 460.97,150.80 471.49,150.80 482.00,150.80 492.51,150.80 503.03,150.80 513.54,55.60 524.05,55.60 534.56,55.60 545.08,55.60 555.59,55.60 566.10,55.60 576.62,42.00 587.13,42.00 597.64,42.00 608.15,42.00 618.67,42.00 629.18,42.00 639.69,42.00 650.21,42.00 660.72,42.00 671.23,42.00 681.74,42.00 692.26,42.00 702.77,42.00 713.28,42.00 723.79,42.00 734.31,42.00 744.82,42.00 755.33,42.00 765.85,42.00 776.36,42.00 786.87,42.00 797.38,42.00 807.90,42.00 818.41,42.00 828.92,42.00 839.44,42.00 849.95,42.00 860.46,42.00 870.97,42.00 881.49,42.00 892.00,42.00"/>
</svg>
