<svg xmlns="http://www.w3.org/2000/svg" width="920" height="300" viewBox="0 0 920 300">
<rect width="100%" height="100%" fill="#ffffff"/>
<text x="72" y="24" font-family="Arial, sans-serif" font-size="16" font-weight="700" fill="#111827">DNSTiming page cardinality per row group</text>
<text x="72" y="288" font-family="Arial, sans-serif" font-size="11" fill="#6b7280">page/row-group index</text>
<text x="18" y="144" transform="rotate(-90 18 144)" font-family="Arial, sans-serif" font-size="11" fill="#6b7280">distinct values</text>
<line x1="72" y1="246.00" x2="892" y2="246.00" stroke="#e5e7eb" stroke-width="1"/>
<text x="64" y="249.00" font-family="Arial, sans-serif" font-size="10" text-anchor="end" fill="#6b7280">68</text>
<line x1="72" y1="195.00" x2="892" y2="195.00" stroke="#e5e7eb" stroke-width="1"/>
<text x="64" y="198.00" font-family="Arial, sans-serif" font-size="10" text-anchor="end" fill="#6b7280">139</text>
<line x1="72" y1="144.00" x2="892" y2="144.00" stroke="#e5e7eb" stroke-width="1"/>
<text x="64" y="147.00" font-family="Arial, sans-serif" font-size="10" text-anchor="end" fill="#6b7280">210</text>
<line x1="72" y1="93.00" x2="892" y2="93.00" stroke="#e5e7eb" stroke-width="1"/>
<text x="64" y="96.00" font-family="Arial, sans-serif" font-size="10" text-anchor="end" fill="#6b7280">281</text>
<line x1="72" y1="42.00" x2="892" y2="42.00" stroke="#e5e7eb" stroke-width="1"/>
<text x="64" y="45.00" font-family="Arial, sans-serif" font-size="10" text-anchor="end" fill="#6b7280">352</text>
<line x1="72" y1="246" x2="892" y2="246" stroke="#9ca3af" stroke-width="1"/>
<line x1="72" y1="42" x2="72" y2="246" stroke="#9ca3af" stroke-width="1"/>
<circle cx="72" cy="266" r="4" fill="#0f766e"/>
<text x="80" y="270" font-family="Arial, sans-serif" font-size="11" fill="#374151">min page cardinality</text>
<circle cx="252" cy="266" r="4" fill="#b91c1c"/>
<text x="260" y="270" font-family="Arial, sans-serif" font-size="11" fill="#374151">max page cardinality</text>
<polyline fill="none" stroke="#0f766e" stroke-width="1.8" points="72.00,239.54 82.51,224.45 93.03,225.17 103.54,229.48 114.05,231.63 124.56,230.20 135.08,228.76 145.59,227.32 156.10,229.48 166.62,217.99 177.13,230.92 187.64,225.89 198.15,225.89 208.67,238.10 219.18,238.10 229.69,231.63 240.21,235.23 250.72,232.35 261.23,225.17 271.74,228.76 282.26,223.01 292.77,223.73 303.28,233.07 313.79,225.17 324.31,232.35 334.82,236.66 345.33,236.66 355.85,227.32 366.36,229.48 376.87,241.69 387.38,232.35 397.90,235.23 408.41,233.07 418.92,245.28 429.44,237.38 439.95,240.25 450.46,241.69 460.97,246.00 471.49,235.23 482.00,233.07 492.51,241.69 503.03,234.51 513.54,187.82 524.05,51.34 534.56,84.38 545.08,58.52 555.59,74.32 566.10,48.46 576.62,42.00 587.13,202.18 597.64,189.97 608.15,182.79 618.67,199.31 629.18,204.34 639.69,212.96 650.21,192.85 660.72,188.54 671.23,215.11 681.74,189.25 692.26,204.34 702.77,208.65 713.28,194.28 723.79,206.49 734.31,197.15 744.82,194.28 755.33,192.85 765.85,206.49 776.36,212.96 786.87,208.65 797.38,191.41 807.90,187.82 818.41,201.46 828.92,195.72 839.44,189.25 849.95,197.87 860.46,197.87 870.97,198.59 881.49,199.31 892.00,235.94"/>
<polyline fill="none" stroke="#b91c1c" stroke-width="1.8" points="72.00,239.54 82.51,224.45 93.03,225.17 103.54,229.48 114.05,231.63 124.56,230.20 135.08,228.76 145.59,227.32 156.10,229.48 166.62,217.99 177.13,230.92 187.64,225.89 198.15,225.89 208.67,238.10 219.18,238.10 229.69,231.63 240.21,235.23 250.72,232.35 261.23,225.17 271.74,228.76 282.26,223.01 292.77,223.73 303.28,233.07 313.79,225.17 324.31,232.35 334.82,236.66 345.33,236.66 355.85,227.32 366.36,229.48 376.87,241.69 387.38,232.35 397.90,235.23 408.41,233.07 418.92,245.28 429.44,237.38 439.95,240.25 450.46,241.69 460.97,246.00 471.49,235.23 482.00,233.07 492.51,241.69 503.03,234.51 513.54,187.82 524.05,51.34 534.56,84.38 545.08,58.52 555.59,74.32 566.10,48.46 576.62,42.00 587.13,202.18 597.64,189.97 608.15,182.79 618.67,199.31 629.18,204.34 639.69,212.96 650.21,192.85 660.72,188.54 671.23,215.11 681.74,189.25 692.26,204.34 702.77,208.65 713.28,194.28 723.79,206.49 734.31,197.15 744.82,194.28 755.33,192.85 765.85,206.49 776.36,212.96 786.87,208.65 797.38,191.41 807.90,187.82 818.41,201.46 828.92,195.72 839.44,189.25 849.95,197.87 860.46,197.87 870.97,198.59 881.49,199.31 892.00,235.94"/>
</svg>
