<svg xmlns="http://www.w3.org/2000/svg" width="920" height="300" viewBox="0 0 920 300">
<rect width="100%" height="100%" fill="#ffffff"/>
<text x="72" y="24" font-family="Arial, sans-serif" font-size="16" font-weight="700" fill="#111827">EventTime row-group cardinality</text>
<text x="72" y="288" font-family="Arial, sans-serif" font-size="11" fill="#6b7280">page/row-group index</text>
<text x="18" y="144" transform="rotate(-90 18 144)" font-family="Arial, sans-serif" font-size="11" fill="#6b7280">distinct values</text>
<line x1="72" y1="246.00" x2="892" y2="246.00" stroke="#e5e7eb" stroke-width="1"/>
<text x="64" y="249.00" font-family="Arial, sans-serif" font-size="10" text-anchor="end" fill="#6b7280">5997</text>
<line x1="72" y1="195.00" x2="892" y2="195.00" stroke="#e5e7eb" stroke-width="1"/>
<text x="64" y="198.00" font-family="Arial, sans-serif" font-size="10" text-anchor="end" fill="#6b7280">7758.25</text>
<line x1="72" y1="144.00" x2="892" y2="144.00" stroke="#e5e7eb" stroke-width="1"/>
<text x="64" y="147.00" font-family="Arial, sans-serif" font-size="10" text-anchor="end" fill="#6b7280">9519.50</text>
<line x1="72" y1="93.00" x2="892" y2="93.00" stroke="#e5e7eb" stroke-width="1"/>
<text x="64" y="96.00" font-family="Arial, sans-serif" font-size="10" text-anchor="end" fill="#6b7280">11280.75</text>
<line x1="72" y1="42.00" x2="892" y2="42.00" stroke="#e5e7eb" stroke-width="1"/>
<text x="64" y="45.00" font-family="Arial, sans-serif" font-size="10" text-anchor="end" fill="#6b7280">13042</text>
<line x1="72" y1="246" x2="892" y2="246" stroke="#9ca3af" stroke-width="1"/>
<line x1="72" y1="42" x2="72" y2="246" stroke="#9ca3af" stroke-width="1"/>
<circle cx="72" cy="266" r="4" fill="#2563eb"/>
<text x="80" y="270" font-family="Arial, sans-serif" font-size="11" fill="#374151">row group cardinality</text>
<polyline fill="none" stroke="#2563eb" stroke-width="1.8" points="72.00,239.34 82.51,242.15 93.03,239.05 103.54,239.11 114.05,240.85 124.56,239.11 135.08,245.19 145.59,243.05 156.10,241.08 166.62,241.74 177.13,242.15 187.64,241.42 198.15,242.76 208.67,241.48 219.18,240.93 229.69,240.44 240.21,240.03 250.72,239.31 261.23,240.09 271.74,241.98 282.26,238.21 292.77,239.40 303.28,240.50 313.79,239.43 324.31,243.77 334.82,240.87 345.33,241.95 355.85,239.63 366.36,239.51 376.87,242.58 387.38,243.86 397.90,240.93 408.41,240.01 418.92,246.00 429.44,242.73 439.95,237.40 450.46,241.69 460.97,239.11 471.49,241.48 482.00,239.95 492.51,241.14 503.03,244.64 513.54,225.96 524.05,106.40 534.56,109.27 545.08,115.06 555.59,106.57 566.10,102.52 576.62,102.49 587.13,44.26 597.64,45.07 608.15,50.31 618.67,52.11 629.18,48.17 639.69,57.49 650.21,52.95 660.72,45.65 671.23,48.31 681.74,47.70 692.26,56.04 702.77,48.75 713.28,44.55 723.79,47.85 734.31,55.64 744.82,48.28 755.33,49.76 765.85,49.15 776.36,56.51 786.87,49.56 797.38,45.74 807.90,42.00 818.41,46.89 828.92,44.90 839.44,53.15 849.95,44.69 860.46,42.84 870.97,48.98 881.49,50.54 892.00,164.05"/>
</svg>
