<svg xmlns="http://www.w3.org/2000/svg" width="920" height="300" viewBox="0 0 920 300">
<rect width="100%" height="100%" fill="#ffffff"/>
<text x="72" y="24" font-family="Arial, sans-serif" font-size="16" font-weight="700" fill="#111827">EventTime page min/max</text>
<text x="72" y="288" font-family="Arial, sans-serif" font-size="11" fill="#6b7280">page/row-group index</text>
<text x="18" y="144" transform="rotate(-90 18 144)" font-family="Arial, sans-serif" font-size="11" fill="#6b7280">value</text>
<line x1="72" y1="246.00" x2="892" y2="246.00" stroke="#e5e7eb" stroke-width="1"/>
<text x="64" y="249.00" font-family="Arial, sans-serif" font-size="10" text-anchor="end" fill="#6b7280">1.37e+12</text>
<line x1="72" y1="195.00" x2="892" y2="195.00" stroke="#e5e7eb" stroke-width="1"/>
<text x="64" y="198.00" font-family="Arial, sans-serif" font-size="10" text-anchor="end" fill="#6b7280">1.37e+12</text>
<line x1="72" y1="144.00" x2="892" y2="144.00" stroke="#e5e7eb" stroke-width="1"/>
<text x="64" y="147.00" font-family="Arial, sans-serif" font-size="10" text-anchor="end" fill="#6b7280">1.37e+12</text>
<line x1="72" y1="93.00" x2="892" y2="93.00" stroke="#e5e7eb" stroke-width="1"/>
<text x="64" y="96.00" font-family="Arial, sans-serif" font-size="10" text-anchor="end" fill="#6b7280">1.37e+12</text>
<line x1="72" y1="42.00" x2="892" y2="42.00" stroke="#e5e7eb" stroke-width="1"/>
<text x="64" y="45.00" font-family="Arial, sans-serif" font-size="10" text-anchor="end" fill="#6b7280">1.37e+12</text>
<line x1="72" y1="246" x2="892" y2="246" stroke="#9ca3af" stroke-width="1"/>
<line x1="72" y1="42" x2="72" y2="246" stroke="#9ca3af" stroke-width="1"/>
<circle cx="72" cy="266" r="4" fill="#2563eb"/>
<text x="80" y="270" font-family="Arial, sans-serif" font-size="11" fill="#374151">page min</text>
<circle cx="252" cy="266" r="4" fill="#b91c1c"/>
<text x="260" y="270" font-family="Arial, sans-serif" font-size="11" fill="#374151">page max</text>
<polyline fill="none" stroke="#2563eb" stroke-width="1.8" points="72.00,245.97 82.51,245.96 93.03,245.97 103.54,245.99 114.05,246.00 124.56,245.99 135.08,245.99 145.59,245.97 156.10,245.97 166.62,245.87 177.13,245.98 187.64,245.99 198.15,245.99 208.67,245.96 219.18,245.99 229.69,245.99 240.21,245.86 250.72,246.00 261.23,245.97 271.74,245.97 282.26,245.98 292.77,246.00 303.28,245.83 313.79,245.93 324.31,245.97 334.82,245.98 345.33,245.95 355.85,245.98 366.36,245.99 376.87,245.96 387.38,245.90 397.90,245.87 408.41,245.95 418.92,245.99 429.44,245.98 439.95,245.97 450.46,245.98 460.97,245.93 471.49,245.96 482.00,245.73 492.51,246.00 503.03,245.98 513.54,245.98 524.05,245.99 534.56,245.99 545.08,246.00 555.59,245.95 566.10,245.99 576.62,245.98 587.13,245.99 597.64,245.98 608.15,245.99 618.67,245.97 629.18,246.00 639.69,246.00 650.21,245.97 660.72,245.99 671.23,246.00 681.74,245.98 692.26,246.00 702.77,246.00 713.28,245.99 723.79,245.99 734.31,245.97 744.82,246.00 755.33,245.99 765.85,245.99 776.36,245.96 786.87,245.98 797.38,245.99 807.90,245.96 818.41,246.00 828.92,245.99 839.44,245.97 849.95,245.99 860.46,245.95 870.97,245.94 881.49,245.94 892.00,245.99"/>
<polyline fill="none" stroke="#b91c1c" stroke-width="1.8" points="72.00,42.03 82.51,42.02 93.03,42.06 103.54,42.01 114.05,42.00 124.56,42.00 135.08,42.14 145.59,42.00 156.10,42.01 166.62,42.07 177.13,42.01 187.64,42.01 198.15,42.19 208.67,42.02 219.18,42.04 229.69,42.00 240.21,42.01 250.72,42.04 261.23,42.01 271.74,42.03 282.26,42.00 292.77,42.01 303.28,42.00 313.79,42.20 324.31,42.03 334.82,42.11 345.33,42.02 355.85,42.01 366.36,42.08 376.87,42.03 387.38,42.01 397.90,42.09 408.41,42.02 418.92,42.01 429.44,42.01 439.95,42.02 450.46,42.05 460.97,42.07 471.49,42.04 482.00,42.05 492.51,42.04 503.03,42.05 513.54,42.00 524.05,42.01 534.56,42.00 545.08,42.00 555.59,42.01 566.10,42.01 576.62,42.02 587.13,42.00 597.64,42.04 608.15,42.04 618.67,42.01 629.18,42.01 639.69,42.01 650.21,42.06 660.72,42.01 671.23,42.00 681.74,42.05 692.26,42.00 702.77,42.02 713.28,42.00 723.79,42.01 734.31,42.00 744.82,42.01 755.33,42.00 765.85,42.00 776.36,42.01 786.87,42.11 797.38,42.00 807.90,42.09 818.41,42.04 828.92,42.12 839.44,42.04 849.95,42.05 860.46,42.00 870.97,42.00 881.49,42.01 892.00,42.01"/>
</svg>
