<svg xmlns="http://www.w3.org/2000/svg" width="920" height="300" viewBox="0 0 920 300">
<rect width="100%" height="100%" fill="#ffffff"/>
<text x="72" y="24" font-family="Arial, sans-serif" font-size="16" font-weight="700" fill="#111827">FetchTiming page cardinality per row group</text>
<text x="72" y="288" font-family="Arial, sans-serif" font-size="11" fill="#6b7280">page/row-group index</text>
<text x="18" y="144" transform="rotate(-90 18 144)" font-family="Arial, sans-serif" font-size="11" fill="#6b7280">distinct values</text>
<line x1="72" y1="246.00" x2="892" y2="246.00" stroke="#e5e7eb" stroke-width="1"/>
<text x="64" y="249.00" font-family="Arial, sans-serif" font-size="10" text-anchor="end" fill="#6b7280">329</text>
<line x1="72" y1="195.00" x2="892" y2="195.00" stroke="#e5e7eb" stroke-width="1"/>
<text x="64" y="198.00" font-family="Arial, sans-serif" font-size="10" text-anchor="end" fill="#6b7280">562.75</text>
<line x1="72" y1="144.00" x2="892" y2="144.00" stroke="#e5e7eb" stroke-width="1"/>
<text x="64" y="147.00" font-family="Arial, sans-serif" font-size="10" text-anchor="end" fill="#6b7280">796.50</text>
<line x1="72" y1="93.00" x2="892" y2="93.00" stroke="#e5e7eb" stroke-width="1"/>
<text x="64" y="96.00" font-family="Arial, sans-serif" font-size="10" text-anchor="end" fill="#6b7280">1030.25</text>
<line x1="72" y1="42.00" x2="892" y2="42.00" stroke="#e5e7eb" stroke-width="1"/>
<text x="64" y="45.00" font-family="Arial, sans-serif" font-size="10" text-anchor="end" fill="#6b7280">1264</text>
<line x1="72" y1="246" x2="892" y2="246" stroke="#9ca3af" stroke-width="1"/>
<line x1="72" y1="42" x2="72" y2="246" stroke="#9ca3af" stroke-width="1"/>
<circle cx="72" cy="266" r="4" fill="#0f766e"/>
<text x="80" y="270" font-family="Arial, sans-serif" font-size="11" fill="#374151">min page cardinality</text>
<circle cx="252" cy="266" r="4" fill="#b91c1c"/>
<text x="260" y="270" font-family="Arial, sans-serif" font-size="11" fill="#374151">max page cardinality</text>
<polyline fill="none" stroke="#0f766e" stroke-width="1.8" points="72.00,189.27 82.51,180.55 93.03,184.25 103.54,178.36 114.05,174.22 124.56,189.49 135.08,177.05 145.59,172.47 156.10,181.20 166.62,160.91 177.13,187.75 187.64,181.64 198.15,172.69 208.67,172.91 219.18,171.60 229.69,185.56 240.21,169.20 250.72,178.15 261.23,169.20 271.74,182.07 282.26,170.51 292.77,177.27 303.28,172.91 313.79,185.35 324.31,177.27 334.82,182.73 345.33,177.49 355.85,181.64 366.36,176.40 376.87,186.87 387.38,187.53 397.90,180.98 408.41,182.73 418.92,195.38 429.44,182.95 439.95,172.69 450.46,185.78 460.97,190.36 471.49,187.75 482.00,185.56 492.51,187.75 503.03,174.44 513.54,193.20 524.05,234.22 534.56,224.62 545.08,221.35 555.59,221.35 566.10,236.40 576.62,246.00 587.13,100.69 597.64,101.35 608.15,102.22 618.67,102.00 629.18,100.91 639.69,105.05 650.21,92.62 660.72,91.75 671.23,84.33 681.74,87.16 692.26,103.75 702.77,99.82 713.28,42.00 723.79,76.04 734.31,76.91 744.82,89.56 755.33,120.33 765.85,103.31 776.36,103.53 786.87,102.44 797.38,93.05 807.90,98.29 818.41,68.62 828.92,100.04 839.44,92.18 849.95,97.85 860.46,84.98 870.97,98.51 881.49,97.64 892.00,164.84"/>
<polyline fill="none" stroke="#b91c1c" stroke-width="1.8" points="72.00,189.27 82.51,180.55 93.03,184.25 103.54,178.36 114.05,174.22 124.56,189.49 135.08,177.05 145.59,172.47 156.10,181.20 166.62,160.91 177.13,187.75 187.64,181.64 198.15,172.69 208.67,172.91 219.18,171.60 229.69,185.56 240.21,169.20 250.72,178.15 261.23,169.20 271.74,182.07 282.26,170.51 292.77,177.27 303.28,172.91 313.79,185.35 324.31,177.27 334.82,182.73 345.33,177.49 355.85,181.64 366.36,176.40 376.87,186.87 387.38,187.53 397.90,180.98 408.41,182.73 418.92,195.38 429.44,182.95 439.95,172.69 450.46,185.78 460.97,190.36 471.49,187.75 482.00,185.56 492.51,187.75 503.03,174.44 513.54,193.20 524.05,234.22 534.56,224.62 545.08,221.35 555.59,221.35 566.10,236.40 576.62,246.00 587.13,100.69 597.64,101.35 608.15,102.22 618.67,102.00 629.18,100.91 639.69,105.05 650.21,92.62 660.72,91.75 671.23,84.33 681.74,87.16 692.26,103.75 702.77,99.82 713.28,42.00 723.79,76.04 734.31,76.91 744.82,89.56 755.33,120.33 765.85,103.31 776.36,103.53 786.87,102.44 797.38,93.05 807.90,98.29 818.41,68.62 828.92,100.04 839.44,92.18 849.95,97.85 860.46,84.98 870.97,98.51 881.49,97.64 892.00,164.84"/>
</svg>
