<svg xmlns="http://www.w3.org/2000/svg" width="920" height="300" viewBox="0 0 920 300">
<rect width="100%" height="100%" fill="#ffffff"/>
<text x="72" y="24" font-family="Arial, sans-serif" font-size="16" font-weight="700" fill="#111827">FlashMinor2 row-group cardinality</text>
<text x="72" y="288" font-family="Arial, sans-serif" font-size="11" fill="#6b7280">page/row-group index</text>
<text x="18" y="144" transform="rotate(-90 18 144)" font-family="Arial, sans-serif" font-size="11" fill="#6b7280">distinct values</text>
<line x1="72" y1="246.00" x2="892" y2="246.00" stroke="#e5e7eb" stroke-width="1"/>
<text x="64" y="249.00" font-family="Arial, sans-serif" font-size="10" text-anchor="end" fill="#6b7280">18</text>
<line x1="72" y1="195.00" x2="892" y2="195.00" stroke="#e5e7eb" stroke-width="1"/>
<text x="64" y="198.00" font-family="Arial, sans-serif" font-size="10" text-anchor="end" fill="#6b7280">20.75</text>
<line x1="72" y1="144.00" x2="892" y2="144.00" stroke="#e5e7eb" stroke-width="1"/>
<text x="64" y="147.00" font-family="Arial, sans-serif" font-size="10" text-anchor="end" fill="#6b7280">23.50</text>
<line x1="72" y1="93.00" x2="892" y2="93.00" stroke="#e5e7eb" stroke-width="1"/>
<text x="64" y="96.00" font-family="Arial, sans-serif" font-size="10" text-anchor="end" fill="#6b7280">26.25</text>
<line x1="72" y1="42.00" x2="892" y2="42.00" stroke="#e5e7eb" stroke-width="1"/>
<text x="64" y="45.00" font-family="Arial, sans-serif" font-size="10" text-anchor="end" fill="#6b7280">29</text>
<line x1="72" y1="246" x2="892" y2="246" stroke="#9ca3af" stroke-width="1"/>
<line x1="72" y1="42" x2="72" y2="246" stroke="#9ca3af" stroke-width="1"/>
<circle cx="72" cy="266" r="4" fill="#2563eb"/>
<text x="80" y="270" font-family="Arial, sans-serif" font-size="11" fill="#374151">row group cardinality</text>
<polyline fill="none" stroke="#2563eb" stroke-width="1.8" points="72.00,134.73 82.51,116.18 93.03,153.27 103.54,153.27 114.05,134.73 124.56,79.09 135.08,79.09 145.59,116.18 156.10,116.18 166.62,116.18 177.13,116.18 187.64,116.18 198.15,97.64 208.67,97.64 219.18,60.55 229.69,153.27 240.21,60.55 250.72,97.64 261.23,97.64 271.74,116.18 282.26,97.64 292.77,153.27 303.28,79.09 313.79,60.55 324.31,97.64 334.82,97.64 345.33,116.18 355.85,79.09 366.36,79.09 376.87,134.73 387.38,42.00 397.90,97.64 408.41,134.73 418.92,190.36 429.44,134.73 439.95,171.82 450.46,97.64 460.97,190.36 471.49,97.64 482.00,134.73 492.51,97.64 503.03,153.27 513.54,134.73 524.05,190.36 534.56,208.91 545.08,134.73 555.59,134.73 566.10,171.82 576.62,153.27 587.13,171.82 597.64,227.45 608.15,190.36 618.67,190.36 629.18,116.18 639.69,134.73 650.21,190.36 660.72,134.73 671.23,134.73 681.74,153.27 692.26,134.73 702.77,171.82 713.28,134.73 723.79,116.18 734.31,171.82 744.82,153.27 755.33,116.18 765.85,190.36 776.36,246.00 786.87,134.73 797.38,171.82 807.90,227.45 818.41,190.36 828.92,171.82 839.44,227.45 849.95,190.36 860.46,79.09 870.97,153.27 881.49,153.27 892.00,208.91"/>
</svg>
