<svg xmlns="http://www.w3.org/2000/svg" width="920" height="300" viewBox="0 0 920 300">
<rect width="100%" height="100%" fill="#ffffff"/>
<text x="72" y="24" font-family="Arial, sans-serif" font-size="16" font-weight="700" fill="#111827">FUniqID row-group cardinality</text>
<text x="72" y="288" font-family="Arial, sans-serif" font-size="11" fill="#6b7280">page/row-group index</text>
<text x="18" y="144" transform="rotate(-90 18 144)" font-family="Arial, sans-serif" font-size="11" fill="#6b7280">distinct values</text>
<line x1="72" y1="246.00" x2="892" y2="246.00" stroke="#e5e7eb" stroke-width="1"/>
<text x="64" y="249.00" font-family="Arial, sans-serif" font-size="10" text-anchor="end" fill="#6b7280">628</text>
<line x1="72" y1="195.00" x2="892" y2="195.00" stroke="#e5e7eb" stroke-width="1"/>
<text x="64" y="198.00" font-family="Arial, sans-serif" font-size="10" text-anchor="end" fill="#6b7280">896.75</text>
<line x1="72" y1="144.00" x2="892" y2="144.00" stroke="#e5e7eb" stroke-width="1"/>
<text x="64" y="147.00" font-family="Arial, sans-serif" font-size="10" text-anchor="end" fill="#6b7280">1165.50</text>
<line x1="72" y1="93.00" x2="892" y2="93.00" stroke="#e5e7eb" stroke-width="1"/>
<text x="64" y="96.00" font-family="Arial, sans-serif" font-size="10" text-anchor="end" fill="#6b7280">1434.25</text>
<line x1="72" y1="42.00" x2="892" y2="42.00" stroke="#e5e7eb" stroke-width="1"/>
<text x="64" y="45.00" font-family="Arial, sans-serif" font-size="10" text-anchor="end" fill="#6b7280">1703</text>
<line x1="72" y1="246" x2="892" y2="246" stroke="#9ca3af" stroke-width="1"/>
<line x1="72" y1="42" x2="72" y2="246" stroke="#9ca3af" stroke-width="1"/>
<circle cx="72" cy="266" r="4" fill="#2563eb"/>
<text x="80" y="270" font-family="Arial, sans-serif" font-size="11" fill="#374151">row group cardinality</text>
<polyline fill="none" stroke="#2563eb" stroke-width="1.8" points="72.00,219.62 82.51,201.03 93.03,224.18 103.54,223.80 114.05,220.76 124.56,225.51 135.08,226.26 145.59,220.38 156.10,210.89 166.62,213.93 177.13,234.04 187.64,218.48 198.15,227.97 208.67,227.59 219.18,240.50 229.69,246.00 240.21,222.09 250.72,215.64 261.23,226.64 271.74,222.66 282.26,239.36 292.77,221.52 303.28,232.91 313.79,223.23 324.31,219.81 334.82,222.28 345.33,237.08 355.85,211.08 366.36,222.47 376.87,220.57 387.38,233.10 397.90,227.02 408.41,225.32 418.92,230.44 429.44,227.40 439.95,216.02 450.46,216.21 460.97,226.07 471.49,194.57 482.00,222.85 492.51,215.26 503.03,220.57 513.54,195.52 524.05,46.17 534.56,42.00 545.08,47.50 555.59,56.61 566.10,67.81 576.62,88.30 587.13,127.02 597.64,163.64 608.15,147.70 618.67,155.48 629.18,162.50 639.69,161.17 650.21,150.55 660.72,133.66 671.23,172.56 681.74,134.99 692.26,162.88 702.77,134.61 713.28,140.49 723.79,153.20 734.31,167.82 744.82,142.39 755.33,159.28 765.85,162.69 776.36,160.23 786.87,141.82 797.38,135.56 807.90,137.45 818.41,152.07 828.92,149.22 839.44,140.11 849.95,131.57 860.46,138.21 870.97,132.14 881.49,160.98 892.00,233.48"/>
</svg>
