<svg xmlns="http://www.w3.org/2000/svg" width="920" height="300" viewBox="0 0 920 300">
<rect width="100%" height="100%" fill="#ffffff"/>
<text x="72" y="24" font-family="Arial, sans-serif" font-size="16" font-weight="700" fill="#111827">HistoryLength row-group cardinality</text>
<text x="72" y="288" font-family="Arial, sans-serif" font-size="11" fill="#6b7280">page/row-group index</text>
<text x="18" y="144" transform="rotate(-90 18 144)" font-family="Arial, sans-serif" font-size="11" fill="#6b7280">distinct values</text>
<line x1="72" y1="246.00" x2="892" y2="246.00" stroke="#e5e7eb" stroke-width="1"/>
<text x="64" y="249.00" font-family="Arial, sans-serif" font-size="10" text-anchor="end" fill="#6b7280">1</text>
<line x1="72" y1="195.00" x2="892" y2="195.00" stroke="#e5e7eb" stroke-width="1"/>
<text x="64" y="198.00" font-family="Arial, sans-serif" font-size="10" text-anchor="end" fill="#6b7280">22.50</text>
<line x1="72" y1="144.00" x2="892" y2="144.00" stroke="#e5e7eb" stroke-width="1"/>
<text x="64" y="147.00" font-family="Arial, sans-serif" font-size="10" text-anchor="end" fill="#6b7280">44</text>
<line x1="72" y1="93.00" x2="892" y2="93.00" stroke="#e5e7eb" stroke-width="1"/>
<text x="64" y="96.00" font-family="Arial, sans-serif" font-size="10" text-anchor="end" fill="#6b7280">65.50</text>
<line x1="72" y1="42.00" x2="892" y2="42.00" stroke="#e5e7eb" stroke-width="1"/>
<text x="64" y="45.00" font-family="Arial, sans-serif" font-size="10" text-anchor="end" fill="#6b7280">87</text>
<line x1="72" y1="246" x2="892" y2="246" stroke="#9ca3af" stroke-width="1"/>
<line x1="72" y1="42" x2="72" y2="246" stroke="#9ca3af" stroke-width="1"/>
<circle cx="72" cy="266" r="4" fill="#2563eb"/>
<text x="80" y="270" font-family="Arial, sans-serif" font-size="11" fill="#374151">row group cardinality</text>
<polyline fill="none" stroke="#2563eb" stroke-width="1.8" points="72.00,243.63 82.51,238.88 93.03,241.26 103.54,243.63 114.05,238.88 124.56,234.14 135.08,243.63 145.59,243.63 156.10,241.26 166.62,241.26 177.13,243.63 187.64,238.88 198.15,238.88 208.67,243.63 219.18,241.26 229.69,246.00 240.21,243.63 250.72,241.26 261.23,238.88 271.74,243.63 282.26,241.26 292.77,243.63 303.28,243.63 313.79,243.63 324.31,241.26 334.82,243.63 345.33,236.51 355.85,243.63 366.36,238.88 376.87,238.88 387.38,236.51 397.90,241.26 408.41,238.88 418.92,243.63 429.44,238.88 439.95,241.26 450.46,241.26 460.97,238.88 471.49,241.26 482.00,238.88 492.51,238.88 503.03,241.26 513.54,146.37 524.05,101.30 534.56,87.07 545.08,42.00 555.59,68.09 566.10,101.30 576.62,84.70 587.13,234.14 597.64,238.88 608.15,234.14 618.67,243.63 629.18,236.51 639.69,231.77 650.21,231.77 660.72,227.02 671.23,238.88 681.74,234.14 692.26,241.26 702.77,234.14 713.28,229.40 723.79,234.14 734.31,241.26 744.82,236.51 755.33,238.88 765.85,238.88 776.36,236.51 786.87,231.77 797.38,234.14 807.90,236.51 818.41,234.14 828.92,229.40 839.44,238.88 849.95,236.51 860.46,241.26 870.97,241.26 881.49,238.88 892.00,234.14"/>
</svg>
