<svg xmlns="http://www.w3.org/2000/svg" width="920" height="300" viewBox="0 0 920 300">
<rect width="100%" height="100%" fill="#ffffff"/>
<text x="72" y="24" font-family="Arial, sans-serif" font-size="16" font-weight="700" fill="#111827">Interests row-group cardinality</text>
<text x="72" y="288" font-family="Arial, sans-serif" font-size="11" fill="#6b7280">page/row-group index</text>
<text x="18" y="144" transform="rotate(-90 18 144)" font-family="Arial, sans-serif" font-size="11" fill="#6b7280">distinct values</text>
<line x1="72" y1="246.00" x2="892" y2="246.00" stroke="#e5e7eb" stroke-width="1"/>
<text x="64" y="249.00" font-family="Arial, sans-serif" font-size="10" text-anchor="end" fill="#6b7280">151</text>
<line x1="72" y1="195.00" x2="892" y2="195.00" stroke="#e5e7eb" stroke-width="1"/>
<text x="64" y="198.00" font-family="Arial, sans-serif" font-size="10" text-anchor="end" fill="#6b7280">212</text>
<line x1="72" y1="144.00" x2="892" y2="144.00" stroke="#e5e7eb" stroke-width="1"/>
<text x="64" y="147.00" font-family="Arial, sans-serif" font-size="10" text-anchor="end" fill="#6b7280">273</text>
<line x1="72" y1="93.00" x2="892" y2="93.00" stroke="#e5e7eb" stroke-width="1"/>
<text x="64" y="96.00" font-family="Arial, sans-serif" font-size="10" text-anchor="end" fill="#6b7280">334</text>
<line x1="72" y1="42.00" x2="892" y2="42.00" stroke="#e5e7eb" stroke-width="1"/>
<text x="64" y="45.00" font-family="Arial, sans-serif" font-size="10" text-anchor="end" fill="#6b7280">395</text>
<line x1="72" y1="246" x2="892" y2="246" stroke="#9ca3af" stroke-width="1"/>
<line x1="72" y1="42" x2="72" y2="246" stroke="#9ca3af" stroke-width="1"/>
<circle cx="72" cy="266" r="4" fill="#2563eb"/>
<text x="80" y="270" font-family="Arial, sans-serif" font-size="11" fill="#374151">row group cardinality</text>
<polyline fill="none" stroke="#2563eb" stroke-width="1.8" points="72.00,189.98 82.51,151.52 93.03,174.10 103.54,186.64 114.05,190.82 124.56,190.82 135.08,184.13 145.59,185.80 156.10,184.97 166.62,181.62 177.13,209.21 187.64,184.13 198.15,199.18 208.67,198.34 219.18,218.41 229.69,201.69 240.21,184.97 250.72,173.26 261.23,195.00 271.74,187.48 282.26,208.38 292.77,195.00 303.28,180.79 313.79,190.82 324.31,189.98 334.82,200.85 345.33,206.70 355.85,190.82 366.36,207.54 376.87,204.20 387.38,205.03 397.90,214.23 408.41,193.33 418.92,210.89 429.44,191.66 439.95,203.36 450.46,199.18 460.97,208.38 471.49,175.77 482.00,199.18 492.51,196.67 503.03,194.16 513.54,175.77 524.05,46.18 534.56,42.00 545.08,56.21 555.59,64.57 566.10,82.97 576.62,118.92 587.13,186.64 597.64,194.16 608.15,162.39 618.67,186.64 629.18,202.52 639.69,204.20 650.21,187.48 660.72,192.49 671.23,215.07 681.74,179.95 692.26,223.43 702.77,179.11 713.28,202.52 723.79,202.52 734.31,207.54 744.82,190.82 755.33,197.51 765.85,200.85 776.36,196.67 786.87,178.28 797.38,182.46 807.90,189.98 818.41,188.31 828.92,199.18 839.44,185.80 849.95,181.62 860.46,168.25 870.97,179.95 881.49,199.18 892.00,246.00"/>
</svg>
