<svg xmlns="http://www.w3.org/2000/svg" width="920" height="300" viewBox="0 0 920 300">
<rect width="100%" height="100%" fill="#ffffff"/>
<text x="72" y="24" font-family="Arial, sans-serif" font-size="16" font-weight="700" fill="#111827">IPNetworkID page min/max</text>
<text x="72" y="288" font-family="Arial, sans-serif" font-size="11" fill="#6b7280">page/row-group index</text>
<text x="18" y="144" transform="rotate(-90 18 144)" font-family="Arial, sans-serif" font-size="11" fill="#6b7280">value</text>
<line x1="72" y1="246.00" x2="892" y2="246.00" stroke="#e5e7eb" stroke-width="1"/>
<text x="64" y="249.00" font-family="Arial, sans-serif" font-size="10" text-anchor="end" fill="#6b7280">1</text>
<line x1="72" y1="195.00" x2="892" y2="195.00" stroke="#e5e7eb" stroke-width="1"/>
<text x="64" y="198.00" font-family="Arial, sans-serif" font-size="10" text-anchor="end" fill="#6b7280">1.05e+06</text>
<line x1="72" y1="144.00" x2="892" y2="144.00" stroke="#e5e7eb" stroke-width="1"/>
<text x="64" y="147.00" font-family="Arial, sans-serif" font-size="10" text-anchor="end" fill="#6b7280">2.1e+06</text>
<line x1="72" y1="93.00" x2="892" y2="93.00" stroke="#e5e7eb" stroke-width="1"/>
<text x="64" y="96.00" font-family="Arial, sans-serif" font-size="10" text-anchor="end" fill="#6b7280">3.15e+06</text>
<line x1="72" y1="42.00" x2="892" y2="42.00" stroke="#e5e7eb" stroke-width="1"/>
<text x="64" y="45.00" font-family="Arial, sans-serif" font-size="10" text-anchor="end" fill="#6b7280">4.19e+06</text>
<line x1="72" y1="246" x2="892" y2="246" stroke="#9ca3af" stroke-width="1"/>
<line x1="72" y1="42" x2="72" y2="246" stroke="#9ca3af" stroke-width="1"/>
<circle cx="72" cy="266" r="4" fill="#2563eb"/>
<text x="80" y="270" font-family="Arial, sans-serif" font-size="11" fill="#374151">page min</text>
<circle cx="252" cy="266" r="4" fill="#b91c1c"/>
<text x="260" y="270" font-family="Arial, sans-serif" font-size="11" fill="#374151">page max</text>
<polyline fill="none" stroke="#2563eb" stroke-width="1.8" points="72.00,246.00 82.51,246.00 93.03,246.00 103.54,246.00 114.05,246.00 124.56,246.00 135.08,246.00 145.59,246.00 156.10,246.00 166.62,246.00 177.13,246.00 187.64,246.00 198.15,241.87 208.67,246.00 219.18,246.00 229.69,246.00 240.21,246.00 250.72,245.04 261.23,246.00 271.74,246.00 282.26,240.14 292.77,246.00 303.28,246.00 313.79,246.00 324.31,246.00 334.82,246.00 345.33,245.85 355.85,246.00 366.36,246.00 376.87,246.00 387.38,246.00 397.90,246.00 408.41,246.00 418.92,242.33 429.44,246.00 439.95,246.00 450.46,246.00 460.97,243.86 471.49,245.85 482.00,246.00 492.51,246.00 503.03,245.84 513.54,246.00 524.05,246.00 534.56,246.00 545.08,246.00 555.59,246.00 566.10,246.00 576.62,246.00 587.13,246.00 597.64,246.00 608.15,246.00 618.67,246.00 629.18,246.00 639.69,246.00 650.21,246.00 660.72,246.00 671.23,246.00 681.74,246.00 692.26,246.00 702.77,246.00 713.28,246.00 723.79,246.00 734.31,246.00 744.82,246.00 755.33,246.00 765.85,246.00 776.36,246.00 786.87,246.00 797.38,246.00 807.90,246.00 818.41,246.00 828.92,246.00 839.44,246.00 849.95,246.00 860.46,246.00 870.97,246.00 881.49,246.00 892.00,246.00"/>
<polyline fill="none" stroke="#b91c1c" stroke-width="1.8" points="72.00,42.41 82.51,42.41 93.03,42.41 103.54,42.11 114.05,42.29 124.56,42.68 135.08,42.41 145.59,42.41 156.10,42.41 166.62,42.11 177.13,43.23 187.64,42.08 198.15,42.30 208.67,42.18 219.18,42.35 229.69,42.41 240.21,42.11 250.72,42.08 261.23,42.36 271.74,43.23 282.26,42.41 292.77,42.41 303.28,42.08 313.79,42.31 324.31,42.41 334.82,42.11 345.33,42.41 355.85,42.36 366.36,42.26 376.87,42.03 387.38,42.08 397.90,42.41 408.41,42.10 418.92,42.41 429.44,42.08 439.95,42.00 450.46,42.57 460.97,42.08 471.49,42.41 482.00,42.10 492.51,42.31 503.03,42.25 513.54,42.41 524.05,42.08 534.56,42.08 545.08,42.08 555.59,42.08 566.10,42.08 576.62,42.08 587.13,42.08 597.64,42.11 608.15,42.28 618.67,42.08 629.18,42.04 639.69,42.08 650.21,42.35 660.72,42.11 671.23,42.11 681.74,42.11 692.26,42.08 702.77,42.07 713.28,42.11 723.79,42.11 734.31,42.10 744.82,42.08 755.33,42.11 765.85,42.07 776.36,42.08 786.87,42.08 797.38,42.11 807.90,42.08 818.41,42.07 828.92,42.20 839.44,42.08 849.95,42.11 860.46,42.11 870.97,42.08 881.49,42.45 892.00,43.24"/>
</svg>
