<svg xmlns="http://www.w3.org/2000/svg" width="920" height="300" viewBox="0 0 920 300">
<rect width="100%" height="100%" fill="#ffffff"/>
<text x="72" y="24" font-family="Arial, sans-serif" font-size="16" font-weight="700" fill="#111827">IPNetworkID page cardinality per row group</text>
<text x="72" y="288" font-family="Arial, sans-serif" font-size="11" fill="#6b7280">page/row-group index</text>
<text x="18" y="144" transform="rotate(-90 18 144)" font-family="Arial, sans-serif" font-size="11" fill="#6b7280">distinct values</text>
<line x1="72" y1="246.00" x2="892" y2="246.00" stroke="#e5e7eb" stroke-width="1"/>
<text x="64" y="249.00" font-family="Arial, sans-serif" font-size="10" text-anchor="end" fill="#6b7280">498</text>
<line x1="72" y1="195.00" x2="892" y2="195.00" stroke="#e5e7eb" stroke-width="1"/>
<text x="64" y="198.00" font-family="Arial, sans-serif" font-size="10" text-anchor="end" fill="#6b7280">647.25</text>
<line x1="72" y1="144.00" x2="892" y2="144.00" stroke="#e5e7eb" stroke-width="1"/>
<text x="64" y="147.00" font-family="Arial, sans-serif" font-size="10" text-anchor="end" fill="#6b7280">796.50</text>
<line x1="72" y1="93.00" x2="892" y2="93.00" stroke="#e5e7eb" stroke-width="1"/>
<text x="64" y="96.00" font-family="Arial, sans-serif" font-size="10" text-anchor="end" fill="#6b7280">945.75</text>
<line x1="72" y1="42.00" x2="892" y2="42.00" stroke="#e5e7eb" stroke-width="1"/>
<text x="64" y="45.00" font-family="Arial, sans-serif" font-size="10" text-anchor="end" fill="#6b7280">1095</text>
<line x1="72" y1="246" x2="892" y2="246" stroke="#9ca3af" stroke-width="1"/>
<line x1="72" y1="42" x2="72" y2="246" stroke="#9ca3af" stroke-width="1"/>
<circle cx="72" cy="266" r="4" fill="#0f766e"/>
<text x="80" y="270" font-family="Arial, sans-serif" font-size="11" fill="#374151">min page cardinality</text>
<circle cx="252" cy="266" r="4" fill="#b91c1c"/>
<text x="260" y="270" font-family="Arial, sans-serif" font-size="11" fill="#374151">max page cardinality</text>
<polyline fill="none" stroke="#0f766e" stroke-width="1.8" points="72.00,214.56 82.51,203.97 93.03,232.67 103.54,215.25 114.05,219.01 124.56,220.03 135.08,223.11 145.59,215.25 156.10,207.73 166.62,216.27 177.13,230.96 187.64,220.03 198.15,220.71 208.67,219.69 219.18,236.43 229.69,239.85 240.21,211.83 250.72,210.80 261.23,221.74 271.74,216.95 282.26,237.46 292.77,210.12 303.28,223.79 313.79,220.37 324.31,212.51 334.82,227.89 345.33,246.00 355.85,220.71 366.36,226.52 376.87,220.71 387.38,241.22 397.90,228.23 408.41,237.80 418.92,243.27 429.44,239.85 439.95,232.33 450.46,221.40 460.97,238.82 471.49,211.15 482.00,233.70 492.51,224.81 503.03,226.18 513.54,212.51 524.05,72.07 534.56,42.00 545.08,57.72 555.59,80.61 566.10,100.09 576.62,116.49 587.13,154.42 597.64,178.00 608.15,159.89 618.67,157.84 629.18,168.09 639.69,162.96 650.21,156.13 660.72,147.25 671.23,183.13 681.74,140.75 692.26,177.32 702.77,137.34 713.28,143.83 723.79,154.42 734.31,168.43 744.82,149.98 755.33,165.36 765.85,164.33 776.36,160.23 786.87,143.83 797.38,143.15 807.90,143.49 818.41,147.25 828.92,157.84 839.44,138.36 849.95,134.26 860.46,148.27 870.97,158.18 881.49,167.41 892.00,241.56"/>
<polyline fill="none" stroke="#b91c1c" stroke-width="1.8" points="72.00,214.56 82.51,203.97 93.03,232.67 103.54,215.25 114.05,219.01 124.56,220.03 135.08,223.11 145.59,215.25 156.10,207.73 166.62,216.27 177.13,230.96 187.64,220.03 198.15,220.71 208.67,219.69 219.18,236.43 229.69,239.85 240.21,211.83 250.72,210.80 261.23,221.74 271.74,216.95 282.26,237.46 292.77,210.12 303.28,223.79 313.79,220.37 324.31,212.51 334.82,227.89 345.33,246.00 355.85,220.71 366.36,226.52 376.87,220.71 387.38,241.22 397.90,228.23 408.41,237.80 418.92,243.27 429.44,239.85 439.95,232.33 450.46,221.40 460.97,238.82 471.49,211.15 482.00,233.70 492.51,224.81 503.03,226.18 513.54,212.51 524.05,72.07 534.56,42.00 545.08,57.72 555.59,80.61 566.10,100.09 576.62,116.49 587.13,154.42 597.64,178.00 608.15,159.89 618.67,157.84 629.18,168.09 639.69,162.96 650.21,156.13 660.72,147.25 671.23,183.13 681.74,140.75 692.26,177.32 702.77,137.34 713.28,143.83 723.79,154.42 734.31,168.43 744.82,149.98 755.33,165.36 765.85,164.33 776.36,160.23 786.87,143.83 797.38,143.15 807.90,143.49 818.41,147.25 828.92,157.84 839.44,138.36 849.95,134.26 860.46,148.27 870.97,158.18 881.49,167.41 892.00,241.56"/>
</svg>
