<svg xmlns="http://www.w3.org/2000/svg" width="920" height="300" viewBox="0 0 920 300">
<rect width="100%" height="100%" fill="#ffffff"/>
<text x="72" y="24" font-family="Arial, sans-serif" font-size="16" font-weight="700" fill="#111827">LocalEventTime page min/max</text>
<text x="72" y="288" font-family="Arial, sans-serif" font-size="11" fill="#6b7280">page/row-group index</text>
<text x="18" y="144" transform="rotate(-90 18 144)" font-family="Arial, sans-serif" font-size="11" fill="#6b7280">value</text>
<line x1="72" y1="246.00" x2="892" y2="246.00" stroke="#e5e7eb" stroke-width="1"/>
<text x="64" y="249.00" font-family="Arial, sans-serif" font-size="10" text-anchor="end" fill="#6b7280">1.37e+12</text>
<line x1="72" y1="195.00" x2="892" y2="195.00" stroke="#e5e7eb" stroke-width="1"/>
<text x="64" y="198.00" font-family="Arial, sans-serif" font-size="10" text-anchor="end" fill="#6b7280">1.37e+12</text>
<line x1="72" y1="144.00" x2="892" y2="144.00" stroke="#e5e7eb" stroke-width="1"/>
<text x="64" y="147.00" font-family="Arial, sans-serif" font-size="10" text-anchor="end" fill="#6b7280">1.37e+12</text>
<line x1="72" y1="93.00" x2="892" y2="93.00" stroke="#e5e7eb" stroke-width="1"/>
<text x="64" y="96.00" font-family="Arial, sans-serif" font-size="10" text-anchor="end" fill="#6b7280">1.37e+12</text>
<line x1="72" y1="42.00" x2="892" y2="42.00" stroke="#e5e7eb" stroke-width="1"/>
<text x="64" y="45.00" font-family="Arial, sans-serif" font-size="10" text-anchor="end" fill="#6b7280">1.37e+12</text>
<line x1="72" y1="246" x2="892" y2="246" stroke="#9ca3af" stroke-width="1"/>
<line x1="72" y1="42" x2="72" y2="246" stroke="#9ca3af" stroke-width="1"/>
<circle cx="72" cy="266" r="4" fill="#2563eb"/>
<text x="80" y="270" font-family="Arial, sans-serif" font-size="11" fill="#374151">page min</text>
<circle cx="252" cy="266" r="4" fill="#b91c1c"/>
<text x="260" y="270" font-family="Arial, sans-serif" font-size="11" fill="#374151">page max</text>
<polyline fill="none" stroke="#2563eb" stroke-width="1.8" points="72.00,245.95 82.51,245.94 93.03,245.96 103.54,245.99 114.05,245.97 124.56,245.96 135.08,245.93 145.59,245.97 156.10,246.00 166.62,246.00 177.13,246.00 187.64,245.98 198.15,245.97 208.67,245.97 219.18,245.96 229.69,246.00 240.21,245.97 250.72,245.98 261.23,245.98 271.74,246.00 282.26,245.96 292.77,245.98 303.28,245.98 313.79,245.98 324.31,245.91 334.82,245.97 345.33,245.90 355.85,246.00 366.36,245.88 376.87,245.95 387.38,245.98 397.90,245.98 408.41,245.97 418.92,246.00 429.44,245.99 439.95,246.00 450.46,245.98 460.97,246.00 471.49,245.97 482.00,245.95 492.51,245.99 503.03,246.00 513.54,245.98 524.05,246.00 534.56,245.94 545.08,246.00 555.59,245.99 566.10,246.00 576.62,245.97 587.13,246.00 597.64,245.99 608.15,245.97 618.67,245.98 629.18,246.00 639.69,245.99 650.21,245.99 660.72,246.00 671.23,245.99 681.74,246.00 692.26,245.99 702.77,246.00 713.28,246.00 723.79,246.00 734.31,245.98 744.82,245.98 755.33,246.00 765.85,245.99 776.36,245.99 786.87,245.91 797.38,245.98 807.90,245.98 818.41,246.00 828.92,245.99 839.44,245.99 849.95,245.99 860.46,246.00 870.97,246.00 881.49,245.99 892.00,246.00"/>
<polyline fill="none" stroke="#b91c1c" stroke-width="1.8" points="72.00,42.03 82.51,42.01 93.03,42.00 103.54,42.05 114.05,42.08 124.56,42.04 135.08,42.02 145.59,42.02 156.10,42.00 166.62,42.00 177.13,42.13 187.64,42.03 198.15,42.04 208.67,42.10 219.18,42.01 229.69,42.01 240.21,42.03 250.72,42.02 261.23,42.02 271.74,42.08 282.26,42.01 292.77,42.01 303.28,42.00 313.79,42.05 324.31,42.01 334.82,42.00 345.33,42.14 355.85,42.02 366.36,42.16 376.87,42.00 387.38,42.03 397.90,42.02 408.41,42.03 418.92,42.01 429.44,42.02 439.95,42.11 450.46,42.01 460.97,42.00 471.49,42.04 482.00,42.01 492.51,42.02 503.03,42.00 513.54,42.01 524.05,42.02 534.56,42.00 545.08,42.01 555.59,42.02 566.10,42.00 576.62,42.00 587.13,42.01 597.64,42.02 608.15,42.03 618.67,42.02 629.18,42.01 639.69,42.00 650.21,42.00 660.72,42.00 671.23,42.00 681.74,42.00 692.26,42.02 702.77,42.00 713.28,42.03 723.79,42.00 734.31,42.02 744.82,42.00 755.33,42.01 765.85,42.02 776.36,42.01 786.87,42.02 797.38,42.00 807.90,42.00 818.41,42.00 828.92,42.04 839.44,42.01 849.95,42.00 860.46,42.02 870.97,42.00 881.49,42.02 892.00,42.02"/>
</svg>
