<svg xmlns="http://www.w3.org/2000/svg" width="920" height="300" viewBox="0 0 920 300">
<rect width="100%" height="100%" fill="#ffffff"/>
<text x="72" y="24" font-family="Arial, sans-serif" font-size="16" font-weight="700" fill="#111827">LocalEventTime page cardinality per row group</text>
<text x="72" y="288" font-family="Arial, sans-serif" font-size="11" fill="#6b7280">page/row-group index</text>
<text x="18" y="144" transform="rotate(-90 18 144)" font-family="Arial, sans-serif" font-size="11" fill="#6b7280">distinct values</text>
<line x1="72" y1="246.00" x2="892" y2="246.00" stroke="#e5e7eb" stroke-width="1"/>
<text x="64" y="249.00" font-family="Arial, sans-serif" font-size="10" text-anchor="end" fill="#6b7280">5968</text>
<line x1="72" y1="195.00" x2="892" y2="195.00" stroke="#e5e7eb" stroke-width="1"/>
<text x="64" y="198.00" font-family="Arial, sans-serif" font-size="10" text-anchor="end" fill="#6b7280">7737.75</text>
<line x1="72" y1="144.00" x2="892" y2="144.00" stroke="#e5e7eb" stroke-width="1"/>
<text x="64" y="147.00" font-family="Arial, sans-serif" font-size="10" text-anchor="end" fill="#6b7280">9507.50</text>
<line x1="72" y1="93.00" x2="892" y2="93.00" stroke="#e5e7eb" stroke-width="1"/>
<text x="64" y="96.00" font-family="Arial, sans-serif" font-size="10" text-anchor="end" fill="#6b7280">11277.25</text>
<line x1="72" y1="42.00" x2="892" y2="42.00" stroke="#e5e7eb" stroke-width="1"/>
<text x="64" y="45.00" font-family="Arial, sans-serif" font-size="10" text-anchor="end" fill="#6b7280">13047</text>
<line x1="72" y1="246" x2="892" y2="246" stroke="#9ca3af" stroke-width="1"/>
<line x1="72" y1="42" x2="72" y2="246" stroke="#9ca3af" stroke-width="1"/>
<circle cx="72" cy="266" r="4" fill="#0f766e"/>
<text x="80" y="270" font-family="Arial, sans-serif" font-size="11" fill="#374151">min page cardinality</text>
<circle cx="252" cy="266" r="4" fill="#b91c1c"/>
<text x="260" y="270" font-family="Arial, sans-serif" font-size="11" fill="#374151">max page cardinality</text>
<polyline fill="none" stroke="#0f766e" stroke-width="1.8" points="72.00,239.78 82.51,241.33 93.03,238.05 103.54,238.94 114.05,239.80 124.56,237.76 135.08,244.53 145.59,241.85 156.10,240.67 166.62,241.33 177.13,240.90 187.64,239.98 198.15,242.77 208.67,241.01 219.18,240.81 229.69,239.95 240.21,238.97 250.72,238.88 261.23,239.69 271.74,241.88 282.26,237.33 292.77,239.08 303.28,240.41 313.79,238.71 324.31,242.20 334.82,240.24 345.33,241.33 355.85,239.54 366.36,237.99 376.87,241.97 387.38,243.41 397.90,240.55 408.41,238.57 418.92,246.00 429.44,242.37 439.95,235.83 450.46,239.95 460.97,239.08 471.49,240.03 482.00,238.74 492.51,240.58 503.03,243.87 513.54,224.56 524.05,106.03 534.56,108.94 545.08,113.76 555.59,103.99 566.10,102.63 576.62,103.24 587.13,45.14 597.64,46.06 608.15,51.54 618.67,52.75 629.18,47.10 639.69,58.60 650.21,53.47 660.72,44.42 671.23,48.57 681.74,48.14 692.26,53.35 702.77,48.69 713.28,46.47 723.79,48.08 734.31,55.31 744.82,46.01 755.33,51.91 765.85,47.42 776.36,55.43 786.87,50.59 797.38,46.38 807.90,42.81 818.41,46.96 828.92,46.44 839.44,54.54 849.95,46.27 860.46,42.00 870.97,52.00 881.49,51.16 892.00,164.85"/>
<polyline fill="none" stroke="#b91c1c" stroke-width="1.8" points="72.00,239.78 82.51,241.33 93.03,238.05 103.54,238.94 114.05,239.80 124.56,237.76 135.08,244.53 145.59,241.85 156.10,240.67 166.62,241.33 177.13,240.90 187.64,239.98 198.15,242.77 208.67,241.01 219.18,240.81 229.69,239.95 240.21,238.97 250.72,238.88 261.23,239.69 271.74,241.88 282.26,237.33 292.77,239.08 303.28,240.41 313.79,238.71 324.31,242.20 334.82,240.24 345.33,241.33 355.85,239.54 366.36,237.99 376.87,241.97 387.38,243.41 397.90,240.55 408.41,238.57 418.92,246.00 429.44,242.37 439.95,235.83 450.46,239.95 460.97,239.08 471.49,240.03 482.00,238.74 492.51,240.58 503.03,243.87 513.54,224.56 524.05,106.03 534.56,108.94 545.08,113.76 555.59,103.99 566.10,102.63 576.62,103.24 587.13,45.14 597.64,46.06 608.15,51.54 618.67,52.75 629.18,47.10 639.69,58.60 650.21,53.47 660.72,44.42 671.23,48.57 681.74,48.14 692.26,53.35 702.77,48.69 713.28,46.47 723.79,48.08 734.31,55.31 744.82,46.01 755.33,51.91 765.85,47.42 776.36,55.43 786.87,50.59 797.38,46.38 807.90,42.81 818.41,46.96 828.92,46.44 839.44,54.54 849.95,46.27 860.46,42.00 870.97,52.00 881.49,51.16 892.00,164.85"/>
</svg>
