<svg xmlns="http://www.w3.org/2000/svg" width="920" height="300" viewBox="0 0 920 300">
<rect width="100%" height="100%" fill="#ffffff"/>
<text x="72" y="24" font-family="Arial, sans-serif" font-size="16" font-weight="700" fill="#111827">MobilePhone page cardinality per row group</text>
<text x="72" y="288" font-family="Arial, sans-serif" font-size="11" fill="#6b7280">page/row-group index</text>
<text x="18" y="144" transform="rotate(-90 18 144)" font-family="Arial, sans-serif" font-size="11" fill="#6b7280">distinct values</text>
<line x1="72" y1="246.00" x2="892" y2="246.00" stroke="#e5e7eb" stroke-width="1"/>
<text x="64" y="249.00" font-family="Arial, sans-serif" font-size="10" text-anchor="end" fill="#6b7280">3</text>
<line x1="72" y1="195.00" x2="892" y2="195.00" stroke="#e5e7eb" stroke-width="1"/>
<text x="64" y="198.00" font-family="Arial, sans-serif" font-size="10" text-anchor="end" fill="#6b7280">5</text>
<line x1="72" y1="144.00" x2="892" y2="144.00" stroke="#e5e7eb" stroke-width="1"/>
<text x="64" y="147.00" font-family="Arial, sans-serif" font-size="10" text-anchor="end" fill="#6b7280">7</text>
<line x1="72" y1="93.00" x2="892" y2="93.00" stroke="#e5e7eb" stroke-width="1"/>
<text x="64" y="96.00" font-family="Arial, sans-serif" font-size="10" text-anchor="end" fill="#6b7280">9</text>
<line x1="72" y1="42.00" x2="892" y2="42.00" stroke="#e5e7eb" stroke-width="1"/>
<text x="64" y="45.00" font-family="Arial, sans-serif" font-size="10" text-anchor="end" fill="#6b7280">11</text>
<line x1="72" y1="246" x2="892" y2="246" stroke="#9ca3af" stroke-width="1"/>
<line x1="72" y1="42" x2="72" y2="246" stroke="#9ca3af" stroke-width="1"/>
<circle cx="72" cy="266" r="4" fill="#0f766e"/>
<text x="80" y="270" font-family="Arial, sans-serif" font-size="11" fill="#374151">min page cardinality</text>
<circle cx="252" cy="266" r="4" fill="#b91c1c"/>
<text x="260" y="270" font-family="Arial, sans-serif" font-size="11" fill="#374151">max page cardinality</text>
<polyline fill="none" stroke="#0f766e" stroke-width="1.8" points="72.00,169.50 82.51,118.50 93.03,195.00 103.54,195.00 114.05,144.00 124.56,67.50 135.08,220.50 145.59,144.00 156.10,144.00 166.62,144.00 177.13,169.50 187.64,195.00 198.15,144.00 208.67,220.50 219.18,169.50 229.69,118.50 240.21,246.00 250.72,118.50 261.23,195.00 271.74,93.00 282.26,169.50 292.77,220.50 303.28,144.00 313.79,118.50 324.31,118.50 334.82,195.00 345.33,195.00 355.85,195.00 366.36,169.50 376.87,195.00 387.38,220.50 397.90,220.50 408.41,144.00 418.92,195.00 429.44,220.50 439.95,169.50 450.46,144.00 460.97,195.00 471.49,195.00 482.00,220.50 492.51,195.00 503.03,195.00 513.54,195.00 524.05,42.00 534.56,67.50 545.08,144.00 555.59,169.50 566.10,118.50 576.62,118.50 587.13,118.50 597.64,93.00 608.15,42.00 618.67,93.00 629.18,42.00 639.69,169.50 650.21,118.50 660.72,93.00 671.23,118.50 681.74,118.50 692.26,67.50 702.77,118.50 713.28,144.00 723.79,118.50 734.31,118.50 744.82,144.00 755.33,118.50 765.85,42.00 776.36,144.00 786.87,169.50 797.38,67.50 807.90,42.00 818.41,144.00 828.92,93.00 839.44,93.00 849.95,93.00 860.46,144.00 870.97,169.50 881.49,118.50 892.00,169.50"/>
<polyline fill="none" stroke="#b91c1c" stroke-width="1.8" points="72.00,169.50 82.51,118.50 93.03,195.00 103.54,195.00 114.05,144.00 124.56,67.50 135.08,220.50 145.59,144.00 156.10,144.00 166.62,144.00 177.13,169.50 187.64,195.00 198.15,144.00 208.67,220.50 219.18,169.50 229.69,118.50 240.21,246.00 250.72,118.50 261.23,195.00 271.74,93.00 282.26,169.50 292.77,220.50 303.28,144.00 313.79,118.50 324.31,118.50 334.82,195.00 345.33,195.00 355.85,195.00 366.36,169.50 376.87,195.00 387.38,220.50 397.90,220.50 408.41,144.00 418.92,195.00 429.44,220.50 439.95,169.50 450.46,144.00 460.97,195.00 471.49,195.00 482.00,220.50 492.51,195.00 503.03,195.00 513.54,195.00 524.05,42.00 534.56,67.50 545.08,144.00 555.59,169.50 566.10,118.50 576.62,118.50 587.13,118.50 597.64,93.00 608.15,42.00 618.67,93.00 629.18,42.00 639.69,169.50 650.21,118.50 660.72,93.00 671.23,118.50 681.74,118.50 692.26,67.50 702.77,118.50 713.28,144.00 723.79,118.50 734.31,118.50 744.82,144.00 755.33,118.50 765.85,42.00 776.36,144.00 786.87,169.50 797.38,67.50 807.90,42.00 818.41,144.00 828.92,93.00 839.44,93.00 849.95,93.00 860.46,144.00 870.97,169.50 881.49,118.50 892.00,169.50"/>
</svg>
