<svg xmlns="http://www.w3.org/2000/svg" width="920" height="300" viewBox="0 0 920 300">
<rect width="100%" height="100%" fill="#ffffff"/>
<text x="72" y="24" font-family="Arial, sans-serif" font-size="16" font-weight="700" fill="#111827">MobilePhoneModel row-group cardinality</text>
<text x="72" y="288" font-family="Arial, sans-serif" font-size="11" fill="#6b7280">page/row-group index</text>
<text x="18" y="144" transform="rotate(-90 18 144)" font-family="Arial, sans-serif" font-size="11" fill="#6b7280">distinct values</text>
<line x1="72" y1="246.00" x2="892" y2="246.00" stroke="#e5e7eb" stroke-width="1"/>
<text x="64" y="249.00" font-family="Arial, sans-serif" font-size="10" text-anchor="end" fill="#6b7280">2</text>
<line x1="72" y1="195.00" x2="892" y2="195.00" stroke="#e5e7eb" stroke-width="1"/>
<text x="64" y="198.00" font-family="Arial, sans-serif" font-size="10" text-anchor="end" fill="#6b7280">3</text>
<line x1="72" y1="144.00" x2="892" y2="144.00" stroke="#e5e7eb" stroke-width="1"/>
<text x="64" y="147.00" font-family="Arial, sans-serif" font-size="10" text-anchor="end" fill="#6b7280">4</text>
<line x1="72" y1="93.00" x2="892" y2="93.00" stroke="#e5e7eb" stroke-width="1"/>
<text x="64" y="96.00" font-family="Arial, sans-serif" font-size="10" text-anchor="end" fill="#6b7280">5</text>
<line x1="72" y1="42.00" x2="892" y2="42.00" stroke="#e5e7eb" stroke-width="1"/>
<text x="64" y="45.00" font-family="Arial, sans-serif" font-size="10" text-anchor="end" fill="#6b7280">6</text>
<line x1="72" y1="246" x2="892" y2="246" stroke="#9ca3af" stroke-width="1"/>
<line x1="72" y1="42" x2="72" y2="246" stroke="#9ca3af" stroke-width="1"/>
<circle cx="72" cy="266" r="4" fill="#2563eb"/>
<text x="80" y="270" font-family="Arial, sans-serif" font-size="11" fill="#374151">row group cardinality</text>
<polyline fill="none" stroke="#2563eb" stroke-width="1.8" points="72.00,246.00 82.51,93.00 93.03,246.00 103.54,195.00 114.05,93.00 124.56,93.00 135.08,246.00 145.59,246.00 156.10,144.00 166.62,144.00 177.13,144.00 187.64,195.00 198.15,144.00 208.67,195.00 219.18,195.00 229.69,195.00 240.21,195.00 250.72,195.00 261.23,246.00 271.74,195.00 282.26,144.00 292.77,246.00 303.28,246.00 313.79,144.00 324.31,144.00 334.82,195.00 345.33,195.00 355.85,144.00 366.36,144.00 376.87,195.00 387.38,246.00 397.90,246.00 408.41,144.00 418.92,246.00 429.44,144.00 439.95,195.00 450.46,144.00 460.97,144.00 471.49,144.00 482.00,195.00 492.51,144.00 503.03,195.00 513.54,195.00 524.05,144.00 534.56,144.00 545.08,93.00 555.59,195.00 566.10,144.00 576.62,144.00 587.13,42.00 597.64,42.00 608.15,42.00 618.67,93.00 629.18,93.00 639.69,42.00 650.21,144.00 660.72,144.00 671.23,195.00 681.74,195.00 692.26,42.00 702.77,195.00 713.28,144.00 723.79,93.00 734.31,93.00 744.82,42.00 755.33,93.00 765.85,93.00 776.36,42.00 786.87,42.00 797.38,93.00 807.90,42.00 818.41,144.00 828.92,42.00 839.44,42.00 849.95,42.00 860.46,42.00 870.97,195.00 881.49,195.00 892.00,144.00"/>
</svg>
