<svg xmlns="http://www.w3.org/2000/svg" width="920" height="300" viewBox="0 0 920 300">
<rect width="100%" height="100%" fill="#ffffff"/>
<text x="72" y="24" font-family="Arial, sans-serif" font-size="16" font-weight="700" fill="#111827">OpenstatAdID value length per row group</text>
<text x="72" y="288" font-family="Arial, sans-serif" font-size="11" fill="#6b7280">page/row-group index</text>
<text x="18" y="144" transform="rotate(-90 18 144)" font-family="Arial, sans-serif" font-size="11" fill="#6b7280">bytes</text>
<line x1="72" y1="246.00" x2="892" y2="246.00" stroke="#e5e7eb" stroke-width="1"/>
<text x="64" y="249.00" font-family="Arial, sans-serif" font-size="10" text-anchor="end" fill="#6b7280">0</text>
<line x1="72" y1="195.00" x2="892" y2="195.00" stroke="#e5e7eb" stroke-width="1"/>
<text x="64" y="198.00" font-family="Arial, sans-serif" font-size="10" text-anchor="end" fill="#6b7280">5.50</text>
<line x1="72" y1="144.00" x2="892" y2="144.00" stroke="#e5e7eb" stroke-width="1"/>
<text x="64" y="147.00" font-family="Arial, sans-serif" font-size="10" text-anchor="end" fill="#6b7280">11</text>
<line x1="72" y1="93.00" x2="892" y2="93.00" stroke="#e5e7eb" stroke-width="1"/>
<text x="64" y="96.00" font-family="Arial, sans-serif" font-size="10" text-anchor="end" fill="#6b7280">16.50</text>
<line x1="72" y1="42.00" x2="892" y2="42.00" stroke="#e5e7eb" stroke-width="1"/>
<text x="64" y="45.00" font-family="Arial, sans-serif" font-size="10" text-anchor="end" fill="#6b7280">22</text>
<line x1="72" y1="246" x2="892" y2="246" stroke="#9ca3af" stroke-width="1"/>
<line x1="72" y1="42" x2="72" y2="246" stroke="#9ca3af" stroke-width="1"/>
<circle cx="72" cy="266" r="4" fill="#7c3aed"/>
<text x="80" y="270" font-family="Arial, sans-serif" font-size="11" fill="#374151">min length</text>
<circle cx="252" cy="266" r="4" fill="#ea580c"/>
<text x="260" y="270" font-family="Arial, sans-serif" font-size="11" fill="#374151">max length</text>
<polyline fill="none" stroke="#7c3aed" stroke-width="1.8" points="72.00,246.00 82.51,246.00 93.03,246.00 103.54,246.00 114.05,246.00 124.56,246.00 135.08,246.00 145.59,246.00 156.10,246.00 166.62,246.00 177.13,246.00 187.64,246.00 198.15,246.00 208.67,246.00 219.18,246.00 229.69,246.00 240.21,246.00 250.72,246.00 261.23,246.00 271.74,246.00 282.26,246.00 292.77,246.00 303.28,246.00 313.79,246.00 324.31,246.00 334.82,246.00 345.33,246.00 355.85,246.00 366.36,246.00 376.87,246.00 387.38,246.00 397.90,246.00 408.41,246.00 418.92,246.00 429.44,246.00 439.95,246.00 450.46,246.00 460.97,246.00 471.49,246.00 482.00,246.00 492.51,246.00 503.03,246.00 513.54,246.00 524.05,246.00 534.56,246.00 545.08,246.00 555.59,246.00 566.10,246.00 576.62,246.00 587.13,246.00 597.64,246.00 608.15,246.00 618.67,246.00 629.18,246.00 639.69,246.00 650.21,246.00 660.72,246.00 671.23,246.00 681.74,246.00 692.26,246.00 702.77,246.00 713.28,246.00 723.79,246.00 734.31,246.00 744.82,246.00 755.33,246.00 765.85,246.00 776.36,246.00 786.87,246.00 797.38,246.00 807.90,246.00 818.41,246.00 828.92,246.00 839.44,246.00 849.95,246.00 860.46,246.00 870.97,246.00 881.49,246.00 892.00,246.00"/>
<polyline fill="none" stroke="#ea580c" stroke-width="1.8" points="72.00,125.45 82.51,106.91 93.03,153.27 103.54,116.18 114.05,116.18 124.56,125.45 135.08,125.45 145.59,116.18 156.10,125.45 166.62,134.73 177.13,106.91 187.64,125.45 198.15,125.45 208.67,134.73 219.18,97.64 229.69,116.18 240.21,153.27 250.72,125.45 261.23,116.18 271.74,106.91 282.26,106.91 292.77,116.18 303.28,125.45 313.79,125.45 324.31,134.73 334.82,116.18 345.33,97.64 355.85,116.18 366.36,97.64 376.87,116.18 387.38,134.73 397.90,125.45 408.41,97.64 418.92,134.73 429.44,116.18 439.95,116.18 450.46,134.73 460.97,97.64 471.49,125.45 482.00,97.64 492.51,134.73 503.03,125.45 513.54,134.73 524.05,246.00 534.56,246.00 545.08,246.00 555.59,246.00 566.10,246.00 576.62,227.45 587.13,125.45 597.64,171.82 608.15,227.45 618.67,227.45 629.18,199.64 639.69,116.18 650.21,227.45 660.72,42.00 671.23,171.82 681.74,227.45 692.26,162.55 702.77,227.45 713.28,227.45 723.79,42.00 734.31,97.64 744.82,227.45 755.33,227.45 765.85,227.45 776.36,227.45 786.87,171.82 797.38,97.64 807.90,42.00 818.41,227.45 828.92,171.82 839.44,208.91 849.95,227.45 860.46,116.18 870.97,97.64 881.49,134.73 892.00,106.91"/>
</svg>
