<svg xmlns="http://www.w3.org/2000/svg" width="920" height="300" viewBox="0 0 920 300">
<rect width="100%" height="100%" fill="#ffffff"/>
<text x="72" y="24" font-family="Arial, sans-serif" font-size="16" font-weight="700" fill="#111827">OpenstatAdID page cardinality per row group</text>
<text x="72" y="288" font-family="Arial, sans-serif" font-size="11" fill="#6b7280">page/row-group index</text>
<text x="18" y="144" transform="rotate(-90 18 144)" font-family="Arial, sans-serif" font-size="11" fill="#6b7280">distinct values</text>
<line x1="72" y1="246.00" x2="892" y2="246.00" stroke="#e5e7eb" stroke-width="1"/>
<text x="64" y="249.00" font-family="Arial, sans-serif" font-size="10" text-anchor="end" fill="#6b7280">1</text>
<line x1="72" y1="195.00" x2="892" y2="195.00" stroke="#e5e7eb" stroke-width="1"/>
<text x="64" y="198.00" font-family="Arial, sans-serif" font-size="10" text-anchor="end" fill="#6b7280">5.25</text>
<line x1="72" y1="144.00" x2="892" y2="144.00" stroke="#e5e7eb" stroke-width="1"/>
<text x="64" y="147.00" font-family="Arial, sans-serif" font-size="10" text-anchor="end" fill="#6b7280">9.50</text>
<line x1="72" y1="93.00" x2="892" y2="93.00" stroke="#e5e7eb" stroke-width="1"/>
<text x="64" y="96.00" font-family="Arial, sans-serif" font-size="10" text-anchor="end" fill="#6b7280">13.75</text>
<line x1="72" y1="42.00" x2="892" y2="42.00" stroke="#e5e7eb" stroke-width="1"/>
<text x="64" y="45.00" font-family="Arial, sans-serif" font-size="10" text-anchor="end" fill="#6b7280">18</text>
<line x1="72" y1="246" x2="892" y2="246" stroke="#9ca3af" stroke-width="1"/>
<line x1="72" y1="42" x2="72" y2="246" stroke="#9ca3af" stroke-width="1"/>
<circle cx="72" cy="266" r="4" fill="#0f766e"/>
<text x="80" y="270" font-family="Arial, sans-serif" font-size="11" fill="#374151">min page cardinality</text>
<circle cx="252" cy="266" r="4" fill="#b91c1c"/>
<text x="260" y="270" font-family="Arial, sans-serif" font-size="11" fill="#374151">max page cardinality</text>
<polyline fill="none" stroke="#0f766e" stroke-width="1.8" points="72.00,126.00 82.51,150.00 93.03,150.00 103.54,126.00 114.05,138.00 124.56,126.00 135.08,90.00 145.59,162.00 156.10,42.00 166.62,102.00 177.13,114.00 187.64,102.00 198.15,126.00 208.67,150.00 219.18,114.00 229.69,114.00 240.21,138.00 250.72,126.00 261.23,138.00 271.74,138.00 282.26,102.00 292.77,90.00 303.28,114.00 313.79,102.00 324.31,114.00 334.82,90.00 345.33,90.00 355.85,66.00 366.36,66.00 376.87,114.00 387.38,150.00 397.90,42.00 408.41,138.00 418.92,126.00 429.44,90.00 439.95,42.00 450.46,150.00 460.97,102.00 471.49,90.00 482.00,54.00 492.51,150.00 503.03,102.00 513.54,150.00 524.05,246.00 534.56,246.00 545.08,246.00 555.59,246.00 566.10,246.00 576.62,234.00 587.13,210.00 597.64,222.00 608.15,234.00 618.67,234.00 629.18,222.00 639.69,222.00 650.21,234.00 660.72,210.00 671.23,222.00 681.74,234.00 692.26,222.00 702.77,234.00 713.28,234.00 723.79,222.00 734.31,222.00 744.82,234.00 755.33,234.00 765.85,234.00 776.36,234.00 786.87,222.00 797.38,210.00 807.90,210.00 818.41,234.00 828.92,222.00 839.44,222.00 849.95,234.00 860.46,210.00 870.97,186.00 881.49,210.00 892.00,210.00"/>
<polyline fill="none" stroke="#b91c1c" stroke-width="1.8" points="72.00,126.00 82.51,150.00 93.03,150.00 103.54,126.00 114.05,138.00 124.56,126.00 135.08,90.00 145.59,162.00 156.10,42.00 166.62,102.00 177.13,114.00 187.64,102.00 198.15,126.00 208.67,150.00 219.18,114.00 229.69,114.00 240.21,138.00 250.72,126.00 261.23,138.00 271.74,138.00 282.26,102.00 292.77,90.00 303.28,114.00 313.79,102.00 324.31,114.00 334.82,90.00 345.33,90.00 355.85,66.00 366.36,66.00 376.87,114.00 387.38,150.00 397.90,42.00 408.41,138.00 418.92,126.00 429.44,90.00 439.95,42.00 450.46,150.00 460.97,102.00 471.49,90.00 482.00,54.00 492.51,150.00 503.03,102.00 513.54,150.00 524.05,246.00 534.56,246.00 545.08,246.00 555.59,246.00 566.10,246.00 576.62,234.00 587.13,210.00 597.64,222.00 608.15,234.00 618.67,234.00 629.18,222.00 639.69,222.00 650.21,234.00 660.72,210.00 671.23,222.00 681.74,234.00 692.26,222.00 702.77,234.00 713.28,234.00 723.79,222.00 734.31,222.00 744.82,234.00 755.33,234.00 765.85,234.00 776.36,234.00 786.87,222.00 797.38,210.00 807.90,210.00 818.41,234.00 828.92,222.00 839.44,222.00 849.95,234.00 860.46,210.00 870.97,186.00 881.49,210.00 892.00,210.00"/>
</svg>
