<svg xmlns="http://www.w3.org/2000/svg" width="920" height="300" viewBox="0 0 920 300">
<rect width="100%" height="100%" fill="#ffffff"/>
<text x="72" y="24" font-family="Arial, sans-serif" font-size="16" font-weight="700" fill="#111827">OpenstatCampaignID row-group cardinality</text>
<text x="72" y="288" font-family="Arial, sans-serif" font-size="11" fill="#6b7280">page/row-group index</text>
<text x="18" y="144" transform="rotate(-90 18 144)" font-family="Arial, sans-serif" font-size="11" fill="#6b7280">distinct values</text>
<line x1="72" y1="246.00" x2="892" y2="246.00" stroke="#e5e7eb" stroke-width="1"/>
<text x="64" y="249.00" font-family="Arial, sans-serif" font-size="10" text-anchor="end" fill="#6b7280">1</text>
<line x1="72" y1="195.00" x2="892" y2="195.00" stroke="#e5e7eb" stroke-width="1"/>
<text x="64" y="198.00" font-family="Arial, sans-serif" font-size="10" text-anchor="end" fill="#6b7280">2.25</text>
<line x1="72" y1="144.00" x2="892" y2="144.00" stroke="#e5e7eb" stroke-width="1"/>
<text x="64" y="147.00" font-family="Arial, sans-serif" font-size="10" text-anchor="end" fill="#6b7280">3.50</text>
<line x1="72" y1="93.00" x2="892" y2="93.00" stroke="#e5e7eb" stroke-width="1"/>
<text x="64" y="96.00" font-family="Arial, sans-serif" font-size="10" text-anchor="end" fill="#6b7280">4.75</text>
<line x1="72" y1="42.00" x2="892" y2="42.00" stroke="#e5e7eb" stroke-width="1"/>
<text x="64" y="45.00" font-family="Arial, sans-serif" font-size="10" text-anchor="end" fill="#6b7280">6</text>
<line x1="72" y1="246" x2="892" y2="246" stroke="#9ca3af" stroke-width="1"/>
<line x1="72" y1="42" x2="72" y2="246" stroke="#9ca3af" stroke-width="1"/>
<circle cx="72" cy="266" r="4" fill="#2563eb"/>
<text x="80" y="270" font-family="Arial, sans-serif" font-size="11" fill="#374151">row group cardinality</text>
<polyline fill="none" stroke="#2563eb" stroke-width="1.8" points="72.00,164.40 82.51,82.80 93.03,164.40 103.54,123.60 114.05,164.40 124.56,82.80 135.08,123.60 145.59,164.40 156.10,82.80 166.62,123.60 177.13,123.60 187.64,82.80 198.15,164.40 208.67,123.60 219.18,123.60 229.69,123.60 240.21,164.40 250.72,164.40 261.23,164.40 271.74,123.60 282.26,123.60 292.77,82.80 303.28,164.40 313.79,82.80 324.31,123.60 334.82,123.60 345.33,123.60 355.85,42.00 366.36,82.80 376.87,123.60 387.38,123.60 397.90,42.00 408.41,123.60 418.92,123.60 429.44,164.40 439.95,123.60 450.46,123.60 460.97,123.60 471.49,123.60 482.00,82.80 492.51,82.80 503.03,164.40 513.54,123.60 524.05,205.20 534.56,246.00 545.08,164.40 555.59,205.20 566.10,205.20 576.62,164.40 587.13,42.00 597.64,123.60 608.15,82.80 618.67,205.20 629.18,123.60 639.69,164.40 650.21,164.40 660.72,82.80 671.23,82.80 681.74,205.20 692.26,164.40 702.77,123.60 713.28,164.40 723.79,123.60 734.31,164.40 744.82,164.40 755.33,164.40 765.85,205.20 776.36,205.20 786.87,164.40 797.38,164.40 807.90,82.80 818.41,82.80 828.92,123.60 839.44,123.60 849.95,164.40 860.46,123.60 870.97,164.40 881.49,123.60 892.00,42.00"/>
</svg>
