<svg xmlns="http://www.w3.org/2000/svg" width="920" height="300" viewBox="0 0 920 300">
<rect width="100%" height="100%" fill="#ffffff"/>
<text x="72" y="24" font-family="Arial, sans-serif" font-size="16" font-weight="700" fill="#111827">OpenstatServiceName page cardinality per row group</text>
<text x="72" y="288" font-family="Arial, sans-serif" font-size="11" fill="#6b7280">page/row-group index</text>
<text x="18" y="144" transform="rotate(-90 18 144)" font-family="Arial, sans-serif" font-size="11" fill="#6b7280">distinct values</text>
<line x1="72" y1="246.00" x2="892" y2="246.00" stroke="#e5e7eb" stroke-width="1"/>
<text x="64" y="249.00" font-family="Arial, sans-serif" font-size="10" text-anchor="end" fill="#6b7280">1</text>
<line x1="72" y1="195.00" x2="892" y2="195.00" stroke="#e5e7eb" stroke-width="1"/>
<text x="64" y="198.00" font-family="Arial, sans-serif" font-size="10" text-anchor="end" fill="#6b7280">2.25</text>
<line x1="72" y1="144.00" x2="892" y2="144.00" stroke="#e5e7eb" stroke-width="1"/>
<text x="64" y="147.00" font-family="Arial, sans-serif" font-size="10" text-anchor="end" fill="#6b7280">3.50</text>
<line x1="72" y1="93.00" x2="892" y2="93.00" stroke="#e5e7eb" stroke-width="1"/>
<text x="64" y="96.00" font-family="Arial, sans-serif" font-size="10" text-anchor="end" fill="#6b7280">4.75</text>
<line x1="72" y1="42.00" x2="892" y2="42.00" stroke="#e5e7eb" stroke-width="1"/>
<text x="64" y="45.00" font-family="Arial, sans-serif" font-size="10" text-anchor="end" fill="#6b7280">6</text>
<line x1="72" y1="246" x2="892" y2="246" stroke="#9ca3af" stroke-width="1"/>
<line x1="72" y1="42" x2="72" y2="246" stroke="#9ca3af" stroke-width="1"/>
<circle cx="72" cy="266" r="4" fill="#0f766e"/>
<text x="80" y="270" font-family="Arial, sans-serif" font-size="11" fill="#374151">min page cardinality</text>
<circle cx="252" cy="266" r="4" fill="#b91c1c"/>
<text x="260" y="270" font-family="Arial, sans-serif" font-size="11" fill="#374151">max page cardinality</text>
<polyline fill="none" stroke="#0f766e" stroke-width="1.8" points="72.00,205.20 82.51,205.20 93.03,205.20 103.54,205.20 114.05,205.20 124.56,205.20 135.08,205.20 145.59,205.20 156.10,205.20 166.62,205.20 177.13,205.20 187.64,205.20 198.15,205.20 208.67,205.20 219.18,205.20 229.69,205.20 240.21,205.20 250.72,205.20 261.23,205.20 271.74,205.20 282.26,205.20 292.77,205.20 303.28,205.20 313.79,205.20 324.31,205.20 334.82,205.20 345.33,205.20 355.85,205.20 366.36,205.20 376.87,205.20 387.38,205.20 397.90,205.20 408.41,205.20 418.92,205.20 429.44,205.20 439.95,205.20 450.46,205.20 460.97,205.20 471.49,205.20 482.00,205.20 492.51,205.20 503.03,205.20 513.54,205.20 524.05,205.20 534.56,246.00 545.08,205.20 555.59,205.20 566.10,205.20 576.62,164.40 587.13,42.00 597.64,82.80 608.15,123.60 618.67,164.40 629.18,82.80 639.69,123.60 650.21,123.60 660.72,82.80 671.23,82.80 681.74,164.40 692.26,164.40 702.77,123.60 713.28,123.60 723.79,82.80 734.31,82.80 744.82,123.60 755.33,123.60 765.85,164.40 776.36,164.40 786.87,123.60 797.38,82.80 807.90,82.80 818.41,82.80 828.92,123.60 839.44,82.80 849.95,123.60 860.46,82.80 870.97,123.60 881.49,82.80 892.00,82.80"/>
<polyline fill="none" stroke="#b91c1c" stroke-width="1.8" points="72.00,205.20 82.51,205.20 93.03,205.20 103.54,205.20 114.05,205.20 124.56,205.20 135.08,205.20 145.59,205.20 156.10,205.20 166.62,205.20 177.13,205.20 187.64,205.20 198.15,205.20 208.67,205.20 219.18,205.20 229.69,205.20 240.21,205.20 250.72,205.20 261.23,205.20 271.74,205.20 282.26,205.20 292.77,205.20 303.28,205.20 313.79,205.20 324.31,205.20 334.82,205.20 345.33,205.20 355.85,205.20 366.36,205.20 376.87,205.20 387.38,205.20 397.90,205.20 408.41,205.20 418.92,205.20 429.44,205.20 439.95,205.20 450.46,205.20 460.97,205.20 471.49,205.20 482.00,205.20 492.51,205.20 503.03,205.20 513.54,205.20 524.05,205.20 534.56,246.00 545.08,205.20 555.59,205.20 566.10,205.20 576.62,164.40 587.13,42.00 597.64,82.80 608.15,123.60 618.67,164.40 629.18,82.80 639.69,123.60 650.21,123.60 660.72,82.80 671.23,82.80 681.74,164.40 692.26,164.40 702.77,123.60 713.28,123.60 723.79,82.80 734.31,82.80 744.82,123.60 755.33,123.60 765.85,164.40 776.36,164.40 786.87,123.60 797.38,82.80 807.90,82.80 818.41,82.80 828.92,123.60 839.44,82.80 849.95,123.60 860.46,82.80 870.97,123.60 881.49,82.80 892.00,82.80"/>
</svg>
