<svg xmlns="http://www.w3.org/2000/svg" width="920" height="300" viewBox="0 0 920 300">
<rect width="100%" height="100%" fill="#ffffff"/>
<text x="72" y="24" font-family="Arial, sans-serif" font-size="16" font-weight="700" fill="#111827">OriginalURL page cardinality per row group</text>
<text x="72" y="288" font-family="Arial, sans-serif" font-size="11" fill="#6b7280">page/row-group index</text>
<text x="18" y="144" transform="rotate(-90 18 144)" font-family="Arial, sans-serif" font-size="11" fill="#6b7280">distinct values</text>
<line x1="72" y1="246.00" x2="892" y2="246.00" stroke="#e5e7eb" stroke-width="1"/>
<text x="64" y="249.00" font-family="Arial, sans-serif" font-size="10" text-anchor="end" fill="#6b7280">12</text>
<line x1="72" y1="195.00" x2="892" y2="195.00" stroke="#e5e7eb" stroke-width="1"/>
<text x="64" y="198.00" font-family="Arial, sans-serif" font-size="10" text-anchor="end" fill="#6b7280">275.25</text>
<line x1="72" y1="144.00" x2="892" y2="144.00" stroke="#e5e7eb" stroke-width="1"/>
<text x="64" y="147.00" font-family="Arial, sans-serif" font-size="10" text-anchor="end" fill="#6b7280">538.50</text>
<line x1="72" y1="93.00" x2="892" y2="93.00" stroke="#e5e7eb" stroke-width="1"/>
<text x="64" y="96.00" font-family="Arial, sans-serif" font-size="10" text-anchor="end" fill="#6b7280">801.75</text>
<line x1="72" y1="42.00" x2="892" y2="42.00" stroke="#e5e7eb" stroke-width="1"/>
<text x="64" y="45.00" font-family="Arial, sans-serif" font-size="10" text-anchor="end" fill="#6b7280">1065</text>
<line x1="72" y1="246" x2="892" y2="246" stroke="#9ca3af" stroke-width="1"/>
<line x1="72" y1="42" x2="72" y2="246" stroke="#9ca3af" stroke-width="1"/>
<circle cx="72" cy="266" r="4" fill="#0f766e"/>
<text x="80" y="270" font-family="Arial, sans-serif" font-size="11" fill="#374151">min page cardinality</text>
<circle cx="252" cy="266" r="4" fill="#b91c1c"/>
<text x="260" y="270" font-family="Arial, sans-serif" font-size="11" fill="#374151">max page cardinality</text>
<polyline fill="none" stroke="#0f766e" stroke-width="1.8" points="72.00,204.35 82.51,216.75 93.03,218.30 103.54,222.36 114.05,203.57 124.56,217.52 135.08,215.78 145.59,220.81 156.10,203.38 166.62,215.20 177.13,209.00 187.64,215.39 198.15,215.00 208.67,216.75 219.18,220.23 229.69,226.05 240.21,219.85 250.72,217.72 261.23,213.07 271.74,218.30 282.26,210.16 292.77,215.20 303.28,213.07 313.79,209.19 324.31,217.33 334.82,209.38 345.33,215.20 355.85,212.87 366.36,217.33 376.87,217.33 387.38,214.62 397.90,213.65 408.41,208.22 418.92,221.20 429.44,221.98 439.95,219.07 450.46,229.92 460.97,209.77 471.49,211.13 482.00,220.81 492.51,217.13 503.03,222.56 513.54,114.07 524.05,120.27 534.56,178.00 545.08,169.67 555.59,99.54 566.10,183.81 576.62,175.68 587.13,91.40 597.64,83.65 608.15,206.48 618.67,209.38 629.18,179.55 639.69,168.31 650.21,153.20 660.72,246.00 671.23,163.47 681.74,223.14 692.26,185.75 702.77,203.77 713.28,184.97 723.79,193.11 734.31,196.60 744.82,228.37 755.33,170.44 765.85,207.83 776.36,161.34 786.87,206.09 797.38,232.25 807.90,236.12 818.41,232.83 828.92,242.13 839.44,194.47 849.95,231.28 860.46,93.73 870.97,187.11 881.49,202.41 892.00,135.77"/>
<polyline fill="none" stroke="#b91c1c" stroke-width="1.8" points="72.00,204.35 82.51,216.75 93.03,218.30 103.54,222.36 114.05,203.57 124.56,217.52 135.08,215.78 145.59,220.81 156.10,203.38 166.62,215.20 177.13,209.00 187.64,215.39 198.15,215.00 208.67,216.75 219.18,220.23 229.69,226.05 240.21,219.85 250.72,217.72 261.23,213.07 271.74,218.30 282.26,210.16 292.77,215.20 303.28,213.07 313.79,209.19 324.31,217.33 334.82,209.38 345.33,215.20 355.85,212.87 366.36,217.33 376.87,217.33 387.38,214.62 397.90,213.65 408.41,208.22 418.92,221.20 429.44,221.98 439.95,219.07 450.46,229.92 460.97,209.77 471.49,211.13 482.00,220.81 492.51,217.13 503.03,222.56 513.54,114.07 524.05,67.19 534.56,74.16 545.08,80.75 555.59,73.97 566.10,77.84 576.62,76.68 587.13,76.29 597.64,80.55 608.15,85.98 618.67,79.39 629.18,78.81 639.69,85.78 650.21,86.56 660.72,69.32 671.23,71.83 681.74,72.42 692.26,87.72 702.77,77.45 713.28,42.00 723.79,72.61 734.31,81.33 744.82,75.90 755.33,73.38 765.85,80.75 776.36,88.30 786.87,74.35 797.38,81.72 807.90,77.65 818.41,72.03 828.92,74.35 839.44,83.26 849.95,78.03 860.46,83.65 870.97,77.26 881.49,78.81 892.00,86.95"/>
</svg>
