<svg xmlns="http://www.w3.org/2000/svg" width="920" height="300" viewBox="0 0 920 300">
<rect width="100%" height="100%" fill="#ffffff"/>
<text x="72" y="24" font-family="Arial, sans-serif" font-size="16" font-weight="700" fill="#111827">OriginalURL page min/max lexical rank</text>
<text x="72" y="288" font-family="Arial, sans-serif" font-size="11" fill="#6b7280">page/row-group index</text>
<text x="18" y="144" transform="rotate(-90 18 144)" font-family="Arial, sans-serif" font-size="11" fill="#6b7280">lexical rank</text>
<line x1="72" y1="246.00" x2="892" y2="246.00" stroke="#e5e7eb" stroke-width="1"/>
<text x="64" y="249.00" font-family="Arial, sans-serif" font-size="10" text-anchor="end" fill="#6b7280">1</text>
<line x1="72" y1="195.00" x2="892" y2="195.00" stroke="#e5e7eb" stroke-width="1"/>
<text x="64" y="198.00" font-family="Arial, sans-serif" font-size="10" text-anchor="end" fill="#6b7280">33.75</text>
<line x1="72" y1="144.00" x2="892" y2="144.00" stroke="#e5e7eb" stroke-width="1"/>
<text x="64" y="147.00" font-family="Arial, sans-serif" font-size="10" text-anchor="end" fill="#6b7280">66.50</text>
<line x1="72" y1="93.00" x2="892" y2="93.00" stroke="#e5e7eb" stroke-width="1"/>
<text x="64" y="96.00" font-family="Arial, sans-serif" font-size="10" text-anchor="end" fill="#6b7280">99.25</text>
<line x1="72" y1="42.00" x2="892" y2="42.00" stroke="#e5e7eb" stroke-width="1"/>
<text x="64" y="45.00" font-family="Arial, sans-serif" font-size="10" text-anchor="end" fill="#6b7280">132</text>
<line x1="72" y1="246" x2="892" y2="246" stroke="#9ca3af" stroke-width="1"/>
<line x1="72" y1="42" x2="72" y2="246" stroke="#9ca3af" stroke-width="1"/>
<circle cx="72" cy="266" r="4" fill="#2563eb"/>
<text x="80" y="270" font-family="Arial, sans-serif" font-size="11" fill="#374151">page min rank</text>
<circle cx="252" cy="266" r="4" fill="#b91c1c"/>
<text x="260" y="270" font-family="Arial, sans-serif" font-size="11" fill="#374151">page max rank</text>
<polyline fill="none" stroke="#2563eb" stroke-width="1.8" points="72.00,246.00 76.77,246.00 81.53,246.00 86.30,246.00 91.07,246.00 95.84,246.00 100.60,246.00 105.37,246.00 110.14,246.00 114.91,246.00 119.67,246.00 124.44,246.00 129.21,246.00 133.98,246.00 138.74,246.00 143.51,246.00 148.28,246.00 153.05,246.00 157.81,246.00 162.58,246.00 167.35,246.00 172.12,246.00 176.88,246.00 181.65,246.00 186.42,246.00 191.19,246.00 195.95,246.00 200.72,246.00 205.49,246.00 210.26,246.00 215.02,246.00 219.79,246.00 224.56,246.00 229.33,246.00 234.09,246.00 238.86,246.00 243.63,246.00 248.40,246.00 253.16,246.00 257.93,246.00 262.70,246.00 267.47,246.00 272.23,246.00 277.00,246.00 281.77,246.00 286.53,246.00 291.30,246.00 296.07,246.00 300.84,246.00 305.60,246.00 310.37,246.00 315.14,246.00 319.91,246.00 324.67,246.00 329.44,246.00 334.21,246.00 338.98,246.00 343.74,246.00 348.51,246.00 353.28,246.00 358.05,246.00 362.81,246.00 367.58,246.00 372.35,246.00 377.12,246.00 381.88,246.00 386.65,246.00 391.42,246.00 396.19,246.00 400.95,246.00 405.72,246.00 410.49,246.00 415.26,246.00 420.02,246.00 424.79,246.00 429.56,246.00 434.33,246.00 439.09,246.00 443.86,246.00 448.63,246.00 453.40,246.00 458.16,246.00 462.93,246.00 467.70,246.00 472.47,246.00 477.23,246.00 482.00,246.00 486.77,246.00 491.53,246.00 496.30,246.00 501.07,246.00 505.84,246.00 510.60,246.00 515.37,246.00 520.14,246.00 524.91,246.00 529.67,246.00 534.44,246.00 539.21,246.00 543.98,246.00 548.74,246.00 553.51,246.00 558.28,246.00 563.05,246.00 567.81,246.00 572.58,246.00 577.35,246.00 582.12,246.00 586.88,246.00 591.65,246.00 596.42,246.00 601.19,246.00 605.95,246.00 610.72,246.00 615.49,246.00 620.26,246.00 625.02,246.00 629.79,246.00 634.56,246.00 639.33,246.00 644.09,246.00 648.86,246.00 653.63,246.00 658.40,246.00 663.16,246.00 667.93,246.00 672.70,246.00 677.47,246.00 682.23,246.00 687.00,246.00 691.77,246.00 696.53,246.00 701.30,246.00 706.07,246.00 710.84,246.00 715.60,246.00 720.37,246.00 725.14,246.00 729.91,246.00 734.67,246.00 739.44,246.00 744.21,246.00 748.98,246.00 753.74,246.00 758.51,246.00 763.28,246.00 768.05,246.00 772.81,246.00 777.58,246.00 782.35,246.00 787.12,246.00 791.88,246.00 796.65,246.00 801.42,246.00 806.19,246.00 810.95,246.00 815.72,246.00 820.49,246.00 825.26,246.00 830.02,246.00 834.79,246.00 839.56,246.00 844.33,246.00 849.09,246.00 853.86,246.00 858.63,246.00 863.40,246.00 868.16,246.00 872.93,246.00 877.70,246.00 882.47,246.00 887.23,246.00 892.00,246.00"/>
<polyline fill="none" stroke="#b91c1c" stroke-width="1.8" points="72.00,73.15 76.77,98.06 81.53,42.00 86.30,66.92 91.07,65.36 95.84,113.63 100.60,80.93 105.37,59.13 110.14,93.39 114.91,48.23 119.67,87.16 124.44,77.82 129.21,84.05 133.98,94.95 138.74,96.50 143.51,105.85 148.28,74.70 153.05,57.57 157.81,85.60 162.58,101.18 167.35,60.69 172.12,46.67 176.88,112.08 181.65,88.72 186.42,62.24 191.19,90.27 195.95,96.50 200.72,96.50 205.49,91.83 210.26,96.50 215.02,102.73 219.79,82.49 224.56,108.96 229.33,79.37 234.09,104.29 238.86,99.62 243.63,79.37 248.40,107.40 253.16,79.37 257.93,96.50 262.70,110.52 267.47,63.80 272.23,76.26 277.00,188.38 281.77,182.15 286.53,213.30 291.30,199.28 296.07,182.15 300.84,214.85 305.60,228.87 310.37,191.50 315.14,208.63 319.91,217.97 324.67,207.07 329.44,186.82 334.21,227.31 338.98,231.98 343.74,189.94 348.51,222.64 353.28,241.33 358.05,185.27 362.81,193.05 367.58,182.15 372.35,197.73 377.12,200.84 381.88,205.51 386.65,202.40 391.42,230.43 396.19,219.53 400.95,235.10 405.72,224.20 410.49,221.08 415.26,203.95 420.02,210.18 424.79,183.71 429.56,238.21 434.33,211.74 439.09,239.77 443.86,244.44 448.63,216.41 453.40,182.15 458.16,242.89 462.93,236.66 467.70,225.76 472.47,196.17 477.23,233.54 482.00,152.56 486.77,135.44 491.53,136.99 496.30,144.78 501.07,177.48 505.84,151.01 510.60,127.65 515.37,177.48 520.14,130.76 524.91,52.90 529.67,175.92 534.44,154.12 539.21,169.69 543.98,177.48 548.74,121.42 553.51,133.88 558.28,135.44 563.05,143.22 567.81,155.68 572.58,135.44 577.35,135.44 582.12,54.46 586.88,180.60 591.65,158.79 596.42,161.91 601.19,124.53 605.95,68.47 610.72,165.02 615.49,177.48 620.26,165.02 625.02,121.42 629.79,147.89 634.56,133.88 639.33,119.86 644.09,172.81 648.86,129.21 653.63,146.34 658.40,168.14 663.16,171.25 667.93,56.02 672.70,179.04 677.47,49.79 682.23,133.88 687.00,166.58 691.77,121.42 696.53,135.44 701.30,160.35 706.07,45.11 710.84,126.09 715.60,179.04 720.37,43.56 725.14,121.42 729.91,121.42 734.67,135.44 739.44,141.66 744.21,70.03 748.98,122.98 753.74,157.24 758.51,121.42 763.28,138.55 768.05,121.42 772.81,163.47 777.58,121.42 782.35,135.44 787.12,194.61 791.88,115.19 796.65,135.44 801.42,177.48 806.19,163.47 810.95,132.32 815.72,165.02 820.49,118.31 825.26,177.48 830.02,179.04 834.79,132.32 839.56,135.44 844.33,177.48 849.09,140.11 853.86,149.45 858.63,51.34 863.40,165.02 868.16,135.44 872.93,135.44 877.70,116.75 882.47,179.04 887.23,71.59 892.00,174.37"/>
</svg>
