<svg xmlns="http://www.w3.org/2000/svg" width="920" height="300" viewBox="0 0 920 300">
<rect width="100%" height="100%" fill="#ffffff"/>
<text x="72" y="24" font-family="Arial, sans-serif" font-size="16" font-weight="700" fill="#111827">OriginalURL row-group cardinality</text>
<text x="72" y="288" font-family="Arial, sans-serif" font-size="11" fill="#6b7280">page/row-group index</text>
<text x="18" y="144" transform="rotate(-90 18 144)" font-family="Arial, sans-serif" font-size="11" fill="#6b7280">distinct values</text>
<line x1="72" y1="246.00" x2="892" y2="246.00" stroke="#e5e7eb" stroke-width="1"/>
<text x="64" y="249.00" font-family="Arial, sans-serif" font-size="10" text-anchor="end" fill="#6b7280">95</text>
<line x1="72" y1="195.00" x2="892" y2="195.00" stroke="#e5e7eb" stroke-width="1"/>
<text x="64" y="198.00" font-family="Arial, sans-serif" font-size="10" text-anchor="end" fill="#6b7280">1613.50</text>
<line x1="72" y1="144.00" x2="892" y2="144.00" stroke="#e5e7eb" stroke-width="1"/>
<text x="64" y="147.00" font-family="Arial, sans-serif" font-size="10" text-anchor="end" fill="#6b7280">3132</text>
<line x1="72" y1="93.00" x2="892" y2="93.00" stroke="#e5e7eb" stroke-width="1"/>
<text x="64" y="96.00" font-family="Arial, sans-serif" font-size="10" text-anchor="end" fill="#6b7280">4650.50</text>
<line x1="72" y1="42.00" x2="892" y2="42.00" stroke="#e5e7eb" stroke-width="1"/>
<text x="64" y="45.00" font-family="Arial, sans-serif" font-size="10" text-anchor="end" fill="#6b7280">6169</text>
<line x1="72" y1="246" x2="892" y2="246" stroke="#9ca3af" stroke-width="1"/>
<line x1="72" y1="42" x2="72" y2="246" stroke="#9ca3af" stroke-width="1"/>
<circle cx="72" cy="266" r="4" fill="#2563eb"/>
<text x="80" y="270" font-family="Arial, sans-serif" font-size="11" fill="#374151">row group cardinality</text>
<polyline fill="none" stroke="#2563eb" stroke-width="1.8" points="72.00,241.57 82.51,243.72 93.03,243.98 103.54,244.69 114.05,241.43 124.56,243.85 135.08,243.55 145.59,244.42 156.10,241.40 166.62,243.45 177.13,242.37 187.64,243.48 198.15,243.41 208.67,243.72 219.18,244.32 229.69,245.33 240.21,244.25 250.72,243.88 261.23,243.08 271.74,243.98 282.26,242.57 292.77,243.45 303.28,243.08 313.79,242.41 324.31,243.82 334.82,242.44 345.33,243.45 355.85,243.04 366.36,243.82 376.87,243.82 387.38,243.35 397.90,243.18 408.41,242.24 418.92,244.49 429.44,244.62 439.95,244.12 450.46,246.00 460.97,242.51 471.49,242.74 482.00,244.42 492.51,243.78 503.03,244.72 513.54,225.92 524.05,57.68 534.56,71.42 545.08,70.51 555.59,49.39 566.10,42.00 576.62,44.92 587.13,193.07 597.64,192.67 608.15,189.88 618.67,185.44 629.18,182.09 639.69,181.25 650.21,180.27 660.72,193.40 671.23,179.87 681.74,188.57 692.26,184.20 702.77,188.70 713.28,176.24 723.79,181.78 734.31,183.87 744.82,188.40 755.33,179.16 765.85,186.79 776.36,181.88 786.87,186.02 797.38,190.52 807.90,189.51 818.41,187.53 828.92,189.88 839.44,184.97 849.95,192.06 860.46,194.68 870.97,183.90 881.49,185.24 892.00,202.14"/>
</svg>
