<svg xmlns="http://www.w3.org/2000/svg" width="920" height="300" viewBox="0 0 920 300">
<rect width="100%" height="100%" fill="#ffffff"/>
<text x="72" y="24" font-family="Arial, sans-serif" font-size="16" font-weight="700" fill="#111827">OS page cardinality per row group</text>
<text x="72" y="288" font-family="Arial, sans-serif" font-size="11" fill="#6b7280">page/row-group index</text>
<text x="18" y="144" transform="rotate(-90 18 144)" font-family="Arial, sans-serif" font-size="11" fill="#6b7280">distinct values</text>
<line x1="72" y1="246.00" x2="892" y2="246.00" stroke="#e5e7eb" stroke-width="1"/>
<text x="64" y="249.00" font-family="Arial, sans-serif" font-size="10" text-anchor="end" fill="#6b7280">16</text>
<line x1="72" y1="195.00" x2="892" y2="195.00" stroke="#e5e7eb" stroke-width="1"/>
<text x="64" y="198.00" font-family="Arial, sans-serif" font-size="10" text-anchor="end" fill="#6b7280">19.75</text>
<line x1="72" y1="144.00" x2="892" y2="144.00" stroke="#e5e7eb" stroke-width="1"/>
<text x="64" y="147.00" font-family="Arial, sans-serif" font-size="10" text-anchor="end" fill="#6b7280">23.50</text>
<line x1="72" y1="93.00" x2="892" y2="93.00" stroke="#e5e7eb" stroke-width="1"/>
<text x="64" y="96.00" font-family="Arial, sans-serif" font-size="10" text-anchor="end" fill="#6b7280">27.25</text>
<line x1="72" y1="42.00" x2="892" y2="42.00" stroke="#e5e7eb" stroke-width="1"/>
<text x="64" y="45.00" font-family="Arial, sans-serif" font-size="10" text-anchor="end" fill="#6b7280">31</text>
<line x1="72" y1="246" x2="892" y2="246" stroke="#9ca3af" stroke-width="1"/>
<line x1="72" y1="42" x2="72" y2="246" stroke="#9ca3af" stroke-width="1"/>
<circle cx="72" cy="266" r="4" fill="#0f766e"/>
<text x="80" y="270" font-family="Arial, sans-serif" font-size="11" fill="#374151">min page cardinality</text>
<circle cx="252" cy="266" r="4" fill="#b91c1c"/>
<text x="260" y="270" font-family="Arial, sans-serif" font-size="11" fill="#374151">max page cardinality</text>
<polyline fill="none" stroke="#0f766e" stroke-width="1.8" points="72.00,178.00 82.51,137.20 93.03,137.20 103.54,178.00 114.05,191.60 124.56,205.20 135.08,178.00 145.59,150.80 156.10,232.40 166.62,178.00 177.13,218.80 187.64,218.80 198.15,150.80 208.67,150.80 219.18,218.80 229.69,191.60 240.21,205.20 250.72,137.20 261.23,164.40 271.74,150.80 282.26,246.00 292.77,191.60 303.28,150.80 313.79,110.00 324.31,205.20 334.82,150.80 345.33,191.60 355.85,191.60 366.36,150.80 376.87,164.40 387.38,191.60 397.90,178.00 408.41,178.00 418.92,191.60 429.44,164.40 439.95,191.60 450.46,123.60 460.97,164.40 471.49,123.60 482.00,205.20 492.51,137.20 503.03,150.80 513.54,150.80 524.05,123.60 534.56,82.80 545.08,178.00 555.59,96.40 566.10,110.00 576.62,150.80 587.13,150.80 597.64,55.60 608.15,110.00 618.67,82.80 629.18,178.00 639.69,150.80 650.21,150.80 660.72,137.20 671.23,164.40 681.74,123.60 692.26,137.20 702.77,150.80 713.28,164.40 723.79,123.60 734.31,110.00 744.82,178.00 755.33,110.00 765.85,178.00 776.36,82.80 786.87,137.20 797.38,110.00 807.90,178.00 818.41,96.40 828.92,42.00 839.44,150.80 849.95,110.00 860.46,137.20 870.97,150.80 881.49,123.60 892.00,191.60"/>
<polyline fill="none" stroke="#b91c1c" stroke-width="1.8" points="72.00,178.00 82.51,137.20 93.03,137.20 103.54,178.00 114.05,191.60 124.56,205.20 135.08,178.00 145.59,150.80 156.10,232.40 166.62,178.00 177.13,218.80 187.64,218.80 198.15,150.80 208.67,150.80 219.18,218.80 229.69,191.60 240.21,205.20 250.72,137.20 261.23,164.40 271.74,150.80 282.26,246.00 292.77,191.60 303.28,150.80 313.79,110.00 324.31,205.20 334.82,150.80 345.33,191.60 355.85,191.60 366.36,150.80 376.87,164.40 387.38,191.60 397.90,178.00 408.41,178.00 418.92,191.60 429.44,164.40 439.95,191.60 450.46,123.60 460.97,164.40 471.49,123.60 482.00,205.20 492.51,137.20 503.03,150.80 513.54,150.80 524.05,123.60 534.56,82.80 545.08,178.00 555.59,96.40 566.10,110.00 576.62,150.80 587.13,150.80 597.64,55.60 608.15,110.00 618.67,82.80 629.18,178.00 639.69,150.80 650.21,150.80 660.72,137.20 671.23,164.40 681.74,123.60 692.26,137.20 702.77,150.80 713.28,164.40 723.79,123.60 734.31,110.00 744.82,178.00 755.33,110.00 765.85,178.00 776.36,82.80 786.87,137.20 797.38,110.00 807.90,178.00 818.41,96.40 828.92,42.00 839.44,150.80 849.95,110.00 860.46,137.20 870.97,150.80 881.49,123.60 892.00,191.60"/>
</svg>
