<svg xmlns="http://www.w3.org/2000/svg" width="920" height="300" viewBox="0 0 920 300">
<rect width="100%" height="100%" fill="#ffffff"/>
<text x="72" y="24" font-family="Arial, sans-serif" font-size="16" font-weight="700" fill="#111827">PageCharset page min/max lexical rank</text>
<text x="72" y="288" font-family="Arial, sans-serif" font-size="11" fill="#6b7280">page/row-group index</text>
<text x="18" y="144" transform="rotate(-90 18 144)" font-family="Arial, sans-serif" font-size="11" fill="#6b7280">lexical rank</text>
<line x1="72" y1="246.00" x2="892" y2="246.00" stroke="#e5e7eb" stroke-width="1"/>
<text x="64" y="249.00" font-family="Arial, sans-serif" font-size="10" text-anchor="end" fill="#6b7280">1</text>
<line x1="72" y1="195.00" x2="892" y2="195.00" stroke="#e5e7eb" stroke-width="1"/>
<text x="64" y="198.00" font-family="Arial, sans-serif" font-size="10" text-anchor="end" fill="#6b7280">1.75</text>
<line x1="72" y1="144.00" x2="892" y2="144.00" stroke="#e5e7eb" stroke-width="1"/>
<text x="64" y="147.00" font-family="Arial, sans-serif" font-size="10" text-anchor="end" fill="#6b7280">2.50</text>
<line x1="72" y1="93.00" x2="892" y2="93.00" stroke="#e5e7eb" stroke-width="1"/>
<text x="64" y="96.00" font-family="Arial, sans-serif" font-size="10" text-anchor="end" fill="#6b7280">3.25</text>
<line x1="72" y1="42.00" x2="892" y2="42.00" stroke="#e5e7eb" stroke-width="1"/>
<text x="64" y="45.00" font-family="Arial, sans-serif" font-size="10" text-anchor="end" fill="#6b7280">4</text>
<line x1="72" y1="246" x2="892" y2="246" stroke="#9ca3af" stroke-width="1"/>
<line x1="72" y1="42" x2="72" y2="246" stroke="#9ca3af" stroke-width="1"/>
<circle cx="72" cy="266" r="4" fill="#2563eb"/>
<text x="80" y="270" font-family="Arial, sans-serif" font-size="11" fill="#374151">page min rank</text>
<circle cx="252" cy="266" r="4" fill="#b91c1c"/>
<text x="260" y="270" font-family="Arial, sans-serif" font-size="11" fill="#374151">page max rank</text>
<polyline fill="none" stroke="#2563eb" stroke-width="1.8" points="72.00,246.00 78.78,246.00 85.55,246.00 92.33,42.00 99.11,246.00 105.88,246.00 112.66,246.00 119.44,42.00 126.21,246.00 132.99,42.00 139.77,246.00 146.55,42.00 153.32,246.00 160.10,42.00 166.88,246.00 173.65,42.00 180.43,246.00 187.21,246.00 193.98,246.00 200.76,42.00 207.54,246.00 214.31,42.00 221.09,42.00 227.87,246.00 234.64,246.00 241.42,42.00 248.20,246.00 254.98,42.00 261.75,246.00 268.53,42.00 275.31,246.00 282.08,42.00 288.86,246.00 295.64,42.00 302.41,246.00 309.19,42.00 315.97,246.00 322.74,42.00 329.52,246.00 336.30,246.00 343.07,42.00 349.85,42.00 356.63,246.00 363.40,42.00 370.18,246.00 376.96,42.00 383.74,246.00 390.51,42.00 397.29,246.00 404.07,246.00 410.84,246.00 417.62,42.00 424.40,246.00 431.17,42.00 437.95,246.00 444.73,246.00 451.50,246.00 458.28,246.00 465.06,246.00 471.83,42.00 478.61,246.00 485.39,42.00 492.17,246.00 498.94,42.00 505.72,246.00 512.50,42.00 519.27,42.00 526.05,42.00 532.83,246.00 539.60,42.00 546.38,246.00 553.16,246.00 559.93,246.00 566.71,42.00 573.49,246.00 580.26,246.00 587.04,246.00 593.82,42.00 600.60,246.00 607.37,42.00 614.15,246.00 620.93,246.00 627.70,246.00 634.48,246.00 641.26,246.00 648.03,246.00 654.81,110.00 661.59,246.00 668.36,246.00 675.14,110.00 681.92,110.00 688.69,110.00 695.47,246.00 702.25,246.00 709.02,246.00 715.80,246.00 722.58,178.00 729.36,246.00 736.13,246.00 742.91,246.00 749.69,246.00 756.46,246.00 763.24,178.00 770.02,246.00 776.79,246.00 783.57,246.00 790.35,246.00 797.12,246.00 803.90,246.00 810.68,246.00 817.45,246.00 824.23,246.00 831.01,246.00 837.79,246.00 844.56,246.00 851.34,246.00 858.12,246.00 864.89,246.00 871.67,246.00 878.45,246.00 885.22,246.00 892.00,246.00"/>
<polyline fill="none" stroke="#b91c1c" stroke-width="1.8" points="72.00,42.00 78.78,42.00 85.55,42.00 92.33,42.00 99.11,42.00 105.88,42.00 112.66,42.00 119.44,42.00 126.21,42.00 132.99,42.00 139.77,42.00 146.55,42.00 153.32,42.00 160.10,42.00 166.88,42.00 173.65,42.00 180.43,42.00 187.21,42.00 193.98,42.00 200.76,42.00 207.54,42.00 214.31,42.00 221.09,42.00 227.87,42.00 234.64,42.00 241.42,42.00 248.20,42.00 254.98,42.00 261.75,42.00 268.53,42.00 275.31,42.00 282.08,42.00 288.86,42.00 295.64,42.00 302.41,42.00 309.19,42.00 315.97,42.00 322.74,42.00 329.52,42.00 336.30,42.00 343.07,42.00 349.85,42.00 356.63,42.00 363.40,42.00 370.18,42.00 376.96,42.00 383.74,42.00 390.51,42.00 397.29,42.00 404.07,42.00 410.84,42.00 417.62,42.00 424.40,42.00 431.17,42.00 437.95,42.00 444.73,42.00 451.50,42.00 458.28,42.00 465.06,42.00 471.83,42.00 478.61,42.00 485.39,42.00 492.17,42.00 498.94,42.00 505.72,42.00 512.50,42.00 519.27,42.00 526.05,42.00 532.83,42.00 539.60,42.00 546.38,42.00 553.16,42.00 559.93,42.00 566.71,42.00 573.49,42.00 580.26,42.00 587.04,42.00 593.82,42.00 600.60,42.00 607.37,42.00 614.15,42.00 620.93,42.00 627.70,42.00 634.48,42.00 641.26,42.00 648.03,42.00 654.81,110.00 661.59,110.00 668.36,110.00 675.14,110.00 681.92,110.00 688.69,110.00 695.47,110.00 702.25,110.00 709.02,110.00 715.80,110.00 722.58,110.00 729.36,110.00 736.13,110.00 742.91,110.00 749.69,110.00 756.46,110.00 763.24,110.00 770.02,110.00 776.79,110.00 783.57,110.00 790.35,110.00 797.12,110.00 803.90,110.00 810.68,110.00 817.45,110.00 824.23,110.00 831.01,110.00 837.79,110.00 844.56,110.00 851.34,110.00 858.12,110.00 864.89,110.00 871.67,110.00 878.45,110.00 885.22,110.00 892.00,110.00"/>
</svg>
