<svg xmlns="http://www.w3.org/2000/svg" width="920" height="300" viewBox="0 0 920 300">
<rect width="100%" height="100%" fill="#ffffff"/>
<text x="72" y="24" font-family="Arial, sans-serif" font-size="16" font-weight="700" fill="#111827">RefererHash page cardinality per row group</text>
<text x="72" y="288" font-family="Arial, sans-serif" font-size="11" fill="#6b7280">page/row-group index</text>
<text x="18" y="144" transform="rotate(-90 18 144)" font-family="Arial, sans-serif" font-size="11" fill="#6b7280">distinct values</text>
<line x1="72" y1="246.00" x2="892" y2="246.00" stroke="#e5e7eb" stroke-width="1"/>
<text x="64" y="249.00" font-family="Arial, sans-serif" font-size="10" text-anchor="end" fill="#6b7280">378</text>
<line x1="72" y1="195.00" x2="892" y2="195.00" stroke="#e5e7eb" stroke-width="1"/>
<text x="64" y="198.00" font-family="Arial, sans-serif" font-size="10" text-anchor="end" fill="#6b7280">1796.25</text>
<line x1="72" y1="144.00" x2="892" y2="144.00" stroke="#e5e7eb" stroke-width="1"/>
<text x="64" y="147.00" font-family="Arial, sans-serif" font-size="10" text-anchor="end" fill="#6b7280">3214.50</text>
<line x1="72" y1="93.00" x2="892" y2="93.00" stroke="#e5e7eb" stroke-width="1"/>
<text x="64" y="96.00" font-family="Arial, sans-serif" font-size="10" text-anchor="end" fill="#6b7280">4632.75</text>
<line x1="72" y1="42.00" x2="892" y2="42.00" stroke="#e5e7eb" stroke-width="1"/>
<text x="64" y="45.00" font-family="Arial, sans-serif" font-size="10" text-anchor="end" fill="#6b7280">6051</text>
<line x1="72" y1="246" x2="892" y2="246" stroke="#9ca3af" stroke-width="1"/>
<line x1="72" y1="42" x2="72" y2="246" stroke="#9ca3af" stroke-width="1"/>
<circle cx="72" cy="266" r="4" fill="#0f766e"/>
<text x="80" y="270" font-family="Arial, sans-serif" font-size="11" fill="#374151">min page cardinality</text>
<circle cx="252" cy="266" r="4" fill="#b91c1c"/>
<text x="260" y="270" font-family="Arial, sans-serif" font-size="11" fill="#374151">max page cardinality</text>
<polyline fill="none" stroke="#0f766e" stroke-width="1.8" points="72.00,164.01 82.51,159.19 93.03,160.31 103.54,165.20 114.05,159.30 124.56,164.16 135.08,166.60 145.59,166.53 156.10,161.03 166.62,167.21 177.13,162.97 187.64,165.16 198.15,164.08 208.67,164.41 219.18,165.74 229.69,170.09 240.21,165.74 250.72,162.54 261.23,161.42 271.74,166.56 282.26,162.68 292.77,161.13 303.28,167.64 313.79,165.45 324.31,165.99 334.82,161.46 345.33,165.05 355.85,163.58 366.36,164.41 376.87,158.29 387.38,162.47 397.90,166.38 408.41,161.75 418.92,169.95 429.44,167.18 439.95,162.50 450.46,166.13 460.97,166.78 471.49,155.56 482.00,165.13 492.51,159.37 503.03,162.11 513.54,170.95 524.05,243.23 534.56,239.38 545.08,236.08 555.59,240.28 566.10,246.00 576.62,235.54 587.13,67.86 597.64,45.52 608.15,62.93 618.67,76.70 629.18,59.08 639.69,46.96 650.21,64.04 660.72,53.94 671.23,45.49 681.74,55.16 692.26,42.00 702.77,54.73 713.28,55.05 723.79,55.09 734.31,53.87 744.82,61.78 755.33,76.59 765.85,62.86 776.36,50.20 786.87,49.77 797.38,60.34 807.90,76.34 818.41,50.34 828.92,62.86 839.44,65.66 849.95,66.56 860.46,53.40 870.97,65.88 881.49,61.89 892.00,108.24"/>
<polyline fill="none" stroke="#b91c1c" stroke-width="1.8" points="72.00,164.01 82.51,159.19 93.03,160.31 103.54,165.20 114.05,159.30 124.56,164.16 135.08,166.60 145.59,166.53 156.10,161.03 166.62,167.21 177.13,162.97 187.64,165.16 198.15,164.08 208.67,164.41 219.18,165.74 229.69,170.09 240.21,165.74 250.72,162.54 261.23,161.42 271.74,166.56 282.26,162.68 292.77,161.13 303.28,167.64 313.79,165.45 324.31,165.99 334.82,161.46 345.33,165.05 355.85,163.58 366.36,164.41 376.87,158.29 387.38,162.47 397.90,166.38 408.41,161.75 418.92,169.95 429.44,167.18 439.95,162.50 450.46,166.13 460.97,166.78 471.49,155.56 482.00,165.13 492.51,159.37 503.03,162.11 513.54,170.95 524.05,243.23 534.56,239.38 545.08,236.08 555.59,240.28 566.10,246.00 576.62,235.54 587.13,67.86 597.64,45.52 608.15,62.93 618.67,76.70 629.18,59.08 639.69,46.96 650.21,64.04 660.72,53.94 671.23,45.49 681.74,55.16 692.26,42.00 702.77,54.73 713.28,55.05 723.79,55.09 734.31,53.87 744.82,61.78 755.33,76.59 765.85,62.86 776.36,50.20 786.87,49.77 797.38,60.34 807.90,76.34 818.41,50.34 828.92,62.86 839.44,65.66 849.95,66.56 860.46,53.40 870.97,65.88 881.49,61.89 892.00,108.24"/>
</svg>
