<svg xmlns="http://www.w3.org/2000/svg" width="920" height="300" viewBox="0 0 920 300">
<rect width="100%" height="100%" fill="#ffffff"/>
<text x="72" y="24" font-family="Arial, sans-serif" font-size="16" font-weight="700" fill="#111827">Referer value length per row group</text>
<text x="72" y="288" font-family="Arial, sans-serif" font-size="11" fill="#6b7280">page/row-group index</text>
<text x="18" y="144" transform="rotate(-90 18 144)" font-family="Arial, sans-serif" font-size="11" fill="#6b7280">bytes</text>
<line x1="72" y1="246.00" x2="892" y2="246.00" stroke="#e5e7eb" stroke-width="1"/>
<text x="64" y="249.00" font-family="Arial, sans-serif" font-size="10" text-anchor="end" fill="#6b7280">0</text>
<line x1="72" y1="195.00" x2="892" y2="195.00" stroke="#e5e7eb" stroke-width="1"/>
<text x="64" y="198.00" font-family="Arial, sans-serif" font-size="10" text-anchor="end" fill="#6b7280">501.75</text>
<line x1="72" y1="144.00" x2="892" y2="144.00" stroke="#e5e7eb" stroke-width="1"/>
<text x="64" y="147.00" font-family="Arial, sans-serif" font-size="10" text-anchor="end" fill="#6b7280">1003.50</text>
<line x1="72" y1="93.00" x2="892" y2="93.00" stroke="#e5e7eb" stroke-width="1"/>
<text x="64" y="96.00" font-family="Arial, sans-serif" font-size="10" text-anchor="end" fill="#6b7280">1505.25</text>
<line x1="72" y1="42.00" x2="892" y2="42.00" stroke="#e5e7eb" stroke-width="1"/>
<text x="64" y="45.00" font-family="Arial, sans-serif" font-size="10" text-anchor="end" fill="#6b7280">2007</text>
<line x1="72" y1="246" x2="892" y2="246" stroke="#9ca3af" stroke-width="1"/>
<line x1="72" y1="42" x2="72" y2="246" stroke="#9ca3af" stroke-width="1"/>
<circle cx="72" cy="266" r="4" fill="#7c3aed"/>
<text x="80" y="270" font-family="Arial, sans-serif" font-size="11" fill="#374151">min length</text>
<circle cx="252" cy="266" r="4" fill="#ea580c"/>
<text x="260" y="270" font-family="Arial, sans-serif" font-size="11" fill="#374151">max length</text>
<polyline fill="none" stroke="#7c3aed" stroke-width="1.8" points="72.00,246.00 82.51,246.00 93.03,246.00 103.54,246.00 114.05,246.00 124.56,246.00 135.08,246.00 145.59,246.00 156.10,246.00 166.62,246.00 177.13,246.00 187.64,246.00 198.15,246.00 208.67,246.00 219.18,246.00 229.69,246.00 240.21,246.00 250.72,246.00 261.23,246.00 271.74,246.00 282.26,246.00 292.77,246.00 303.28,246.00 313.79,246.00 324.31,246.00 334.82,246.00 345.33,246.00 355.85,246.00 366.36,246.00 376.87,246.00 387.38,246.00 397.90,246.00 408.41,246.00 418.92,246.00 429.44,246.00 439.95,246.00 450.46,246.00 460.97,246.00 471.49,246.00 482.00,246.00 492.51,246.00 503.03,246.00 513.54,246.00 524.05,246.00 534.56,246.00 545.08,246.00 555.59,246.00 566.10,246.00 576.62,246.00 587.13,246.00 597.64,246.00 608.15,246.00 618.67,246.00 629.18,246.00 639.69,246.00 650.21,246.00 660.72,246.00 671.23,246.00 681.74,246.00 692.26,246.00 702.77,246.00 713.28,246.00 723.79,246.00 734.31,246.00 744.82,246.00 755.33,246.00 765.85,246.00 776.36,246.00 786.87,246.00 797.38,246.00 807.90,246.00 818.41,246.00 828.92,246.00 839.44,246.00 849.95,246.00 860.46,246.00 870.97,246.00 881.49,246.00 892.00,246.00"/>
<polyline fill="none" stroke="#ea580c" stroke-width="1.8" points="72.00,90.69 82.51,145.78 93.03,143.03 103.54,142.93 114.05,54.81 124.56,50.74 135.08,42.00 145.59,146.49 156.10,141.81 166.62,141.92 177.13,141.71 187.64,144.56 198.15,85.71 208.67,144.15 219.18,141.31 229.69,54.71 240.21,119.45 250.72,116.91 261.23,139.27 271.74,148.12 282.26,112.95 292.77,143.14 303.28,141.31 313.79,142.22 324.31,142.12 334.82,62.43 345.33,142.83 355.85,69.44 366.36,147.10 376.87,109.80 387.38,131.96 397.90,124.13 408.41,143.03 418.92,119.45 429.44,142.42 439.95,142.42 450.46,78.08 460.97,142.02 471.49,142.42 482.00,147.00 492.51,126.97 503.03,142.12 513.54,53.18 524.05,193.75 534.56,193.65 545.08,193.75 555.59,193.65 566.10,193.14 576.62,193.55 587.13,143.75 597.64,168.34 608.15,157.98 618.67,60.30 629.18,181.05 639.69,152.39 650.21,174.44 660.72,143.54 671.23,190.30 681.74,185.93 692.26,119.15 702.77,172.00 713.28,148.93 723.79,150.96 734.31,189.38 744.82,157.06 755.33,150.45 765.85,101.97 776.36,161.13 786.87,141.10 797.38,186.13 807.90,178.71 818.41,190.71 828.92,105.73 839.44,143.24 849.95,166.51 860.46,102.07 870.97,142.73 881.49,144.15 892.00,178.61"/>
</svg>
