<svg xmlns="http://www.w3.org/2000/svg" width="920" height="300" viewBox="0 0 920 300">
<rect width="100%" height="100%" fill="#ffffff"/>
<text x="72" y="24" font-family="Arial, sans-serif" font-size="16" font-weight="700" fill="#111827">RefererCategoryID page cardinality per row group</text>
<text x="72" y="288" font-family="Arial, sans-serif" font-size="11" fill="#6b7280">page/row-group index</text>
<text x="18" y="144" transform="rotate(-90 18 144)" font-family="Arial, sans-serif" font-size="11" fill="#6b7280">distinct values</text>
<line x1="72" y1="246.00" x2="892" y2="246.00" stroke="#e5e7eb" stroke-width="1"/>
<text x="64" y="249.00" font-family="Arial, sans-serif" font-size="10" text-anchor="end" fill="#6b7280">12</text>
<line x1="72" y1="195.00" x2="892" y2="195.00" stroke="#e5e7eb" stroke-width="1"/>
<text x="64" y="198.00" font-family="Arial, sans-serif" font-size="10" text-anchor="end" fill="#6b7280">28.75</text>
<line x1="72" y1="144.00" x2="892" y2="144.00" stroke="#e5e7eb" stroke-width="1"/>
<text x="64" y="147.00" font-family="Arial, sans-serif" font-size="10" text-anchor="end" fill="#6b7280">45.50</text>
<line x1="72" y1="93.00" x2="892" y2="93.00" stroke="#e5e7eb" stroke-width="1"/>
<text x="64" y="96.00" font-family="Arial, sans-serif" font-size="10" text-anchor="end" fill="#6b7280">62.25</text>
<line x1="72" y1="42.00" x2="892" y2="42.00" stroke="#e5e7eb" stroke-width="1"/>
<text x="64" y="45.00" font-family="Arial, sans-serif" font-size="10" text-anchor="end" fill="#6b7280">79</text>
<line x1="72" y1="246" x2="892" y2="246" stroke="#9ca3af" stroke-width="1"/>
<line x1="72" y1="42" x2="72" y2="246" stroke="#9ca3af" stroke-width="1"/>
<circle cx="72" cy="266" r="4" fill="#0f766e"/>
<text x="80" y="270" font-family="Arial, sans-serif" font-size="11" fill="#374151">min page cardinality</text>
<circle cx="252" cy="266" r="4" fill="#b91c1c"/>
<text x="260" y="270" font-family="Arial, sans-serif" font-size="11" fill="#374151">max page cardinality</text>
<polyline fill="none" stroke="#0f766e" stroke-width="1.8" points="72.00,185.10 82.51,179.01 93.03,194.24 103.54,185.10 114.05,194.24 124.56,179.01 135.08,197.28 145.59,197.28 156.10,172.93 166.62,182.06 177.13,169.88 187.64,191.19 198.15,188.15 208.67,175.97 219.18,203.37 229.69,188.15 240.21,166.84 250.72,182.06 261.23,182.06 271.74,185.10 282.26,169.88 292.77,191.19 303.28,185.10 313.79,160.75 324.31,175.97 334.82,185.10 345.33,188.15 355.85,191.19 366.36,166.84 376.87,203.37 387.38,185.10 397.90,203.37 408.41,182.06 418.92,185.10 429.44,200.33 439.95,175.97 450.46,197.28 460.97,194.24 471.49,191.19 482.00,169.88 492.51,182.06 503.03,175.97 513.54,179.01 524.05,239.91 534.56,236.87 545.08,227.73 555.59,246.00 566.10,246.00 576.62,224.69 587.13,84.63 597.64,127.25 608.15,42.00 618.67,63.31 629.18,75.49 639.69,72.45 650.21,93.76 660.72,90.72 671.23,108.99 681.74,57.22 692.26,90.72 702.77,51.13 713.28,81.58 723.79,87.67 734.31,93.76 744.82,66.36 755.33,84.63 765.85,96.81 776.36,99.85 786.87,45.04 797.38,51.13 807.90,96.81 818.41,69.40 828.92,66.36 839.44,48.09 849.95,81.58 860.46,84.63 870.97,87.67 881.49,99.85 892.00,124.21"/>
<polyline fill="none" stroke="#b91c1c" stroke-width="1.8" points="72.00,185.10 82.51,179.01 93.03,194.24 103.54,185.10 114.05,194.24 124.56,179.01 135.08,197.28 145.59,197.28 156.10,172.93 166.62,182.06 177.13,169.88 187.64,191.19 198.15,188.15 208.67,175.97 219.18,203.37 229.69,188.15 240.21,166.84 250.72,182.06 261.23,182.06 271.74,185.10 282.26,169.88 292.77,191.19 303.28,185.10 313.79,160.75 324.31,175.97 334.82,185.10 345.33,188.15 355.85,191.19 366.36,166.84 376.87,203.37 387.38,185.10 397.90,203.37 408.41,182.06 418.92,185.10 429.44,200.33 439.95,175.97 450.46,197.28 460.97,194.24 471.49,191.19 482.00,169.88 492.51,182.06 503.03,175.97 513.54,179.01 524.05,239.91 534.56,236.87 545.08,227.73 555.59,246.00 566.10,246.00 576.62,224.69 587.13,84.63 597.64,127.25 608.15,42.00 618.67,63.31 629.18,75.49 639.69,72.45 650.21,93.76 660.72,90.72 671.23,108.99 681.74,57.22 692.26,90.72 702.77,51.13 713.28,81.58 723.79,87.67 734.31,93.76 744.82,66.36 755.33,84.63 765.85,96.81 776.36,99.85 786.87,45.04 797.38,51.13 807.90,96.81 818.41,69.40 828.92,66.36 839.44,48.09 849.95,81.58 860.46,84.63 870.97,87.67 881.49,99.85 892.00,124.21"/>
</svg>
