<svg xmlns="http://www.w3.org/2000/svg" width="920" height="300" viewBox="0 0 920 300">
<rect width="100%" height="100%" fill="#ffffff"/>
<text x="72" y="24" font-family="Arial, sans-serif" font-size="16" font-weight="700" fill="#111827">Referer page cardinality per row group</text>
<text x="72" y="288" font-family="Arial, sans-serif" font-size="11" fill="#6b7280">page/row-group index</text>
<text x="18" y="144" transform="rotate(-90 18 144)" font-family="Arial, sans-serif" font-size="11" fill="#6b7280">distinct values</text>
<line x1="72" y1="246.00" x2="892" y2="246.00" stroke="#e5e7eb" stroke-width="1"/>
<text x="64" y="249.00" font-family="Arial, sans-serif" font-size="10" text-anchor="end" fill="#6b7280">1</text>
<line x1="72" y1="195.00" x2="892" y2="195.00" stroke="#e5e7eb" stroke-width="1"/>
<text x="64" y="198.00" font-family="Arial, sans-serif" font-size="10" text-anchor="end" fill="#6b7280">411.75</text>
<line x1="72" y1="144.00" x2="892" y2="144.00" stroke="#e5e7eb" stroke-width="1"/>
<text x="64" y="147.00" font-family="Arial, sans-serif" font-size="10" text-anchor="end" fill="#6b7280">822.50</text>
<line x1="72" y1="93.00" x2="892" y2="93.00" stroke="#e5e7eb" stroke-width="1"/>
<text x="64" y="96.00" font-family="Arial, sans-serif" font-size="10" text-anchor="end" fill="#6b7280">1233.25</text>
<line x1="72" y1="42.00" x2="892" y2="42.00" stroke="#e5e7eb" stroke-width="1"/>
<text x="64" y="45.00" font-family="Arial, sans-serif" font-size="10" text-anchor="end" fill="#6b7280">1644</text>
<line x1="72" y1="246" x2="892" y2="246" stroke="#9ca3af" stroke-width="1"/>
<line x1="72" y1="42" x2="72" y2="246" stroke="#9ca3af" stroke-width="1"/>
<circle cx="72" cy="266" r="4" fill="#0f766e"/>
<text x="80" y="270" font-family="Arial, sans-serif" font-size="11" fill="#374151">min page cardinality</text>
<circle cx="252" cy="266" r="4" fill="#b91c1c"/>
<text x="260" y="270" font-family="Arial, sans-serif" font-size="11" fill="#374151">max page cardinality</text>
<polyline fill="none" stroke="#0f766e" stroke-width="1.8" points="72.00,163.93 82.51,163.31 93.03,159.33 103.54,160.95 114.05,239.79 124.56,160.08 135.08,235.82 145.59,170.63 156.10,231.47 166.62,167.40 177.13,162.44 187.64,160.95 198.15,235.82 208.67,231.22 219.18,245.01 229.69,238.92 240.21,163.56 250.72,240.29 261.23,156.73 271.74,160.95 282.26,239.54 292.77,237.68 303.28,237.06 313.79,167.90 324.31,165.17 334.82,234.33 345.33,167.78 355.85,159.83 366.36,160.33 376.87,163.18 387.38,168.03 397.90,170.14 408.41,174.98 418.92,165.29 429.44,162.93 439.95,165.91 450.46,164.67 460.97,173.36 471.49,157.47 482.00,162.19 492.51,168.03 503.03,163.80 513.54,184.04 524.05,216.45 534.56,233.58 545.08,233.96 555.59,246.00 566.10,222.78 576.62,216.95 587.13,139.10 597.64,115.50 608.15,127.55 618.67,143.32 629.18,126.06 639.69,239.17 650.21,120.10 660.72,159.09 671.23,143.19 681.74,124.32 692.26,105.82 702.77,120.97 713.28,132.89 723.79,114.01 734.31,118.24 744.82,126.06 755.33,135.87 765.85,128.79 776.36,111.03 786.87,115.88 797.38,137.48 807.90,162.07 818.41,117.37 828.92,140.96 839.44,127.05 849.95,118.61 860.46,130.78 870.97,143.07 881.49,132.02 892.00,175.10"/>
<polyline fill="none" stroke="#b91c1c" stroke-width="1.8" points="72.00,148.16 82.51,146.55 93.03,147.91 103.54,154.62 114.05,144.68 124.56,151.26 135.08,153.00 145.59,147.17 156.10,150.77 166.62,156.11 177.13,150.15 187.64,153.13 198.15,154.62 208.67,150.64 219.18,156.85 229.69,155.24 240.21,149.03 250.72,147.29 261.23,151.26 271.74,156.48 282.26,153.37 292.77,149.90 303.28,154.12 313.79,152.51 324.31,150.27 334.82,150.15 345.33,151.02 355.85,153.00 366.36,151.39 376.87,144.68 387.38,146.42 397.90,152.13 408.41,146.42 418.92,158.22 429.44,153.50 439.95,144.31 450.46,149.77 460.97,142.82 471.49,143.94 482.00,152.13 492.51,137.11 503.03,150.27 513.54,146.42 524.05,212.60 534.56,212.10 545.08,204.03 555.59,213.72 566.10,218.44 576.62,189.63 587.13,91.91 597.64,67.45 608.15,89.68 618.67,104.95 629.18,93.78 639.69,77.76 650.21,81.73 660.72,77.01 671.23,42.00 681.74,84.22 692.26,78.26 702.77,82.48 713.28,88.81 723.79,95.27 734.31,90.05 744.82,88.81 755.33,90.67 765.85,87.07 776.36,84.34 786.87,75.28 797.38,91.54 807.90,90.05 818.41,86.33 828.92,87.69 839.44,90.67 849.95,97.75 860.46,84.96 870.97,89.93 881.49,75.03 892.00,78.50"/>
</svg>
