<svg xmlns="http://www.w3.org/2000/svg" width="920" height="300" viewBox="0 0 920 300">
<rect width="100%" height="100%" fill="#ffffff"/>
<text x="72" y="24" font-family="Arial, sans-serif" font-size="16" font-weight="700" fill="#111827">Referer row-group cardinality</text>
<text x="72" y="288" font-family="Arial, sans-serif" font-size="11" fill="#6b7280">page/row-group index</text>
<text x="18" y="144" transform="rotate(-90 18 144)" font-family="Arial, sans-serif" font-size="11" fill="#6b7280">distinct values</text>
<line x1="72" y1="246.00" x2="892" y2="246.00" stroke="#e5e7eb" stroke-width="1"/>
<text x="64" y="249.00" font-family="Arial, sans-serif" font-size="10" text-anchor="end" fill="#6b7280">361</text>
<line x1="72" y1="195.00" x2="892" y2="195.00" stroke="#e5e7eb" stroke-width="1"/>
<text x="64" y="198.00" font-family="Arial, sans-serif" font-size="10" text-anchor="end" fill="#6b7280">1760.75</text>
<line x1="72" y1="144.00" x2="892" y2="144.00" stroke="#e5e7eb" stroke-width="1"/>
<text x="64" y="147.00" font-family="Arial, sans-serif" font-size="10" text-anchor="end" fill="#6b7280">3160.50</text>
<line x1="72" y1="93.00" x2="892" y2="93.00" stroke="#e5e7eb" stroke-width="1"/>
<text x="64" y="96.00" font-family="Arial, sans-serif" font-size="10" text-anchor="end" fill="#6b7280">4560.25</text>
<line x1="72" y1="42.00" x2="892" y2="42.00" stroke="#e5e7eb" stroke-width="1"/>
<text x="64" y="45.00" font-family="Arial, sans-serif" font-size="10" text-anchor="end" fill="#6b7280">5960</text>
<line x1="72" y1="246" x2="892" y2="246" stroke="#9ca3af" stroke-width="1"/>
<line x1="72" y1="42" x2="72" y2="246" stroke="#9ca3af" stroke-width="1"/>
<circle cx="72" cy="266" r="4" fill="#2563eb"/>
<text x="80" y="270" font-family="Arial, sans-serif" font-size="11" fill="#374151">row group cardinality</text>
<polyline fill="none" stroke="#2563eb" stroke-width="1.8" points="72.00,167.05 82.51,160.85 93.03,162.78 103.54,167.99 114.05,161.11 124.56,165.77 135.08,168.17 145.59,169.70 156.10,162.89 166.62,169.27 177.13,165.84 187.64,166.83 198.15,166.28 208.67,166.13 219.18,168.32 229.69,172.55 240.21,168.03 250.72,164.49 261.23,163.29 271.74,169.85 282.26,164.20 292.77,163.40 303.28,169.23 313.79,167.52 324.31,168.10 334.82,163.33 345.33,167.23 355.85,165.92 366.36,165.44 376.87,159.50 387.38,165.84 397.90,167.23 408.41,164.86 418.92,172.80 429.44,169.78 439.95,164.86 450.46,167.85 460.97,168.61 471.49,159.21 482.00,167.74 492.51,161.36 503.03,165.04 513.54,172.29 524.05,242.94 534.56,239.19 545.08,235.98 555.59,242.87 566.10,246.00 576.62,235.36 587.13,67.98 597.64,44.51 608.15,61.24 618.67,76.36 629.18,58.47 639.69,47.03 650.21,62.73 660.72,53.19 671.23,43.75 681.74,54.61 692.26,42.00 702.77,53.40 713.28,53.99 723.79,53.44 734.31,53.29 744.82,60.47 755.33,75.19 765.85,62.15 776.36,49.25 786.87,49.32 797.38,59.38 807.90,74.97 818.41,49.72 828.92,62.04 839.44,66.05 849.95,64.48 860.46,53.11 870.97,65.54 881.49,60.18 892.00,107.22"/>
</svg>
