<svg xmlns="http://www.w3.org/2000/svg" width="920" height="300" viewBox="0 0 920 300">
<rect width="100%" height="100%" fill="#ffffff"/>
<text x="72" y="24" font-family="Arial, sans-serif" font-size="16" font-weight="700" fill="#111827">Referer page min/max lexical rank</text>
<text x="72" y="288" font-family="Arial, sans-serif" font-size="11" fill="#6b7280">page/row-group index</text>
<text x="18" y="144" transform="rotate(-90 18 144)" font-family="Arial, sans-serif" font-size="11" fill="#6b7280">lexical rank</text>
<line x1="72" y1="246.00" x2="892" y2="246.00" stroke="#e5e7eb" stroke-width="1"/>
<text x="64" y="249.00" font-family="Arial, sans-serif" font-size="10" text-anchor="end" fill="#6b7280">1</text>
<line x1="72" y1="195.00" x2="892" y2="195.00" stroke="#e5e7eb" stroke-width="1"/>
<text x="64" y="198.00" font-family="Arial, sans-serif" font-size="10" text-anchor="end" fill="#6b7280">45.25</text>
<line x1="72" y1="144.00" x2="892" y2="144.00" stroke="#e5e7eb" stroke-width="1"/>
<text x="64" y="147.00" font-family="Arial, sans-serif" font-size="10" text-anchor="end" fill="#6b7280">89.50</text>
<line x1="72" y1="93.00" x2="892" y2="93.00" stroke="#e5e7eb" stroke-width="1"/>
<text x="64" y="96.00" font-family="Arial, sans-serif" font-size="10" text-anchor="end" fill="#6b7280">133.75</text>
<line x1="72" y1="42.00" x2="892" y2="42.00" stroke="#e5e7eb" stroke-width="1"/>
<text x="64" y="45.00" font-family="Arial, sans-serif" font-size="10" text-anchor="end" fill="#6b7280">178</text>
<line x1="72" y1="246" x2="892" y2="246" stroke="#9ca3af" stroke-width="1"/>
<line x1="72" y1="42" x2="72" y2="246" stroke="#9ca3af" stroke-width="1"/>
<circle cx="72" cy="266" r="4" fill="#2563eb"/>
<text x="80" y="270" font-family="Arial, sans-serif" font-size="11" fill="#374151">page min rank</text>
<circle cx="252" cy="266" r="4" fill="#b91c1c"/>
<text x="260" y="270" font-family="Arial, sans-serif" font-size="11" fill="#374151">page max rank</text>
<polyline fill="none" stroke="#2563eb" stroke-width="1.8" points="72.00,246.00 74.36,246.00 76.71,246.00 79.07,246.00 81.43,246.00 83.78,246.00 86.14,246.00 88.49,246.00 90.85,246.00 93.21,246.00 95.56,246.00 97.92,246.00 100.28,246.00 102.63,246.00 104.99,246.00 107.34,246.00 109.70,246.00 112.06,246.00 114.41,246.00 116.77,246.00 119.13,246.00 121.48,246.00 123.84,246.00 126.20,246.00 128.55,246.00 130.91,246.00 133.26,246.00 135.62,246.00 137.98,246.00 140.33,246.00 142.69,246.00 145.05,246.00 147.40,246.00 149.76,246.00 152.11,246.00 154.47,246.00 156.83,246.00 159.18,246.00 161.54,246.00 163.90,246.00 166.25,246.00 168.61,246.00 170.97,246.00 173.32,246.00 175.68,246.00 178.03,246.00 180.39,246.00 182.75,246.00 185.10,246.00 187.46,246.00 189.82,246.00 192.17,246.00 194.53,246.00 196.89,246.00 199.24,246.00 201.60,246.00 203.95,246.00 206.31,246.00 208.67,246.00 211.02,246.00 213.38,246.00 215.74,246.00 218.09,246.00 220.45,246.00 222.80,246.00 225.16,244.85 227.52,246.00 229.87,246.00 232.23,246.00 234.59,246.00 236.94,246.00 239.30,246.00 241.66,246.00 244.01,246.00 246.37,246.00 248.72,246.00 251.08,246.00 253.44,246.00 255.79,246.00 258.15,246.00 260.51,246.00 262.86,246.00 265.22,246.00 267.57,246.00 269.93,246.00 272.29,246.00 274.64,246.00 277.00,246.00 279.36,246.00 281.71,246.00 284.07,246.00 286.43,246.00 288.78,246.00 291.14,246.00 293.49,246.00 295.85,246.00 298.21,246.00 300.56,246.00 302.92,246.00 305.28,246.00 307.63,246.00 309.99,246.00 312.34,246.00 314.70,246.00 317.06,246.00 319.41,246.00 321.77,246.00 324.13,246.00 326.48,246.00 328.84,246.00 331.20,246.00 333.55,246.00 335.91,246.00 338.26,246.00 340.62,246.00 342.98,246.00 345.33,246.00 347.69,246.00 350.05,246.00 352.40,246.00 354.76,246.00 357.11,246.00 359.47,246.00 361.83,246.00 364.18,246.00 366.54,246.00 368.90,246.00 371.25,246.00 373.61,246.00 375.97,246.00 378.32,246.00 380.68,246.00 383.03,246.00 385.39,246.00 387.75,246.00 390.10,246.00 392.46,246.00 394.82,246.00 397.17,246.00 399.53,246.00 401.89,246.00 404.24,246.00 406.60,246.00 408.95,246.00 411.31,246.00 413.67,246.00 416.02,246.00 418.38,246.00 420.74,246.00 423.09,246.00 425.45,246.00 427.80,246.00 430.16,246.00 432.52,246.00 434.87,246.00 437.23,246.00 439.59,246.00 441.94,246.00 444.30,246.00 446.66,246.00 449.01,246.00 451.37,246.00 453.72,246.00 456.08,246.00 458.44,246.00 460.79,246.00 463.15,246.00 465.51,246.00 467.86,246.00 470.22,246.00 472.57,246.00 474.93,246.00 477.29,246.00 479.64,246.00 482.00,246.00 484.36,246.00 486.71,246.00 489.07,246.00 491.43,246.00 493.78,246.00 496.14,246.00 498.49,246.00 500.85,246.00 503.21,246.00 505.56,246.00 507.92,246.00 510.28,246.00 512.63,246.00 514.99,246.00 517.34,246.00 519.70,246.00 522.06,246.00 524.41,246.00 526.77,246.00 529.13,237.93 531.48,246.00 533.84,246.00 536.20,246.00 538.55,246.00 540.91,246.00 543.26,246.00 545.62,246.00 547.98,246.00 550.33,246.00 552.69,246.00 555.05,246.00 557.40,246.00 559.76,246.00 562.11,246.00 564.47,246.00 566.83,246.00 569.18,246.00 571.54,246.00 573.90,246.00 576.25,246.00 578.61,246.00 580.97,246.00 583.32,246.00 585.68,246.00 588.03,246.00 590.39,246.00 592.75,246.00 595.10,246.00 597.46,246.00 599.82,246.00 602.17,246.00 604.53,246.00 606.89,246.00 609.24,246.00 611.60,246.00 613.95,246.00 616.31,246.00 618.67,246.00 621.02,246.00 623.38,246.00 625.74,246.00 628.09,246.00 630.45,246.00 632.80,246.00 635.16,246.00 637.52,246.00 639.87,246.00 642.23,246.00 644.59,246.00 646.94,246.00 649.30,246.00 651.66,246.00 654.01,246.00 656.37,246.00 658.72,246.00 661.08,246.00 663.44,246.00 665.79,246.00 668.15,246.00 670.51,246.00 672.86,246.00 675.22,246.00 677.57,246.00 679.93,246.00 682.29,246.00 684.64,246.00 687.00,246.00 689.36,246.00 691.71,246.00 694.07,246.00 696.43,246.00 698.78,246.00 701.14,246.00 703.49,246.00 705.85,246.00 708.21,246.00 710.56,246.00 712.92,246.00 715.28,246.00 717.63,246.00 719.99,246.00 722.34,246.00 724.70,246.00 727.06,246.00 729.41,246.00 731.77,246.00 734.13,246.00 736.48,246.00 738.84,246.00 741.20,246.00 743.55,246.00 745.91,246.00 748.26,246.00 750.62,246.00 752.98,246.00 755.33,246.00 757.69,246.00 760.05,246.00 762.40,246.00 764.76,246.00 767.11,246.00 769.47,246.00 771.83,246.00 774.18,246.00 776.54,246.00 778.90,246.00 781.25,246.00 783.61,246.00 785.97,246.00 788.32,246.00 790.68,246.00 793.03,246.00 795.39,246.00 797.75,246.00 800.10,246.00 802.46,246.00 804.82,246.00 807.17,246.00 809.53,246.00 811.89,246.00 814.24,246.00 816.60,246.00 818.95,246.00 821.31,246.00 823.67,246.00 826.02,246.00 828.38,246.00 830.74,246.00 833.09,246.00 835.45,246.00 837.80,246.00 840.16,246.00 842.52,246.00 844.87,246.00 847.23,246.00 849.59,246.00 851.94,246.00 854.30,246.00 856.66,246.00 859.01,246.00 861.37,246.00 863.72,246.00 866.08,246.00 868.44,246.00 870.79,246.00 873.15,246.00 875.51,246.00 877.86,246.00 880.22,246.00 882.57,246.00 884.93,246.00 887.29,246.00 889.64,246.00 892.00,246.00"/>
<polyline fill="none" stroke="#b91c1c" stroke-width="1.8" points="72.00,142.27 74.36,131.90 76.71,128.44 79.07,237.93 81.43,237.93 83.78,114.61 86.14,141.12 88.49,237.93 90.85,196.44 93.21,121.53 95.56,225.25 97.92,65.05 100.28,165.32 102.63,201.05 104.99,145.73 107.34,237.93 109.70,191.83 112.06,232.17 114.41,237.93 116.77,166.47 119.13,241.39 121.48,52.37 123.84,235.63 126.20,98.47 128.55,226.41 130.91,189.53 133.26,150.34 135.62,237.93 137.98,108.85 140.33,217.19 142.69,134.20 145.05,204.51 147.40,202.20 149.76,127.29 152.11,237.93 154.47,118.07 156.83,138.81 159.18,119.22 161.54,195.29 163.90,73.12 166.25,231.02 168.61,190.68 170.97,124.98 173.32,237.93 175.68,120.37 178.03,237.93 180.39,51.22 182.75,157.25 185.10,237.93 187.46,221.80 189.82,199.90 192.17,91.56 194.53,95.02 196.89,152.64 199.24,116.92 201.60,237.93 203.95,237.93 206.31,211.42 208.67,237.93 211.02,58.14 213.38,237.93 215.74,229.86 218.09,130.75 220.45,70.81 222.80,237.93 225.16,243.69 227.52,192.98 229.87,171.08 232.23,130.75 234.59,60.44 236.94,237.93 239.30,126.14 241.66,104.24 244.01,113.46 246.37,123.83 248.72,119.22 251.08,206.81 253.44,236.78 255.79,84.64 258.15,240.24 260.51,182.61 262.86,62.75 265.22,85.80 267.57,198.75 269.93,153.80 272.29,149.19 274.64,186.07 277.00,160.71 279.36,174.54 281.71,174.54 284.07,237.93 286.43,227.56 288.78,242.54 291.14,75.42 293.49,76.58 295.85,237.93 298.21,121.53 300.56,239.08 302.92,218.34 305.28,167.63 307.63,220.64 309.99,139.97 312.34,90.41 314.70,88.10 317.06,143.42 319.41,180.31 321.77,161.86 324.13,82.34 326.48,237.93 328.84,178.00 331.20,121.53 333.55,169.93 335.91,48.92 338.26,148.03 340.62,106.54 342.98,234.47 345.33,133.05 347.69,237.93 350.05,67.36 352.40,78.88 354.76,122.68 357.11,163.02 359.47,209.12 361.83,59.29 364.18,151.49 366.54,237.93 368.90,233.32 371.25,128.44 373.61,135.36 375.97,197.59 378.32,175.69 380.68,214.88 383.03,179.15 385.39,45.46 387.75,219.49 390.10,130.75 392.46,55.83 394.82,237.93 397.17,92.71 399.53,130.75 401.89,130.75 404.24,136.51 406.60,237.93 408.95,158.41 411.31,176.85 413.67,130.75 416.02,173.39 418.38,172.24 420.74,205.66 423.09,237.93 425.45,61.59 427.80,237.93 430.16,119.22 432.52,222.95 434.87,237.93 437.23,52.37 439.59,159.56 441.94,213.73 444.30,154.95 446.66,144.58 449.01,212.58 451.37,228.71 453.72,107.69 456.08,48.92 458.44,71.97 460.79,80.03 463.15,224.10 465.51,103.08 467.86,99.63 470.22,216.03 472.57,210.27 474.93,129.59 477.29,237.93 479.64,164.17 482.00,93.86 484.36,101.93 486.71,137.66 489.07,146.88 491.43,123.83 493.78,203.36 496.14,207.97 498.49,168.78 500.85,130.75 503.21,52.37 505.56,52.37 507.92,52.37 510.28,52.37 512.63,52.37 514.99,119.22 517.34,52.37 519.70,52.37 522.06,119.22 524.41,52.37 526.77,52.37 529.13,237.93 531.48,52.37 533.84,52.37 536.20,52.37 538.55,52.37 540.91,50.07 543.26,52.37 545.62,52.37 547.98,52.37 550.33,52.37 552.69,237.93 555.05,119.22 557.40,52.37 559.76,119.22 562.11,187.22 564.47,53.53 566.83,237.93 569.18,188.37 571.54,52.37 573.90,52.37 576.25,119.22 578.61,52.37 580.97,184.92 583.32,52.37 585.68,119.22 588.03,74.27 590.39,52.37 592.75,119.22 595.10,119.22 597.46,237.93 599.82,54.68 602.17,52.37 604.53,63.90 606.89,119.22 609.24,119.22 611.60,237.93 613.95,66.20 616.31,52.37 618.67,52.37 621.02,52.37 623.38,52.37 625.74,68.51 628.09,194.14 630.45,119.22 632.80,54.68 635.16,119.22 637.52,52.37 639.87,52.37 642.23,119.22 644.59,111.15 646.94,119.22 649.30,52.37 651.66,52.37 654.01,112.31 656.37,43.15 658.72,81.19 661.08,52.37 663.44,119.22 665.79,181.46 668.15,52.37 670.51,52.37 672.86,44.31 675.22,52.37 677.57,52.37 679.93,52.37 682.29,52.37 684.64,237.93 687.00,83.49 689.36,119.22 691.71,52.37 694.07,52.37 696.43,119.22 698.78,100.78 701.14,52.37 703.49,52.37 705.85,156.10 708.21,119.22 710.56,96.17 712.92,115.76 715.28,119.22 717.63,52.37 719.99,119.22 722.34,52.37 724.70,119.22 727.06,119.22 729.41,237.93 731.77,52.37 734.13,86.95 736.48,52.37 738.84,52.37 741.20,54.68 743.55,52.37 745.91,52.37 748.26,52.37 750.62,52.37 752.98,52.37 755.33,119.22 757.69,119.22 760.05,52.37 762.40,52.37 764.76,52.37 767.11,89.25 769.47,46.61 771.83,119.22 774.18,237.93 776.54,52.37 778.90,119.22 781.25,119.22 783.61,97.32 785.97,52.37 788.32,237.93 790.68,119.22 793.03,56.98 795.39,52.37 797.75,52.37 800.10,119.22 802.46,119.22 804.82,52.37 807.17,52.37 809.53,105.39 811.89,52.37 814.24,42.00 816.60,183.76 818.95,52.37 821.31,52.37 823.67,52.37 826.02,119.22 828.38,52.37 830.74,119.22 833.09,77.73 835.45,47.76 837.80,52.37 840.16,52.37 842.52,119.22 844.87,237.93 847.23,119.22 849.59,52.37 851.94,52.37 854.30,52.37 856.66,52.37 859.01,119.22 861.37,119.22 863.72,69.66 866.08,52.37 868.44,52.37 870.79,237.93 873.15,52.37 875.51,54.68 877.86,119.22 880.22,110.00 882.57,237.93 884.93,52.37 887.29,237.93 889.64,119.22 892.00,52.37"/>
</svg>
