<svg xmlns="http://www.w3.org/2000/svg" width="920" height="300" viewBox="0 0 920 300">
<rect width="100%" height="100%" fill="#ffffff"/>
<text x="72" y="24" font-family="Arial, sans-serif" font-size="16" font-weight="700" fill="#111827">RefererRegionID row-group cardinality</text>
<text x="72" y="288" font-family="Arial, sans-serif" font-size="11" fill="#6b7280">page/row-group index</text>
<text x="18" y="144" transform="rotate(-90 18 144)" font-family="Arial, sans-serif" font-size="11" fill="#6b7280">distinct values</text>
<line x1="72" y1="246.00" x2="892" y2="246.00" stroke="#e5e7eb" stroke-width="1"/>
<text x="64" y="249.00" font-family="Arial, sans-serif" font-size="10" text-anchor="end" fill="#6b7280">7</text>
<line x1="72" y1="195.00" x2="892" y2="195.00" stroke="#e5e7eb" stroke-width="1"/>
<text x="64" y="198.00" font-family="Arial, sans-serif" font-size="10" text-anchor="end" fill="#6b7280">13.50</text>
<line x1="72" y1="144.00" x2="892" y2="144.00" stroke="#e5e7eb" stroke-width="1"/>
<text x="64" y="147.00" font-family="Arial, sans-serif" font-size="10" text-anchor="end" fill="#6b7280">20</text>
<line x1="72" y1="93.00" x2="892" y2="93.00" stroke="#e5e7eb" stroke-width="1"/>
<text x="64" y="96.00" font-family="Arial, sans-serif" font-size="10" text-anchor="end" fill="#6b7280">26.50</text>
<line x1="72" y1="42.00" x2="892" y2="42.00" stroke="#e5e7eb" stroke-width="1"/>
<text x="64" y="45.00" font-family="Arial, sans-serif" font-size="10" text-anchor="end" fill="#6b7280">33</text>
<line x1="72" y1="246" x2="892" y2="246" stroke="#9ca3af" stroke-width="1"/>
<line x1="72" y1="42" x2="72" y2="246" stroke="#9ca3af" stroke-width="1"/>
<circle cx="72" cy="266" r="4" fill="#2563eb"/>
<text x="80" y="270" font-family="Arial, sans-serif" font-size="11" fill="#374151">row group cardinality</text>
<polyline fill="none" stroke="#2563eb" stroke-width="1.8" points="72.00,191.08 82.51,167.54 93.03,159.69 103.54,144.00 114.05,167.54 124.56,175.38 135.08,191.08 145.59,198.92 156.10,159.69 166.62,191.08 177.13,191.08 187.64,206.77 198.15,198.92 208.67,159.69 219.18,214.62 229.69,167.54 240.21,175.38 250.72,167.54 261.23,191.08 271.74,198.92 282.26,159.69 292.77,183.23 303.28,191.08 313.79,144.00 324.31,198.92 334.82,159.69 345.33,175.38 355.85,191.08 366.36,167.54 376.87,206.77 387.38,198.92 397.90,175.38 408.41,198.92 418.92,206.77 429.44,183.23 439.95,175.38 450.46,198.92 460.97,183.23 471.49,191.08 482.00,136.15 492.51,183.23 503.03,183.23 513.54,198.92 524.05,246.00 534.56,238.15 545.08,222.46 555.59,238.15 566.10,246.00 576.62,214.62 587.13,73.38 597.64,112.62 608.15,81.23 618.67,42.00 629.18,89.08 639.69,104.77 650.21,136.15 660.72,136.15 671.23,144.00 681.74,96.92 692.26,104.77 702.77,42.00 713.28,120.46 723.79,104.77 734.31,73.38 744.82,96.92 755.33,120.46 765.85,112.62 776.36,104.77 786.87,81.23 797.38,120.46 807.90,81.23 818.41,112.62 828.92,89.08 839.44,96.92 849.95,104.77 860.46,128.31 870.97,96.92 881.49,89.08 892.00,151.85"/>
</svg>
