<svg xmlns="http://www.w3.org/2000/svg" width="920" height="300" viewBox="0 0 920 300">
<rect width="100%" height="100%" fill="#ffffff"/>
<text x="72" y="24" font-family="Arial, sans-serif" font-size="16" font-weight="700" fill="#111827">RefererHash page min/max</text>
<text x="72" y="288" font-family="Arial, sans-serif" font-size="11" fill="#6b7280">page/row-group index</text>
<text x="18" y="144" transform="rotate(-90 18 144)" font-family="Arial, sans-serif" font-size="11" fill="#6b7280">value</text>
<line x1="72" y1="246.00" x2="892" y2="246.00" stroke="#e5e7eb" stroke-width="1"/>
<text x="64" y="249.00" font-family="Arial, sans-serif" font-size="10" text-anchor="end" fill="#6b7280">-9.22e+18</text>
<line x1="72" y1="195.00" x2="892" y2="195.00" stroke="#e5e7eb" stroke-width="1"/>
<text x="64" y="198.00" font-family="Arial, sans-serif" font-size="10" text-anchor="end" fill="#6b7280">-4.61e+18</text>
<line x1="72" y1="144.00" x2="892" y2="144.00" stroke="#e5e7eb" stroke-width="1"/>
<text x="64" y="147.00" font-family="Arial, sans-serif" font-size="10" text-anchor="end" fill="#6b7280">-4.25e+12</text>
<line x1="72" y1="93.00" x2="892" y2="93.00" stroke="#e5e7eb" stroke-width="1"/>
<text x="64" y="96.00" font-family="Arial, sans-serif" font-size="10" text-anchor="end" fill="#6b7280">4.61e+18</text>
<line x1="72" y1="42.00" x2="892" y2="42.00" stroke="#e5e7eb" stroke-width="1"/>
<text x="64" y="45.00" font-family="Arial, sans-serif" font-size="10" text-anchor="end" fill="#6b7280">9.22e+18</text>
<line x1="72" y1="246" x2="892" y2="246" stroke="#9ca3af" stroke-width="1"/>
<line x1="72" y1="42" x2="72" y2="246" stroke="#9ca3af" stroke-width="1"/>
<circle cx="72" cy="266" r="4" fill="#2563eb"/>
<text x="80" y="270" font-family="Arial, sans-serif" font-size="11" fill="#374151">page min</text>
<circle cx="252" cy="266" r="4" fill="#b91c1c"/>
<text x="260" y="270" font-family="Arial, sans-serif" font-size="11" fill="#374151">page max</text>
<polyline fill="none" stroke="#2563eb" stroke-width="1.8" points="72.00,245.96 82.51,245.97 93.03,245.91 103.54,245.91 114.05,245.98 124.56,245.91 135.08,245.91 145.59,245.91 156.10,245.92 166.62,245.91 177.13,245.91 187.64,245.91 198.15,245.91 208.67,245.95 219.18,245.91 229.69,245.91 240.21,245.91 250.72,245.92 261.23,245.91 271.74,245.98 282.26,245.91 292.77,245.94 303.28,245.91 313.79,245.91 324.31,245.96 334.82,245.94 345.33,245.91 355.85,245.92 366.36,245.91 376.87,245.98 387.38,245.94 397.90,245.93 408.41,245.87 418.92,245.91 429.44,245.94 439.95,245.96 450.46,245.95 460.97,245.91 471.49,245.96 482.00,245.97 492.51,245.98 503.03,245.99 513.54,245.91 524.05,245.88 534.56,245.78 545.08,245.78 555.59,245.96 566.10,245.91 576.62,245.78 587.13,245.99 597.64,245.97 608.15,245.97 618.67,246.00 629.18,246.00 639.69,245.98 650.21,245.99 660.72,245.91 671.23,246.00 681.74,245.99 692.26,245.99 702.77,245.97 713.28,245.97 723.79,245.97 734.31,245.94 744.82,245.99 755.33,245.98 765.85,246.00 776.36,246.00 786.87,245.91 797.38,245.99 807.90,245.90 818.41,245.94 828.92,245.96 839.44,245.87 849.95,245.95 860.46,245.89 870.97,245.99 881.49,245.94 892.00,245.99"/>
<polyline fill="none" stroke="#b91c1c" stroke-width="1.8" points="72.00,42.05 82.51,42.01 93.03,42.17 103.54,42.10 114.05,42.06 124.56,42.09 135.08,42.06 145.59,42.03 156.10,42.00 166.62,42.10 177.13,42.07 187.64,42.07 198.15,42.10 208.67,42.01 219.18,42.03 229.69,42.10 240.21,42.00 250.72,42.06 261.23,42.10 271.74,42.06 282.26,42.09 292.77,42.06 303.28,42.06 313.79,42.08 324.31,42.10 334.82,42.08 345.33,42.04 355.85,42.00 366.36,42.10 376.87,42.10 387.38,42.10 397.90,42.08 408.41,42.10 418.92,42.04 429.44,42.10 439.95,42.10 450.46,42.10 460.97,42.05 471.49,42.10 482.00,42.10 492.51,42.01 503.03,42.10 513.54,42.08 524.05,42.12 534.56,42.13 545.08,42.13 555.59,42.13 566.10,42.01 576.62,42.08 587.13,42.04 597.64,42.03 608.15,42.00 618.67,42.03 629.18,42.01 639.69,42.07 650.21,42.01 660.72,42.02 671.23,42.06 681.74,42.02 692.26,42.02 702.77,42.01 713.28,42.07 723.79,42.00 734.31,42.03 744.82,42.01 755.33,42.01 765.85,42.02 776.36,42.03 786.87,42.13 797.38,42.05 807.90,42.13 818.41,42.06 828.92,42.02 839.44,42.00 849.95,42.01 860.46,42.00 870.97,42.01 881.49,42.04 892.00,42.11"/>
</svg>
