<svg xmlns="http://www.w3.org/2000/svg" width="920" height="300" viewBox="0 0 920 300">
<rect width="100%" height="100%" fill="#ffffff"/>
<text x="72" y="24" font-family="Arial, sans-serif" font-size="16" font-weight="700" fill="#111827">RefererCategoryID page min/max</text>
<text x="72" y="288" font-family="Arial, sans-serif" font-size="11" fill="#6b7280">page/row-group index</text>
<text x="18" y="144" transform="rotate(-90 18 144)" font-family="Arial, sans-serif" font-size="11" fill="#6b7280">value</text>
<line x1="72" y1="246.00" x2="892" y2="246.00" stroke="#e5e7eb" stroke-width="1"/>
<text x="64" y="249.00" font-family="Arial, sans-serif" font-size="10" text-anchor="end" fill="#6b7280">0</text>
<line x1="72" y1="195.00" x2="892" y2="195.00" stroke="#e5e7eb" stroke-width="1"/>
<text x="64" y="198.00" font-family="Arial, sans-serif" font-size="10" text-anchor="end" fill="#6b7280">4078.25</text>
<line x1="72" y1="144.00" x2="892" y2="144.00" stroke="#e5e7eb" stroke-width="1"/>
<text x="64" y="147.00" font-family="Arial, sans-serif" font-size="10" text-anchor="end" fill="#6b7280">8156.50</text>
<line x1="72" y1="93.00" x2="892" y2="93.00" stroke="#e5e7eb" stroke-width="1"/>
<text x="64" y="96.00" font-family="Arial, sans-serif" font-size="10" text-anchor="end" fill="#6b7280">12234.75</text>
<line x1="72" y1="42.00" x2="892" y2="42.00" stroke="#e5e7eb" stroke-width="1"/>
<text x="64" y="45.00" font-family="Arial, sans-serif" font-size="10" text-anchor="end" fill="#6b7280">16313</text>
<line x1="72" y1="246" x2="892" y2="246" stroke="#9ca3af" stroke-width="1"/>
<line x1="72" y1="42" x2="72" y2="246" stroke="#9ca3af" stroke-width="1"/>
<circle cx="72" cy="266" r="4" fill="#2563eb"/>
<text x="80" y="270" font-family="Arial, sans-serif" font-size="11" fill="#374151">page min</text>
<circle cx="252" cy="266" r="4" fill="#b91c1c"/>
<text x="260" y="270" font-family="Arial, sans-serif" font-size="11" fill="#374151">page max</text>
<polyline fill="none" stroke="#2563eb" stroke-width="1.8" points="72.00,246.00 82.51,246.00 93.03,246.00 103.54,246.00 114.05,246.00 124.56,246.00 135.08,246.00 145.59,246.00 156.10,246.00 166.62,246.00 177.13,246.00 187.64,246.00 198.15,246.00 208.67,246.00 219.18,246.00 229.69,246.00 240.21,246.00 250.72,246.00 261.23,246.00 271.74,246.00 282.26,246.00 292.77,246.00 303.28,246.00 313.79,246.00 324.31,246.00 334.82,246.00 345.33,246.00 355.85,246.00 366.36,246.00 376.87,246.00 387.38,246.00 397.90,246.00 408.41,246.00 418.92,246.00 429.44,246.00 439.95,246.00 450.46,246.00 460.97,246.00 471.49,246.00 482.00,246.00 492.51,246.00 503.03,246.00 513.54,246.00 524.05,246.00 534.56,246.00 545.08,246.00 555.59,246.00 566.10,246.00 576.62,246.00 587.13,246.00 597.64,246.00 608.15,246.00 618.67,246.00 629.18,246.00 639.69,246.00 650.21,246.00 660.72,246.00 671.23,246.00 681.74,246.00 692.26,246.00 702.77,246.00 713.28,246.00 723.79,246.00 734.31,246.00 744.82,246.00 755.33,246.00 765.85,246.00 776.36,246.00 786.87,246.00 797.38,246.00 807.90,246.00 818.41,246.00 828.92,246.00 839.44,246.00 849.95,246.00 860.46,246.00 870.97,246.00 881.49,246.00 892.00,246.00"/>
<polyline fill="none" stroke="#b91c1c" stroke-width="1.8" points="72.00,43.88 82.51,48.83 93.03,48.83 103.54,43.88 114.05,43.88 124.56,48.83 135.08,43.88 145.59,43.88 156.10,43.88 166.62,48.83 177.13,43.88 187.64,46.63 198.15,43.88 208.67,43.88 219.18,43.88 229.69,43.88 240.21,43.88 250.72,43.88 261.23,42.00 271.74,43.88 282.26,48.83 292.77,48.83 303.28,43.88 313.79,43.88 324.31,43.88 334.82,43.88 345.33,43.88 355.85,43.88 366.36,43.88 376.87,43.88 387.38,48.83 397.90,43.88 408.41,43.88 418.92,43.88 429.44,43.88 439.95,43.88 450.46,43.88 460.97,43.88 471.49,43.88 482.00,42.00 492.51,46.63 503.03,43.88 513.54,43.88 524.05,64.05 534.56,43.88 545.08,43.88 555.59,64.05 566.10,43.88 576.62,64.05 587.13,43.88 597.64,43.88 608.15,43.88 618.67,43.88 629.18,43.88 639.69,43.88 650.21,43.88 660.72,44.49 671.23,43.88 681.74,43.88 692.26,54.06 702.77,43.88 713.28,43.88 723.79,43.88 734.31,43.88 744.82,43.88 755.33,43.88 765.85,43.88 776.36,55.11 786.87,55.11 797.38,43.88 807.90,43.88 818.41,43.88 828.92,55.11 839.44,43.88 849.95,43.88 860.46,52.08 870.97,54.06 881.49,43.88 892.00,43.88"/>
</svg>
