<svg xmlns="http://www.w3.org/2000/svg" width="920" height="300" viewBox="0 0 920 300">
<rect width="100%" height="100%" fill="#ffffff"/>
<text x="72" y="24" font-family="Arial, sans-serif" font-size="16" font-weight="700" fill="#111827">RegionID page cardinality per row group</text>
<text x="72" y="288" font-family="Arial, sans-serif" font-size="11" fill="#6b7280">page/row-group index</text>
<text x="18" y="144" transform="rotate(-90 18 144)" font-family="Arial, sans-serif" font-size="11" fill="#6b7280">distinct values</text>
<line x1="72" y1="246.00" x2="892" y2="246.00" stroke="#e5e7eb" stroke-width="1"/>
<text x="64" y="249.00" font-family="Arial, sans-serif" font-size="10" text-anchor="end" fill="#6b7280">112</text>
<line x1="72" y1="195.00" x2="892" y2="195.00" stroke="#e5e7eb" stroke-width="1"/>
<text x="64" y="198.00" font-family="Arial, sans-serif" font-size="10" text-anchor="end" fill="#6b7280">152.75</text>
<line x1="72" y1="144.00" x2="892" y2="144.00" stroke="#e5e7eb" stroke-width="1"/>
<text x="64" y="147.00" font-family="Arial, sans-serif" font-size="10" text-anchor="end" fill="#6b7280">193.50</text>
<line x1="72" y1="93.00" x2="892" y2="93.00" stroke="#e5e7eb" stroke-width="1"/>
<text x="64" y="96.00" font-family="Arial, sans-serif" font-size="10" text-anchor="end" fill="#6b7280">234.25</text>
<line x1="72" y1="42.00" x2="892" y2="42.00" stroke="#e5e7eb" stroke-width="1"/>
<text x="64" y="45.00" font-family="Arial, sans-serif" font-size="10" text-anchor="end" fill="#6b7280">275</text>
<line x1="72" y1="246" x2="892" y2="246" stroke="#9ca3af" stroke-width="1"/>
<line x1="72" y1="42" x2="72" y2="246" stroke="#9ca3af" stroke-width="1"/>
<circle cx="72" cy="266" r="4" fill="#0f766e"/>
<text x="80" y="270" font-family="Arial, sans-serif" font-size="11" fill="#374151">min page cardinality</text>
<circle cx="252" cy="266" r="4" fill="#b91c1c"/>
<text x="260" y="270" font-family="Arial, sans-serif" font-size="11" fill="#374151">max page cardinality</text>
<polyline fill="none" stroke="#0f766e" stroke-width="1.8" points="72.00,213.46 82.51,200.94 93.03,234.74 103.54,208.45 114.05,209.71 124.56,204.70 135.08,224.72 145.59,209.71 156.10,187.18 166.62,202.20 177.13,223.47 187.64,218.47 198.15,204.70 208.67,208.45 219.18,228.48 229.69,227.23 240.21,199.69 250.72,200.94 261.23,205.95 271.74,219.72 282.26,213.46 292.77,173.41 303.28,223.47 313.79,200.94 324.31,180.92 334.82,219.72 345.33,229.73 355.85,225.98 366.36,209.71 376.87,223.47 387.38,207.20 397.90,208.45 408.41,217.21 418.92,225.98 429.44,229.73 439.95,244.75 450.46,228.48 460.97,237.24 471.49,227.23 482.00,246.00 492.51,234.74 503.03,225.98 513.54,199.69 524.05,48.26 534.56,42.00 545.08,52.01 555.59,68.28 566.10,88.31 576.62,89.56 587.13,145.88 597.64,190.93 608.15,162.15 618.67,135.87 629.18,149.63 639.69,142.12 650.21,140.87 660.72,138.37 671.23,163.40 681.74,142.12 692.26,158.39 702.77,148.38 713.28,112.09 723.79,153.39 734.31,163.40 744.82,163.40 755.33,158.39 765.85,159.64 776.36,154.64 786.87,147.13 797.38,137.12 807.90,133.36 818.41,143.37 828.92,125.85 839.44,132.11 849.95,124.60 860.46,163.40 870.97,167.15 881.49,140.87 892.00,210.96"/>
<polyline fill="none" stroke="#b91c1c" stroke-width="1.8" points="72.00,213.46 82.51,200.94 93.03,234.74 103.54,208.45 114.05,209.71 124.56,204.70 135.08,224.72 145.59,209.71 156.10,187.18 166.62,202.20 177.13,223.47 187.64,218.47 198.15,204.70 208.67,208.45 219.18,228.48 229.69,227.23 240.21,199.69 250.72,200.94 261.23,205.95 271.74,219.72 282.26,213.46 292.77,173.41 303.28,223.47 313.79,200.94 324.31,180.92 334.82,219.72 345.33,229.73 355.85,225.98 366.36,209.71 376.87,223.47 387.38,207.20 397.90,208.45 408.41,217.21 418.92,225.98 429.44,229.73 439.95,244.75 450.46,228.48 460.97,237.24 471.49,227.23 482.00,246.00 492.51,234.74 503.03,225.98 513.54,199.69 524.05,48.26 534.56,42.00 545.08,52.01 555.59,68.28 566.10,88.31 576.62,89.56 587.13,145.88 597.64,190.93 608.15,162.15 618.67,135.87 629.18,149.63 639.69,142.12 650.21,140.87 660.72,138.37 671.23,163.40 681.74,142.12 692.26,158.39 702.77,148.38 713.28,112.09 723.79,153.39 734.31,163.40 744.82,163.40 755.33,158.39 765.85,159.64 776.36,154.64 786.87,147.13 797.38,137.12 807.90,133.36 818.41,143.37 828.92,125.85 839.44,132.11 849.95,124.60 860.46,163.40 870.97,167.15 881.49,140.87 892.00,210.96"/>
</svg>
