<svg xmlns="http://www.w3.org/2000/svg" width="920" height="300" viewBox="0 0 920 300">
<rect width="100%" height="100%" fill="#ffffff"/>
<text x="72" y="24" font-family="Arial, sans-serif" font-size="16" font-weight="700" fill="#111827">RemoteIP page cardinality per row group</text>
<text x="72" y="288" font-family="Arial, sans-serif" font-size="11" fill="#6b7280">page/row-group index</text>
<text x="18" y="144" transform="rotate(-90 18 144)" font-family="Arial, sans-serif" font-size="11" fill="#6b7280">distinct values</text>
<line x1="72" y1="246.00" x2="892" y2="246.00" stroke="#e5e7eb" stroke-width="1"/>
<text x="64" y="249.00" font-family="Arial, sans-serif" font-size="10" text-anchor="end" fill="#6b7280">508</text>
<line x1="72" y1="195.00" x2="892" y2="195.00" stroke="#e5e7eb" stroke-width="1"/>
<text x="64" y="198.00" font-family="Arial, sans-serif" font-size="10" text-anchor="end" fill="#6b7280">868.75</text>
<line x1="72" y1="144.00" x2="892" y2="144.00" stroke="#e5e7eb" stroke-width="1"/>
<text x="64" y="147.00" font-family="Arial, sans-serif" font-size="10" text-anchor="end" fill="#6b7280">1229.50</text>
<line x1="72" y1="93.00" x2="892" y2="93.00" stroke="#e5e7eb" stroke-width="1"/>
<text x="64" y="96.00" font-family="Arial, sans-serif" font-size="10" text-anchor="end" fill="#6b7280">1590.25</text>
<line x1="72" y1="42.00" x2="892" y2="42.00" stroke="#e5e7eb" stroke-width="1"/>
<text x="64" y="45.00" font-family="Arial, sans-serif" font-size="10" text-anchor="end" fill="#6b7280">1951</text>
<line x1="72" y1="246" x2="892" y2="246" stroke="#9ca3af" stroke-width="1"/>
<line x1="72" y1="42" x2="72" y2="246" stroke="#9ca3af" stroke-width="1"/>
<circle cx="72" cy="266" r="4" fill="#0f766e"/>
<text x="80" y="270" font-family="Arial, sans-serif" font-size="11" fill="#374151">min page cardinality</text>
<circle cx="252" cy="266" r="4" fill="#b91c1c"/>
<text x="260" y="270" font-family="Arial, sans-serif" font-size="11" fill="#374151">max page cardinality</text>
<polyline fill="none" stroke="#0f766e" stroke-width="1.8" points="72.00,193.83 82.51,179.56 93.03,203.59 103.54,196.10 114.05,197.51 124.56,197.37 135.08,200.62 145.59,195.25 156.10,185.35 166.62,191.43 177.13,205.00 187.64,193.41 198.15,197.09 208.67,201.89 219.18,211.79 229.69,212.92 240.21,194.96 250.72,187.19 261.23,199.49 271.74,200.34 282.26,205.71 292.77,190.30 303.28,203.87 313.79,197.65 324.31,192.56 334.82,199.77 345.33,210.37 355.85,193.41 366.36,201.19 376.87,200.34 387.38,210.09 397.90,206.27 408.41,204.15 418.92,210.80 429.44,210.52 439.95,199.63 450.46,198.64 460.97,207.12 471.49,184.50 482.00,204.86 492.51,197.65 503.03,202.46 513.54,179.84 524.05,46.24 534.56,42.00 545.08,42.57 555.59,51.05 566.10,59.25 576.62,85.54 587.13,185.92 597.64,212.35 608.15,199.35 618.67,196.24 629.18,204.72 639.69,202.74 650.21,197.51 660.72,186.77 671.23,211.51 681.74,185.63 692.26,201.89 702.77,189.03 713.28,190.58 723.79,206.13 734.31,206.42 744.82,194.68 755.33,200.05 765.85,206.27 776.36,196.66 786.87,194.68 797.38,189.59 807.90,192.99 818.41,197.79 828.92,193.41 839.44,191.01 849.95,187.05 860.46,191.85 870.97,192.42 881.49,203.73 892.00,246.00"/>
<polyline fill="none" stroke="#b91c1c" stroke-width="1.8" points="72.00,193.83 82.51,179.56 93.03,203.59 103.54,196.10 114.05,197.51 124.56,197.37 135.08,200.62 145.59,195.25 156.10,185.35 166.62,191.43 177.13,205.00 187.64,193.41 198.15,197.09 208.67,201.89 219.18,211.79 229.69,212.92 240.21,194.96 250.72,187.19 261.23,199.49 271.74,200.34 282.26,205.71 292.77,190.30 303.28,203.87 313.79,197.65 324.31,192.56 334.82,199.77 345.33,210.37 355.85,193.41 366.36,201.19 376.87,200.34 387.38,210.09 397.90,206.27 408.41,204.15 418.92,210.80 429.44,210.52 439.95,199.63 450.46,198.64 460.97,207.12 471.49,184.50 482.00,204.86 492.51,197.65 503.03,202.46 513.54,179.84 524.05,46.24 534.56,42.00 545.08,42.57 555.59,51.05 566.10,59.25 576.62,85.54 587.13,185.92 597.64,212.35 608.15,199.35 618.67,196.24 629.18,204.72 639.69,202.74 650.21,197.51 660.72,186.77 671.23,211.51 681.74,185.63 692.26,201.89 702.77,189.03 713.28,190.58 723.79,206.13 734.31,206.42 744.82,194.68 755.33,200.05 765.85,206.27 776.36,196.66 786.87,194.68 797.38,189.59 807.90,192.99 818.41,197.79 828.92,193.41 839.44,191.01 849.95,187.05 860.46,191.85 870.97,192.42 881.49,203.73 892.00,246.00"/>
</svg>
