<svg xmlns="http://www.w3.org/2000/svg" width="920" height="300" viewBox="0 0 920 300">
<rect width="100%" height="100%" fill="#ffffff"/>
<text x="72" y="24" font-family="Arial, sans-serif" font-size="16" font-weight="700" fill="#111827">RemoteIP page min/max</text>
<text x="72" y="288" font-family="Arial, sans-serif" font-size="11" fill="#6b7280">page/row-group index</text>
<text x="18" y="144" transform="rotate(-90 18 144)" font-family="Arial, sans-serif" font-size="11" fill="#6b7280">value</text>
<line x1="72" y1="246.00" x2="892" y2="246.00" stroke="#e5e7eb" stroke-width="1"/>
<text x="64" y="249.00" font-family="Arial, sans-serif" font-size="10" text-anchor="end" fill="#6b7280">-2.15e+09</text>
<line x1="72" y1="195.00" x2="892" y2="195.00" stroke="#e5e7eb" stroke-width="1"/>
<text x="64" y="198.00" font-family="Arial, sans-serif" font-size="10" text-anchor="end" fill="#6b7280">-1.07e+09</text>
<line x1="72" y1="144.00" x2="892" y2="144.00" stroke="#e5e7eb" stroke-width="1"/>
<text x="64" y="147.00" font-family="Arial, sans-serif" font-size="10" text-anchor="end" fill="#6b7280">65031</text>
<line x1="72" y1="93.00" x2="892" y2="93.00" stroke="#e5e7eb" stroke-width="1"/>
<text x="64" y="96.00" font-family="Arial, sans-serif" font-size="10" text-anchor="end" fill="#6b7280">1.07e+09</text>
<line x1="72" y1="42.00" x2="892" y2="42.00" stroke="#e5e7eb" stroke-width="1"/>
<text x="64" y="45.00" font-family="Arial, sans-serif" font-size="10" text-anchor="end" fill="#6b7280">2.15e+09</text>
<line x1="72" y1="246" x2="892" y2="246" stroke="#9ca3af" stroke-width="1"/>
<line x1="72" y1="42" x2="72" y2="246" stroke="#9ca3af" stroke-width="1"/>
<circle cx="72" cy="266" r="4" fill="#2563eb"/>
<text x="80" y="270" font-family="Arial, sans-serif" font-size="11" fill="#374151">page min</text>
<circle cx="252" cy="266" r="4" fill="#b91c1c"/>
<text x="260" y="270" font-family="Arial, sans-serif" font-size="11" fill="#374151">page max</text>
<polyline fill="none" stroke="#2563eb" stroke-width="1.8" points="72.00,245.90 82.51,245.50 93.03,245.45 103.54,245.72 114.05,245.51 124.56,245.40 135.08,245.95 145.59,245.64 156.10,245.96 166.62,245.84 177.13,245.27 187.64,245.72 198.15,245.55 208.67,246.00 219.18,245.72 229.69,244.83 240.21,245.97 250.72,245.54 261.23,245.43 271.74,245.53 282.26,244.46 292.77,245.90 303.28,245.80 313.79,245.77 324.31,245.13 334.82,245.97 345.33,245.93 355.85,245.96 366.36,245.78 376.87,245.13 387.38,245.81 397.90,245.49 408.41,245.58 418.92,245.69 429.44,242.68 439.95,245.81 450.46,245.83 460.97,245.41 471.49,245.80 482.00,244.93 492.51,245.53 503.03,245.88 513.54,244.66 524.05,245.75 534.56,244.98 545.08,245.98 555.59,245.94 566.10,245.89 576.62,245.91 587.13,245.88 597.64,244.47 608.15,245.43 618.67,245.97 629.18,245.80 639.69,245.88 650.21,245.96 660.72,245.60 671.23,245.77 681.74,245.93 692.26,245.52 702.77,245.58 713.28,245.90 723.79,244.68 734.31,245.94 744.82,244.83 755.33,244.96 765.85,245.93 776.36,245.81 786.87,245.81 797.38,245.78 807.90,245.74 818.41,245.77 828.92,245.89 839.44,244.83 849.95,245.84 860.46,245.92 870.97,243.68 881.49,245.93 892.00,245.94"/>
<polyline fill="none" stroke="#b91c1c" stroke-width="1.8" points="72.00,42.10 82.51,42.12 93.03,42.10 103.54,42.18 114.05,42.21 124.56,42.09 135.08,42.18 145.59,42.03 156.10,42.05 166.62,42.00 177.13,42.42 187.64,42.05 198.15,42.03 208.67,42.15 219.18,42.32 229.69,42.25 240.21,42.09 250.72,42.18 261.23,42.28 271.74,42.00 282.26,42.03 292.77,42.25 303.28,42.19 313.79,42.01 324.31,42.05 334.82,42.08 345.33,42.18 355.85,42.05 366.36,42.42 376.87,42.05 387.38,42.17 397.90,42.04 408.41,42.43 418.92,42.15 429.44,42.04 439.95,42.20 450.46,42.17 460.97,42.06 471.49,42.06 482.00,42.13 492.51,42.25 503.03,42.09 513.54,42.08 524.05,42.06 534.56,42.04 545.08,42.01 555.59,42.03 566.10,42.04 576.62,42.07 587.13,42.13 597.64,42.22 608.15,42.15 618.67,42.03 629.18,42.02 639.69,42.01 650.21,42.13 660.72,42.12 671.23,42.05 681.74,42.15 692.26,42.12 702.77,42.08 713.28,42.09 723.79,42.12 734.31,42.10 744.82,42.00 755.33,42.03 765.85,42.29 776.36,42.05 786.87,42.12 797.38,42.06 807.90,42.06 818.41,42.03 828.92,42.06 839.44,42.12 849.95,42.12 860.46,42.08 870.97,42.11 881.49,42.00 892.00,42.22"/>
</svg>
