<svg xmlns="http://www.w3.org/2000/svg" width="920" height="300" viewBox="0 0 920 300">
<rect width="100%" height="100%" fill="#ffffff"/>
<text x="72" y="24" font-family="Arial, sans-serif" font-size="16" font-weight="700" fill="#111827">ResolutionHeight page min/max</text>
<text x="72" y="288" font-family="Arial, sans-serif" font-size="11" fill="#6b7280">page/row-group index</text>
<text x="18" y="144" transform="rotate(-90 18 144)" font-family="Arial, sans-serif" font-size="11" fill="#6b7280">value</text>
<line x1="72" y1="246.00" x2="892" y2="246.00" stroke="#e5e7eb" stroke-width="1"/>
<text x="64" y="249.00" font-family="Arial, sans-serif" font-size="10" text-anchor="end" fill="#6b7280">0</text>
<line x1="72" y1="195.00" x2="892" y2="195.00" stroke="#e5e7eb" stroke-width="1"/>
<text x="64" y="198.00" font-family="Arial, sans-serif" font-size="10" text-anchor="end" fill="#6b7280">2393.75</text>
<line x1="72" y1="144.00" x2="892" y2="144.00" stroke="#e5e7eb" stroke-width="1"/>
<text x="64" y="147.00" font-family="Arial, sans-serif" font-size="10" text-anchor="end" fill="#6b7280">4787.50</text>
<line x1="72" y1="93.00" x2="892" y2="93.00" stroke="#e5e7eb" stroke-width="1"/>
<text x="64" y="96.00" font-family="Arial, sans-serif" font-size="10" text-anchor="end" fill="#6b7280">7181.25</text>
<line x1="72" y1="42.00" x2="892" y2="42.00" stroke="#e5e7eb" stroke-width="1"/>
<text x="64" y="45.00" font-family="Arial, sans-serif" font-size="10" text-anchor="end" fill="#6b7280">9575</text>
<line x1="72" y1="246" x2="892" y2="246" stroke="#9ca3af" stroke-width="1"/>
<line x1="72" y1="42" x2="72" y2="246" stroke="#9ca3af" stroke-width="1"/>
<circle cx="72" cy="266" r="4" fill="#2563eb"/>
<text x="80" y="270" font-family="Arial, sans-serif" font-size="11" fill="#374151">page min</text>
<circle cx="252" cy="266" r="4" fill="#b91c1c"/>
<text x="260" y="270" font-family="Arial, sans-serif" font-size="11" fill="#374151">page max</text>
<polyline fill="none" stroke="#2563eb" stroke-width="1.8" points="72.00,246.00 82.51,246.00 93.03,246.00 103.54,246.00 114.05,246.00 124.56,246.00 135.08,246.00 145.59,246.00 156.10,246.00 166.62,246.00 177.13,246.00 187.64,246.00 198.15,246.00 208.67,246.00 219.18,246.00 229.69,246.00 240.21,246.00 250.72,246.00 261.23,246.00 271.74,246.00 282.26,239.71 292.77,246.00 303.28,246.00 313.79,246.00 324.31,246.00 334.82,246.00 345.33,246.00 355.85,246.00 366.36,246.00 376.87,246.00 387.38,246.00 397.90,246.00 408.41,246.00 418.92,241.95 429.44,246.00 439.95,246.00 450.46,246.00 460.97,246.00 471.49,246.00 482.00,246.00 492.51,246.00 503.03,246.00 513.54,246.00 524.05,246.00 534.56,246.00 545.08,246.00 555.59,243.76 566.10,240.78 576.62,246.00 587.13,246.00 597.64,246.00 608.15,246.00 618.67,246.00 629.18,246.00 639.69,246.00 650.21,246.00 660.72,246.00 671.23,246.00 681.74,246.00 692.26,245.98 702.77,246.00 713.28,246.00 723.79,246.00 734.31,246.00 744.82,246.00 755.33,246.00 765.85,246.00 776.36,246.00 786.87,246.00 797.38,246.00 807.90,246.00 818.41,246.00 828.92,246.00 839.44,246.00 849.95,246.00 860.46,246.00 870.97,246.00 881.49,246.00 892.00,246.00"/>
<polyline fill="none" stroke="#b91c1c" stroke-width="1.8" points="72.00,208.05 82.51,208.05 93.03,203.60 103.54,203.24 114.05,208.05 124.56,204.05 135.08,205.82 145.59,203.90 156.10,208.05 166.62,202.49 177.13,208.05 187.64,204.54 198.15,208.05 208.67,204.60 219.18,208.05 229.69,202.75 240.21,204.54 250.72,204.05 261.23,208.05 271.74,204.54 282.26,205.56 292.77,204.54 303.28,204.05 313.79,208.05 324.31,208.05 334.82,208.05 345.33,205.82 355.85,204.62 366.36,202.90 376.87,205.82 387.38,203.99 397.90,208.05 408.41,208.05 418.92,207.50 429.44,208.05 439.95,204.54 450.46,208.05 460.97,208.05 471.49,204.05 482.00,205.20 492.51,205.82 503.03,208.05 513.54,204.05 524.05,205.82 534.56,204.05 545.08,205.82 555.59,203.33 566.10,205.82 576.62,205.33 587.13,204.01 597.64,205.43 608.15,208.05 618.67,203.37 629.18,203.45 639.69,202.73 650.21,208.05 660.72,202.60 671.23,205.82 681.74,207.03 692.26,208.05 702.77,202.49 713.28,208.05 723.79,203.99 734.31,208.05 744.82,205.82 755.33,205.82 765.85,202.81 776.36,207.63 786.87,208.05 797.38,207.03 807.90,204.05 818.41,202.64 828.92,203.79 839.44,202.96 849.95,42.00 860.46,206.82 870.97,208.05 881.49,205.80 892.00,207.44"/>
</svg>
