<svg xmlns="http://www.w3.org/2000/svg" width="920" height="300" viewBox="0 0 920 300">
<rect width="100%" height="100%" fill="#ffffff"/>
<text x="72" y="24" font-family="Arial, sans-serif" font-size="16" font-weight="700" fill="#111827">ResolutionHeight page cardinality per row group</text>
<text x="72" y="288" font-family="Arial, sans-serif" font-size="11" fill="#6b7280">page/row-group index</text>
<text x="18" y="144" transform="rotate(-90 18 144)" font-family="Arial, sans-serif" font-size="11" fill="#6b7280">distinct values</text>
<line x1="72" y1="246.00" x2="892" y2="246.00" stroke="#e5e7eb" stroke-width="1"/>
<text x="64" y="249.00" font-family="Arial, sans-serif" font-size="10" text-anchor="end" fill="#6b7280">49</text>
<line x1="72" y1="195.00" x2="892" y2="195.00" stroke="#e5e7eb" stroke-width="1"/>
<text x="64" y="198.00" font-family="Arial, sans-serif" font-size="10" text-anchor="end" fill="#6b7280">62.50</text>
<line x1="72" y1="144.00" x2="892" y2="144.00" stroke="#e5e7eb" stroke-width="1"/>
<text x="64" y="147.00" font-family="Arial, sans-serif" font-size="10" text-anchor="end" fill="#6b7280">76</text>
<line x1="72" y1="93.00" x2="892" y2="93.00" stroke="#e5e7eb" stroke-width="1"/>
<text x="64" y="96.00" font-family="Arial, sans-serif" font-size="10" text-anchor="end" fill="#6b7280">89.50</text>
<line x1="72" y1="42.00" x2="892" y2="42.00" stroke="#e5e7eb" stroke-width="1"/>
<text x="64" y="45.00" font-family="Arial, sans-serif" font-size="10" text-anchor="end" fill="#6b7280">103</text>
<line x1="72" y1="246" x2="892" y2="246" stroke="#9ca3af" stroke-width="1"/>
<line x1="72" y1="42" x2="72" y2="246" stroke="#9ca3af" stroke-width="1"/>
<circle cx="72" cy="266" r="4" fill="#0f766e"/>
<text x="80" y="270" font-family="Arial, sans-serif" font-size="11" fill="#374151">min page cardinality</text>
<circle cx="252" cy="266" r="4" fill="#b91c1c"/>
<text x="260" y="270" font-family="Arial, sans-serif" font-size="11" fill="#374151">max page cardinality</text>
<polyline fill="none" stroke="#0f766e" stroke-width="1.8" points="72.00,204.44 82.51,185.56 93.03,162.89 103.54,162.89 114.05,151.56 124.56,136.44 135.08,223.33 145.59,196.89 156.10,166.67 166.62,185.56 177.13,234.67 187.64,181.78 198.15,219.56 208.67,151.56 219.18,212.00 229.69,170.44 240.21,212.00 250.72,234.67 261.23,181.78 271.74,189.33 282.26,189.33 292.77,219.56 303.28,204.44 313.79,91.11 324.31,215.78 334.82,178.00 345.33,174.22 355.85,174.22 366.36,166.67 376.87,196.89 387.38,238.44 397.90,246.00 408.41,178.00 418.92,189.33 429.44,219.56 439.95,212.00 450.46,166.67 460.97,234.67 471.49,159.11 482.00,200.67 492.51,212.00 503.03,212.00 513.54,200.67 524.05,128.89 534.56,166.67 545.08,121.33 555.59,140.22 566.10,181.78 576.62,178.00 587.13,136.44 597.64,117.56 608.15,64.67 618.67,117.56 629.18,110.00 639.69,110.00 650.21,144.00 660.72,53.33 671.23,181.78 681.74,125.11 692.26,140.22 702.77,132.67 713.28,94.89 723.79,83.56 734.31,136.44 744.82,144.00 755.33,140.22 765.85,140.22 776.36,102.44 786.87,110.00 797.38,94.89 807.90,76.00 818.41,72.22 828.92,57.11 839.44,42.00 849.95,60.89 860.46,162.89 870.97,144.00 881.49,174.22 892.00,230.89"/>
<polyline fill="none" stroke="#b91c1c" stroke-width="1.8" points="72.00,204.44 82.51,185.56 93.03,162.89 103.54,162.89 114.05,151.56 124.56,136.44 135.08,223.33 145.59,196.89 156.10,166.67 166.62,185.56 177.13,234.67 187.64,181.78 198.15,219.56 208.67,151.56 219.18,212.00 229.69,170.44 240.21,212.00 250.72,234.67 261.23,181.78 271.74,189.33 282.26,189.33 292.77,219.56 303.28,204.44 313.79,91.11 324.31,215.78 334.82,178.00 345.33,174.22 355.85,174.22 366.36,166.67 376.87,196.89 387.38,238.44 397.90,246.00 408.41,178.00 418.92,189.33 429.44,219.56 439.95,212.00 450.46,166.67 460.97,234.67 471.49,159.11 482.00,200.67 492.51,212.00 503.03,212.00 513.54,200.67 524.05,128.89 534.56,166.67 545.08,121.33 555.59,140.22 566.10,181.78 576.62,178.00 587.13,136.44 597.64,117.56 608.15,64.67 618.67,117.56 629.18,110.00 639.69,110.00 650.21,144.00 660.72,53.33 671.23,181.78 681.74,125.11 692.26,140.22 702.77,132.67 713.28,94.89 723.79,83.56 734.31,136.44 744.82,144.00 755.33,140.22 765.85,140.22 776.36,102.44 786.87,110.00 797.38,94.89 807.90,76.00 818.41,72.22 828.92,57.11 839.44,42.00 849.95,60.89 860.46,162.89 870.97,144.00 881.49,174.22 892.00,230.89"/>
</svg>
