<svg xmlns="http://www.w3.org/2000/svg" width="920" height="300" viewBox="0 0 920 300">
<rect width="100%" height="100%" fill="#ffffff"/>
<text x="72" y="24" font-family="Arial, sans-serif" font-size="16" font-weight="700" fill="#111827">ResolutionWidth page cardinality per row group</text>
<text x="72" y="288" font-family="Arial, sans-serif" font-size="11" fill="#6b7280">page/row-group index</text>
<text x="18" y="144" transform="rotate(-90 18 144)" font-family="Arial, sans-serif" font-size="11" fill="#6b7280">distinct values</text>
<line x1="72" y1="246.00" x2="892" y2="246.00" stroke="#e5e7eb" stroke-width="1"/>
<text x="64" y="249.00" font-family="Arial, sans-serif" font-size="10" text-anchor="end" fill="#6b7280">48</text>
<line x1="72" y1="195.00" x2="892" y2="195.00" stroke="#e5e7eb" stroke-width="1"/>
<text x="64" y="198.00" font-family="Arial, sans-serif" font-size="10" text-anchor="end" fill="#6b7280">57</text>
<line x1="72" y1="144.00" x2="892" y2="144.00" stroke="#e5e7eb" stroke-width="1"/>
<text x="64" y="147.00" font-family="Arial, sans-serif" font-size="10" text-anchor="end" fill="#6b7280">66</text>
<line x1="72" y1="93.00" x2="892" y2="93.00" stroke="#e5e7eb" stroke-width="1"/>
<text x="64" y="96.00" font-family="Arial, sans-serif" font-size="10" text-anchor="end" fill="#6b7280">75</text>
<line x1="72" y1="42.00" x2="892" y2="42.00" stroke="#e5e7eb" stroke-width="1"/>
<text x="64" y="45.00" font-family="Arial, sans-serif" font-size="10" text-anchor="end" fill="#6b7280">84</text>
<line x1="72" y1="246" x2="892" y2="246" stroke="#9ca3af" stroke-width="1"/>
<line x1="72" y1="42" x2="72" y2="246" stroke="#9ca3af" stroke-width="1"/>
<circle cx="72" cy="266" r="4" fill="#0f766e"/>
<text x="80" y="270" font-family="Arial, sans-serif" font-size="11" fill="#374151">min page cardinality</text>
<circle cx="252" cy="266" r="4" fill="#b91c1c"/>
<text x="260" y="270" font-family="Arial, sans-serif" font-size="11" fill="#374151">max page cardinality</text>
<polyline fill="none" stroke="#0f766e" stroke-width="1.8" points="72.00,161.00 82.51,155.33 93.03,217.67 103.54,155.33 114.05,138.33 124.56,127.00 135.08,200.67 145.59,149.67 156.10,132.67 166.62,155.33 177.13,229.00 187.64,138.33 198.15,206.33 208.67,121.33 219.18,195.00 229.69,172.33 240.21,178.00 250.72,212.00 261.23,172.33 271.74,223.33 282.26,172.33 292.77,172.33 303.28,246.00 313.79,132.67 324.31,206.33 334.82,149.67 345.33,172.33 355.85,155.33 366.36,200.67 376.87,161.00 387.38,223.33 397.90,223.33 408.41,172.33 418.92,161.00 429.44,217.67 439.95,172.33 450.46,110.00 460.97,240.33 471.49,155.33 482.00,200.67 492.51,223.33 503.03,223.33 513.54,200.67 524.05,110.00 534.56,115.67 545.08,110.00 555.59,110.00 566.10,189.33 576.62,127.00 587.13,132.67 597.64,121.33 608.15,155.33 618.67,161.00 629.18,166.67 639.69,138.33 650.21,178.00 660.72,76.00 671.23,189.33 681.74,172.33 692.26,127.00 702.77,132.67 713.28,110.00 723.79,104.33 734.31,178.00 744.82,149.67 755.33,178.00 765.85,132.67 776.36,121.33 786.87,127.00 797.38,149.67 807.90,87.33 818.41,138.33 828.92,59.00 839.44,42.00 849.95,87.33 860.46,138.33 870.97,98.67 881.49,166.67 892.00,246.00"/>
<polyline fill="none" stroke="#b91c1c" stroke-width="1.8" points="72.00,161.00 82.51,155.33 93.03,217.67 103.54,155.33 114.05,138.33 124.56,127.00 135.08,200.67 145.59,149.67 156.10,132.67 166.62,155.33 177.13,229.00 187.64,138.33 198.15,206.33 208.67,121.33 219.18,195.00 229.69,172.33 240.21,178.00 250.72,212.00 261.23,172.33 271.74,223.33 282.26,172.33 292.77,172.33 303.28,246.00 313.79,132.67 324.31,206.33 334.82,149.67 345.33,172.33 355.85,155.33 366.36,200.67 376.87,161.00 387.38,223.33 397.90,223.33 408.41,172.33 418.92,161.00 429.44,217.67 439.95,172.33 450.46,110.00 460.97,240.33 471.49,155.33 482.00,200.67 492.51,223.33 503.03,223.33 513.54,200.67 524.05,110.00 534.56,115.67 545.08,110.00 555.59,110.00 566.10,189.33 576.62,127.00 587.13,132.67 597.64,121.33 608.15,155.33 618.67,161.00 629.18,166.67 639.69,138.33 650.21,178.00 660.72,76.00 671.23,189.33 681.74,172.33 692.26,127.00 702.77,132.67 713.28,110.00 723.79,104.33 734.31,178.00 744.82,149.67 755.33,178.00 765.85,132.67 776.36,121.33 786.87,127.00 797.38,149.67 807.90,87.33 818.41,138.33 828.92,59.00 839.44,42.00 849.95,87.33 860.46,138.33 870.97,98.67 881.49,166.67 892.00,246.00"/>
</svg>
