<svg xmlns="http://www.w3.org/2000/svg" width="920" height="300" viewBox="0 0 920 300">
<rect width="100%" height="100%" fill="#ffffff"/>
<text x="72" y="24" font-family="Arial, sans-serif" font-size="16" font-weight="700" fill="#111827">ResponseEndTiming page cardinality per row group</text>
<text x="72" y="288" font-family="Arial, sans-serif" font-size="11" fill="#6b7280">page/row-group index</text>
<text x="18" y="144" transform="rotate(-90 18 144)" font-family="Arial, sans-serif" font-size="11" fill="#6b7280">distinct values</text>
<line x1="72" y1="246.00" x2="892" y2="246.00" stroke="#e5e7eb" stroke-width="1"/>
<text x="64" y="249.00" font-family="Arial, sans-serif" font-size="10" text-anchor="end" fill="#6b7280">528</text>
<line x1="72" y1="195.00" x2="892" y2="195.00" stroke="#e5e7eb" stroke-width="1"/>
<text x="64" y="198.00" font-family="Arial, sans-serif" font-size="10" text-anchor="end" fill="#6b7280">790.25</text>
<line x1="72" y1="144.00" x2="892" y2="144.00" stroke="#e5e7eb" stroke-width="1"/>
<text x="64" y="147.00" font-family="Arial, sans-serif" font-size="10" text-anchor="end" fill="#6b7280">1052.50</text>
<line x1="72" y1="93.00" x2="892" y2="93.00" stroke="#e5e7eb" stroke-width="1"/>
<text x="64" y="96.00" font-family="Arial, sans-serif" font-size="10" text-anchor="end" fill="#6b7280">1314.75</text>
<line x1="72" y1="42.00" x2="892" y2="42.00" stroke="#e5e7eb" stroke-width="1"/>
<text x="64" y="45.00" font-family="Arial, sans-serif" font-size="10" text-anchor="end" fill="#6b7280">1577</text>
<line x1="72" y1="246" x2="892" y2="246" stroke="#9ca3af" stroke-width="1"/>
<line x1="72" y1="42" x2="72" y2="246" stroke="#9ca3af" stroke-width="1"/>
<circle cx="72" cy="266" r="4" fill="#0f766e"/>
<text x="80" y="270" font-family="Arial, sans-serif" font-size="11" fill="#374151">min page cardinality</text>
<circle cx="252" cy="266" r="4" fill="#b91c1c"/>
<text x="260" y="270" font-family="Arial, sans-serif" font-size="11" fill="#374151">max page cardinality</text>
<polyline fill="none" stroke="#0f766e" stroke-width="1.8" points="72.00,239.97 82.51,226.94 93.03,225.39 103.54,230.64 114.05,223.44 124.56,233.94 135.08,236.08 145.59,215.27 156.10,230.05 166.62,233.75 177.13,243.47 187.64,233.36 198.15,217.80 208.67,224.80 219.18,224.61 229.69,235.69 240.21,238.61 250.72,221.50 261.23,229.66 271.74,235.30 282.26,215.08 292.77,227.33 303.28,225.78 313.79,242.50 324.31,244.83 334.82,242.89 345.33,235.50 355.85,234.53 366.36,244.25 376.87,245.03 387.38,232.39 397.90,235.69 408.41,223.25 418.92,244.06 429.44,238.22 439.95,206.13 450.46,242.31 460.97,243.47 471.49,227.33 482.00,235.89 492.51,229.28 503.03,227.91 513.54,246.00 524.05,187.85 534.56,183.77 545.08,181.44 555.59,186.10 566.10,181.63 576.62,185.13 587.13,123.09 597.64,114.54 608.15,122.51 618.67,88.09 629.18,99.56 639.69,102.09 650.21,94.51 660.72,101.12 671.23,102.48 681.74,86.92 692.26,115.32 702.77,83.42 713.28,94.51 723.79,62.61 734.31,83.62 744.82,57.17 755.33,108.12 765.85,131.07 776.36,62.42 786.87,90.42 797.38,102.48 807.90,94.90 818.41,42.00 828.92,107.73 839.44,99.95 849.95,96.06 860.46,120.37 870.97,75.25 881.49,112.01 892.00,167.63"/>
<polyline fill="none" stroke="#b91c1c" stroke-width="1.8" points="72.00,239.97 82.51,226.94 93.03,225.39 103.54,230.64 114.05,223.44 124.56,233.94 135.08,236.08 145.59,215.27 156.10,230.05 166.62,233.75 177.13,243.47 187.64,233.36 198.15,217.80 208.67,224.80 219.18,224.61 229.69,235.69 240.21,238.61 250.72,221.50 261.23,229.66 271.74,235.30 282.26,215.08 292.77,227.33 303.28,225.78 313.79,242.50 324.31,244.83 334.82,242.89 345.33,235.50 355.85,234.53 366.36,244.25 376.87,245.03 387.38,232.39 397.90,235.69 408.41,223.25 418.92,244.06 429.44,238.22 439.95,206.13 450.46,242.31 460.97,243.47 471.49,227.33 482.00,235.89 492.51,229.28 503.03,227.91 513.54,246.00 524.05,187.85 534.56,183.77 545.08,181.44 555.59,186.10 566.10,181.63 576.62,185.13 587.13,123.09 597.64,114.54 608.15,122.51 618.67,88.09 629.18,99.56 639.69,102.09 650.21,94.51 660.72,101.12 671.23,102.48 681.74,86.92 692.26,115.32 702.77,83.42 713.28,94.51 723.79,62.61 734.31,83.62 744.82,57.17 755.33,108.12 765.85,131.07 776.36,62.42 786.87,90.42 797.38,102.48 807.90,94.90 818.41,42.00 828.92,107.73 839.44,99.95 849.95,96.06 860.46,120.37 870.97,75.25 881.49,112.01 892.00,167.63"/>
</svg>
