<svg xmlns="http://www.w3.org/2000/svg" width="920" height="300" viewBox="0 0 920 300">
<rect width="100%" height="100%" fill="#ffffff"/>
<text x="72" y="24" font-family="Arial, sans-serif" font-size="16" font-weight="700" fill="#111827">ResponseStartTiming page cardinality per row group</text>
<text x="72" y="288" font-family="Arial, sans-serif" font-size="11" fill="#6b7280">page/row-group index</text>
<text x="18" y="144" transform="rotate(-90 18 144)" font-family="Arial, sans-serif" font-size="11" fill="#6b7280">distinct values</text>
<line x1="72" y1="246.00" x2="892" y2="246.00" stroke="#e5e7eb" stroke-width="1"/>
<text x="64" y="249.00" font-family="Arial, sans-serif" font-size="10" text-anchor="end" fill="#6b7280">800</text>
<line x1="72" y1="195.00" x2="892" y2="195.00" stroke="#e5e7eb" stroke-width="1"/>
<text x="64" y="198.00" font-family="Arial, sans-serif" font-size="10" text-anchor="end" fill="#6b7280">1540.25</text>
<line x1="72" y1="144.00" x2="892" y2="144.00" stroke="#e5e7eb" stroke-width="1"/>
<text x="64" y="147.00" font-family="Arial, sans-serif" font-size="10" text-anchor="end" fill="#6b7280">2280.50</text>
<line x1="72" y1="93.00" x2="892" y2="93.00" stroke="#e5e7eb" stroke-width="1"/>
<text x="64" y="96.00" font-family="Arial, sans-serif" font-size="10" text-anchor="end" fill="#6b7280">3020.75</text>
<line x1="72" y1="42.00" x2="892" y2="42.00" stroke="#e5e7eb" stroke-width="1"/>
<text x="64" y="45.00" font-family="Arial, sans-serif" font-size="10" text-anchor="end" fill="#6b7280">3761</text>
<line x1="72" y1="246" x2="892" y2="246" stroke="#9ca3af" stroke-width="1"/>
<line x1="72" y1="42" x2="72" y2="246" stroke="#9ca3af" stroke-width="1"/>
<circle cx="72" cy="266" r="4" fill="#0f766e"/>
<text x="80" y="270" font-family="Arial, sans-serif" font-size="11" fill="#374151">min page cardinality</text>
<circle cx="252" cy="266" r="4" fill="#b91c1c"/>
<text x="260" y="270" font-family="Arial, sans-serif" font-size="11" fill="#374151">max page cardinality</text>
<polyline fill="none" stroke="#0f766e" stroke-width="1.8" points="72.00,239.52 82.51,232.77 93.03,228.09 103.54,228.71 114.05,233.60 124.56,231.05 135.08,230.98 145.59,228.84 156.10,228.91 166.62,224.85 177.13,235.11 187.64,234.15 198.15,224.50 208.67,220.99 219.18,227.26 229.69,236.22 240.21,226.50 250.72,235.32 261.23,231.19 271.74,238.77 282.26,226.30 292.77,226.50 303.28,227.67 313.79,232.98 324.31,230.91 334.82,228.16 345.33,234.77 355.85,228.78 366.36,229.26 376.87,243.86 387.38,234.63 397.90,226.78 408.41,232.29 418.92,246.00 429.44,235.39 439.95,223.47 450.46,233.46 460.97,236.08 471.49,237.25 482.00,234.49 492.51,239.04 503.03,234.84 513.54,221.61 524.05,166.08 534.56,161.53 545.08,159.74 555.59,163.05 566.10,174.14 576.62,166.91 587.13,64.32 597.64,66.18 608.15,62.53 618.67,57.57 629.18,64.39 639.69,55.71 650.21,59.09 660.72,57.78 671.23,65.63 681.74,58.26 692.26,59.16 702.77,62.32 713.28,58.53 723.79,63.43 734.31,42.00 744.82,56.19 755.33,62.32 765.85,63.77 776.36,60.74 786.87,43.52 797.38,50.13 807.90,57.29 818.41,48.48 828.92,65.98 839.44,58.60 849.95,43.52 860.46,63.29 870.97,66.11 881.49,42.48 892.00,116.96"/>
<polyline fill="none" stroke="#b91c1c" stroke-width="1.8" points="72.00,239.52 82.51,232.77 93.03,228.09 103.54,228.71 114.05,233.60 124.56,231.05 135.08,230.98 145.59,228.84 156.10,228.91 166.62,224.85 177.13,235.11 187.64,234.15 198.15,224.50 208.67,220.99 219.18,227.26 229.69,236.22 240.21,226.50 250.72,235.32 261.23,231.19 271.74,238.77 282.26,226.30 292.77,226.50 303.28,227.67 313.79,232.98 324.31,230.91 334.82,228.16 345.33,234.77 355.85,228.78 366.36,229.26 376.87,243.86 387.38,234.63 397.90,226.78 408.41,232.29 418.92,246.00 429.44,235.39 439.95,223.47 450.46,233.46 460.97,236.08 471.49,237.25 482.00,234.49 492.51,239.04 503.03,234.84 513.54,221.61 524.05,166.08 534.56,161.53 545.08,159.74 555.59,163.05 566.10,174.14 576.62,166.91 587.13,64.32 597.64,66.18 608.15,62.53 618.67,57.57 629.18,64.39 639.69,55.71 650.21,59.09 660.72,57.78 671.23,65.63 681.74,58.26 692.26,59.16 702.77,62.32 713.28,58.53 723.79,63.43 734.31,42.00 744.82,56.19 755.33,62.32 765.85,63.77 776.36,60.74 786.87,43.52 797.38,50.13 807.90,57.29 818.41,48.48 828.92,65.98 839.44,58.60 849.95,43.52 860.46,63.29 870.97,66.11 881.49,42.48 892.00,116.96"/>
</svg>
