<svg xmlns="http://www.w3.org/2000/svg" width="920" height="300" viewBox="0 0 920 300">
<rect width="100%" height="100%" fill="#ffffff"/>
<text x="72" y="24" font-family="Arial, sans-serif" font-size="16" font-weight="700" fill="#111827">Robotness page cardinality per row group</text>
<text x="72" y="288" font-family="Arial, sans-serif" font-size="11" fill="#6b7280">page/row-group index</text>
<text x="18" y="144" transform="rotate(-90 18 144)" font-family="Arial, sans-serif" font-size="11" fill="#6b7280">distinct values</text>
<line x1="72" y1="246.00" x2="892" y2="246.00" stroke="#e5e7eb" stroke-width="1"/>
<text x="64" y="249.00" font-family="Arial, sans-serif" font-size="10" text-anchor="end" fill="#6b7280">85</text>
<line x1="72" y1="195.00" x2="892" y2="195.00" stroke="#e5e7eb" stroke-width="1"/>
<text x="64" y="198.00" font-family="Arial, sans-serif" font-size="10" text-anchor="end" fill="#6b7280">113.75</text>
<line x1="72" y1="144.00" x2="892" y2="144.00" stroke="#e5e7eb" stroke-width="1"/>
<text x="64" y="147.00" font-family="Arial, sans-serif" font-size="10" text-anchor="end" fill="#6b7280">142.50</text>
<line x1="72" y1="93.00" x2="892" y2="93.00" stroke="#e5e7eb" stroke-width="1"/>
<text x="64" y="96.00" font-family="Arial, sans-serif" font-size="10" text-anchor="end" fill="#6b7280">171.25</text>
<line x1="72" y1="42.00" x2="892" y2="42.00" stroke="#e5e7eb" stroke-width="1"/>
<text x="64" y="45.00" font-family="Arial, sans-serif" font-size="10" text-anchor="end" fill="#6b7280">200</text>
<line x1="72" y1="246" x2="892" y2="246" stroke="#9ca3af" stroke-width="1"/>
<line x1="72" y1="42" x2="72" y2="246" stroke="#9ca3af" stroke-width="1"/>
<circle cx="72" cy="266" r="4" fill="#0f766e"/>
<text x="80" y="270" font-family="Arial, sans-serif" font-size="11" fill="#374151">min page cardinality</text>
<circle cx="252" cy="266" r="4" fill="#b91c1c"/>
<text x="260" y="270" font-family="Arial, sans-serif" font-size="11" fill="#374151">max page cardinality</text>
<polyline fill="none" stroke="#0f766e" stroke-width="1.8" points="72.00,237.13 82.51,189.23 93.03,219.39 103.54,214.07 114.05,222.94 124.56,231.81 135.08,214.07 145.59,219.39 156.10,205.20 166.62,194.56 177.13,222.94 187.64,212.30 198.15,226.49 208.67,224.71 219.18,246.00 229.69,224.71 240.21,224.71 250.72,212.30 261.23,231.81 271.74,246.00 282.26,244.23 292.77,244.23 303.28,221.17 313.79,240.68 324.31,222.94 334.82,230.03 345.33,224.71 355.85,198.10 366.36,210.52 376.87,212.30 387.38,219.39 397.90,230.03 408.41,215.84 418.92,196.33 429.44,194.56 439.95,217.62 450.46,224.71 460.97,238.90 471.49,203.43 482.00,210.52 492.51,212.30 503.03,194.56 513.54,182.14 524.05,42.00 534.56,70.38 545.08,70.38 555.59,95.22 566.10,86.35 576.62,100.54 587.13,100.54 597.64,128.92 608.15,102.31 618.67,128.92 629.18,134.24 639.69,148.43 650.21,143.11 660.72,134.24 671.23,144.89 681.74,137.79 692.26,160.85 702.77,130.70 713.28,118.28 723.79,150.21 734.31,146.66 744.82,128.92 755.33,153.76 765.85,134.24 776.36,157.30 786.87,148.43 797.38,157.30 807.90,112.96 818.41,128.92 828.92,151.98 839.44,130.70 849.95,157.30 860.46,136.02 870.97,120.05 881.49,127.15 892.00,191.01"/>
<polyline fill="none" stroke="#b91c1c" stroke-width="1.8" points="72.00,237.13 82.51,189.23 93.03,219.39 103.54,214.07 114.05,222.94 124.56,231.81 135.08,214.07 145.59,219.39 156.10,205.20 166.62,194.56 177.13,222.94 187.64,212.30 198.15,226.49 208.67,224.71 219.18,246.00 229.69,224.71 240.21,224.71 250.72,212.30 261.23,231.81 271.74,246.00 282.26,244.23 292.77,244.23 303.28,221.17 313.79,240.68 324.31,222.94 334.82,230.03 345.33,224.71 355.85,198.10 366.36,210.52 376.87,212.30 387.38,219.39 397.90,230.03 408.41,215.84 418.92,196.33 429.44,194.56 439.95,217.62 450.46,224.71 460.97,238.90 471.49,203.43 482.00,210.52 492.51,212.30 503.03,194.56 513.54,182.14 524.05,42.00 534.56,70.38 545.08,70.38 555.59,95.22 566.10,86.35 576.62,100.54 587.13,100.54 597.64,128.92 608.15,102.31 618.67,128.92 629.18,134.24 639.69,148.43 650.21,143.11 660.72,134.24 671.23,144.89 681.74,137.79 692.26,160.85 702.77,130.70 713.28,118.28 723.79,150.21 734.31,146.66 744.82,128.92 755.33,153.76 765.85,134.24 776.36,157.30 786.87,148.43 797.38,157.30 807.90,112.96 818.41,128.92 828.92,151.98 839.44,130.70 849.95,157.30 860.46,136.02 870.97,120.05 881.49,127.15 892.00,191.01"/>
</svg>
