<svg xmlns="http://www.w3.org/2000/svg" width="920" height="300" viewBox="0 0 920 300">
<rect width="100%" height="100%" fill="#ffffff"/>
<text x="72" y="24" font-family="Arial, sans-serif" font-size="16" font-weight="700" fill="#111827">SearchPhrase row-group cardinality</text>
<text x="72" y="288" font-family="Arial, sans-serif" font-size="11" fill="#6b7280">page/row-group index</text>
<text x="18" y="144" transform="rotate(-90 18 144)" font-family="Arial, sans-serif" font-size="11" fill="#6b7280">distinct values</text>
<line x1="72" y1="246.00" x2="892" y2="246.00" stroke="#e5e7eb" stroke-width="1"/>
<text x="64" y="249.00" font-family="Arial, sans-serif" font-size="10" text-anchor="end" fill="#6b7280">7</text>
<line x1="72" y1="195.00" x2="892" y2="195.00" stroke="#e5e7eb" stroke-width="1"/>
<text x="64" y="198.00" font-family="Arial, sans-serif" font-size="10" text-anchor="end" fill="#6b7280">144.75</text>
<line x1="72" y1="144.00" x2="892" y2="144.00" stroke="#e5e7eb" stroke-width="1"/>
<text x="64" y="147.00" font-family="Arial, sans-serif" font-size="10" text-anchor="end" fill="#6b7280">282.50</text>
<line x1="72" y1="93.00" x2="892" y2="93.00" stroke="#e5e7eb" stroke-width="1"/>
<text x="64" y="96.00" font-family="Arial, sans-serif" font-size="10" text-anchor="end" fill="#6b7280">420.25</text>
<line x1="72" y1="42.00" x2="892" y2="42.00" stroke="#e5e7eb" stroke-width="1"/>
<text x="64" y="45.00" font-family="Arial, sans-serif" font-size="10" text-anchor="end" fill="#6b7280">558</text>
<line x1="72" y1="246" x2="892" y2="246" stroke="#9ca3af" stroke-width="1"/>
<line x1="72" y1="42" x2="72" y2="246" stroke="#9ca3af" stroke-width="1"/>
<circle cx="72" cy="266" r="4" fill="#2563eb"/>
<text x="80" y="270" font-family="Arial, sans-serif" font-size="11" fill="#374151">row group cardinality</text>
<polyline fill="none" stroke="#2563eb" stroke-width="1.8" points="72.00,75.32 82.51,44.96 93.03,72.36 103.54,77.54 114.05,54.59 124.56,85.69 135.08,65.32 145.59,91.61 156.10,66.81 166.62,71.25 177.13,85.32 187.64,73.47 198.15,66.81 208.67,80.87 219.18,94.94 229.69,97.17 240.21,84.95 250.72,66.81 261.23,88.65 271.74,92.72 282.26,84.95 292.77,75.69 303.28,85.69 313.79,83.47 324.31,71.25 334.82,71.25 345.33,97.17 355.85,81.25 366.36,79.39 376.87,67.92 387.38,80.13 397.90,91.61 408.41,88.28 418.92,78.28 429.44,75.69 439.95,69.40 450.46,53.85 460.97,80.13 471.49,47.92 482.00,59.03 492.51,42.00 503.03,79.39 513.54,81.25 524.05,244.52 534.56,242.30 545.08,242.30 555.59,239.71 566.10,246.00 576.62,242.30 587.13,213.05 597.64,219.34 608.15,215.64 618.67,216.38 629.18,208.98 639.69,218.23 650.21,217.12 660.72,208.24 671.23,206.38 681.74,210.46 692.26,210.46 702.77,210.83 713.28,202.31 723.79,215.27 734.31,215.27 744.82,207.50 755.33,207.50 765.85,208.24 776.36,213.79 786.87,211.94 797.38,211.94 807.90,203.42 818.41,211.57 828.92,211.20 839.44,210.83 849.95,208.61 860.46,210.09 870.97,216.75 881.49,220.08 892.00,224.90"/>
</svg>
