<svg xmlns="http://www.w3.org/2000/svg" width="920" height="300" viewBox="0 0 920 300">
<rect width="100%" height="100%" fill="#ffffff"/>
<text x="72" y="24" font-family="Arial, sans-serif" font-size="16" font-weight="700" fill="#111827">SearchPhrase value length per row group</text>
<text x="72" y="288" font-family="Arial, sans-serif" font-size="11" fill="#6b7280">page/row-group index</text>
<text x="18" y="144" transform="rotate(-90 18 144)" font-family="Arial, sans-serif" font-size="11" fill="#6b7280">bytes</text>
<line x1="72" y1="246.00" x2="892" y2="246.00" stroke="#e5e7eb" stroke-width="1"/>
<text x="64" y="249.00" font-family="Arial, sans-serif" font-size="10" text-anchor="end" fill="#6b7280">0</text>
<line x1="72" y1="195.00" x2="892" y2="195.00" stroke="#e5e7eb" stroke-width="1"/>
<text x="64" y="198.00" font-family="Arial, sans-serif" font-size="10" text-anchor="end" fill="#6b7280">484.75</text>
<line x1="72" y1="144.00" x2="892" y2="144.00" stroke="#e5e7eb" stroke-width="1"/>
<text x="64" y="147.00" font-family="Arial, sans-serif" font-size="10" text-anchor="end" fill="#6b7280">969.50</text>
<line x1="72" y1="93.00" x2="892" y2="93.00" stroke="#e5e7eb" stroke-width="1"/>
<text x="64" y="96.00" font-family="Arial, sans-serif" font-size="10" text-anchor="end" fill="#6b7280">1454.25</text>
<line x1="72" y1="42.00" x2="892" y2="42.00" stroke="#e5e7eb" stroke-width="1"/>
<text x="64" y="45.00" font-family="Arial, sans-serif" font-size="10" text-anchor="end" fill="#6b7280">1939</text>
<line x1="72" y1="246" x2="892" y2="246" stroke="#9ca3af" stroke-width="1"/>
<line x1="72" y1="42" x2="72" y2="246" stroke="#9ca3af" stroke-width="1"/>
<circle cx="72" cy="266" r="4" fill="#7c3aed"/>
<text x="80" y="270" font-family="Arial, sans-serif" font-size="11" fill="#374151">min length</text>
<circle cx="252" cy="266" r="4" fill="#ea580c"/>
<text x="260" y="270" font-family="Arial, sans-serif" font-size="11" fill="#374151">max length</text>
<polyline fill="none" stroke="#7c3aed" stroke-width="1.8" points="72.00,246.00 82.51,246.00 93.03,246.00 103.54,246.00 114.05,246.00 124.56,246.00 135.08,246.00 145.59,246.00 156.10,246.00 166.62,246.00 177.13,246.00 187.64,246.00 198.15,246.00 208.67,246.00 219.18,246.00 229.69,246.00 240.21,246.00 250.72,246.00 261.23,246.00 271.74,246.00 282.26,246.00 292.77,246.00 303.28,246.00 313.79,246.00 324.31,246.00 334.82,246.00 345.33,246.00 355.85,246.00 366.36,246.00 376.87,246.00 387.38,246.00 397.90,246.00 408.41,246.00 418.92,246.00 429.44,246.00 439.95,246.00 450.46,246.00 460.97,246.00 471.49,246.00 482.00,246.00 492.51,246.00 503.03,246.00 513.54,246.00 524.05,246.00 534.56,246.00 545.08,246.00 555.59,246.00 566.10,246.00 576.62,246.00 587.13,246.00 597.64,246.00 608.15,246.00 618.67,246.00 629.18,246.00 639.69,246.00 650.21,246.00 660.72,246.00 671.23,246.00 681.74,246.00 692.26,246.00 702.77,246.00 713.28,246.00 723.79,246.00 734.31,246.00 744.82,246.00 755.33,246.00 765.85,246.00 776.36,246.00 786.87,246.00 797.38,246.00 807.90,246.00 818.41,246.00 828.92,246.00 839.44,246.00 849.95,246.00 860.46,246.00 870.97,246.00 881.49,246.00 892.00,246.00"/>
<polyline fill="none" stroke="#ea580c" stroke-width="1.8" points="72.00,226.33 82.51,221.59 93.03,230.64 103.54,221.80 114.05,231.06 124.56,230.85 135.08,231.27 145.59,222.22 156.10,228.85 166.62,231.17 177.13,195.39 187.64,221.38 198.15,42.00 208.67,231.90 219.18,230.22 229.69,201.18 240.21,185.19 250.72,230.64 261.23,231.48 271.74,219.70 282.26,219.70 292.77,231.27 303.28,230.64 313.79,181.19 324.31,229.80 334.82,218.96 345.33,229.90 355.85,230.43 366.36,187.82 376.87,231.27 387.38,228.75 397.90,221.91 408.41,231.06 418.92,196.03 429.44,230.22 439.95,230.74 450.46,222.43 460.97,227.06 471.49,225.27 482.00,222.22 492.51,229.38 503.03,230.74 513.54,231.38 524.05,238.64 534.56,232.64 545.08,232.95 555.59,223.17 566.10,242.11 576.62,237.16 587.13,233.37 597.64,226.85 608.15,233.27 618.67,231.90 629.18,225.38 639.69,201.08 650.21,231.38 660.72,219.70 671.23,233.16 681.74,232.85 692.26,233.27 702.77,233.69 713.28,233.59 723.79,234.53 734.31,224.33 744.82,232.43 755.33,165.62 765.85,209.91 776.36,198.66 786.87,232.32 797.38,232.01 807.90,229.80 818.41,231.69 828.92,231.80 839.44,235.90 849.95,230.43 860.46,231.90 870.97,234.43 881.49,221.80 892.00,230.85"/>
</svg>
