<svg xmlns="http://www.w3.org/2000/svg" width="920" height="300" viewBox="0 0 920 300">
<rect width="100%" height="100%" fill="#ffffff"/>
<text x="72" y="24" font-family="Arial, sans-serif" font-size="16" font-weight="700" fill="#111827">SendTiming page cardinality per row group</text>
<text x="72" y="288" font-family="Arial, sans-serif" font-size="11" fill="#6b7280">page/row-group index</text>
<text x="18" y="144" transform="rotate(-90 18 144)" font-family="Arial, sans-serif" font-size="11" fill="#6b7280">distinct values</text>
<line x1="72" y1="246.00" x2="892" y2="246.00" stroke="#e5e7eb" stroke-width="1"/>
<text x="64" y="249.00" font-family="Arial, sans-serif" font-size="10" text-anchor="end" fill="#6b7280">1</text>
<line x1="72" y1="195.00" x2="892" y2="195.00" stroke="#e5e7eb" stroke-width="1"/>
<text x="64" y="198.00" font-family="Arial, sans-serif" font-size="10" text-anchor="end" fill="#6b7280">248</text>
<line x1="72" y1="144.00" x2="892" y2="144.00" stroke="#e5e7eb" stroke-width="1"/>
<text x="64" y="147.00" font-family="Arial, sans-serif" font-size="10" text-anchor="end" fill="#6b7280">495</text>
<line x1="72" y1="93.00" x2="892" y2="93.00" stroke="#e5e7eb" stroke-width="1"/>
<text x="64" y="96.00" font-family="Arial, sans-serif" font-size="10" text-anchor="end" fill="#6b7280">742</text>
<line x1="72" y1="42.00" x2="892" y2="42.00" stroke="#e5e7eb" stroke-width="1"/>
<text x="64" y="45.00" font-family="Arial, sans-serif" font-size="10" text-anchor="end" fill="#6b7280">989</text>
<line x1="72" y1="246" x2="892" y2="246" stroke="#9ca3af" stroke-width="1"/>
<line x1="72" y1="42" x2="72" y2="246" stroke="#9ca3af" stroke-width="1"/>
<circle cx="72" cy="266" r="4" fill="#0f766e"/>
<text x="80" y="270" font-family="Arial, sans-serif" font-size="11" fill="#374151">min page cardinality</text>
<circle cx="252" cy="266" r="4" fill="#b91c1c"/>
<text x="260" y="270" font-family="Arial, sans-serif" font-size="11" fill="#374151">max page cardinality</text>
<polyline fill="none" stroke="#0f766e" stroke-width="1.8" points="72.00,246.00 82.51,246.00 93.03,246.00 103.54,246.00 114.05,246.00 124.56,246.00 135.08,246.00 145.59,246.00 156.10,246.00 166.62,246.00 177.13,246.00 187.64,246.00 198.15,246.00 208.67,246.00 219.18,246.00 229.69,246.00 240.21,246.00 250.72,246.00 261.23,246.00 271.74,246.00 282.26,246.00 292.77,246.00 303.28,246.00 313.79,246.00 324.31,246.00 334.82,246.00 345.33,246.00 355.85,246.00 366.36,246.00 376.87,246.00 387.38,246.00 397.90,246.00 408.41,246.00 418.92,246.00 429.44,246.00 439.95,246.00 450.46,246.00 460.97,246.00 471.49,246.00 482.00,246.00 492.51,246.00 503.03,246.00 513.54,201.40 524.05,44.89 534.56,55.83 545.08,59.14 555.59,56.66 566.10,42.00 576.62,64.30 587.13,245.38 597.64,244.97 608.15,244.55 618.67,246.00 629.18,244.35 639.69,245.79 650.21,245.59 660.72,244.97 671.23,244.97 681.74,246.00 692.26,245.79 702.77,245.59 713.28,245.59 723.79,245.38 734.31,246.00 744.82,245.59 755.33,245.59 765.85,245.38 776.36,245.59 786.87,245.79 797.38,236.71 807.90,245.38 818.41,245.79 828.92,245.17 839.44,245.59 849.95,244.35 860.46,245.79 870.97,245.79 881.49,246.00 892.00,244.55"/>
<polyline fill="none" stroke="#b91c1c" stroke-width="1.8" points="72.00,246.00 82.51,246.00 93.03,246.00 103.54,246.00 114.05,246.00 124.56,246.00 135.08,246.00 145.59,246.00 156.10,246.00 166.62,246.00 177.13,246.00 187.64,246.00 198.15,246.00 208.67,246.00 219.18,246.00 229.69,246.00 240.21,246.00 250.72,246.00 261.23,246.00 271.74,246.00 282.26,246.00 292.77,246.00 303.28,246.00 313.79,246.00 324.31,246.00 334.82,246.00 345.33,246.00 355.85,246.00 366.36,246.00 376.87,246.00 387.38,246.00 397.90,246.00 408.41,246.00 418.92,246.00 429.44,246.00 439.95,246.00 450.46,246.00 460.97,246.00 471.49,246.00 482.00,246.00 492.51,246.00 503.03,246.00 513.54,201.40 524.05,44.89 534.56,55.83 545.08,59.14 555.59,56.66 566.10,42.00 576.62,64.30 587.13,245.38 597.64,244.97 608.15,244.55 618.67,246.00 629.18,244.35 639.69,245.79 650.21,245.59 660.72,244.97 671.23,244.97 681.74,246.00 692.26,245.79 702.77,245.59 713.28,245.59 723.79,245.38 734.31,246.00 744.82,245.59 755.33,245.59 765.85,245.38 776.36,245.59 786.87,245.79 797.38,236.71 807.90,245.38 818.41,245.79 828.92,245.17 839.44,245.59 849.95,244.35 860.46,245.79 870.97,245.79 881.49,246.00 892.00,244.55"/>
</svg>
