<svg xmlns="http://www.w3.org/2000/svg" width="920" height="300" viewBox="0 0 920 300">
<rect width="100%" height="100%" fill="#ffffff"/>
<text x="72" y="24" font-family="Arial, sans-serif" font-size="16" font-weight="700" fill="#111827">Title page min/max lexical rank</text>
<text x="72" y="288" font-family="Arial, sans-serif" font-size="11" fill="#6b7280">page/row-group index</text>
<text x="18" y="144" transform="rotate(-90 18 144)" font-family="Arial, sans-serif" font-size="11" fill="#6b7280">lexical rank</text>
<line x1="72" y1="246.00" x2="892" y2="246.00" stroke="#e5e7eb" stroke-width="1"/>
<text x="64" y="249.00" font-family="Arial, sans-serif" font-size="10" text-anchor="end" fill="#6b7280">1</text>
<line x1="72" y1="195.00" x2="892" y2="195.00" stroke="#e5e7eb" stroke-width="1"/>
<text x="64" y="198.00" font-family="Arial, sans-serif" font-size="10" text-anchor="end" fill="#6b7280">121.25</text>
<line x1="72" y1="144.00" x2="892" y2="144.00" stroke="#e5e7eb" stroke-width="1"/>
<text x="64" y="147.00" font-family="Arial, sans-serif" font-size="10" text-anchor="end" fill="#6b7280">241.50</text>
<line x1="72" y1="93.00" x2="892" y2="93.00" stroke="#e5e7eb" stroke-width="1"/>
<text x="64" y="96.00" font-family="Arial, sans-serif" font-size="10" text-anchor="end" fill="#6b7280">361.75</text>
<line x1="72" y1="42.00" x2="892" y2="42.00" stroke="#e5e7eb" stroke-width="1"/>
<text x="64" y="45.00" font-family="Arial, sans-serif" font-size="10" text-anchor="end" fill="#6b7280">482</text>
<line x1="72" y1="246" x2="892" y2="246" stroke="#9ca3af" stroke-width="1"/>
<line x1="72" y1="42" x2="72" y2="246" stroke="#9ca3af" stroke-width="1"/>
<circle cx="72" cy="266" r="4" fill="#2563eb"/>
<text x="80" y="270" font-family="Arial, sans-serif" font-size="11" fill="#374151">page min rank</text>
<circle cx="252" cy="266" r="4" fill="#b91c1c"/>
<text x="260" y="270" font-family="Arial, sans-serif" font-size="11" fill="#374151">page max rank</text>
<polyline fill="none" stroke="#2563eb" stroke-width="1.8" points="72.00,246.00 73.36,246.00 74.72,246.00 76.09,173.05 77.45,246.00 78.81,246.00 80.17,246.00 81.53,246.00 82.90,246.00 84.26,246.00 85.62,228.19 86.98,246.00 88.35,246.00 89.71,246.00 91.07,246.00 92.43,246.00 93.79,246.00 95.16,246.00 96.52,227.34 97.88,198.92 99.24,171.36 100.60,173.90 101.97,196.38 103.33,246.00 104.69,171.78 106.05,230.31 107.42,246.00 108.78,246.00 110.14,246.00 111.50,184.50 112.86,223.95 114.23,242.61 115.59,246.00 116.95,230.73 118.31,246.00 119.67,243.03 121.04,220.98 122.40,212.92 123.76,246.00 125.12,169.23 126.49,214.19 127.85,173.48 129.21,178.99 130.57,175.60 131.93,222.25 133.30,241.76 134.66,232.00 136.02,204.01 137.38,184.08 138.74,210.80 140.11,221.83 141.47,246.00 142.83,215.46 144.19,212.07 145.55,209.95 146.92,238.37 148.28,246.00 149.64,232.43 151.00,230.31 152.37,230.73 153.73,235.40 155.09,230.31 156.45,192.99 157.81,234.55 159.18,243.88 160.54,173.48 161.90,246.00 163.26,232.00 164.62,199.35 165.99,173.48 167.35,216.31 168.71,235.82 170.07,230.73 171.44,230.31 172.80,189.59 174.16,183.23 175.52,167.11 176.88,232.00 178.25,228.61 179.61,246.00 180.97,246.00 182.33,245.58 183.69,202.74 185.06,230.73 186.42,169.23 187.78,243.03 189.14,246.00 190.50,197.23 191.87,229.04 193.23,226.91 194.59,221.83 195.95,182.81 197.32,215.04 198.68,235.82 200.04,200.62 201.40,239.21 202.76,246.00 204.13,246.00 205.49,229.04 206.85,235.82 208.21,212.07 209.57,171.36 210.94,193.41 212.30,246.00 213.66,246.00 215.02,229.88 216.39,190.02 217.75,234.12 219.11,209.10 220.47,233.70 221.83,192.99 223.20,183.65 224.56,176.87 225.92,222.67 227.28,230.73 228.64,198.92 230.01,225.22 231.37,230.73 232.73,205.71 234.09,246.00 235.46,169.23 236.82,230.31 238.18,230.31 239.54,203.59 240.90,224.37 242.27,198.50 243.63,232.00 244.99,172.63 246.35,207.41 247.71,229.04 249.08,246.00 250.44,246.00 251.80,230.73 253.16,233.28 254.52,230.31 255.89,187.05 257.25,246.00 258.61,246.00 259.97,226.49 261.34,240.49 262.70,190.44 264.06,167.96 265.42,176.44 266.78,230.73 268.15,246.00 269.51,195.53 270.87,194.26 272.23,168.39 273.59,232.43 274.96,230.31 276.32,201.04 277.68,246.00 279.04,230.73 280.41,230.31 281.77,215.04 283.13,197.65 284.49,201.89 285.85,234.55 287.22,201.47 288.58,231.16 289.94,170.51 291.30,246.00 292.66,221.40 294.03,244.73 295.39,211.65 296.75,187.47 298.11,185.35 299.48,199.77 300.84,216.74 302.20,229.88 303.56,173.05 304.92,230.73 306.29,234.12 307.65,246.00 309.01,219.70 310.37,229.88 311.73,223.10 313.10,232.00 314.46,232.85 315.82,230.73 317.18,229.88 318.54,246.00 319.91,230.73 321.27,178.14 322.63,246.00 323.99,230.31 325.36,180.69 326.72,232.00 328.08,230.73 329.44,173.05 330.80,246.00 332.17,223.10 333.53,234.12 334.89,246.00 336.25,246.00 337.61,246.00 338.98,230.31 340.34,202.32 341.70,230.31 343.06,246.00 344.43,194.68 345.79,229.46 347.15,232.00 348.51,200.20 349.87,246.00 351.24,234.12 352.60,235.82 353.96,211.22 355.32,229.88 356.68,234.12 358.05,234.12 359.41,206.13 360.77,246.00 362.13,236.25 363.50,246.00 364.86,246.00 366.22,191.29 367.58,234.55 368.94,240.91 370.31,246.00 371.67,213.34 373.03,232.43 374.39,237.52 375.75,235.82 377.12,195.11 378.48,230.73 379.84,229.46 381.20,220.13 382.56,173.05 383.93,168.81 385.29,169.23 386.65,239.21 388.01,234.12 389.38,215.89 390.74,245.15 392.10,230.73 393.46,220.55 394.82,230.73 396.19,246.00 397.55,172.63 398.91,224.79 400.27,169.66 401.63,173.48 403.00,235.82 404.36,238.79 405.72,229.88 407.08,192.56 408.45,246.00 409.81,230.73 411.17,173.48 412.53,230.73 413.89,195.95 415.26,229.88 416.62,234.55 417.98,218.86 419.34,246.00 420.70,230.73 422.07,235.40 423.43,246.00 424.79,232.85 426.15,246.00 427.51,173.05 428.88,187.90 430.24,169.66 431.60,232.43 432.96,176.87 434.33,236.25 435.69,246.00 437.05,192.14 438.41,173.05 439.77,246.00 441.14,189.17 442.50,208.68 443.86,246.00 445.22,173.05 446.58,231.58 447.95,246.00 449.31,229.88 450.67,230.73 452.03,186.62 453.40,228.19 454.76,246.00 456.12,234.97 457.48,173.05 458.84,230.73 460.21,198.07 461.57,176.02 462.93,246.00 464.29,244.30 465.65,234.55 467.02,204.44 468.38,230.31 469.74,184.93 471.10,235.82 472.47,229.46 473.83,230.73 475.19,170.93 476.55,214.62 477.91,226.07 479.28,246.00 480.64,234.12 482.00,173.48 483.36,230.73 484.72,229.88 486.09,231.16 487.45,230.73 488.81,246.00 490.17,217.16 491.53,175.17 492.90,229.88 494.26,230.73 495.62,236.25 496.98,185.78 498.35,246.00 499.71,246.00 501.07,218.01 502.43,205.28 503.79,246.00 505.16,167.11 506.52,174.32 507.88,246.00 509.24,246.00 510.60,206.56 511.97,246.00 513.33,236.25 514.69,234.12 516.05,246.00 517.42,236.25 518.78,230.31 520.14,174.75 521.50,178.57 522.86,246.00 524.23,180.26 525.59,246.00 526.95,246.00 528.31,231.16 529.67,216.31 531.04,246.00 532.40,230.73 533.76,246.00 535.12,171.36 536.49,232.00 537.85,188.32 539.21,241.33 540.57,237.09 541.93,191.29 543.30,190.86 544.66,230.73 546.02,246.00 547.38,186.20 548.74,240.06 550.11,230.73 551.47,236.25 552.83,232.00 554.19,181.96 555.55,246.00 556.92,211.65 558.28,225.64 559.64,246.00 561.00,179.84 562.37,230.73 563.73,172.20 565.09,213.77 566.45,230.73 567.81,234.55 569.18,169.23 570.54,232.00 571.90,235.82 573.26,209.53 574.62,209.53 575.99,232.00 577.35,181.53 578.71,206.98 580.07,167.54 581.44,191.71 582.80,246.00 584.16,232.00 585.52,246.00 586.88,230.73 588.25,235.40 589.61,230.31 590.97,232.00 592.33,232.00 593.69,246.00 595.06,237.94 596.42,188.74 597.78,244.73 599.14,232.00 600.50,239.64 601.87,182.38 603.23,243.46 604.59,246.00 605.95,230.73 607.32,236.67 608.68,246.00 610.04,171.36 611.40,218.43 612.76,210.37 614.13,217.58 615.49,229.46 616.85,181.11 618.21,204.86 619.57,237.52 620.94,224.37 622.30,246.00 623.66,230.73 625.02,232.00 626.39,229.88 627.75,246.00 629.11,235.82 630.47,232.85 631.83,246.00 633.20,237.09 634.56,230.73 635.92,246.00 637.28,227.76 638.64,246.00 640.01,230.73 641.37,230.73 642.73,232.00 644.09,246.00 645.46,223.52 646.82,235.82 648.18,246.00 649.54,246.00 650.90,246.00 652.27,224.37 653.63,246.00 654.99,177.29 656.35,235.82 657.71,179.41 659.08,219.28 660.44,230.31 661.80,246.00 663.16,246.00 664.52,230.73 665.89,236.25 667.25,230.73 668.61,230.73 669.97,169.23 671.34,207.83 672.70,246.00 674.06,229.88 675.42,232.00 676.78,230.31 678.15,246.00 679.51,196.80 680.87,246.00 682.23,246.00 683.59,246.00 684.96,177.72 686.32,193.83 687.68,246.00 689.04,242.18 690.41,246.00 691.77,246.00 693.13,232.00 694.49,246.00 695.85,246.00 697.22,229.88 698.58,203.16 699.94,246.00 701.30,225.22 702.66,170.08 704.03,230.31 705.39,237.94 706.75,212.49 708.11,208.25 709.48,173.05 710.84,246.00 712.20,246.00 713.56,246.00 714.92,246.00 716.29,246.00 717.65,246.00 719.01,246.00 720.37,246.00 721.73,246.00 723.10,246.00 724.46,246.00 725.82,246.00 727.18,246.00 728.54,246.00 729.91,246.00 731.27,246.00 732.63,246.00 733.99,246.00 735.36,246.00 736.72,246.00 738.08,246.00 739.44,246.00 740.80,246.00 742.17,246.00 743.53,246.00 744.89,246.00 746.25,246.00 747.61,246.00 748.98,246.00 750.34,246.00 751.70,246.00 753.06,246.00 754.43,246.00 755.79,246.00 757.15,246.00 758.51,246.00 759.87,246.00 761.24,246.00 762.60,246.00 763.96,246.00 765.32,246.00 766.68,246.00 768.05,246.00 769.41,246.00 770.77,246.00 772.13,246.00 773.50,246.00 774.86,246.00 776.22,246.00 777.58,246.00 778.94,246.00 780.31,246.00 781.67,246.00 783.03,246.00 784.39,246.00 785.75,246.00 787.12,246.00 788.48,246.00 789.84,246.00 791.20,246.00 792.56,246.00 793.93,246.00 795.29,246.00 796.65,246.00 798.01,246.00 799.38,246.00 800.74,246.00 802.10,246.00 803.46,246.00 804.82,246.00 806.19,246.00 807.55,246.00 808.91,246.00 810.27,246.00 811.63,246.00 813.00,246.00 814.36,246.00 815.72,246.00 817.08,246.00 818.45,246.00 819.81,246.00 821.17,246.00 822.53,246.00 823.89,246.00 825.26,246.00 826.62,246.00 827.98,246.00 829.34,246.00 830.70,246.00 832.07,246.00 833.43,246.00 834.79,246.00 836.15,246.00 837.51,246.00 838.88,246.00 840.24,246.00 841.60,246.00 842.96,246.00 844.33,246.00 845.69,246.00 847.05,246.00 848.41,246.00 849.77,246.00 851.14,246.00 852.50,246.00 853.86,246.00 855.22,246.00 856.58,246.00 857.95,246.00 859.31,246.00 860.67,246.00 862.03,246.00 863.40,246.00 864.76,246.00 866.12,246.00 867.48,246.00 868.84,246.00 870.21,246.00 871.57,246.00 872.93,246.00 874.29,246.00 875.65,246.00 877.02,246.00 878.38,246.00 879.74,246.00 881.10,246.00 882.47,246.00 883.83,246.00 885.19,246.00 886.55,246.00 887.91,246.00 889.28,246.00 890.64,246.00 892.00,246.00"/>
<polyline fill="none" stroke="#b91c1c" stroke-width="1.8" points="72.00,114.10 73.36,113.25 74.72,116.22 76.09,154.39 77.45,72.54 78.81,66.60 80.17,115.37 81.53,58.96 82.90,154.39 84.26,114.10 85.62,113.25 86.98,122.58 88.35,156.94 89.71,76.78 91.07,115.80 92.43,113.25 93.79,104.77 95.16,63.21 96.52,146.33 97.88,153.97 99.24,113.25 100.60,105.19 101.97,117.07 103.33,153.12 104.69,64.90 106.05,113.25 107.42,96.29 108.78,77.63 110.14,57.69 111.50,55.57 112.86,102.22 114.23,116.22 115.59,58.96 116.95,115.80 118.31,114.95 119.67,100.95 121.04,81.44 122.40,113.25 123.76,156.94 125.12,139.12 126.49,67.87 127.85,147.18 129.21,104.35 130.57,162.45 131.93,110.71 133.30,116.22 134.66,142.09 136.02,53.03 137.38,116.22 138.74,143.79 140.11,109.43 141.47,113.25 142.83,91.62 144.19,115.80 145.55,115.80 146.92,115.80 148.28,149.73 149.64,151.00 151.00,86.96 152.37,78.05 153.73,148.88 155.09,115.37 156.45,71.69 157.81,156.09 159.18,115.80 160.54,156.94 161.90,69.14 163.26,115.80 164.62,55.57 165.99,55.57 167.35,115.37 168.71,60.24 170.07,96.71 171.44,119.19 172.80,119.61 174.16,86.11 175.52,156.94 176.88,114.52 178.25,76.35 179.61,121.73 180.97,125.98 182.33,156.94 183.69,139.55 185.06,60.66 186.42,151.85 187.78,78.90 189.14,84.41 190.50,154.39 191.87,116.22 193.23,154.39 194.59,113.25 195.95,114.10 197.32,115.37 198.68,82.29 200.04,69.14 201.40,79.75 202.76,137.85 204.13,156.94 205.49,103.92 206.85,150.57 208.21,156.94 209.57,107.74 210.94,75.08 212.30,156.94 213.66,73.38 215.02,71.26 216.39,145.91 217.75,100.53 219.11,146.76 220.47,103.07 221.83,116.22 223.20,61.09 224.56,162.87 225.92,102.22 227.28,122.16 228.64,90.77 230.01,116.22 231.37,97.56 232.73,117.07 234.09,101.38 235.46,111.56 236.82,118.77 238.18,142.52 239.54,115.37 240.90,149.73 242.27,53.88 243.63,68.72 244.99,53.45 246.35,114.10 247.71,154.39 249.08,163.72 250.44,115.80 251.80,154.39 253.16,156.94 254.52,116.64 255.89,124.28 257.25,62.36 258.61,55.57 259.97,93.32 261.34,115.80 262.70,67.02 264.06,154.39 265.42,112.83 266.78,154.39 268.15,93.74 269.51,156.94 270.87,83.99 272.23,53.45 273.59,56.00 274.96,108.59 276.32,74.66 277.68,83.56 279.04,115.80 280.41,156.94 281.77,148.45 283.13,156.09 284.49,61.93 285.85,67.45 287.22,124.70 288.58,115.80 289.94,115.37 291.30,113.25 292.66,156.94 294.03,138.27 295.39,93.32 296.75,96.29 298.11,116.64 299.48,58.54 300.84,62.78 302.20,72.11 303.56,162.45 304.92,145.06 306.29,125.55 307.65,114.10 309.01,113.25 310.37,156.94 311.73,115.37 313.10,152.69 314.46,154.39 315.82,115.80 317.18,144.64 318.54,95.44 319.91,65.75 321.27,61.09 322.63,154.39 323.99,68.30 325.36,162.87 326.72,154.39 328.08,115.37 329.44,143.36 330.80,155.66 332.17,82.29 333.53,117.92 334.89,156.94 336.25,60.66 337.61,56.00 338.98,158.63 340.34,166.69 341.70,113.25 343.06,113.25 344.43,56.00 345.79,79.32 347.15,100.10 348.51,116.22 349.87,114.52 351.24,113.25 352.60,73.81 353.96,94.17 355.32,113.68 356.68,115.80 358.05,115.80 359.41,137.43 360.77,101.80 362.13,154.39 363.50,116.22 364.86,115.80 366.22,154.39 367.58,58.96 368.94,96.29 370.31,154.39 371.67,156.94 373.03,96.71 374.39,86.53 375.75,115.80 377.12,113.25 378.48,123.01 379.84,121.73 381.20,70.84 382.56,115.37 383.93,115.80 385.29,142.94 386.65,87.38 388.01,88.23 389.38,112.83 390.74,60.66 392.10,123.85 393.46,97.98 394.82,52.60 396.19,78.47 397.55,57.27 398.91,146.33 400.27,116.64 401.63,114.10 403.00,55.57 404.36,103.50 405.72,115.37 407.08,109.01 408.45,151.42 409.81,156.94 411.17,153.54 412.53,115.80 413.89,147.60 415.26,116.22 416.62,117.07 417.98,115.37 419.34,54.30 420.70,93.32 422.07,82.72 423.43,59.39 424.79,56.42 426.15,113.25 427.51,154.39 428.88,62.36 430.24,154.39 431.60,118.34 432.96,109.86 434.33,137.85 435.69,74.23 437.05,54.72 438.41,61.51 439.77,123.01 441.14,79.32 442.50,156.51 443.86,97.14 445.22,137.00 446.58,85.68 447.95,147.18 449.31,161.18 450.67,156.94 452.03,115.37 453.40,162.45 454.76,106.89 456.12,69.57 457.48,55.57 458.84,69.57 460.21,164.99 461.57,156.94 462.93,156.94 464.29,58.96 465.65,162.87 467.02,90.35 468.38,114.52 469.74,112.40 471.10,115.80 472.47,116.22 473.83,115.37 475.19,115.80 476.55,105.62 477.91,99.68 479.28,154.39 480.64,154.39 482.00,156.94 483.36,78.90 484.72,75.51 486.09,96.71 487.45,64.48 488.81,135.73 490.17,57.69 491.53,102.65 492.90,66.17 494.26,115.80 495.62,100.53 496.98,113.25 498.35,58.12 499.71,94.59 501.07,154.39 502.43,154.39 503.79,156.94 505.16,121.31 506.52,154.39 507.88,81.02 509.24,55.15 510.60,114.52 511.97,135.31 513.33,114.10 514.69,149.30 516.05,59.81 517.42,149.73 518.78,115.37 520.14,115.80 521.50,156.94 522.86,164.15 524.23,161.60 525.59,106.04 526.95,89.50 528.31,116.22 529.67,107.31 531.04,60.66 532.40,115.37 533.76,55.57 535.12,116.22 536.49,93.32 537.85,145.48 539.21,115.37 540.57,88.65 541.93,96.71 543.30,115.80 544.66,156.94 546.02,65.33 547.38,157.36 548.74,136.15 550.11,136.15 551.47,55.57 552.83,112.83 554.19,89.08 555.55,116.64 556.92,109.43 558.28,115.37 559.64,92.89 561.00,154.39 562.37,115.37 563.73,159.48 565.09,166.27 566.45,112.83 567.81,156.94 569.18,144.21 570.54,105.19 571.90,113.25 573.26,147.18 574.62,112.83 575.99,116.22 577.35,113.25 578.71,115.37 580.07,162.87 581.44,110.28 582.80,155.24 584.16,83.14 585.52,149.73 586.88,113.68 588.25,58.96 589.61,69.99 590.97,77.20 592.33,150.15 593.69,89.93 595.06,154.39 596.42,85.26 597.78,59.81 599.14,95.86 600.50,112.83 601.87,95.86 603.23,99.26 604.59,72.96 605.95,116.22 607.32,59.81 608.68,98.83 610.04,92.47 611.40,84.84 612.76,56.84 614.13,64.05 615.49,117.49 616.85,92.05 618.21,115.80 619.57,156.94 620.94,55.57 622.30,87.80 623.66,138.70 625.02,115.80 626.39,136.58 627.75,154.39 629.11,154.39 630.47,154.39 631.83,115.37 633.20,111.13 634.56,63.63 635.92,70.42 637.28,160.75 638.64,112.83 640.01,164.57 641.37,114.52 642.73,80.17 644.09,115.37 645.46,58.96 646.82,120.89 648.18,123.43 649.54,154.39 650.90,120.04 652.27,56.00 653.63,113.25 654.99,55.57 656.35,80.59 657.71,111.98 659.08,112.40 660.44,156.94 661.80,113.25 663.16,154.39 664.52,112.40 665.89,115.80 667.25,154.39 668.61,115.37 669.97,165.42 671.34,68.72 672.70,115.80 674.06,116.22 675.42,159.06 676.78,115.37 678.15,113.25 679.51,112.83 680.87,116.22 682.23,156.94 683.59,61.51 684.96,116.22 686.32,75.93 687.68,125.13 689.04,120.46 690.41,160.33 691.77,154.39 693.13,114.10 694.49,58.96 695.85,142.94 697.22,81.87 698.58,115.80 699.94,162.02 701.30,134.88 702.66,159.06 704.03,114.52 705.39,108.16 706.75,106.47 708.11,91.20 709.48,159.90 710.84,100.53 712.20,98.41 713.56,148.03 714.92,141.67 716.29,141.24 717.65,141.67 719.01,141.67 720.37,42.85 721.73,134.46 723.10,152.27 724.46,158.21 725.82,140.40 727.18,165.84 728.54,141.67 729.91,157.78 731.27,48.79 732.63,134.03 733.99,134.03 735.36,134.03 736.72,134.03 738.08,42.42 739.44,46.67 740.80,134.03 742.17,134.03 743.53,134.03 744.89,131.91 746.25,134.03 747.61,52.18 748.98,134.03 750.34,133.19 751.70,134.03 753.06,47.94 754.43,134.03 755.79,134.03 757.15,134.03 758.51,44.12 759.87,134.03 761.24,134.03 762.60,134.03 763.96,134.03 765.32,132.76 766.68,134.03 768.05,163.30 769.41,134.03 770.77,129.79 772.13,134.03 773.50,134.03 774.86,134.03 776.22,134.03 777.58,134.03 778.94,139.97 780.31,51.75 781.67,45.39 783.03,133.61 784.39,134.03 785.75,134.03 787.12,44.12 788.48,134.03 789.84,133.61 791.20,46.24 792.56,134.03 793.93,44.97 795.29,134.03 796.65,128.52 798.01,132.34 799.38,134.03 800.74,134.03 802.10,134.03 803.46,134.03 804.82,49.21 806.19,140.82 807.55,134.03 808.91,127.67 810.27,45.82 811.63,163.30 813.00,44.12 814.36,47.09 815.72,134.03 817.08,134.03 818.45,126.40 819.81,49.63 821.17,134.03 822.53,134.03 823.89,47.51 825.26,134.03 826.62,43.70 827.98,44.12 829.34,134.03 830.70,128.10 832.07,130.64 833.43,134.03 834.79,134.03 836.15,44.54 837.51,134.03 838.88,43.27 840.24,131.06 841.60,134.03 842.96,48.36 844.33,134.03 845.69,44.12 847.05,50.48 848.41,134.03 849.77,134.03 851.14,134.03 852.50,127.25 853.86,134.03 855.22,154.81 856.58,134.03 857.95,95.01 859.31,51.33 860.67,134.03 862.03,50.91 863.40,134.03 864.76,134.03 866.12,134.03 867.48,42.00 868.84,134.03 870.21,158.21 871.57,134.03 872.93,126.82 874.29,134.03 875.65,43.27 877.02,134.03 878.38,134.03 879.74,134.03 881.10,134.03 882.47,134.03 883.83,128.94 885.19,129.37 886.55,130.22 887.91,131.49 889.28,134.03 890.64,50.06 892.00,134.03"/>
</svg>
