<svg xmlns="http://www.w3.org/2000/svg" width="920" height="300" viewBox="0 0 920 300">
<rect width="100%" height="100%" fill="#ffffff"/>
<text x="72" y="24" font-family="Arial, sans-serif" font-size="16" font-weight="700" fill="#111827">Title page cardinality per row group</text>
<text x="72" y="288" font-family="Arial, sans-serif" font-size="11" fill="#6b7280">page/row-group index</text>
<text x="18" y="144" transform="rotate(-90 18 144)" font-family="Arial, sans-serif" font-size="11" fill="#6b7280">distinct values</text>
<line x1="72" y1="246.00" x2="892" y2="246.00" stroke="#e5e7eb" stroke-width="1"/>
<text x="64" y="249.00" font-family="Arial, sans-serif" font-size="10" text-anchor="end" fill="#6b7280">15</text>
<line x1="72" y1="195.00" x2="892" y2="195.00" stroke="#e5e7eb" stroke-width="1"/>
<text x="64" y="198.00" font-family="Arial, sans-serif" font-size="10" text-anchor="end" fill="#6b7280">200.75</text>
<line x1="72" y1="144.00" x2="892" y2="144.00" stroke="#e5e7eb" stroke-width="1"/>
<text x="64" y="147.00" font-family="Arial, sans-serif" font-size="10" text-anchor="end" fill="#6b7280">386.50</text>
<line x1="72" y1="93.00" x2="892" y2="93.00" stroke="#e5e7eb" stroke-width="1"/>
<text x="64" y="96.00" font-family="Arial, sans-serif" font-size="10" text-anchor="end" fill="#6b7280">572.25</text>
<line x1="72" y1="42.00" x2="892" y2="42.00" stroke="#e5e7eb" stroke-width="1"/>
<text x="64" y="45.00" font-family="Arial, sans-serif" font-size="10" text-anchor="end" fill="#6b7280">758</text>
<line x1="72" y1="246" x2="892" y2="246" stroke="#9ca3af" stroke-width="1"/>
<line x1="72" y1="42" x2="72" y2="246" stroke="#9ca3af" stroke-width="1"/>
<circle cx="72" cy="266" r="4" fill="#0f766e"/>
<text x="80" y="270" font-family="Arial, sans-serif" font-size="11" fill="#374151">min page cardinality</text>
<circle cx="252" cy="266" r="4" fill="#b91c1c"/>
<text x="260" y="270" font-family="Arial, sans-serif" font-size="11" fill="#374151">max page cardinality</text>
<polyline fill="none" stroke="#0f766e" stroke-width="1.8" points="72.00,218.27 82.51,193.28 93.03,205.64 103.54,217.17 114.05,226.51 124.56,221.56 135.08,209.48 145.59,199.32 156.10,214.97 166.62,184.50 177.13,227.33 187.64,218.54 198.15,207.56 208.67,221.01 219.18,214.15 229.69,232.82 240.21,214.43 250.72,228.43 261.23,227.88 271.74,203.44 282.26,231.45 292.77,213.05 303.28,200.42 313.79,224.03 324.31,218.82 334.82,214.97 345.33,208.93 355.85,211.95 366.36,225.41 376.87,219.64 387.38,194.11 397.90,217.72 408.41,228.43 418.92,205.91 429.44,205.64 439.95,213.60 450.46,207.84 460.97,224.86 471.49,217.72 482.00,231.45 492.51,211.68 503.03,206.74 513.54,200.42 524.05,236.94 534.56,232.27 545.08,227.60 555.59,235.02 566.10,246.00 576.62,232.27 587.13,179.28 597.64,205.64 608.15,203.17 618.67,213.33 629.18,228.70 639.69,200.42 650.21,215.80 660.72,193.56 671.23,204.54 681.74,195.48 692.26,195.48 702.77,203.99 713.28,205.36 723.79,211.68 734.31,215.52 744.82,204.54 755.33,219.09 765.85,206.74 776.36,181.48 786.87,201.52 797.38,213.60 807.90,213.60 818.41,195.48 828.92,201.52 839.44,202.07 849.95,206.46 860.46,205.36 870.97,186.97 881.49,197.95 892.00,230.62"/>
<polyline fill="none" stroke="#b91c1c" stroke-width="1.8" points="72.00,160.06 82.51,160.34 93.03,159.24 103.54,164.73 114.05,161.71 124.56,164.73 135.08,163.08 145.59,160.06 156.10,156.49 166.62,168.02 177.13,157.04 187.64,160.61 198.15,163.36 208.67,158.41 219.18,166.38 229.69,162.53 240.21,167.75 250.72,159.51 261.23,157.87 271.74,165.83 282.26,162.53 292.77,157.59 303.28,164.18 313.79,164.18 324.31,160.34 334.82,158.14 345.33,165.83 355.85,157.59 366.36,158.69 376.87,161.43 387.38,162.81 397.90,157.32 408.41,159.79 418.92,168.57 429.44,168.57 439.95,166.10 450.46,165.28 460.97,159.79 471.49,156.77 482.00,161.98 492.51,160.06 503.03,153.47 513.54,159.79 524.05,220.74 534.56,224.03 545.08,217.17 555.59,227.06 566.10,220.47 576.62,209.21 587.13,117.78 597.64,98.56 608.15,108.72 618.67,99.66 629.18,102.40 639.69,101.58 650.21,82.36 660.72,109.82 671.23,126.57 681.74,85.38 692.26,92.79 702.77,124.37 713.28,124.64 723.79,124.92 734.31,103.78 744.82,117.23 755.33,65.34 765.85,107.35 776.36,124.92 786.87,77.42 797.38,109.82 807.90,102.13 818.41,101.03 828.92,118.33 839.44,103.78 849.95,97.46 860.46,42.00 870.97,114.21 881.49,100.48 892.00,106.80"/>
</svg>
