<svg xmlns="http://www.w3.org/2000/svg" width="920" height="300" viewBox="0 0 920 300">
<rect width="100%" height="100%" fill="#ffffff"/>
<text x="72" y="24" font-family="Arial, sans-serif" font-size="16" font-weight="700" fill="#111827">URL value length per row group</text>
<text x="72" y="288" font-family="Arial, sans-serif" font-size="11" fill="#6b7280">page/row-group index</text>
<text x="18" y="144" transform="rotate(-90 18 144)" font-family="Arial, sans-serif" font-size="11" fill="#6b7280">bytes</text>
<line x1="72" y1="246.00" x2="892" y2="246.00" stroke="#e5e7eb" stroke-width="1"/>
<text x="64" y="249.00" font-family="Arial, sans-serif" font-size="10" text-anchor="end" fill="#6b7280">0</text>
<line x1="72" y1="195.00" x2="892" y2="195.00" stroke="#e5e7eb" stroke-width="1"/>
<text x="64" y="198.00" font-family="Arial, sans-serif" font-size="10" text-anchor="end" fill="#6b7280">497.75</text>
<line x1="72" y1="144.00" x2="892" y2="144.00" stroke="#e5e7eb" stroke-width="1"/>
<text x="64" y="147.00" font-family="Arial, sans-serif" font-size="10" text-anchor="end" fill="#6b7280">995.50</text>
<line x1="72" y1="93.00" x2="892" y2="93.00" stroke="#e5e7eb" stroke-width="1"/>
<text x="64" y="96.00" font-family="Arial, sans-serif" font-size="10" text-anchor="end" fill="#6b7280">1493.25</text>
<line x1="72" y1="42.00" x2="892" y2="42.00" stroke="#e5e7eb" stroke-width="1"/>
<text x="64" y="45.00" font-family="Arial, sans-serif" font-size="10" text-anchor="end" fill="#6b7280">1991</text>
<line x1="72" y1="246" x2="892" y2="246" stroke="#9ca3af" stroke-width="1"/>
<line x1="72" y1="42" x2="72" y2="246" stroke="#9ca3af" stroke-width="1"/>
<circle cx="72" cy="266" r="4" fill="#7c3aed"/>
<text x="80" y="270" font-family="Arial, sans-serif" font-size="11" fill="#374151">min length</text>
<circle cx="252" cy="266" r="4" fill="#ea580c"/>
<text x="260" y="270" font-family="Arial, sans-serif" font-size="11" fill="#374151">max length</text>
<polyline fill="none" stroke="#7c3aed" stroke-width="1.8" points="72.00,246.00 82.51,246.00 93.03,246.00 103.54,244.05 114.05,244.05 124.56,244.05 135.08,244.05 145.59,244.05 156.10,244.05 166.62,246.00 177.13,244.05 187.64,244.16 198.15,244.05 208.67,244.05 219.18,244.05 229.69,244.05 240.21,244.05 250.72,246.00 261.23,244.05 271.74,244.05 282.26,244.05 292.77,244.05 303.28,244.05 313.79,244.05 324.31,244.05 334.82,244.05 345.33,244.05 355.85,244.05 366.36,244.05 376.87,244.05 387.38,246.00 397.90,244.05 408.41,244.05 418.92,244.05 429.44,244.05 439.95,246.00 450.46,244.05 460.97,246.00 471.49,246.00 482.00,244.05 492.51,246.00 503.03,246.00 513.54,246.00 524.05,246.00 534.56,246.00 545.08,246.00 555.59,246.00 566.10,246.00 576.62,246.00 587.13,246.00 597.64,246.00 608.15,244.26 618.67,246.00 629.18,244.26 639.69,245.49 650.21,244.26 660.72,244.26 671.23,244.26 681.74,244.26 692.26,245.49 702.77,246.00 713.28,244.26 723.79,244.26 734.31,244.26 744.82,245.49 755.33,246.00 765.85,245.49 776.36,244.26 786.87,246.00 797.38,246.00 807.90,245.49 818.41,244.67 828.92,244.26 839.44,244.26 849.95,244.67 860.46,246.00 870.97,244.26 881.49,246.00 892.00,244.26"/>
<polyline fill="none" stroke="#ea580c" stroke-width="1.8" points="72.00,210.86 82.51,219.67 93.03,194.77 103.54,203.89 114.05,203.89 124.56,196.31 135.08,219.46 145.59,218.95 156.10,204.40 166.62,217.93 177.13,219.46 187.64,219.97 198.15,219.36 208.67,202.45 219.18,201.84 229.69,214.24 240.21,196.51 250.72,209.73 261.23,219.36 271.74,219.57 282.26,219.36 292.77,162.08 303.28,219.57 313.79,219.77 324.31,198.66 334.82,219.16 345.33,220.18 355.85,219.77 366.36,219.36 376.87,219.16 387.38,219.16 397.90,219.26 408.41,219.46 418.92,220.18 429.44,198.05 439.95,212.80 450.46,219.67 460.97,219.26 471.49,219.97 482.00,219.57 492.51,220.08 503.03,206.86 513.54,197.23 524.05,193.34 534.56,194.77 545.08,194.05 555.59,193.34 566.10,196.10 576.62,194.15 587.13,90.57 597.64,144.67 608.15,143.54 618.67,70.79 629.18,178.38 639.69,178.48 650.21,103.07 660.72,153.79 671.23,147.43 681.74,166.18 692.26,89.34 702.77,75.30 713.28,192.62 723.79,154.30 734.31,142.41 744.82,143.54 755.33,153.58 765.85,109.21 776.36,156.55 786.87,149.38 797.38,176.22 807.90,153.38 818.41,191.49 828.92,42.00 839.44,147.64 849.95,55.01 860.46,113.42 870.97,141.80 881.49,81.45 892.00,168.03"/>
</svg>
