<svg xmlns="http://www.w3.org/2000/svg" width="920" height="300" viewBox="0 0 920 300">
<rect width="100%" height="100%" fill="#ffffff"/>
<text x="72" y="24" font-family="Arial, sans-serif" font-size="16" font-weight="700" fill="#111827">URL page min/max lexical rank</text>
<text x="72" y="288" font-family="Arial, sans-serif" font-size="11" fill="#6b7280">page/row-group index</text>
<text x="18" y="144" transform="rotate(-90 18 144)" font-family="Arial, sans-serif" font-size="11" fill="#6b7280">lexical rank</text>
<line x1="72" y1="246.00" x2="892" y2="246.00" stroke="#e5e7eb" stroke-width="1"/>
<text x="64" y="249.00" font-family="Arial, sans-serif" font-size="10" text-anchor="end" fill="#6b7280">1</text>
<line x1="72" y1="195.00" x2="892" y2="195.00" stroke="#e5e7eb" stroke-width="1"/>
<text x="64" y="198.00" font-family="Arial, sans-serif" font-size="10" text-anchor="end" fill="#6b7280">59</text>
<line x1="72" y1="144.00" x2="892" y2="144.00" stroke="#e5e7eb" stroke-width="1"/>
<text x="64" y="147.00" font-family="Arial, sans-serif" font-size="10" text-anchor="end" fill="#6b7280">117</text>
<line x1="72" y1="93.00" x2="892" y2="93.00" stroke="#e5e7eb" stroke-width="1"/>
<text x="64" y="96.00" font-family="Arial, sans-serif" font-size="10" text-anchor="end" fill="#6b7280">175</text>
<line x1="72" y1="42.00" x2="892" y2="42.00" stroke="#e5e7eb" stroke-width="1"/>
<text x="64" y="45.00" font-family="Arial, sans-serif" font-size="10" text-anchor="end" fill="#6b7280">233</text>
<line x1="72" y1="246" x2="892" y2="246" stroke="#9ca3af" stroke-width="1"/>
<line x1="72" y1="42" x2="72" y2="246" stroke="#9ca3af" stroke-width="1"/>
<circle cx="72" cy="266" r="4" fill="#2563eb"/>
<text x="80" y="270" font-family="Arial, sans-serif" font-size="11" fill="#374151">page min rank</text>
<circle cx="252" cy="266" r="4" fill="#b91c1c"/>
<text x="260" y="270" font-family="Arial, sans-serif" font-size="11" fill="#374151">page max rank</text>
<polyline fill="none" stroke="#2563eb" stroke-width="1.8" points="72.00,246.00 74.08,246.00 76.15,246.00 78.23,246.00 80.30,246.00 82.38,246.00 84.46,246.00 86.53,175.66 88.61,175.66 90.68,246.00 92.76,246.00 94.84,246.00 96.91,175.66 98.99,175.66 101.06,175.66 103.14,175.66 105.22,175.66 107.29,175.66 109.37,175.66 111.44,175.66 113.52,175.66 115.59,175.66 117.67,175.66 119.75,175.66 121.82,175.66 123.90,175.66 125.97,175.66 128.05,175.66 130.13,174.78 132.20,174.78 134.28,180.05 136.35,175.66 138.43,175.66 140.51,187.97 142.58,213.47 144.66,175.66 146.73,175.66 148.81,246.00 150.89,175.66 152.96,174.78 155.04,175.66 157.11,175.66 159.19,175.66 161.27,175.66 163.34,175.66 165.42,175.66 167.49,175.66 169.57,175.66 171.65,175.66 173.72,175.66 175.80,175.66 177.87,174.78 179.95,175.66 182.03,175.66 184.10,175.66 186.18,175.66 188.25,175.66 190.33,175.66 192.41,175.66 194.48,175.66 196.56,175.66 198.63,175.66 200.71,175.66 202.78,175.66 204.86,175.66 206.94,191.48 209.01,175.66 211.09,175.66 213.16,175.66 215.24,175.66 217.32,246.00 219.39,175.66 221.47,175.66 223.54,175.66 225.62,175.66 227.70,175.66 229.77,175.66 231.85,175.66 233.92,175.66 236.00,175.66 238.08,175.66 240.15,175.66 242.23,175.66 244.30,175.66 246.38,175.66 248.46,175.66 250.53,177.41 252.61,172.14 254.68,175.66 256.76,175.66 258.84,175.66 260.91,175.66 262.99,175.66 265.06,175.66 267.14,175.66 269.22,175.66 271.29,175.66 273.37,175.66 275.44,175.66 277.52,175.66 279.59,175.66 281.67,175.66 283.75,175.66 285.82,175.66 287.90,175.66 289.97,175.66 292.05,175.66 294.13,175.66 296.20,175.66 298.28,175.66 300.35,175.66 302.43,220.50 304.51,175.66 306.58,175.66 308.66,175.66 310.73,175.66 312.81,175.66 314.89,175.66 316.96,175.66 319.04,175.66 321.11,175.66 323.19,246.00 325.27,246.00 327.34,175.66 329.42,175.66 331.49,175.66 333.57,175.66 335.65,175.66 337.72,175.66 339.80,175.66 341.87,175.66 343.95,175.66 346.03,175.66 348.10,175.66 350.18,174.78 352.25,175.66 354.33,175.66 356.41,175.66 358.48,175.66 360.56,175.66 362.63,175.66 364.71,175.66 366.78,175.66 368.86,246.00 370.94,175.66 373.01,175.66 375.09,175.66 377.16,175.66 379.24,175.66 381.32,175.66 383.39,246.00 385.47,175.66 387.54,175.66 389.62,175.66 391.70,246.00 393.77,175.66 395.85,175.66 397.92,175.66 400.00,175.66 402.08,175.66 404.15,175.66 406.23,175.66 408.30,246.00 410.38,175.66 412.46,175.66 414.53,246.00 416.61,175.66 418.68,175.66 420.76,175.66 422.84,175.66 424.91,175.66 426.99,246.00 429.06,246.00 431.14,181.81 433.22,181.81 435.29,181.81 437.37,181.81 439.44,246.00 441.52,246.00 443.59,173.02 445.67,246.00 447.75,181.81 449.82,246.00 451.90,181.81 453.97,246.00 456.05,181.81 458.13,246.00 460.20,246.00 462.28,246.00 464.35,246.00 466.43,181.81 468.51,181.81 470.58,246.00 472.66,246.00 474.73,181.81 476.81,181.81 478.89,246.00 480.96,246.00 483.04,246.00 485.11,246.00 487.19,181.81 489.27,181.81 491.34,181.81 493.42,181.81 495.49,246.00 497.57,246.00 499.65,224.02 501.72,181.81 503.80,181.81 505.87,224.02 507.95,246.00 510.03,182.69 512.10,246.00 514.18,181.81 516.25,246.00 518.33,181.81 520.41,246.00 522.48,177.41 524.56,209.95 526.63,192.36 528.71,198.52 530.78,190.60 532.86,244.24 534.94,246.00 537.01,209.07 539.09,246.00 541.16,193.24 543.24,198.52 545.32,218.74 547.39,177.41 549.47,198.52 551.54,226.66 553.62,198.52 555.70,237.21 557.77,189.72 559.85,211.71 561.92,216.98 564.00,183.57 566.08,221.38 568.15,201.16 570.23,246.00 572.30,173.90 574.38,199.40 576.46,218.74 578.53,198.52 580.61,235.45 582.68,238.09 584.76,177.41 586.84,195.00 588.91,231.93 590.99,199.40 593.06,198.52 595.14,223.14 597.22,187.09 599.29,240.72 601.37,198.52 603.44,193.24 605.52,198.52 607.59,199.40 609.67,193.24 611.75,199.40 613.82,194.12 615.90,219.62 617.97,195.00 620.05,196.76 622.13,176.53 624.20,177.41 626.28,232.81 628.35,218.74 630.43,234.57 632.51,198.52 634.58,171.26 636.66,214.34 638.73,188.84 640.81,194.12 642.89,195.88 644.96,182.69 647.04,199.40 649.11,198.52 651.19,195.00 653.27,231.93 655.34,198.52 657.42,215.22 659.49,231.05 661.57,201.16 663.65,238.97 665.72,202.03 667.80,196.76 669.87,198.52 671.95,246.00 674.03,228.41 676.10,218.74 678.18,195.00 680.25,208.19 682.33,196.76 684.41,185.33 686.48,199.40 688.56,198.52 690.63,230.17 692.71,224.90 694.78,181.81 696.86,198.52 698.94,198.52 701.01,201.16 703.09,195.00 705.16,228.41 707.24,203.79 709.32,178.29 711.39,201.16 713.47,231.93 715.54,198.52 717.62,184.45 719.70,199.40 721.77,177.41 723.85,197.64 725.92,199.40 728.00,201.16 730.08,246.00 732.15,199.40 734.23,177.41 736.30,216.10 738.38,198.52 740.46,210.83 742.53,202.91 744.61,231.93 746.68,231.93 748.76,239.84 750.84,198.52 752.91,181.81 754.99,241.60 757.06,222.26 759.14,199.40 761.22,199.40 763.29,199.40 765.37,198.52 767.44,246.00 769.52,231.93 771.59,231.93 773.67,199.40 775.75,206.43 777.82,246.00 779.90,231.93 781.97,198.52 784.05,173.02 786.13,201.16 788.20,245.12 790.28,198.52 792.35,199.40 794.43,236.33 796.51,177.41 798.58,198.52 800.66,217.86 802.73,199.40 804.81,218.74 806.89,198.52 808.96,198.52 811.04,243.36 813.11,186.21 815.19,179.17 817.27,204.67 819.34,209.95 821.42,177.41 823.49,199.40 825.57,216.98 827.65,228.41 829.72,201.16 831.80,206.43 833.87,173.02 835.95,229.29 838.03,199.40 840.10,199.40 842.18,198.52 844.25,177.41 846.33,199.40 848.41,201.16 850.48,193.24 852.56,246.00 854.63,196.76 856.71,198.52 858.78,173.02 860.86,207.31 862.94,212.59 865.01,198.52 867.09,193.24 869.16,180.93 871.24,233.69 873.32,225.78 875.39,246.00 877.47,198.52 879.54,201.16 881.62,227.53 883.70,242.48 885.77,205.55 887.85,206.43 889.92,200.28 892.00,173.02"/>
<polyline fill="none" stroke="#b91c1c" stroke-width="1.8" points="72.00,64.86 74.08,64.86 76.15,72.78 78.23,69.26 80.30,69.26 82.38,69.26 84.46,50.79 86.53,68.38 88.61,69.26 90.68,69.26 92.76,69.26 94.84,64.86 96.91,69.26 98.99,72.78 101.06,64.86 103.14,65.74 105.22,69.26 107.29,69.26 109.37,72.78 111.44,72.78 113.52,69.26 115.59,72.78 117.67,85.97 119.75,69.26 121.82,72.78 123.90,72.78 125.97,72.78 128.05,56.95 130.13,52.55 132.20,69.26 134.28,60.47 136.35,70.14 138.43,66.62 140.51,69.26 142.58,48.16 144.66,69.26 146.73,69.26 148.81,82.45 150.89,69.26 152.96,69.26 155.04,58.71 157.11,65.74 159.19,69.26 161.27,69.26 163.34,69.26 165.42,64.86 167.49,69.26 169.57,72.78 171.65,62.22 173.72,56.07 175.80,69.26 177.87,72.78 179.95,69.26 182.03,72.78 184.10,69.26 186.18,69.26 188.25,69.26 190.33,72.78 192.41,64.86 194.48,75.41 196.56,69.26 198.63,63.98 200.71,69.26 202.78,69.26 204.86,64.86 206.94,49.91 209.01,68.38 211.09,69.26 213.16,64.86 215.24,49.03 217.32,66.62 219.39,69.26 221.47,72.78 223.54,69.26 225.62,69.26 227.70,69.26 229.77,65.74 231.85,65.74 233.92,69.26 236.00,69.26 238.08,63.10 240.15,83.33 242.23,76.29 244.30,81.57 246.38,65.74 248.46,74.53 250.53,72.78 252.61,85.09 254.68,57.83 256.76,55.19 258.84,51.67 260.91,64.86 262.99,65.74 265.06,69.26 267.14,59.59 269.22,69.26 271.29,69.26 273.37,69.26 275.44,69.26 277.52,69.26 279.59,72.78 281.67,69.26 283.75,69.26 285.82,72.78 287.90,77.17 289.97,69.26 292.05,73.66 294.13,72.78 296.20,72.78 298.28,69.26 300.35,64.86 302.43,72.78 304.51,71.02 306.58,69.26 308.66,69.26 310.73,84.21 312.81,86.84 314.89,69.26 316.96,81.57 319.04,72.78 321.11,72.78 323.19,69.26 325.27,61.34 327.34,72.78 329.42,69.26 331.49,64.86 333.57,69.26 335.65,72.78 337.72,72.78 339.80,65.74 341.87,69.26 343.95,69.26 346.03,53.43 348.10,69.26 350.18,64.86 352.25,69.26 354.33,69.26 356.41,66.62 358.48,80.69 360.56,69.26 362.63,69.26 364.71,71.90 366.78,69.26 368.86,64.86 370.94,64.86 373.01,69.26 375.09,69.26 377.16,69.26 379.24,66.62 381.32,69.26 383.39,69.26 385.47,72.78 387.54,54.31 389.62,69.26 391.70,69.26 393.77,78.05 395.85,64.86 397.92,69.26 400.00,69.26 402.08,79.81 404.15,70.14 406.23,69.26 408.30,69.26 410.38,69.26 412.46,47.28 414.53,72.78 416.61,72.78 418.68,78.93 420.76,72.78 422.84,67.50 424.91,69.26 426.99,69.26 429.06,168.62 431.14,128.17 433.22,128.17 435.29,158.95 437.37,128.17 439.44,149.28 441.52,144.88 443.59,166.86 445.67,151.91 447.75,128.17 449.82,159.83 451.90,128.17 453.97,144.00 456.05,128.17 458.13,128.17 460.20,128.17 462.28,142.24 464.35,128.17 466.43,128.17 468.51,128.17 470.58,128.17 472.66,136.97 474.73,128.17 476.81,136.97 478.89,136.97 480.96,146.64 483.04,147.52 485.11,128.17 487.19,136.97 489.27,128.17 491.34,136.97 493.42,128.17 495.49,128.17 497.57,158.07 499.65,128.17 501.72,136.97 503.80,128.17 505.87,152.79 507.95,128.17 510.03,148.40 512.10,135.21 514.18,136.97 516.25,167.74 518.33,136.97 520.41,128.17 522.48,136.97 524.56,136.97 526.63,88.60 528.71,90.36 530.78,128.17 532.86,109.71 534.94,128.17 537.01,110.59 539.09,128.17 541.16,105.31 543.24,104.43 545.32,128.17 547.39,169.50 549.47,128.17 551.54,128.17 553.62,91.24 555.70,128.17 557.77,107.95 559.85,162.47 561.92,128.17 564.00,128.17 566.08,112.34 568.15,128.17 570.23,128.17 572.30,128.17 574.38,128.17 576.46,114.10 578.53,93.88 580.61,128.17 582.68,143.12 584.76,170.38 586.84,95.64 588.91,128.17 590.99,128.17 593.06,46.40 595.14,128.17 597.22,128.17 599.29,115.86 601.37,157.19 603.44,153.67 605.52,128.17 607.59,122.02 609.67,128.17 611.75,120.26 613.82,117.62 615.90,128.17 617.97,155.43 620.05,131.69 622.13,128.17 624.20,128.17 626.28,145.76 628.35,112.34 630.43,128.17 632.51,128.17 634.58,170.38 636.66,128.17 638.73,111.47 640.81,128.17 642.89,94.76 644.96,128.17 647.04,129.05 649.11,99.16 651.19,128.17 653.27,156.31 655.34,128.17 657.42,119.38 659.49,165.10 661.57,128.17 663.65,128.17 665.72,128.17 667.80,128.17 669.87,126.41 671.95,160.71 674.03,128.17 676.10,128.17 678.18,128.17 680.25,128.17 682.33,121.14 684.41,170.38 686.48,137.84 688.56,128.17 690.63,128.17 692.71,106.19 694.78,44.64 696.86,161.59 698.94,128.17 701.01,128.17 703.09,136.97 705.16,118.50 707.24,128.17 709.32,128.17 711.39,43.76 713.47,136.97 715.54,100.91 717.62,112.34 719.70,97.40 721.77,130.81 723.85,116.74 725.92,128.17 728.00,124.66 730.08,128.17 732.15,128.17 734.23,128.17 736.30,136.09 738.38,128.17 740.46,92.12 742.53,128.17 744.61,96.52 746.68,164.22 748.76,93.00 750.84,134.33 752.91,122.90 754.99,101.79 757.06,128.17 759.14,100.03 761.22,128.17 763.29,128.17 765.37,128.17 767.44,98.28 769.52,128.17 771.59,128.17 773.67,116.74 775.75,128.17 777.82,127.29 779.90,103.55 781.97,112.34 784.05,141.36 786.13,87.72 788.20,128.17 790.28,42.88 792.35,128.17 794.43,132.57 796.51,163.34 798.58,128.17 800.66,139.60 802.73,102.67 804.81,116.74 806.89,128.17 808.96,150.16 811.04,128.17 813.11,128.17 815.19,94.76 817.27,128.17 819.34,128.17 821.42,128.17 823.49,133.45 825.57,128.17 827.65,42.00 829.72,128.17 831.80,128.17 833.87,138.72 835.95,107.07 838.03,128.17 840.10,114.98 842.18,151.03 844.25,128.17 846.33,165.98 848.41,123.78 850.48,128.17 852.56,140.48 854.63,128.17 856.71,128.17 858.78,170.38 860.86,128.17 862.94,45.52 865.01,128.17 867.09,128.17 869.16,89.48 871.24,113.22 873.32,128.17 875.39,115.86 877.47,125.53 879.54,115.86 881.62,108.83 883.70,129.93 885.77,128.17 887.85,128.17 889.92,154.55 892.00,139.60"/>
</svg>
