<svg xmlns="http://www.w3.org/2000/svg" width="920" height="300" viewBox="0 0 920 300">
<rect width="100%" height="100%" fill="#ffffff"/>
<text x="72" y="24" font-family="Arial, sans-serif" font-size="16" font-weight="700" fill="#111827">URL page cardinality per row group</text>
<text x="72" y="288" font-family="Arial, sans-serif" font-size="11" fill="#6b7280">page/row-group index</text>
<text x="18" y="144" transform="rotate(-90 18 144)" font-family="Arial, sans-serif" font-size="11" fill="#6b7280">distinct values</text>
<line x1="72" y1="246.00" x2="892" y2="246.00" stroke="#e5e7eb" stroke-width="1"/>
<text x="64" y="249.00" font-family="Arial, sans-serif" font-size="10" text-anchor="end" fill="#6b7280">116</text>
<line x1="72" y1="195.00" x2="892" y2="195.00" stroke="#e5e7eb" stroke-width="1"/>
<text x="64" y="198.00" font-family="Arial, sans-serif" font-size="10" text-anchor="end" fill="#6b7280">519.75</text>
<line x1="72" y1="144.00" x2="892" y2="144.00" stroke="#e5e7eb" stroke-width="1"/>
<text x="64" y="147.00" font-family="Arial, sans-serif" font-size="10" text-anchor="end" fill="#6b7280">923.50</text>
<line x1="72" y1="93.00" x2="892" y2="93.00" stroke="#e5e7eb" stroke-width="1"/>
<text x="64" y="96.00" font-family="Arial, sans-serif" font-size="10" text-anchor="end" fill="#6b7280">1327.25</text>
<line x1="72" y1="42.00" x2="892" y2="42.00" stroke="#e5e7eb" stroke-width="1"/>
<text x="64" y="45.00" font-family="Arial, sans-serif" font-size="10" text-anchor="end" fill="#6b7280">1731</text>
<line x1="72" y1="246" x2="892" y2="246" stroke="#9ca3af" stroke-width="1"/>
<line x1="72" y1="42" x2="72" y2="246" stroke="#9ca3af" stroke-width="1"/>
<circle cx="72" cy="266" r="4" fill="#0f766e"/>
<text x="80" y="270" font-family="Arial, sans-serif" font-size="11" fill="#374151">min page cardinality</text>
<circle cx="252" cy="266" r="4" fill="#b91c1c"/>
<text x="260" y="270" font-family="Arial, sans-serif" font-size="11" fill="#374151">max page cardinality</text>
<polyline fill="none" stroke="#0f766e" stroke-width="1.8" points="72.00,176.65 82.51,180.32 93.03,179.05 103.54,168.82 114.05,171.47 124.56,176.78 135.08,171.73 145.59,173.87 156.10,172.36 166.62,178.55 177.13,164.40 187.64,182.46 198.15,180.06 208.67,179.81 219.18,167.05 229.69,164.02 240.21,177.28 250.72,181.33 261.23,165.41 271.74,174.76 282.26,165.92 292.77,181.45 303.28,164.65 313.79,169.33 324.31,171.73 334.82,177.28 345.33,176.15 355.85,183.09 366.36,181.07 376.87,160.36 387.38,179.31 397.90,175.39 408.41,176.02 418.92,176.53 429.44,175.26 439.95,175.89 450.46,167.05 460.97,175.26 471.49,177.16 482.00,169.58 492.51,176.53 503.03,170.34 513.54,151.89 524.05,245.37 534.56,167.81 545.08,167.43 555.59,246.00 566.10,207.98 576.62,187.26 587.13,226.17 597.64,196.74 608.15,194.34 618.67,178.04 629.18,211.64 639.69,174.76 650.21,207.35 660.72,219.35 671.23,235.89 681.74,202.55 692.26,190.17 702.77,206.72 713.28,236.91 723.79,206.72 734.31,193.20 744.82,203.43 755.33,210.88 765.85,208.86 776.36,177.92 786.87,208.23 797.38,223.01 807.90,219.60 818.41,221.49 828.92,222.38 839.44,192.57 849.95,233.87 860.46,224.78 870.97,195.47 881.49,207.35 892.00,142.55"/>
<polyline fill="none" stroke="#b91c1c" stroke-width="1.8" points="72.00,136.61 82.51,137.24 93.03,130.55 103.54,139.26 114.05,134.08 124.56,141.03 135.08,135.60 145.59,124.99 156.10,133.83 166.62,142.93 177.13,139.89 187.64,132.69 198.15,134.59 208.67,140.65 219.18,145.71 229.69,147.85 240.21,136.23 250.72,133.96 261.23,141.41 271.74,142.42 282.26,145.20 292.77,136.48 303.28,137.12 313.79,138.25 324.31,140.15 334.82,133.33 345.33,138.88 355.85,143.56 366.36,138.25 376.87,131.31 387.38,133.58 397.90,139.89 408.41,136.99 418.92,142.17 429.44,141.16 439.95,137.24 450.46,145.07 460.97,136.11 471.49,130.29 482.00,139.14 492.51,134.59 503.03,140.27 513.54,130.80 524.05,152.65 534.56,153.66 545.08,150.88 555.59,143.43 566.10,145.33 576.62,148.36 587.13,96.19 597.64,73.07 608.15,86.72 618.67,101.37 629.18,99.60 639.69,80.15 650.21,87.60 660.72,75.35 671.23,42.00 681.74,87.98 692.26,85.20 702.77,92.65 713.28,84.69 723.79,90.38 734.31,88.48 744.82,98.34 755.33,94.42 765.85,90.00 776.36,90.63 786.87,56.02 797.38,89.12 807.90,89.87 818.41,76.61 828.92,97.71 839.44,97.71 849.95,93.03 860.46,78.76 870.97,92.27 881.49,77.24 892.00,94.04"/>
</svg>
