<svg xmlns="http://www.w3.org/2000/svg" width="920" height="300" viewBox="0 0 920 300">
<rect width="100%" height="100%" fill="#ffffff"/>
<text x="72" y="24" font-family="Arial, sans-serif" font-size="16" font-weight="700" fill="#111827">URL row-group cardinality</text>
<text x="72" y="288" font-family="Arial, sans-serif" font-size="11" fill="#6b7280">page/row-group index</text>
<text x="18" y="144" transform="rotate(-90 18 144)" font-family="Arial, sans-serif" font-size="11" fill="#6b7280">distinct values</text>
<line x1="72" y1="246.00" x2="892" y2="246.00" stroke="#e5e7eb" stroke-width="1"/>
<text x="64" y="249.00" font-family="Arial, sans-serif" font-size="10" text-anchor="end" fill="#6b7280">2860</text>
<line x1="72" y1="195.00" x2="892" y2="195.00" stroke="#e5e7eb" stroke-width="1"/>
<text x="64" y="198.00" font-family="Arial, sans-serif" font-size="10" text-anchor="end" fill="#6b7280">3888.50</text>
<line x1="72" y1="144.00" x2="892" y2="144.00" stroke="#e5e7eb" stroke-width="1"/>
<text x="64" y="147.00" font-family="Arial, sans-serif" font-size="10" text-anchor="end" fill="#6b7280">4917</text>
<line x1="72" y1="93.00" x2="892" y2="93.00" stroke="#e5e7eb" stroke-width="1"/>
<text x="64" y="96.00" font-family="Arial, sans-serif" font-size="10" text-anchor="end" fill="#6b7280">5945.50</text>
<line x1="72" y1="42.00" x2="892" y2="42.00" stroke="#e5e7eb" stroke-width="1"/>
<text x="64" y="45.00" font-family="Arial, sans-serif" font-size="10" text-anchor="end" fill="#6b7280">6974</text>
<line x1="72" y1="246" x2="892" y2="246" stroke="#9ca3af" stroke-width="1"/>
<line x1="72" y1="42" x2="72" y2="246" stroke="#9ca3af" stroke-width="1"/>
<circle cx="72" cy="266" r="4" fill="#2563eb"/>
<text x="80" y="270" font-family="Arial, sans-serif" font-size="11" fill="#374151">row group cardinality</text>
<polyline fill="none" stroke="#2563eb" stroke-width="1.8" points="72.00,239.40 82.51,237.77 93.03,236.18 103.54,238.07 114.05,235.69 124.56,239.31 135.08,241.09 145.59,234.20 156.10,233.75 166.62,242.08 177.13,234.10 187.64,237.27 198.15,239.95 208.67,242.38 219.18,241.49 229.69,243.67 240.21,239.75 250.72,240.74 261.23,236.88 271.74,242.08 282.26,237.62 292.77,236.83 303.28,238.17 313.79,239.90 324.31,239.70 334.82,238.86 345.33,240.64 355.85,245.85 366.36,239.55 376.87,228.79 387.38,237.92 397.90,240.00 408.41,236.18 418.92,246.00 429.44,244.02 439.95,239.75 450.46,243.72 460.97,239.40 471.49,234.15 482.00,240.45 492.51,234.40 503.03,237.42 513.54,223.39 524.05,104.98 534.56,123.57 545.08,121.34 555.59,91.44 566.10,82.41 576.62,69.17 587.13,86.08 597.64,42.00 608.15,78.79 618.67,87.62 629.18,80.13 639.69,51.07 650.21,72.60 660.72,56.43 671.23,63.67 681.74,64.86 692.26,49.88 702.77,70.17 713.28,72.25 723.79,67.83 734.31,53.16 744.82,75.77 755.33,78.55 765.85,70.02 776.36,58.66 786.87,64.02 797.38,78.84 807.90,86.78 818.41,58.31 828.92,77.60 839.44,73.49 849.95,79.59 860.46,53.01 870.97,73.79 881.49,65.70 892.00,160.56"/>
</svg>
