<svg xmlns="http://www.w3.org/2000/svg" width="920" height="300" viewBox="0 0 920 300">
<rect width="100%" height="100%" fill="#ffffff"/>
<text x="72" y="24" font-family="Arial, sans-serif" font-size="16" font-weight="700" fill="#111827">URLCategoryID page min/max</text>
<text x="72" y="288" font-family="Arial, sans-serif" font-size="11" fill="#6b7280">page/row-group index</text>
<text x="18" y="144" transform="rotate(-90 18 144)" font-family="Arial, sans-serif" font-size="11" fill="#6b7280">value</text>
<line x1="72" y1="246.00" x2="892" y2="246.00" stroke="#e5e7eb" stroke-width="1"/>
<text x="64" y="249.00" font-family="Arial, sans-serif" font-size="10" text-anchor="end" fill="#6b7280">0</text>
<line x1="72" y1="195.00" x2="892" y2="195.00" stroke="#e5e7eb" stroke-width="1"/>
<text x="64" y="198.00" font-family="Arial, sans-serif" font-size="10" text-anchor="end" fill="#6b7280">4093.25</text>
<line x1="72" y1="144.00" x2="892" y2="144.00" stroke="#e5e7eb" stroke-width="1"/>
<text x="64" y="147.00" font-family="Arial, sans-serif" font-size="10" text-anchor="end" fill="#6b7280">8186.50</text>
<line x1="72" y1="93.00" x2="892" y2="93.00" stroke="#e5e7eb" stroke-width="1"/>
<text x="64" y="96.00" font-family="Arial, sans-serif" font-size="10" text-anchor="end" fill="#6b7280">12279.75</text>
<line x1="72" y1="42.00" x2="892" y2="42.00" stroke="#e5e7eb" stroke-width="1"/>
<text x="64" y="45.00" font-family="Arial, sans-serif" font-size="10" text-anchor="end" fill="#6b7280">16373</text>
<line x1="72" y1="246" x2="892" y2="246" stroke="#9ca3af" stroke-width="1"/>
<line x1="72" y1="42" x2="72" y2="246" stroke="#9ca3af" stroke-width="1"/>
<circle cx="72" cy="266" r="4" fill="#2563eb"/>
<text x="80" y="270" font-family="Arial, sans-serif" font-size="11" fill="#374151">page min</text>
<circle cx="252" cy="266" r="4" fill="#b91c1c"/>
<text x="260" y="270" font-family="Arial, sans-serif" font-size="11" fill="#374151">page max</text>
<polyline fill="none" stroke="#2563eb" stroke-width="1.8" points="72.00,246.00 82.51,246.00 93.03,246.00 103.54,246.00 114.05,246.00 124.56,58.93 135.08,246.00 145.59,110.68 156.10,246.00 166.62,246.00 177.13,246.00 187.64,58.93 198.15,58.93 208.67,246.00 219.18,58.93 229.69,246.00 240.21,246.00 250.72,246.00 261.23,246.00 271.74,58.93 282.26,246.00 292.77,110.68 303.28,58.93 313.79,246.00 324.31,246.00 334.82,246.00 345.33,246.00 355.85,246.00 366.36,58.93 376.87,246.00 387.38,246.00 397.90,58.93 408.41,58.93 418.92,58.93 429.44,58.93 439.95,246.00 450.46,58.93 460.97,246.00 471.49,246.00 482.00,246.00 492.51,246.00 503.03,246.00 513.54,246.00 524.05,246.00 534.56,246.00 545.08,246.00 555.59,246.00 566.10,246.00 576.62,246.00 587.13,246.00 597.64,246.00 608.15,246.00 618.67,246.00 629.18,246.00 639.69,246.00 650.21,246.00 660.72,246.00 671.23,246.00 681.74,246.00 692.26,246.00 702.77,246.00 713.28,246.00 723.79,246.00 734.31,246.00 744.82,246.00 755.33,246.00 765.85,246.00 776.36,246.00 786.87,246.00 797.38,246.00 807.90,246.00 818.41,246.00 828.92,246.00 839.44,246.00 849.95,246.00 860.46,246.00 870.97,246.00 881.49,246.00 892.00,246.00"/>
<polyline fill="none" stroke="#b91c1c" stroke-width="1.8" points="72.00,50.67 82.51,50.67 93.03,50.67 103.54,50.67 114.05,50.67 124.56,50.67 135.08,50.67 145.59,50.67 156.10,50.67 166.62,50.67 177.13,50.67 187.64,50.67 198.15,50.67 208.67,50.67 219.18,50.67 229.69,50.67 240.21,50.67 250.72,50.67 261.23,50.67 271.74,50.67 282.26,50.67 292.77,50.67 303.28,50.67 313.79,50.67 324.31,50.67 334.82,50.67 345.33,50.67 355.85,50.67 366.36,50.67 376.87,50.67 387.38,50.67 397.90,50.67 408.41,50.67 418.92,50.67 429.44,50.67 439.95,50.67 450.46,50.67 460.97,50.67 471.49,50.67 482.00,50.67 492.51,50.67 503.03,50.67 513.54,50.67 524.05,58.93 534.56,58.93 545.08,58.93 555.59,58.93 566.10,58.93 576.62,58.93 587.13,49.87 597.64,43.87 608.15,58.93 618.67,49.87 629.18,47.06 639.69,43.91 650.21,46.66 660.72,58.93 671.23,50.83 681.74,47.06 692.26,49.87 702.77,58.93 713.28,47.00 723.79,58.93 734.31,58.93 744.82,51.77 755.33,58.93 765.85,42.00 776.36,47.18 786.87,58.93 797.38,49.87 807.90,50.67 818.41,44.85 828.92,47.18 839.44,58.93 849.95,58.93 860.46,58.27 870.97,50.83 881.49,50.83 892.00,58.93"/>
</svg>
