<svg xmlns="http://www.w3.org/2000/svg" width="920" height="300" viewBox="0 0 920 300">
<rect width="100%" height="100%" fill="#ffffff"/>
<text x="72" y="24" font-family="Arial, sans-serif" font-size="16" font-weight="700" fill="#111827">URLCategoryID page cardinality per row group</text>
<text x="72" y="288" font-family="Arial, sans-serif" font-size="11" fill="#6b7280">page/row-group index</text>
<text x="18" y="144" transform="rotate(-90 18 144)" font-family="Arial, sans-serif" font-size="11" fill="#6b7280">distinct values</text>
<line x1="72" y1="246.00" x2="892" y2="246.00" stroke="#e5e7eb" stroke-width="1"/>
<text x="64" y="249.00" font-family="Arial, sans-serif" font-size="10" text-anchor="end" fill="#6b7280">2</text>
<line x1="72" y1="195.00" x2="892" y2="195.00" stroke="#e5e7eb" stroke-width="1"/>
<text x="64" y="198.00" font-family="Arial, sans-serif" font-size="10" text-anchor="end" fill="#6b7280">21</text>
<line x1="72" y1="144.00" x2="892" y2="144.00" stroke="#e5e7eb" stroke-width="1"/>
<text x="64" y="147.00" font-family="Arial, sans-serif" font-size="10" text-anchor="end" fill="#6b7280">40</text>
<line x1="72" y1="93.00" x2="892" y2="93.00" stroke="#e5e7eb" stroke-width="1"/>
<text x="64" y="96.00" font-family="Arial, sans-serif" font-size="10" text-anchor="end" fill="#6b7280">59</text>
<line x1="72" y1="42.00" x2="892" y2="42.00" stroke="#e5e7eb" stroke-width="1"/>
<text x="64" y="45.00" font-family="Arial, sans-serif" font-size="10" text-anchor="end" fill="#6b7280">78</text>
<line x1="72" y1="246" x2="892" y2="246" stroke="#9ca3af" stroke-width="1"/>
<line x1="72" y1="42" x2="72" y2="246" stroke="#9ca3af" stroke-width="1"/>
<circle cx="72" cy="266" r="4" fill="#0f766e"/>
<text x="80" y="270" font-family="Arial, sans-serif" font-size="11" fill="#374151">min page cardinality</text>
<circle cx="252" cy="266" r="4" fill="#b91c1c"/>
<text x="260" y="270" font-family="Arial, sans-serif" font-size="11" fill="#374151">max page cardinality</text>
<polyline fill="none" stroke="#0f766e" stroke-width="1.8" points="72.00,232.58 82.51,243.32 93.03,240.63 103.54,240.63 114.05,240.63 124.56,246.00 135.08,243.32 145.59,243.32 156.10,243.32 166.62,243.32 177.13,243.32 187.64,246.00 198.15,246.00 208.67,243.32 219.18,246.00 229.69,243.32 240.21,243.32 250.72,240.63 261.23,243.32 271.74,246.00 282.26,240.63 292.77,243.32 303.28,246.00 313.79,240.63 324.31,240.63 334.82,243.32 345.33,243.32 355.85,243.32 366.36,246.00 376.87,243.32 387.38,243.32 397.90,246.00 408.41,246.00 418.92,246.00 429.44,246.00 439.95,243.32 450.46,246.00 460.97,243.32 471.49,243.32 482.00,243.32 492.51,243.32 503.03,240.63 513.54,229.89 524.05,224.53 534.56,221.84 545.08,219.16 555.59,221.84 566.10,227.21 576.62,219.16 587.13,170.84 597.64,130.58 608.15,144.00 618.67,152.05 629.18,42.00 639.69,154.74 650.21,152.05 660.72,138.63 671.23,170.84 681.74,133.26 692.26,103.74 702.77,165.47 713.28,154.74 723.79,168.16 734.31,119.84 744.82,130.58 755.33,146.68 765.85,82.26 776.36,170.84 786.87,160.11 797.38,135.95 807.90,146.68 818.41,160.11 828.92,138.63 839.44,141.32 849.95,168.16 860.46,160.11 870.97,170.84 881.49,144.00 892.00,197.68"/>
<polyline fill="none" stroke="#b91c1c" stroke-width="1.8" points="72.00,232.58 82.51,243.32 93.03,240.63 103.54,240.63 114.05,240.63 124.56,246.00 135.08,243.32 145.59,243.32 156.10,243.32 166.62,243.32 177.13,243.32 187.64,246.00 198.15,246.00 208.67,243.32 219.18,246.00 229.69,243.32 240.21,243.32 250.72,240.63 261.23,243.32 271.74,246.00 282.26,240.63 292.77,243.32 303.28,246.00 313.79,240.63 324.31,240.63 334.82,243.32 345.33,243.32 355.85,243.32 366.36,246.00 376.87,243.32 387.38,243.32 397.90,246.00 408.41,246.00 418.92,246.00 429.44,246.00 439.95,243.32 450.46,246.00 460.97,243.32 471.49,243.32 482.00,243.32 492.51,243.32 503.03,240.63 513.54,229.89 524.05,224.53 534.56,221.84 545.08,219.16 555.59,221.84 566.10,227.21 576.62,219.16 587.13,170.84 597.64,130.58 608.15,144.00 618.67,152.05 629.18,42.00 639.69,154.74 650.21,152.05 660.72,138.63 671.23,170.84 681.74,133.26 692.26,103.74 702.77,165.47 713.28,154.74 723.79,168.16 734.31,119.84 744.82,130.58 755.33,146.68 765.85,82.26 776.36,170.84 786.87,160.11 797.38,135.95 807.90,146.68 818.41,160.11 828.92,138.63 839.44,141.32 849.95,168.16 860.46,160.11 870.97,170.84 881.49,144.00 892.00,197.68"/>
</svg>
