<svg xmlns="http://www.w3.org/2000/svg" width="920" height="300" viewBox="0 0 920 300">
<rect width="100%" height="100%" fill="#ffffff"/>
<text x="72" y="24" font-family="Arial, sans-serif" font-size="16" font-weight="700" fill="#111827">URLHash page cardinality per row group</text>
<text x="72" y="288" font-family="Arial, sans-serif" font-size="11" fill="#6b7280">page/row-group index</text>
<text x="18" y="144" transform="rotate(-90 18 144)" font-family="Arial, sans-serif" font-size="11" fill="#6b7280">distinct values</text>
<line x1="72" y1="246.00" x2="892" y2="246.00" stroke="#e5e7eb" stroke-width="1"/>
<text x="64" y="249.00" font-family="Arial, sans-serif" font-size="10" text-anchor="end" fill="#6b7280">3001</text>
<line x1="72" y1="195.00" x2="892" y2="195.00" stroke="#e5e7eb" stroke-width="1"/>
<text x="64" y="198.00" font-family="Arial, sans-serif" font-size="10" text-anchor="end" fill="#6b7280">4105.75</text>
<line x1="72" y1="144.00" x2="892" y2="144.00" stroke="#e5e7eb" stroke-width="1"/>
<text x="64" y="147.00" font-family="Arial, sans-serif" font-size="10" text-anchor="end" fill="#6b7280">5210.50</text>
<line x1="72" y1="93.00" x2="892" y2="93.00" stroke="#e5e7eb" stroke-width="1"/>
<text x="64" y="96.00" font-family="Arial, sans-serif" font-size="10" text-anchor="end" fill="#6b7280">6315.25</text>
<line x1="72" y1="42.00" x2="892" y2="42.00" stroke="#e5e7eb" stroke-width="1"/>
<text x="64" y="45.00" font-family="Arial, sans-serif" font-size="10" text-anchor="end" fill="#6b7280">7420</text>
<line x1="72" y1="246" x2="892" y2="246" stroke="#9ca3af" stroke-width="1"/>
<line x1="72" y1="42" x2="72" y2="246" stroke="#9ca3af" stroke-width="1"/>
<circle cx="72" cy="266" r="4" fill="#0f766e"/>
<text x="80" y="270" font-family="Arial, sans-serif" font-size="11" fill="#374151">min page cardinality</text>
<circle cx="252" cy="266" r="4" fill="#b91c1c"/>
<text x="260" y="270" font-family="Arial, sans-serif" font-size="11" fill="#374151">max page cardinality</text>
<polyline fill="none" stroke="#0f766e" stroke-width="1.8" points="72.00,239.77 82.51,237.64 93.03,234.60 103.54,237.78 114.05,237.23 124.56,238.48 135.08,241.66 145.59,232.57 156.10,234.14 166.62,242.21 177.13,235.01 187.64,237.09 198.15,238.43 208.67,239.91 219.18,241.61 229.69,242.17 240.21,240.69 250.72,240.83 261.23,237.51 271.74,239.63 282.26,238.01 292.77,237.14 303.28,236.49 313.79,240.32 324.31,240.09 334.82,240.04 345.33,239.81 355.85,244.29 366.36,239.72 376.87,229.29 387.38,237.18 397.90,240.18 408.41,235.24 418.92,246.00 429.44,243.83 439.95,239.49 450.46,242.63 460.97,238.84 471.49,231.32 482.00,240.28 492.51,233.63 503.03,238.15 513.54,225.32 524.05,116.65 534.56,134.14 545.08,132.67 555.59,102.29 566.10,94.49 576.62,84.98 587.13,79.95 597.64,42.00 608.15,73.90 618.67,79.67 629.18,74.32 639.69,46.94 650.21,69.56 660.72,54.93 671.23,57.65 681.74,60.28 692.26,48.79 702.77,69.24 713.28,69.05 723.79,64.02 734.31,48.46 744.82,71.18 755.33,75.70 765.85,68.68 776.36,57.70 786.87,60.05 797.38,74.96 807.90,82.26 818.41,56.86 828.92,72.56 839.44,72.01 849.95,72.51 860.46,45.46 870.97,69.61 881.49,59.17 892.00,153.63"/>
<polyline fill="none" stroke="#b91c1c" stroke-width="1.8" points="72.00,239.77 82.51,237.64 93.03,234.60 103.54,237.78 114.05,237.23 124.56,238.48 135.08,241.66 145.59,232.57 156.10,234.14 166.62,242.21 177.13,235.01 187.64,237.09 198.15,238.43 208.67,239.91 219.18,241.61 229.69,242.17 240.21,240.69 250.72,240.83 261.23,237.51 271.74,239.63 282.26,238.01 292.77,237.14 303.28,236.49 313.79,240.32 324.31,240.09 334.82,240.04 345.33,239.81 355.85,244.29 366.36,239.72 376.87,229.29 387.38,237.18 397.90,240.18 408.41,235.24 418.92,246.00 429.44,243.83 439.95,239.49 450.46,242.63 460.97,238.84 471.49,231.32 482.00,240.28 492.51,233.63 503.03,238.15 513.54,225.32 524.05,116.65 534.56,134.14 545.08,132.67 555.59,102.29 566.10,94.49 576.62,84.98 587.13,79.95 597.64,42.00 608.15,73.90 618.67,79.67 629.18,74.32 639.69,46.94 650.21,69.56 660.72,54.93 671.23,57.65 681.74,60.28 692.26,48.79 702.77,69.24 713.28,69.05 723.79,64.02 734.31,48.46 744.82,71.18 755.33,75.70 765.85,68.68 776.36,57.70 786.87,60.05 797.38,74.96 807.90,82.26 818.41,56.86 828.92,72.56 839.44,72.01 849.95,72.51 860.46,45.46 870.97,69.61 881.49,59.17 892.00,153.63"/>
</svg>
