<svg xmlns="http://www.w3.org/2000/svg" width="920" height="300" viewBox="0 0 920 300">
<rect width="100%" height="100%" fill="#ffffff"/>
<text x="72" y="24" font-family="Arial, sans-serif" font-size="16" font-weight="700" fill="#111827">URLHash page min/max</text>
<text x="72" y="288" font-family="Arial, sans-serif" font-size="11" fill="#6b7280">page/row-group index</text>
<text x="18" y="144" transform="rotate(-90 18 144)" font-family="Arial, sans-serif" font-size="11" fill="#6b7280">value</text>
<line x1="72" y1="246.00" x2="892" y2="246.00" stroke="#e5e7eb" stroke-width="1"/>
<text x="64" y="249.00" font-family="Arial, sans-serif" font-size="10" text-anchor="end" fill="#6b7280">-9.22e+18</text>
<line x1="72" y1="195.00" x2="892" y2="195.00" stroke="#e5e7eb" stroke-width="1"/>
<text x="64" y="198.00" font-family="Arial, sans-serif" font-size="10" text-anchor="end" fill="#6b7280">-4.61e+18</text>
<line x1="72" y1="144.00" x2="892" y2="144.00" stroke="#e5e7eb" stroke-width="1"/>
<text x="64" y="147.00" font-family="Arial, sans-serif" font-size="10" text-anchor="end" fill="#6b7280">-9.38e+12</text>
<line x1="72" y1="93.00" x2="892" y2="93.00" stroke="#e5e7eb" stroke-width="1"/>
<text x="64" y="96.00" font-family="Arial, sans-serif" font-size="10" text-anchor="end" fill="#6b7280">4.61e+18</text>
<line x1="72" y1="42.00" x2="892" y2="42.00" stroke="#e5e7eb" stroke-width="1"/>
<text x="64" y="45.00" font-family="Arial, sans-serif" font-size="10" text-anchor="end" fill="#6b7280">9.22e+18</text>
<line x1="72" y1="246" x2="892" y2="246" stroke="#9ca3af" stroke-width="1"/>
<line x1="72" y1="42" x2="72" y2="246" stroke="#9ca3af" stroke-width="1"/>
<circle cx="72" cy="266" r="4" fill="#2563eb"/>
<text x="80" y="270" font-family="Arial, sans-serif" font-size="11" fill="#374151">page min</text>
<circle cx="252" cy="266" r="4" fill="#b91c1c"/>
<text x="260" y="270" font-family="Arial, sans-serif" font-size="11" fill="#374151">page max</text>
<polyline fill="none" stroke="#2563eb" stroke-width="1.8" points="72.00,245.99 82.51,245.99 93.03,245.95 103.54,245.99 114.05,245.99 124.56,245.98 135.08,245.99 145.59,245.99 156.10,245.99 166.62,245.99 177.13,245.99 187.64,245.99 198.15,245.91 208.67,245.99 219.18,245.99 229.69,245.99 240.21,245.99 250.72,245.97 261.23,245.99 271.74,245.99 282.26,245.82 292.77,245.99 303.28,245.91 313.79,245.87 324.31,245.99 334.82,245.85 345.33,245.99 355.85,245.99 366.36,245.99 376.87,245.99 387.38,245.99 397.90,245.96 408.41,245.93 418.92,245.99 429.44,245.99 439.95,245.94 450.46,245.99 460.97,245.99 471.49,245.99 482.00,245.91 492.51,245.99 503.03,245.99 513.54,245.85 524.05,245.99 534.56,245.99 545.08,246.00 555.59,245.93 566.10,245.98 576.62,245.98 587.13,245.98 597.64,245.99 608.15,246.00 618.67,245.93 629.18,245.93 639.69,246.00 650.21,245.97 660.72,245.98 671.23,246.00 681.74,245.97 692.26,245.98 702.77,245.99 713.28,245.99 723.79,245.96 734.31,245.95 744.82,245.99 755.33,245.96 765.85,246.00 776.36,246.00 786.87,245.93 797.38,246.00 807.90,245.93 818.41,245.99 828.92,245.97 839.44,245.92 849.95,245.99 860.46,246.00 870.97,245.92 881.49,246.00 892.00,245.97"/>
<polyline fill="none" stroke="#b91c1c" stroke-width="1.8" points="72.00,42.13 82.51,42.11 93.03,42.09 103.54,42.15 114.05,42.06 124.56,42.05 135.08,42.15 145.59,42.10 156.10,42.09 166.62,42.09 177.13,42.14 187.64,42.14 198.15,42.02 208.67,42.08 219.18,42.01 229.69,42.08 240.21,42.01 250.72,42.10 261.23,42.12 271.74,42.15 282.26,42.04 292.77,42.15 303.28,42.08 313.79,42.00 324.31,42.16 334.82,42.22 345.33,42.27 355.85,42.14 366.36,42.11 376.87,42.11 387.38,42.10 397.90,42.17 408.41,42.10 418.92,42.00 429.44,42.09 439.95,42.15 450.46,42.07 460.97,42.07 471.49,42.06 482.00,42.14 492.51,42.10 503.03,42.10 513.54,42.08 524.05,42.05 534.56,42.00 545.08,42.00 555.59,42.05 566.10,42.02 576.62,42.02 587.13,42.01 597.64,42.04 608.15,42.04 618.67,42.00 629.18,42.11 639.69,42.02 650.21,42.01 660.72,42.02 671.23,42.01 681.74,42.03 692.26,42.01 702.77,42.00 713.28,42.09 723.79,42.01 734.31,42.01 744.82,42.01 755.33,42.01 765.85,42.02 776.36,42.02 786.87,42.00 797.38,42.00 807.90,42.02 818.41,42.00 828.92,42.01 839.44,42.07 849.95,42.01 860.46,42.03 870.97,42.07 881.49,42.02 892.00,42.01"/>
</svg>
