<svg xmlns="http://www.w3.org/2000/svg" width="920" height="300" viewBox="0 0 920 300">
<rect width="100%" height="100%" fill="#ffffff"/>
<text x="72" y="24" font-family="Arial, sans-serif" font-size="16" font-weight="700" fill="#111827">URLRegionID page cardinality per row group</text>
<text x="72" y="288" font-family="Arial, sans-serif" font-size="11" fill="#6b7280">page/row-group index</text>
<text x="18" y="144" transform="rotate(-90 18 144)" font-family="Arial, sans-serif" font-size="11" fill="#6b7280">distinct values</text>
<line x1="72" y1="246.00" x2="892" y2="246.00" stroke="#e5e7eb" stroke-width="1"/>
<text x="64" y="249.00" font-family="Arial, sans-serif" font-size="10" text-anchor="end" fill="#6b7280">3</text>
<line x1="72" y1="195.00" x2="892" y2="195.00" stroke="#e5e7eb" stroke-width="1"/>
<text x="64" y="198.00" font-family="Arial, sans-serif" font-size="10" text-anchor="end" fill="#6b7280">11</text>
<line x1="72" y1="144.00" x2="892" y2="144.00" stroke="#e5e7eb" stroke-width="1"/>
<text x="64" y="147.00" font-family="Arial, sans-serif" font-size="10" text-anchor="end" fill="#6b7280">19</text>
<line x1="72" y1="93.00" x2="892" y2="93.00" stroke="#e5e7eb" stroke-width="1"/>
<text x="64" y="96.00" font-family="Arial, sans-serif" font-size="10" text-anchor="end" fill="#6b7280">27</text>
<line x1="72" y1="42.00" x2="892" y2="42.00" stroke="#e5e7eb" stroke-width="1"/>
<text x="64" y="45.00" font-family="Arial, sans-serif" font-size="10" text-anchor="end" fill="#6b7280">35</text>
<line x1="72" y1="246" x2="892" y2="246" stroke="#9ca3af" stroke-width="1"/>
<line x1="72" y1="42" x2="72" y2="246" stroke="#9ca3af" stroke-width="1"/>
<circle cx="72" cy="266" r="4" fill="#0f766e"/>
<text x="80" y="270" font-family="Arial, sans-serif" font-size="11" fill="#374151">min page cardinality</text>
<circle cx="252" cy="266" r="4" fill="#b91c1c"/>
<text x="260" y="270" font-family="Arial, sans-serif" font-size="11" fill="#374151">max page cardinality</text>
<polyline fill="none" stroke="#0f766e" stroke-width="1.8" points="72.00,220.50 82.51,239.62 93.03,233.25 103.54,233.25 114.05,233.25 124.56,239.62 135.08,239.62 145.59,239.62 156.10,239.62 166.62,239.62 177.13,239.62 187.64,246.00 198.15,246.00 208.67,239.62 219.18,246.00 229.69,239.62 240.21,239.62 250.72,233.25 261.23,239.62 271.74,246.00 282.26,233.25 292.77,239.62 303.28,246.00 313.79,233.25 324.31,233.25 334.82,239.62 345.33,239.62 355.85,239.62 366.36,246.00 376.87,239.62 387.38,239.62 397.90,246.00 408.41,246.00 418.92,246.00 429.44,239.62 439.95,239.62 450.46,246.00 460.97,239.62 471.49,239.62 482.00,239.62 492.51,239.62 503.03,233.25 513.54,233.25 524.05,220.50 534.56,214.12 545.08,214.12 555.59,214.12 566.10,220.50 576.62,214.12 587.13,188.62 597.64,137.62 608.15,131.25 618.67,99.38 629.18,54.75 639.69,112.12 650.21,118.50 660.72,93.00 671.23,156.75 681.74,144.00 692.26,118.50 702.77,163.12 713.28,137.62 723.79,163.12 734.31,99.38 744.82,118.50 755.33,124.88 765.85,42.00 776.36,131.25 786.87,156.75 797.38,150.38 807.90,137.62 818.41,156.75 828.92,144.00 839.44,150.38 849.95,150.38 860.46,163.12 870.97,137.62 881.49,118.50 892.00,182.25"/>
<polyline fill="none" stroke="#b91c1c" stroke-width="1.8" points="72.00,220.50 82.51,239.62 93.03,233.25 103.54,233.25 114.05,233.25 124.56,239.62 135.08,239.62 145.59,239.62 156.10,239.62 166.62,239.62 177.13,239.62 187.64,246.00 198.15,246.00 208.67,239.62 219.18,246.00 229.69,239.62 240.21,239.62 250.72,233.25 261.23,239.62 271.74,246.00 282.26,233.25 292.77,239.62 303.28,246.00 313.79,233.25 324.31,233.25 334.82,239.62 345.33,239.62 355.85,239.62 366.36,246.00 376.87,239.62 387.38,239.62 397.90,246.00 408.41,246.00 418.92,246.00 429.44,239.62 439.95,239.62 450.46,246.00 460.97,239.62 471.49,239.62 482.00,239.62 492.51,239.62 503.03,233.25 513.54,233.25 524.05,220.50 534.56,214.12 545.08,214.12 555.59,214.12 566.10,220.50 576.62,214.12 587.13,188.62 597.64,137.62 608.15,131.25 618.67,99.38 629.18,54.75 639.69,112.12 650.21,118.50 660.72,93.00 671.23,156.75 681.74,144.00 692.26,118.50 702.77,163.12 713.28,137.62 723.79,163.12 734.31,99.38 744.82,118.50 755.33,124.88 765.85,42.00 776.36,131.25 786.87,156.75 797.38,150.38 807.90,137.62 818.41,156.75 828.92,144.00 839.44,150.38 849.95,150.38 860.46,163.12 870.97,137.62 881.49,118.50 892.00,182.25"/>
</svg>
