<svg xmlns="http://www.w3.org/2000/svg" width="920" height="300" viewBox="0 0 920 300">
<rect width="100%" height="100%" fill="#ffffff"/>
<text x="72" y="24" font-family="Arial, sans-serif" font-size="16" font-weight="700" fill="#111827">URLRegionID page min/max</text>
<text x="72" y="288" font-family="Arial, sans-serif" font-size="11" fill="#6b7280">page/row-group index</text>
<text x="18" y="144" transform="rotate(-90 18 144)" font-family="Arial, sans-serif" font-size="11" fill="#6b7280">value</text>
<line x1="72" y1="246.00" x2="892" y2="246.00" stroke="#e5e7eb" stroke-width="1"/>
<text x="64" y="249.00" font-family="Arial, sans-serif" font-size="10" text-anchor="end" fill="#6b7280">0</text>
<line x1="72" y1="195.00" x2="892" y2="195.00" stroke="#e5e7eb" stroke-width="1"/>
<text x="64" y="198.00" font-family="Arial, sans-serif" font-size="10" text-anchor="end" fill="#6b7280">25133</text>
<line x1="72" y1="144.00" x2="892" y2="144.00" stroke="#e5e7eb" stroke-width="1"/>
<text x="64" y="147.00" font-family="Arial, sans-serif" font-size="10" text-anchor="end" fill="#6b7280">50266</text>
<line x1="72" y1="93.00" x2="892" y2="93.00" stroke="#e5e7eb" stroke-width="1"/>
<text x="64" y="96.00" font-family="Arial, sans-serif" font-size="10" text-anchor="end" fill="#6b7280">75399</text>
<line x1="72" y1="42.00" x2="892" y2="42.00" stroke="#e5e7eb" stroke-width="1"/>
<text x="64" y="45.00" font-family="Arial, sans-serif" font-size="10" text-anchor="end" fill="#6b7280">100532</text>
<line x1="72" y1="246" x2="892" y2="246" stroke="#9ca3af" stroke-width="1"/>
<line x1="72" y1="42" x2="72" y2="246" stroke="#9ca3af" stroke-width="1"/>
<circle cx="72" cy="266" r="4" fill="#2563eb"/>
<text x="80" y="270" font-family="Arial, sans-serif" font-size="11" fill="#374151">page min</text>
<circle cx="252" cy="266" r="4" fill="#b91c1c"/>
<text x="260" y="270" font-family="Arial, sans-serif" font-size="11" fill="#374151">page max</text>
<polyline fill="none" stroke="#2563eb" stroke-width="1.8" points="72.00,246.00 82.51,246.00 93.03,246.00 103.54,246.00 114.05,246.00 124.56,245.96 135.08,246.00 145.59,245.96 156.10,246.00 166.62,246.00 177.13,246.00 187.64,245.96 198.15,245.96 208.67,246.00 219.18,245.96 229.69,246.00 240.21,246.00 250.72,246.00 261.23,246.00 271.74,245.96 282.26,246.00 292.77,245.96 303.28,245.96 313.79,246.00 324.31,246.00 334.82,246.00 345.33,246.00 355.85,246.00 366.36,245.96 376.87,246.00 387.38,246.00 397.90,245.96 408.41,245.96 418.92,245.96 429.44,245.96 439.95,246.00 450.46,245.96 460.97,246.00 471.49,246.00 482.00,246.00 492.51,246.00 503.03,246.00 513.54,246.00 524.05,246.00 534.56,246.00 545.08,246.00 555.59,246.00 566.10,246.00 576.62,246.00 587.13,246.00 597.64,246.00 608.15,246.00 618.67,246.00 629.18,246.00 639.69,246.00 650.21,246.00 660.72,246.00 671.23,246.00 681.74,246.00 692.26,246.00 702.77,246.00 713.28,246.00 723.79,246.00 734.31,246.00 744.82,246.00 755.33,246.00 765.85,246.00 776.36,246.00 786.87,246.00 797.38,246.00 807.90,246.00 818.41,246.00 828.92,246.00 839.44,246.00 849.95,246.00 860.46,246.00 870.97,246.00 881.49,246.00 892.00,246.00"/>
<polyline fill="none" stroke="#b91c1c" stroke-width="1.8" points="72.00,244.94 82.51,244.95 93.03,244.94 103.54,244.94 114.05,244.94 124.56,244.95 135.08,244.95 145.59,244.94 156.10,244.95 166.62,244.95 177.13,244.95 187.64,244.95 198.15,244.95 208.67,244.95 219.18,244.95 229.69,244.95 240.21,244.95 250.72,244.94 261.23,244.95 271.74,244.95 282.26,244.94 292.77,244.94 303.28,244.95 313.79,244.94 324.31,244.94 334.82,244.95 345.33,244.95 355.85,244.95 366.36,244.95 376.87,244.95 387.38,244.95 397.90,244.95 408.41,244.95 418.92,244.95 429.44,244.95 439.95,244.95 450.46,244.95 460.97,244.95 471.49,244.95 482.00,244.95 492.51,244.95 503.03,244.94 513.54,244.94 524.05,244.60 534.56,244.60 545.08,244.60 555.59,244.60 566.10,244.60 576.62,210.65 587.13,244.36 597.64,199.74 608.15,206.05 618.67,190.72 629.18,192.92 639.69,199.74 650.21,222.26 660.72,92.07 671.23,208.40 681.74,214.03 692.26,101.91 702.77,192.31 713.28,214.40 723.79,104.73 734.31,199.74 744.82,222.82 755.33,227.82 765.85,42.00 776.36,206.10 786.87,222.11 797.38,223.87 807.90,227.04 818.41,222.82 828.92,189.61 839.44,101.91 849.95,199.74 860.46,244.60 870.97,192.31 881.49,201.53 892.00,244.60"/>
</svg>
