<svg xmlns="http://www.w3.org/2000/svg" width="920" height="300" viewBox="0 0 920 300">
<rect width="100%" height="100%" fill="#ffffff"/>
<text x="72" y="24" font-family="Arial, sans-serif" font-size="16" font-weight="700" fill="#111827">UserID row-group cardinality</text>
<text x="72" y="288" font-family="Arial, sans-serif" font-size="11" fill="#6b7280">page/row-group index</text>
<text x="18" y="144" transform="rotate(-90 18 144)" font-family="Arial, sans-serif" font-size="11" fill="#6b7280">distinct values</text>
<line x1="72" y1="246.00" x2="892" y2="246.00" stroke="#e5e7eb" stroke-width="1"/>
<text x="64" y="249.00" font-family="Arial, sans-serif" font-size="10" text-anchor="end" fill="#6b7280">716</text>
<line x1="72" y1="195.00" x2="892" y2="195.00" stroke="#e5e7eb" stroke-width="1"/>
<text x="64" y="198.00" font-family="Arial, sans-serif" font-size="10" text-anchor="end" fill="#6b7280">988.25</text>
<line x1="72" y1="144.00" x2="892" y2="144.00" stroke="#e5e7eb" stroke-width="1"/>
<text x="64" y="147.00" font-family="Arial, sans-serif" font-size="10" text-anchor="end" fill="#6b7280">1260.50</text>
<line x1="72" y1="93.00" x2="892" y2="93.00" stroke="#e5e7eb" stroke-width="1"/>
<text x="64" y="96.00" font-family="Arial, sans-serif" font-size="10" text-anchor="end" fill="#6b7280">1532.75</text>
<line x1="72" y1="42.00" x2="892" y2="42.00" stroke="#e5e7eb" stroke-width="1"/>
<text x="64" y="45.00" font-family="Arial, sans-serif" font-size="10" text-anchor="end" fill="#6b7280">1805</text>
<line x1="72" y1="246" x2="892" y2="246" stroke="#9ca3af" stroke-width="1"/>
<line x1="72" y1="42" x2="72" y2="246" stroke="#9ca3af" stroke-width="1"/>
<circle cx="72" cy="266" r="4" fill="#2563eb"/>
<text x="80" y="270" font-family="Arial, sans-serif" font-size="11" fill="#374151">row group cardinality</text>
<polyline fill="none" stroke="#2563eb" stroke-width="1.8" points="72.00,219.21 82.51,203.48 93.03,231.20 103.54,222.40 114.05,220.34 124.56,224.46 135.08,227.64 145.59,220.71 156.10,209.47 166.62,214.90 177.13,235.13 187.64,218.28 198.15,224.27 208.67,229.89 219.18,243.94 229.69,244.13 240.21,221.27 250.72,211.91 261.23,226.52 271.74,226.33 282.26,239.63 292.77,217.34 303.28,231.95 313.79,223.33 324.31,217.71 334.82,227.08 345.33,242.82 355.85,216.78 366.36,228.20 376.87,226.89 387.38,240.19 397.90,235.32 408.41,233.07 418.92,239.82 429.44,239.44 439.95,224.08 450.46,225.21 460.97,236.63 471.49,205.91 482.00,233.07 492.51,225.21 503.03,231.39 513.54,204.79 524.05,51.74 534.56,42.00 545.08,46.87 555.59,63.54 566.10,77.40 576.62,96.51 587.13,133.79 597.64,176.13 608.15,158.89 618.67,163.76 629.18,169.38 639.69,170.32 650.21,158.33 660.72,142.78 671.23,180.81 681.74,140.91 692.26,169.57 702.77,146.15 713.28,149.15 723.79,161.70 734.31,177.63 744.82,153.46 755.33,166.39 765.85,172.75 776.36,168.07 786.87,151.40 797.38,142.41 807.90,145.78 818.41,160.39 828.92,159.08 839.44,148.59 849.95,140.16 860.46,147.09 870.97,145.03 881.49,170.13 892.00,246.00"/>
</svg>
