<svg xmlns="http://www.w3.org/2000/svg" width="920" height="300" viewBox="0 0 920 300">
<rect width="100%" height="100%" fill="#ffffff"/>
<text x="72" y="24" font-family="Arial, sans-serif" font-size="16" font-weight="700" fill="#111827">UserID page min/max</text>
<text x="72" y="288" font-family="Arial, sans-serif" font-size="11" fill="#6b7280">page/row-group index</text>
<text x="18" y="144" transform="rotate(-90 18 144)" font-family="Arial, sans-serif" font-size="11" fill="#6b7280">value</text>
<line x1="72" y1="246.00" x2="892" y2="246.00" stroke="#e5e7eb" stroke-width="1"/>
<text x="64" y="249.00" font-family="Arial, sans-serif" font-size="10" text-anchor="end" fill="#6b7280">-9.22e+18</text>
<line x1="72" y1="195.00" x2="892" y2="195.00" stroke="#e5e7eb" stroke-width="1"/>
<text x="64" y="198.00" font-family="Arial, sans-serif" font-size="10" text-anchor="end" fill="#6b7280">-4.61e+18</text>
<line x1="72" y1="144.00" x2="892" y2="144.00" stroke="#e5e7eb" stroke-width="1"/>
<text x="64" y="147.00" font-family="Arial, sans-serif" font-size="10" text-anchor="end" fill="#6b7280">1.36e+15</text>
<line x1="72" y1="93.00" x2="892" y2="93.00" stroke="#e5e7eb" stroke-width="1"/>
<text x="64" y="96.00" font-family="Arial, sans-serif" font-size="10" text-anchor="end" fill="#6b7280">4.61e+18</text>
<line x1="72" y1="42.00" x2="892" y2="42.00" stroke="#e5e7eb" stroke-width="1"/>
<text x="64" y="45.00" font-family="Arial, sans-serif" font-size="10" text-anchor="end" fill="#6b7280">9.22e+18</text>
<line x1="72" y1="246" x2="892" y2="246" stroke="#9ca3af" stroke-width="1"/>
<line x1="72" y1="42" x2="72" y2="246" stroke="#9ca3af" stroke-width="1"/>
<circle cx="72" cy="266" r="4" fill="#2563eb"/>
<text x="80" y="270" font-family="Arial, sans-serif" font-size="11" fill="#374151">page min</text>
<circle cx="252" cy="266" r="4" fill="#b91c1c"/>
<text x="260" y="270" font-family="Arial, sans-serif" font-size="11" fill="#374151">page max</text>
<polyline fill="none" stroke="#2563eb" stroke-width="1.8" points="72.00,245.94 82.51,188.09 93.03,143.97 103.54,143.57 114.05,142.54 124.56,141.41 135.08,140.37 145.59,139.43 156.10,138.36 166.62,137.11 177.13,135.98 187.64,134.93 198.15,133.80 208.67,132.75 219.18,131.70 229.69,130.66 240.21,129.58 250.72,128.29 261.23,126.96 271.74,125.73 282.26,124.58 292.77,123.52 303.28,122.24 313.79,121.09 324.31,119.92 334.82,118.64 345.33,115.55 355.85,112.58 366.36,109.12 376.87,105.80 387.38,102.53 397.90,99.73 408.41,96.69 418.92,93.24 429.44,88.44 439.95,84.07 450.46,78.55 460.97,73.22 471.49,68.14 482.00,62.52 492.51,57.40 503.03,52.05 513.54,246.00 524.05,211.68 534.56,138.41 545.08,129.85 555.59,120.34 566.10,99.46 576.62,245.99 587.13,242.09 597.64,172.18 608.15,143.96 618.67,143.45 629.18,142.48 639.69,141.59 650.21,140.64 660.72,139.67 671.23,138.67 681.74,137.81 692.26,136.75 702.77,135.78 713.28,134.75 723.79,133.66 734.31,132.68 744.82,131.74 755.33,130.69 765.85,129.49 776.36,128.41 786.87,127.33 797.38,126.16 807.90,124.97 818.41,123.76 828.92,122.66 839.44,121.54 849.95,120.34 860.46,119.12 870.97,117.06 881.49,113.51 892.00,110.46"/>
<polyline fill="none" stroke="#b91c1c" stroke-width="1.8" points="72.00,61.95 82.51,143.97 93.03,143.57 103.54,142.54 114.05,141.41 124.56,140.37 135.08,139.43 145.59,138.36 156.10,137.11 166.62,135.98 177.13,134.93 187.64,133.80 198.15,132.75 208.67,131.70 219.18,130.66 229.69,129.58 240.21,128.29 250.72,126.96 261.23,125.73 271.74,124.58 282.26,123.52 292.77,122.24 303.28,121.09 313.79,119.92 324.31,118.64 334.82,115.55 345.33,112.58 355.85,109.12 366.36,105.80 376.87,102.53 387.38,99.73 397.90,96.69 408.41,93.24 418.92,88.44 429.44,84.07 439.95,78.55 450.46,73.22 460.97,68.14 471.49,62.52 482.00,57.40 492.51,52.05 503.03,47.18 513.54,42.00 524.05,138.41 534.56,129.85 545.08,120.34 555.59,99.46 566.10,70.45 576.62,42.00 587.13,172.18 597.64,143.96 608.15,143.45 618.67,142.48 629.18,141.59 639.69,140.64 650.21,139.67 660.72,138.67 671.23,137.81 681.74,136.75 692.26,135.78 702.77,134.75 713.28,133.66 723.79,132.68 734.31,131.74 744.82,130.69 755.33,129.49 765.85,128.41 776.36,127.33 786.87,126.16 797.38,124.97 807.90,123.76 818.41,122.66 828.92,121.54 839.44,120.34 849.95,119.12 860.46,117.06 870.97,113.51 881.49,110.46 892.00,108.42"/>
</svg>
