<svg xmlns="http://www.w3.org/2000/svg" width="920" height="300" viewBox="0 0 920 300">
<rect width="100%" height="100%" fill="#ffffff"/>
<text x="72" y="24" font-family="Arial, sans-serif" font-size="16" font-weight="700" fill="#111827">UTMContent page cardinality per row group</text>
<text x="72" y="288" font-family="Arial, sans-serif" font-size="11" fill="#6b7280">page/row-group index</text>
<text x="18" y="144" transform="rotate(-90 18 144)" font-family="Arial, sans-serif" font-size="11" fill="#6b7280">distinct values</text>
<line x1="72" y1="246.00" x2="892" y2="246.00" stroke="#e5e7eb" stroke-width="1"/>
<text x="64" y="249.00" font-family="Arial, sans-serif" font-size="10" text-anchor="end" fill="#6b7280">1</text>
<line x1="72" y1="195.00" x2="892" y2="195.00" stroke="#e5e7eb" stroke-width="1"/>
<text x="64" y="198.00" font-family="Arial, sans-serif" font-size="10" text-anchor="end" fill="#6b7280">7</text>
<line x1="72" y1="144.00" x2="892" y2="144.00" stroke="#e5e7eb" stroke-width="1"/>
<text x="64" y="147.00" font-family="Arial, sans-serif" font-size="10" text-anchor="end" fill="#6b7280">13</text>
<line x1="72" y1="93.00" x2="892" y2="93.00" stroke="#e5e7eb" stroke-width="1"/>
<text x="64" y="96.00" font-family="Arial, sans-serif" font-size="10" text-anchor="end" fill="#6b7280">19</text>
<line x1="72" y1="42.00" x2="892" y2="42.00" stroke="#e5e7eb" stroke-width="1"/>
<text x="64" y="45.00" font-family="Arial, sans-serif" font-size="10" text-anchor="end" fill="#6b7280">25</text>
<line x1="72" y1="246" x2="892" y2="246" stroke="#9ca3af" stroke-width="1"/>
<line x1="72" y1="42" x2="72" y2="246" stroke="#9ca3af" stroke-width="1"/>
<circle cx="72" cy="266" r="4" fill="#0f766e"/>
<text x="80" y="270" font-family="Arial, sans-serif" font-size="11" fill="#374151">min page cardinality</text>
<circle cx="252" cy="266" r="4" fill="#b91c1c"/>
<text x="260" y="270" font-family="Arial, sans-serif" font-size="11" fill="#374151">max page cardinality</text>
<polyline fill="none" stroke="#0f766e" stroke-width="1.8" points="72.00,229.00 82.51,237.50 93.03,212.00 103.54,237.50 114.05,229.00 124.56,229.00 135.08,229.00 145.59,237.50 156.10,237.50 166.62,237.50 177.13,237.50 187.64,229.00 198.15,237.50 208.67,237.50 219.18,229.00 229.69,237.50 240.21,237.50 250.72,237.50 261.23,229.00 271.74,229.00 282.26,229.00 292.77,237.50 303.28,229.00 313.79,237.50 324.31,212.00 334.82,237.50 345.33,229.00 355.85,229.00 366.36,237.50 376.87,237.50 387.38,229.00 397.90,229.00 408.41,237.50 418.92,237.50 429.44,229.00 439.95,229.00 450.46,220.50 460.97,229.00 471.49,237.50 482.00,237.50 492.51,229.00 503.03,229.00 513.54,237.50 524.05,246.00 534.56,246.00 545.08,246.00 555.59,246.00 566.10,246.00 576.62,237.50 587.13,84.50 597.64,152.50 608.15,67.50 618.67,178.00 629.18,203.50 639.69,203.50 650.21,212.00 660.72,178.00 671.23,203.50 681.74,152.50 692.26,178.00 702.77,195.00 713.28,50.50 723.79,186.50 734.31,212.00 744.82,229.00 755.33,237.50 765.85,195.00 776.36,237.50 786.87,42.00 797.38,212.00 807.90,212.00 818.41,237.50 828.92,195.00 839.44,246.00 849.95,203.50 860.46,237.50 870.97,229.00 881.49,203.50 892.00,237.50"/>
<polyline fill="none" stroke="#b91c1c" stroke-width="1.8" points="72.00,229.00 82.51,237.50 93.03,212.00 103.54,237.50 114.05,229.00 124.56,229.00 135.08,229.00 145.59,237.50 156.10,237.50 166.62,237.50 177.13,237.50 187.64,229.00 198.15,237.50 208.67,237.50 219.18,229.00 229.69,237.50 240.21,237.50 250.72,237.50 261.23,229.00 271.74,229.00 282.26,229.00 292.77,237.50 303.28,229.00 313.79,237.50 324.31,212.00 334.82,237.50 345.33,229.00 355.85,229.00 366.36,237.50 376.87,237.50 387.38,229.00 397.90,229.00 408.41,237.50 418.92,237.50 429.44,229.00 439.95,229.00 450.46,220.50 460.97,229.00 471.49,237.50 482.00,237.50 492.51,229.00 503.03,229.00 513.54,237.50 524.05,246.00 534.56,246.00 545.08,246.00 555.59,246.00 566.10,246.00 576.62,237.50 587.13,84.50 597.64,152.50 608.15,67.50 618.67,178.00 629.18,203.50 639.69,203.50 650.21,212.00 660.72,178.00 671.23,203.50 681.74,152.50 692.26,178.00 702.77,195.00 713.28,50.50 723.79,186.50 734.31,212.00 744.82,229.00 755.33,237.50 765.85,195.00 776.36,237.50 786.87,42.00 797.38,212.00 807.90,212.00 818.41,237.50 828.92,195.00 839.44,246.00 849.95,203.50 860.46,237.50 870.97,229.00 881.49,203.50 892.00,237.50"/>
</svg>
