<svg xmlns="http://www.w3.org/2000/svg" width="920" height="300" viewBox="0 0 920 300">
<rect width="100%" height="100%" fill="#ffffff"/>
<text x="72" y="24" font-family="Arial, sans-serif" font-size="16" font-weight="700" fill="#111827">UTMCampaign value length per row group</text>
<text x="72" y="288" font-family="Arial, sans-serif" font-size="11" fill="#6b7280">page/row-group index</text>
<text x="18" y="144" transform="rotate(-90 18 144)" font-family="Arial, sans-serif" font-size="11" fill="#6b7280">bytes</text>
<line x1="72" y1="246.00" x2="892" y2="246.00" stroke="#e5e7eb" stroke-width="1"/>
<text x="64" y="249.00" font-family="Arial, sans-serif" font-size="10" text-anchor="end" fill="#6b7280">0</text>
<line x1="72" y1="195.00" x2="892" y2="195.00" stroke="#e5e7eb" stroke-width="1"/>
<text x="64" y="198.00" font-family="Arial, sans-serif" font-size="10" text-anchor="end" fill="#6b7280">16.50</text>
<line x1="72" y1="144.00" x2="892" y2="144.00" stroke="#e5e7eb" stroke-width="1"/>
<text x="64" y="147.00" font-family="Arial, sans-serif" font-size="10" text-anchor="end" fill="#6b7280">33</text>
<line x1="72" y1="93.00" x2="892" y2="93.00" stroke="#e5e7eb" stroke-width="1"/>
<text x="64" y="96.00" font-family="Arial, sans-serif" font-size="10" text-anchor="end" fill="#6b7280">49.50</text>
<line x1="72" y1="42.00" x2="892" y2="42.00" stroke="#e5e7eb" stroke-width="1"/>
<text x="64" y="45.00" font-family="Arial, sans-serif" font-size="10" text-anchor="end" fill="#6b7280">66</text>
<line x1="72" y1="246" x2="892" y2="246" stroke="#9ca3af" stroke-width="1"/>
<line x1="72" y1="42" x2="72" y2="246" stroke="#9ca3af" stroke-width="1"/>
<circle cx="72" cy="266" r="4" fill="#7c3aed"/>
<text x="80" y="270" font-family="Arial, sans-serif" font-size="11" fill="#374151">min length</text>
<circle cx="252" cy="266" r="4" fill="#ea580c"/>
<text x="260" y="270" font-family="Arial, sans-serif" font-size="11" fill="#374151">max length</text>
<polyline fill="none" stroke="#7c3aed" stroke-width="1.8" points="72.00,246.00 82.51,246.00 93.03,246.00 103.54,246.00 114.05,246.00 124.56,246.00 135.08,246.00 145.59,246.00 156.10,246.00 166.62,246.00 177.13,246.00 187.64,246.00 198.15,246.00 208.67,246.00 219.18,246.00 229.69,246.00 240.21,246.00 250.72,246.00 261.23,246.00 271.74,246.00 282.26,246.00 292.77,246.00 303.28,246.00 313.79,246.00 324.31,246.00 334.82,246.00 345.33,246.00 355.85,246.00 366.36,246.00 376.87,246.00 387.38,246.00 397.90,246.00 408.41,246.00 418.92,246.00 429.44,246.00 439.95,246.00 450.46,246.00 460.97,246.00 471.49,246.00 482.00,246.00 492.51,246.00 503.03,246.00 513.54,246.00 524.05,246.00 534.56,246.00 545.08,246.00 555.59,246.00 566.10,246.00 576.62,246.00 587.13,246.00 597.64,246.00 608.15,246.00 618.67,246.00 629.18,246.00 639.69,246.00 650.21,246.00 660.72,246.00 671.23,246.00 681.74,246.00 692.26,246.00 702.77,246.00 713.28,246.00 723.79,246.00 734.31,246.00 744.82,246.00 755.33,246.00 765.85,246.00 776.36,246.00 786.87,246.00 797.38,246.00 807.90,246.00 818.41,246.00 828.92,246.00 839.44,246.00 849.95,246.00 860.46,246.00 870.97,246.00 881.49,246.00 892.00,246.00"/>
<polyline fill="none" stroke="#ea580c" stroke-width="1.8" points="72.00,140.91 82.51,45.09 93.03,66.73 103.54,45.09 114.05,66.73 124.56,45.09 135.08,45.09 145.59,140.91 156.10,140.91 166.62,45.09 177.13,45.09 187.64,45.09 198.15,45.09 208.67,140.91 219.18,45.09 229.69,45.09 240.21,45.09 250.72,45.09 261.23,66.73 271.74,45.09 282.26,45.09 292.77,140.91 303.28,66.73 313.79,140.91 324.31,66.73 334.82,45.09 345.33,45.09 355.85,45.09 366.36,45.09 376.87,45.09 387.38,45.09 397.90,45.09 408.41,45.09 418.92,140.91 429.44,140.91 439.95,45.09 450.46,45.09 460.97,45.09 471.49,140.91 482.00,45.09 492.51,45.09 503.03,66.73 513.54,140.91 524.05,246.00 534.56,246.00 545.08,246.00 555.59,246.00 566.10,246.00 576.62,218.18 587.13,128.55 597.64,66.73 608.15,57.45 618.67,156.36 629.18,54.36 639.69,140.91 650.21,42.00 660.72,162.55 671.23,171.82 681.74,113.09 692.26,150.18 702.77,153.27 713.28,60.55 723.79,131.64 734.31,134.73 744.82,171.82 755.33,150.18 765.85,150.18 776.36,144.00 786.87,150.18 797.38,88.36 807.90,140.91 818.41,147.09 828.92,153.27 839.44,181.09 849.95,134.73 860.46,159.45 870.97,140.91 881.49,137.82 892.00,162.55"/>
</svg>
