<svg xmlns="http://www.w3.org/2000/svg" width="920" height="300" viewBox="0 0 920 300">
<rect width="100%" height="100%" fill="#ffffff"/>
<text x="72" y="24" font-family="Arial, sans-serif" font-size="16" font-weight="700" fill="#111827">UTMCampaign page min/max lexical rank</text>
<text x="72" y="288" font-family="Arial, sans-serif" font-size="11" fill="#6b7280">page/row-group index</text>
<text x="18" y="144" transform="rotate(-90 18 144)" font-family="Arial, sans-serif" font-size="11" fill="#6b7280">lexical rank</text>
<line x1="72" y1="246.00" x2="892" y2="246.00" stroke="#e5e7eb" stroke-width="1"/>
<text x="64" y="249.00" font-family="Arial, sans-serif" font-size="10" text-anchor="end" fill="#6b7280">1</text>
<line x1="72" y1="195.00" x2="892" y2="195.00" stroke="#e5e7eb" stroke-width="1"/>
<text x="64" y="198.00" font-family="Arial, sans-serif" font-size="10" text-anchor="end" fill="#6b7280">8</text>
<line x1="72" y1="144.00" x2="892" y2="144.00" stroke="#e5e7eb" stroke-width="1"/>
<text x="64" y="147.00" font-family="Arial, sans-serif" font-size="10" text-anchor="end" fill="#6b7280">15</text>
<line x1="72" y1="93.00" x2="892" y2="93.00" stroke="#e5e7eb" stroke-width="1"/>
<text x="64" y="96.00" font-family="Arial, sans-serif" font-size="10" text-anchor="end" fill="#6b7280">22</text>
<line x1="72" y1="42.00" x2="892" y2="42.00" stroke="#e5e7eb" stroke-width="1"/>
<text x="64" y="45.00" font-family="Arial, sans-serif" font-size="10" text-anchor="end" fill="#6b7280">29</text>
<line x1="72" y1="246" x2="892" y2="246" stroke="#9ca3af" stroke-width="1"/>
<line x1="72" y1="42" x2="72" y2="246" stroke="#9ca3af" stroke-width="1"/>
<circle cx="72" cy="266" r="4" fill="#2563eb"/>
<text x="80" y="270" font-family="Arial, sans-serif" font-size="11" fill="#374151">page min rank</text>
<circle cx="252" cy="266" r="4" fill="#b91c1c"/>
<text x="260" y="270" font-family="Arial, sans-serif" font-size="11" fill="#374151">page max rank</text>
<polyline fill="none" stroke="#2563eb" stroke-width="1.8" points="72.00,246.00 82.51,246.00 93.03,246.00 103.54,246.00 114.05,246.00 124.56,246.00 135.08,246.00 145.59,246.00 156.10,246.00 166.62,246.00 177.13,246.00 187.64,246.00 198.15,246.00 208.67,246.00 219.18,246.00 229.69,246.00 240.21,246.00 250.72,246.00 261.23,246.00 271.74,246.00 282.26,246.00 292.77,246.00 303.28,246.00 313.79,246.00 324.31,246.00 334.82,246.00 345.33,246.00 355.85,246.00 366.36,246.00 376.87,246.00 387.38,246.00 397.90,246.00 408.41,246.00 418.92,246.00 429.44,246.00 439.95,246.00 450.46,246.00 460.97,246.00 471.49,246.00 482.00,246.00 492.51,246.00 503.03,246.00 513.54,246.00 524.05,246.00 534.56,246.00 545.08,246.00 555.59,246.00 566.10,246.00 576.62,246.00 587.13,246.00 597.64,246.00 608.15,246.00 618.67,246.00 629.18,246.00 639.69,246.00 650.21,246.00 660.72,246.00 671.23,246.00 681.74,246.00 692.26,246.00 702.77,246.00 713.28,246.00 723.79,246.00 734.31,246.00 744.82,246.00 755.33,246.00 765.85,246.00 776.36,246.00 786.87,246.00 797.38,246.00 807.90,246.00 818.41,246.00 828.92,246.00 839.44,246.00 849.95,246.00 860.46,246.00 870.97,246.00 881.49,246.00 892.00,246.00"/>
<polyline fill="none" stroke="#b91c1c" stroke-width="1.8" points="72.00,49.29 82.51,49.29 93.03,49.29 103.54,49.29 114.05,49.29 124.56,49.29 135.08,49.29 145.59,49.29 156.10,49.29 166.62,49.29 177.13,49.29 187.64,49.29 198.15,49.29 208.67,49.29 219.18,49.29 229.69,49.29 240.21,49.29 250.72,49.29 261.23,49.29 271.74,49.29 282.26,49.29 292.77,49.29 303.28,49.29 313.79,49.29 324.31,49.29 334.82,49.29 345.33,49.29 355.85,49.29 366.36,49.29 376.87,49.29 387.38,49.29 397.90,49.29 408.41,49.29 418.92,49.29 429.44,49.29 439.95,49.29 450.46,49.29 460.97,49.29 471.49,49.29 482.00,49.29 492.51,49.29 503.03,49.29 513.54,49.29 524.05,246.00 534.56,246.00 545.08,246.00 555.59,246.00 566.10,246.00 576.62,231.43 587.13,56.57 597.64,122.14 608.15,42.00 618.67,238.71 629.18,209.57 639.69,180.43 650.21,165.86 660.72,216.86 671.23,195.00 681.74,158.57 692.26,173.14 702.77,93.00 713.28,136.71 723.79,114.86 734.31,151.29 744.82,187.71 755.33,202.29 765.85,144.00 776.36,195.00 786.87,100.29 797.38,85.71 807.90,71.14 818.41,180.43 828.92,78.43 839.44,107.57 849.95,107.57 860.46,224.14 870.97,180.43 881.49,63.86 892.00,129.43"/>
</svg>
