<svg xmlns="http://www.w3.org/2000/svg" width="920" height="300" viewBox="0 0 920 300">
<rect width="100%" height="100%" fill="#ffffff"/>
<text x="72" y="24" font-family="Arial, sans-serif" font-size="16" font-weight="700" fill="#111827">UTMSource value length per row group</text>
<text x="72" y="288" font-family="Arial, sans-serif" font-size="11" fill="#6b7280">page/row-group index</text>
<text x="18" y="144" transform="rotate(-90 18 144)" font-family="Arial, sans-serif" font-size="11" fill="#6b7280">bytes</text>
<line x1="72" y1="246.00" x2="892" y2="246.00" stroke="#e5e7eb" stroke-width="1"/>
<text x="64" y="249.00" font-family="Arial, sans-serif" font-size="10" text-anchor="end" fill="#6b7280">0</text>
<line x1="72" y1="195.00" x2="892" y2="195.00" stroke="#e5e7eb" stroke-width="1"/>
<text x="64" y="198.00" font-family="Arial, sans-serif" font-size="10" text-anchor="end" fill="#6b7280">4.75</text>
<line x1="72" y1="144.00" x2="892" y2="144.00" stroke="#e5e7eb" stroke-width="1"/>
<text x="64" y="147.00" font-family="Arial, sans-serif" font-size="10" text-anchor="end" fill="#6b7280">9.50</text>
<line x1="72" y1="93.00" x2="892" y2="93.00" stroke="#e5e7eb" stroke-width="1"/>
<text x="64" y="96.00" font-family="Arial, sans-serif" font-size="10" text-anchor="end" fill="#6b7280">14.25</text>
<line x1="72" y1="42.00" x2="892" y2="42.00" stroke="#e5e7eb" stroke-width="1"/>
<text x="64" y="45.00" font-family="Arial, sans-serif" font-size="10" text-anchor="end" fill="#6b7280">19</text>
<line x1="72" y1="246" x2="892" y2="246" stroke="#9ca3af" stroke-width="1"/>
<line x1="72" y1="42" x2="72" y2="246" stroke="#9ca3af" stroke-width="1"/>
<circle cx="72" cy="266" r="4" fill="#7c3aed"/>
<text x="80" y="270" font-family="Arial, sans-serif" font-size="11" fill="#374151">min length</text>
<circle cx="252" cy="266" r="4" fill="#ea580c"/>
<text x="260" y="270" font-family="Arial, sans-serif" font-size="11" fill="#374151">max length</text>
<polyline fill="none" stroke="#7c3aed" stroke-width="1.8" points="72.00,246.00 82.51,246.00 93.03,246.00 103.54,246.00 114.05,246.00 124.56,246.00 135.08,246.00 145.59,246.00 156.10,246.00 166.62,246.00 177.13,246.00 187.64,246.00 198.15,246.00 208.67,246.00 219.18,246.00 229.69,246.00 240.21,246.00 250.72,246.00 261.23,246.00 271.74,246.00 282.26,246.00 292.77,246.00 303.28,246.00 313.79,246.00 324.31,246.00 334.82,246.00 345.33,246.00 355.85,246.00 366.36,246.00 376.87,246.00 387.38,246.00 397.90,246.00 408.41,246.00 418.92,246.00 429.44,246.00 439.95,246.00 450.46,246.00 460.97,246.00 471.49,246.00 482.00,246.00 492.51,246.00 503.03,246.00 513.54,246.00 524.05,246.00 534.56,246.00 545.08,246.00 555.59,246.00 566.10,246.00 576.62,246.00 587.13,246.00 597.64,246.00 608.15,246.00 618.67,246.00 629.18,246.00 639.69,246.00 650.21,246.00 660.72,246.00 671.23,246.00 681.74,246.00 692.26,246.00 702.77,246.00 713.28,246.00 723.79,246.00 734.31,246.00 744.82,246.00 755.33,246.00 765.85,246.00 776.36,246.00 786.87,246.00 797.38,246.00 807.90,246.00 818.41,246.00 828.92,246.00 839.44,246.00 849.95,246.00 860.46,246.00 870.97,246.00 881.49,246.00 892.00,246.00"/>
<polyline fill="none" stroke="#ea580c" stroke-width="1.8" points="72.00,74.21 82.51,74.21 93.03,74.21 103.54,74.21 114.05,74.21 124.56,74.21 135.08,74.21 145.59,42.00 156.10,74.21 166.62,74.21 177.13,74.21 187.64,74.21 198.15,74.21 208.67,84.95 219.18,74.21 229.69,74.21 240.21,74.21 250.72,74.21 261.23,74.21 271.74,84.95 282.26,74.21 292.77,74.21 303.28,74.21 313.79,74.21 324.31,74.21 334.82,84.95 345.33,84.95 355.85,74.21 366.36,84.95 376.87,74.21 387.38,74.21 397.90,74.21 408.41,84.95 418.92,74.21 429.44,74.21 439.95,74.21 450.46,74.21 460.97,74.21 471.49,74.21 482.00,74.21 492.51,74.21 503.03,74.21 513.54,74.21 524.05,246.00 534.56,246.00 545.08,246.00 555.59,246.00 566.10,246.00 576.62,160.11 587.13,84.95 597.64,84.95 608.15,84.95 618.67,160.11 629.18,74.21 639.69,74.21 650.21,84.95 660.72,74.21 671.23,74.21 681.74,84.95 692.26,84.95 702.77,74.21 713.28,160.11 723.79,74.21 734.31,74.21 744.82,160.11 755.33,74.21 765.85,84.95 776.36,160.11 786.87,84.95 797.38,74.21 807.90,74.21 818.41,74.21 828.92,74.21 839.44,127.89 849.95,74.21 860.46,74.21 870.97,74.21 881.49,74.21 892.00,106.42"/>
</svg>
