<svg xmlns="http://www.w3.org/2000/svg" width="920" height="300" viewBox="0 0 920 300">
<rect width="100%" height="100%" fill="#ffffff"/>
<text x="72" y="24" font-family="Arial, sans-serif" font-size="16" font-weight="700" fill="#111827">UTMSource page cardinality per row group</text>
<text x="72" y="288" font-family="Arial, sans-serif" font-size="11" fill="#6b7280">page/row-group index</text>
<text x="18" y="144" transform="rotate(-90 18 144)" font-family="Arial, sans-serif" font-size="11" fill="#6b7280">distinct values</text>
<line x1="72" y1="246.00" x2="892" y2="246.00" stroke="#e5e7eb" stroke-width="1"/>
<text x="64" y="249.00" font-family="Arial, sans-serif" font-size="10" text-anchor="end" fill="#6b7280">1</text>
<line x1="72" y1="195.00" x2="892" y2="195.00" stroke="#e5e7eb" stroke-width="1"/>
<text x="64" y="198.00" font-family="Arial, sans-serif" font-size="10" text-anchor="end" fill="#6b7280">2.75</text>
<line x1="72" y1="144.00" x2="892" y2="144.00" stroke="#e5e7eb" stroke-width="1"/>
<text x="64" y="147.00" font-family="Arial, sans-serif" font-size="10" text-anchor="end" fill="#6b7280">4.50</text>
<line x1="72" y1="93.00" x2="892" y2="93.00" stroke="#e5e7eb" stroke-width="1"/>
<text x="64" y="96.00" font-family="Arial, sans-serif" font-size="10" text-anchor="end" fill="#6b7280">6.25</text>
<line x1="72" y1="42.00" x2="892" y2="42.00" stroke="#e5e7eb" stroke-width="1"/>
<text x="64" y="45.00" font-family="Arial, sans-serif" font-size="10" text-anchor="end" fill="#6b7280">8</text>
<line x1="72" y1="246" x2="892" y2="246" stroke="#9ca3af" stroke-width="1"/>
<line x1="72" y1="42" x2="72" y2="246" stroke="#9ca3af" stroke-width="1"/>
<circle cx="72" cy="266" r="4" fill="#0f766e"/>
<text x="80" y="270" font-family="Arial, sans-serif" font-size="11" fill="#374151">min page cardinality</text>
<circle cx="252" cy="266" r="4" fill="#b91c1c"/>
<text x="260" y="270" font-family="Arial, sans-serif" font-size="11" fill="#374151">max page cardinality</text>
<polyline fill="none" stroke="#0f766e" stroke-width="1.8" points="72.00,100.29 82.51,129.43 93.03,100.29 103.54,100.29 114.05,100.29 124.56,100.29 135.08,71.14 145.59,71.14 156.10,71.14 166.62,100.29 177.13,100.29 187.64,100.29 198.15,100.29 208.67,129.43 219.18,100.29 229.69,100.29 240.21,100.29 250.72,100.29 261.23,100.29 271.74,129.43 282.26,100.29 292.77,100.29 303.28,100.29 313.79,100.29 324.31,100.29 334.82,129.43 345.33,129.43 355.85,100.29 366.36,129.43 376.87,100.29 387.38,100.29 397.90,100.29 408.41,129.43 418.92,100.29 429.44,129.43 439.95,100.29 450.46,71.14 460.97,100.29 471.49,100.29 482.00,71.14 492.51,100.29 503.03,71.14 513.54,100.29 524.05,246.00 534.56,246.00 545.08,246.00 555.59,246.00 566.10,246.00 576.62,216.86 587.13,129.43 597.64,71.14 608.15,71.14 618.67,216.86 629.18,100.29 639.69,158.57 650.21,129.43 660.72,100.29 671.23,100.29 681.74,129.43 692.26,129.43 702.77,129.43 713.28,158.57 723.79,129.43 734.31,42.00 744.82,216.86 755.33,100.29 765.85,71.14 776.36,187.71 786.87,129.43 797.38,129.43 807.90,71.14 818.41,158.57 828.92,129.43 839.44,158.57 849.95,129.43 860.46,100.29 870.97,129.43 881.49,100.29 892.00,129.43"/>
<polyline fill="none" stroke="#b91c1c" stroke-width="1.8" points="72.00,100.29 82.51,129.43 93.03,100.29 103.54,100.29 114.05,100.29 124.56,100.29 135.08,71.14 145.59,71.14 156.10,71.14 166.62,100.29 177.13,100.29 187.64,100.29 198.15,100.29 208.67,129.43 219.18,100.29 229.69,100.29 240.21,100.29 250.72,100.29 261.23,100.29 271.74,129.43 282.26,100.29 292.77,100.29 303.28,100.29 313.79,100.29 324.31,100.29 334.82,129.43 345.33,129.43 355.85,100.29 366.36,129.43 376.87,100.29 387.38,100.29 397.90,100.29 408.41,129.43 418.92,100.29 429.44,129.43 439.95,100.29 450.46,71.14 460.97,100.29 471.49,100.29 482.00,71.14 492.51,100.29 503.03,71.14 513.54,100.29 524.05,246.00 534.56,246.00 545.08,246.00 555.59,246.00 566.10,246.00 576.62,216.86 587.13,129.43 597.64,71.14 608.15,71.14 618.67,216.86 629.18,100.29 639.69,158.57 650.21,129.43 660.72,100.29 671.23,100.29 681.74,129.43 692.26,129.43 702.77,129.43 713.28,158.57 723.79,129.43 734.31,42.00 744.82,216.86 755.33,100.29 765.85,71.14 776.36,187.71 786.87,129.43 797.38,129.43 807.90,71.14 818.41,158.57 828.92,129.43 839.44,158.57 849.95,129.43 860.46,100.29 870.97,129.43 881.49,100.29 892.00,129.43"/>
</svg>
