<svg xmlns="http://www.w3.org/2000/svg" width="920" height="300" viewBox="0 0 920 300">
<rect width="100%" height="100%" fill="#ffffff"/>
<text x="72" y="24" font-family="Arial, sans-serif" font-size="16" font-weight="700" fill="#111827">UTMTerm page cardinality per row group</text>
<text x="72" y="288" font-family="Arial, sans-serif" font-size="11" fill="#6b7280">page/row-group index</text>
<text x="18" y="144" transform="rotate(-90 18 144)" font-family="Arial, sans-serif" font-size="11" fill="#6b7280">distinct values</text>
<line x1="72" y1="246.00" x2="892" y2="246.00" stroke="#e5e7eb" stroke-width="1"/>
<text x="64" y="249.00" font-family="Arial, sans-serif" font-size="10" text-anchor="end" fill="#6b7280">1</text>
<line x1="72" y1="195.00" x2="892" y2="195.00" stroke="#e5e7eb" stroke-width="1"/>
<text x="64" y="198.00" font-family="Arial, sans-serif" font-size="10" text-anchor="end" fill="#6b7280">19.50</text>
<line x1="72" y1="144.00" x2="892" y2="144.00" stroke="#e5e7eb" stroke-width="1"/>
<text x="64" y="147.00" font-family="Arial, sans-serif" font-size="10" text-anchor="end" fill="#6b7280">38</text>
<line x1="72" y1="93.00" x2="892" y2="93.00" stroke="#e5e7eb" stroke-width="1"/>
<text x="64" y="96.00" font-family="Arial, sans-serif" font-size="10" text-anchor="end" fill="#6b7280">56.50</text>
<line x1="72" y1="42.00" x2="892" y2="42.00" stroke="#e5e7eb" stroke-width="1"/>
<text x="64" y="45.00" font-family="Arial, sans-serif" font-size="10" text-anchor="end" fill="#6b7280">75</text>
<line x1="72" y1="246" x2="892" y2="246" stroke="#9ca3af" stroke-width="1"/>
<line x1="72" y1="42" x2="72" y2="246" stroke="#9ca3af" stroke-width="1"/>
<circle cx="72" cy="266" r="4" fill="#0f766e"/>
<text x="80" y="270" font-family="Arial, sans-serif" font-size="11" fill="#374151">min page cardinality</text>
<circle cx="252" cy="266" r="4" fill="#b91c1c"/>
<text x="260" y="270" font-family="Arial, sans-serif" font-size="11" fill="#374151">max page cardinality</text>
<polyline fill="none" stroke="#0f766e" stroke-width="1.8" points="72.00,240.49 82.51,243.24 93.03,240.49 103.54,243.24 114.05,243.24 124.56,240.49 135.08,243.24 145.59,243.24 156.10,240.49 166.62,243.24 177.13,243.24 187.64,240.49 198.15,243.24 208.67,243.24 219.18,243.24 229.69,243.24 240.21,243.24 250.72,240.49 261.23,243.24 271.74,240.49 282.26,243.24 292.77,243.24 303.28,243.24 313.79,243.24 324.31,243.24 334.82,243.24 345.33,243.24 355.85,243.24 366.36,243.24 376.87,243.24 387.38,240.49 397.90,243.24 408.41,243.24 418.92,243.24 429.44,243.24 439.95,243.24 450.46,243.24 460.97,243.24 471.49,243.24 482.00,243.24 492.51,243.24 503.03,243.24 513.54,243.24 524.05,246.00 534.56,246.00 545.08,246.00 555.59,246.00 566.10,246.00 576.62,246.00 587.13,237.73 597.64,177.08 608.15,246.00 618.67,246.00 629.18,223.95 639.69,240.49 650.21,237.73 660.72,237.73 671.23,237.73 681.74,218.43 692.26,226.70 702.77,240.49 713.28,243.24 723.79,240.49 734.31,232.22 744.82,237.73 755.33,234.97 765.85,240.49 776.36,243.24 786.87,243.24 797.38,240.49 807.90,234.97 818.41,42.00 828.92,243.24 839.44,240.49 849.95,243.24 860.46,221.19 870.97,237.73 881.49,234.97 892.00,240.49"/>
<polyline fill="none" stroke="#b91c1c" stroke-width="1.8" points="72.00,240.49 82.51,243.24 93.03,240.49 103.54,243.24 114.05,243.24 124.56,240.49 135.08,243.24 145.59,243.24 156.10,240.49 166.62,243.24 177.13,243.24 187.64,240.49 198.15,243.24 208.67,243.24 219.18,243.24 229.69,243.24 240.21,243.24 250.72,240.49 261.23,243.24 271.74,240.49 282.26,243.24 292.77,243.24 303.28,243.24 313.79,243.24 324.31,243.24 334.82,243.24 345.33,243.24 355.85,243.24 366.36,243.24 376.87,243.24 387.38,240.49 397.90,243.24 408.41,243.24 418.92,243.24 429.44,243.24 439.95,243.24 450.46,243.24 460.97,243.24 471.49,243.24 482.00,243.24 492.51,243.24 503.03,243.24 513.54,243.24 524.05,246.00 534.56,246.00 545.08,246.00 555.59,246.00 566.10,246.00 576.62,246.00 587.13,237.73 597.64,177.08 608.15,246.00 618.67,246.00 629.18,223.95 639.69,240.49 650.21,237.73 660.72,237.73 671.23,237.73 681.74,218.43 692.26,226.70 702.77,240.49 713.28,243.24 723.79,240.49 734.31,232.22 744.82,237.73 755.33,234.97 765.85,240.49 776.36,243.24 786.87,243.24 797.38,240.49 807.90,234.97 818.41,42.00 828.92,243.24 839.44,240.49 849.95,243.24 860.46,221.19 870.97,237.73 881.49,234.97 892.00,240.49"/>
</svg>
