<svg xmlns="http://www.w3.org/2000/svg" width="920" height="300" viewBox="0 0 920 300">
<rect width="100%" height="100%" fill="#ffffff"/>
<text x="72" y="24" font-family="Arial, sans-serif" font-size="16" font-weight="700" fill="#111827">WatchID page min/max</text>
<text x="72" y="288" font-family="Arial, sans-serif" font-size="11" fill="#6b7280">page/row-group index</text>
<text x="18" y="144" transform="rotate(-90 18 144)" font-family="Arial, sans-serif" font-size="11" fill="#6b7280">value</text>
<line x1="72" y1="246.00" x2="892" y2="246.00" stroke="#e5e7eb" stroke-width="1"/>
<text x="64" y="249.00" font-family="Arial, sans-serif" font-size="10" text-anchor="end" fill="#6b7280">4.61e+18</text>
<line x1="72" y1="195.00" x2="892" y2="195.00" stroke="#e5e7eb" stroke-width="1"/>
<text x="64" y="198.00" font-family="Arial, sans-serif" font-size="10" text-anchor="end" fill="#6b7280">5.76e+18</text>
<line x1="72" y1="144.00" x2="892" y2="144.00" stroke="#e5e7eb" stroke-width="1"/>
<text x="64" y="147.00" font-family="Arial, sans-serif" font-size="10" text-anchor="end" fill="#6b7280">6.92e+18</text>
<line x1="72" y1="93.00" x2="892" y2="93.00" stroke="#e5e7eb" stroke-width="1"/>
<text x="64" y="96.00" font-family="Arial, sans-serif" font-size="10" text-anchor="end" fill="#6b7280">8.07e+18</text>
<line x1="72" y1="42.00" x2="892" y2="42.00" stroke="#e5e7eb" stroke-width="1"/>
<text x="64" y="45.00" font-family="Arial, sans-serif" font-size="10" text-anchor="end" fill="#6b7280">9.22e+18</text>
<line x1="72" y1="246" x2="892" y2="246" stroke="#9ca3af" stroke-width="1"/>
<line x1="72" y1="42" x2="72" y2="246" stroke="#9ca3af" stroke-width="1"/>
<circle cx="72" cy="266" r="4" fill="#2563eb"/>
<text x="80" y="270" font-family="Arial, sans-serif" font-size="11" fill="#374151">page min</text>
<circle cx="252" cy="266" r="4" fill="#b91c1c"/>
<text x="260" y="270" font-family="Arial, sans-serif" font-size="11" fill="#374151">page max</text>
<polyline fill="none" stroke="#2563eb" stroke-width="1.8" points="72.00,245.96 82.51,245.96 93.03,245.99 103.54,246.00 114.05,245.95 124.56,245.99 135.08,246.00 145.59,246.00 156.10,246.00 166.62,245.98 177.13,246.00 187.64,245.99 198.15,246.00 208.67,245.94 219.18,245.99 229.69,245.99 240.21,245.96 250.72,245.99 261.23,245.99 271.74,245.99 282.26,246.00 292.77,245.99 303.28,246.00 313.79,245.99 324.31,246.00 334.82,245.99 345.33,246.00 355.85,245.99 366.36,246.00 376.87,245.98 387.38,245.96 397.90,245.96 408.41,245.99 418.92,245.97 429.44,245.99 439.95,245.99 450.46,245.98 460.97,246.00 471.49,245.99 482.00,246.00 492.51,246.00 503.03,245.95 513.54,245.96 524.05,246.00 534.56,246.00 545.08,246.00 555.59,245.99 566.10,246.00 576.62,246.00 587.13,246.00 597.64,245.95 608.15,246.00 618.67,245.97 629.18,245.98 639.69,245.99 650.21,245.97 660.72,245.99 671.23,245.99 681.74,245.99 692.26,245.99 702.77,245.99 713.28,245.99 723.79,245.96 734.31,246.00 744.82,245.99 755.33,245.96 765.85,246.00 776.36,246.00 786.87,246.00 797.38,245.99 807.90,245.96 818.41,245.99 828.92,245.96 839.44,245.99 849.95,245.98 860.46,245.98 870.97,245.99 881.49,245.96 892.00,245.93"/>
<polyline fill="none" stroke="#b91c1c" stroke-width="1.8" points="72.00,42.00 82.51,42.01 93.03,42.01 103.54,42.02 114.05,42.00 124.56,42.01 135.08,42.02 145.59,42.02 156.10,42.02 166.62,42.04 177.13,42.00 187.64,42.01 198.15,42.03 208.67,42.02 219.18,42.03 229.69,42.02 240.21,42.01 250.72,42.01 261.23,42.00 271.74,42.02 282.26,42.00 292.77,42.02 303.28,42.00 313.79,42.01 324.31,42.00 334.82,42.02 345.33,42.02 355.85,42.00 366.36,42.00 376.87,42.01 387.38,42.02 397.90,42.01 408.41,42.03 418.92,42.01 429.44,42.02 439.95,42.06 450.46,42.01 460.97,42.05 471.49,42.00 482.00,42.02 492.51,42.02 503.03,42.06 513.54,42.02 524.05,42.01 534.56,42.03 545.08,42.09 555.59,42.05 566.10,42.03 576.62,42.00 587.13,42.02 597.64,42.00 608.15,42.01 618.67,42.01 629.18,42.01 639.69,42.00 650.21,42.02 660.72,42.00 671.23,42.01 681.74,42.01 692.26,42.00 702.77,42.00 713.28,42.03 723.79,42.01 734.31,42.01 744.82,42.00 755.33,42.04 765.85,42.01 776.36,42.01 786.87,42.01 797.38,42.03 807.90,42.03 818.41,42.01 828.92,42.02 839.44,42.05 849.95,42.00 860.46,42.00 870.97,42.01 881.49,42.03 892.00,42.05"/>
</svg>
