<svg xmlns="http://www.w3.org/2000/svg" width="920" height="300" viewBox="0 0 920 300">
<rect width="100%" height="100%" fill="#ffffff"/>
<text x="72" y="24" font-family="Arial, sans-serif" font-size="16" font-weight="700" fill="#111827">WatchID row-group cardinality</text>
<text x="72" y="288" font-family="Arial, sans-serif" font-size="11" fill="#6b7280">page/row-group index</text>
<text x="18" y="144" transform="rotate(-90 18 144)" font-family="Arial, sans-serif" font-size="11" fill="#6b7280">distinct values</text>
<line x1="72" y1="246.00" x2="892" y2="246.00" stroke="#e5e7eb" stroke-width="1"/>
<text x="64" y="249.00" font-family="Arial, sans-serif" font-size="10" text-anchor="end" fill="#6b7280">9315</text>
<line x1="72" y1="195.00" x2="892" y2="195.00" stroke="#e5e7eb" stroke-width="1"/>
<text x="64" y="198.00" font-family="Arial, sans-serif" font-size="10" text-anchor="end" fill="#6b7280">10536.75</text>
<line x1="72" y1="144.00" x2="892" y2="144.00" stroke="#e5e7eb" stroke-width="1"/>
<text x="64" y="147.00" font-family="Arial, sans-serif" font-size="10" text-anchor="end" fill="#6b7280">11758.50</text>
<line x1="72" y1="93.00" x2="892" y2="93.00" stroke="#e5e7eb" stroke-width="1"/>
<text x="64" y="96.00" font-family="Arial, sans-serif" font-size="10" text-anchor="end" fill="#6b7280">12980.25</text>
<line x1="72" y1="42.00" x2="892" y2="42.00" stroke="#e5e7eb" stroke-width="1"/>
<text x="64" y="45.00" font-family="Arial, sans-serif" font-size="10" text-anchor="end" fill="#6b7280">14202</text>
<line x1="72" y1="246" x2="892" y2="246" stroke="#9ca3af" stroke-width="1"/>
<line x1="72" y1="42" x2="72" y2="246" stroke="#9ca3af" stroke-width="1"/>
<circle cx="72" cy="266" r="4" fill="#2563eb"/>
<text x="80" y="270" font-family="Arial, sans-serif" font-size="11" fill="#374151">row group cardinality</text>
<polyline fill="none" stroke="#2563eb" stroke-width="1.8" points="72.00,140.39 82.51,145.48 93.03,141.98 103.54,139.64 114.05,137.59 124.56,137.38 135.08,150.12 145.59,143.39 156.10,146.11 166.62,147.07 177.13,138.26 187.64,138.51 198.15,145.98 208.67,142.77 219.18,142.31 229.69,138.55 240.21,140.39 250.72,136.59 261.23,136.59 271.74,142.81 282.26,139.30 292.77,142.35 303.28,146.36 313.79,138.01 324.31,141.56 334.82,144.44 345.33,140.35 355.85,136.51 366.36,137.26 376.87,139.39 387.38,147.61 397.90,137.47 408.41,134.17 418.92,141.52 429.44,141.39 439.95,137.13 450.46,140.85 460.97,136.63 471.49,139.51 482.00,134.04 492.51,136.51 503.03,146.15 513.54,135.92 524.05,89.25 534.56,83.33 545.08,87.08 555.59,92.63 566.10,99.48 576.62,105.41 587.13,46.84 597.64,50.10 608.15,55.78 618.67,58.15 629.18,54.06 639.69,69.30 650.21,61.95 660.72,44.88 671.23,50.56 681.74,51.35 692.26,64.08 702.77,55.27 713.28,49.68 723.79,53.23 734.31,59.41 744.82,49.10 755.33,57.99 765.85,52.39 776.36,67.13 786.87,56.32 797.38,47.18 807.90,43.75 818.41,52.73 828.92,47.97 839.44,60.83 849.95,45.26 860.46,42.00 870.97,56.90 881.49,55.23 892.00,246.00"/>
</svg>
