<svg xmlns="http://www.w3.org/2000/svg" width="920" height="300" viewBox="0 0 920 300">
<rect width="100%" height="100%" fill="#ffffff"/>
<text x="72" y="24" font-family="Arial, sans-serif" font-size="16" font-weight="700" fill="#111827">WindowClientHeight row-group cardinality</text>
<text x="72" y="288" font-family="Arial, sans-serif" font-size="11" fill="#6b7280">page/row-group index</text>
<text x="18" y="144" transform="rotate(-90 18 144)" font-family="Arial, sans-serif" font-size="11" fill="#6b7280">distinct values</text>
<line x1="72" y1="246.00" x2="892" y2="246.00" stroke="#e5e7eb" stroke-width="1"/>
<text x="64" y="249.00" font-family="Arial, sans-serif" font-size="10" text-anchor="end" fill="#6b7280">318</text>
<line x1="72" y1="195.00" x2="892" y2="195.00" stroke="#e5e7eb" stroke-width="1"/>
<text x="64" y="198.00" font-family="Arial, sans-serif" font-size="10" text-anchor="end" fill="#6b7280">382.25</text>
<line x1="72" y1="144.00" x2="892" y2="144.00" stroke="#e5e7eb" stroke-width="1"/>
<text x="64" y="147.00" font-family="Arial, sans-serif" font-size="10" text-anchor="end" fill="#6b7280">446.50</text>
<line x1="72" y1="93.00" x2="892" y2="93.00" stroke="#e5e7eb" stroke-width="1"/>
<text x="64" y="96.00" font-family="Arial, sans-serif" font-size="10" text-anchor="end" fill="#6b7280">510.75</text>
<line x1="72" y1="42.00" x2="892" y2="42.00" stroke="#e5e7eb" stroke-width="1"/>
<text x="64" y="45.00" font-family="Arial, sans-serif" font-size="10" text-anchor="end" fill="#6b7280">575</text>
<line x1="72" y1="246" x2="892" y2="246" stroke="#9ca3af" stroke-width="1"/>
<line x1="72" y1="42" x2="72" y2="246" stroke="#9ca3af" stroke-width="1"/>
<circle cx="72" cy="266" r="4" fill="#2563eb"/>
<text x="80" y="270" font-family="Arial, sans-serif" font-size="11" fill="#374151">row group cardinality</text>
<polyline fill="none" stroke="#2563eb" stroke-width="1.8" points="72.00,161.86 82.51,154.72 93.03,142.02 103.54,161.07 114.05,153.13 124.56,153.13 135.08,165.83 145.59,153.92 156.10,143.60 166.62,163.45 177.13,166.62 187.64,153.13 198.15,157.10 208.67,168.21 219.18,168.21 229.69,183.29 240.21,157.10 250.72,147.57 261.23,153.92 271.74,180.12 282.26,190.44 292.77,155.51 303.28,165.04 313.79,128.52 324.31,159.48 334.82,168.21 345.33,167.42 355.85,137.25 366.36,153.92 376.87,160.27 387.38,165.83 397.90,172.18 408.41,165.83 418.92,157.89 429.44,178.53 439.95,138.84 450.46,153.92 460.97,182.50 471.49,144.40 482.00,152.33 492.51,151.54 503.03,158.68 513.54,150.75 524.05,189.64 534.56,159.48 545.08,154.72 555.59,196.79 566.10,246.00 576.62,238.86 587.13,76.93 597.64,70.58 608.15,66.61 618.67,84.07 629.18,59.46 639.69,85.66 650.21,84.07 660.72,50.73 671.23,99.15 681.74,78.51 692.26,68.19 702.77,68.19 713.28,72.16 723.79,68.99 734.31,94.39 744.82,79.31 755.33,76.93 765.85,99.15 776.36,50.73 786.87,88.83 797.38,68.19 807.90,58.67 818.41,57.08 828.92,67.40 839.44,42.00 849.95,54.70 860.46,72.96 870.97,80.10 881.49,84.86 892.00,170.59"/>
</svg>
