<svg xmlns="http://www.w3.org/2000/svg" width="920" height="300" viewBox="0 0 920 300">
<rect width="100%" height="100%" fill="#ffffff"/>
<text x="72" y="24" font-family="Arial, sans-serif" font-size="16" font-weight="700" fill="#111827">WindowName page cardinality per row group</text>
<text x="72" y="288" font-family="Arial, sans-serif" font-size="11" fill="#6b7280">page/row-group index</text>
<text x="18" y="144" transform="rotate(-90 18 144)" font-family="Arial, sans-serif" font-size="11" fill="#6b7280">distinct values</text>
<line x1="72" y1="246.00" x2="892" y2="246.00" stroke="#e5e7eb" stroke-width="1"/>
<text x="64" y="249.00" font-family="Arial, sans-serif" font-size="10" text-anchor="end" fill="#6b7280">1</text>
<line x1="72" y1="195.00" x2="892" y2="195.00" stroke="#e5e7eb" stroke-width="1"/>
<text x="64" y="198.00" font-family="Arial, sans-serif" font-size="10" text-anchor="end" fill="#6b7280">788.25</text>
<line x1="72" y1="144.00" x2="892" y2="144.00" stroke="#e5e7eb" stroke-width="1"/>
<text x="64" y="147.00" font-family="Arial, sans-serif" font-size="10" text-anchor="end" fill="#6b7280">1575.50</text>
<line x1="72" y1="93.00" x2="892" y2="93.00" stroke="#e5e7eb" stroke-width="1"/>
<text x="64" y="96.00" font-family="Arial, sans-serif" font-size="10" text-anchor="end" fill="#6b7280">2362.75</text>
<line x1="72" y1="42.00" x2="892" y2="42.00" stroke="#e5e7eb" stroke-width="1"/>
<text x="64" y="45.00" font-family="Arial, sans-serif" font-size="10" text-anchor="end" fill="#6b7280">3150</text>
<line x1="72" y1="246" x2="892" y2="246" stroke="#9ca3af" stroke-width="1"/>
<line x1="72" y1="42" x2="72" y2="246" stroke="#9ca3af" stroke-width="1"/>
<circle cx="72" cy="266" r="4" fill="#0f766e"/>
<text x="80" y="270" font-family="Arial, sans-serif" font-size="11" fill="#374151">min page cardinality</text>
<circle cx="252" cy="266" r="4" fill="#b91c1c"/>
<text x="260" y="270" font-family="Arial, sans-serif" font-size="11" fill="#374151">max page cardinality</text>
<polyline fill="none" stroke="#0f766e" stroke-width="1.8" points="72.00,245.87 82.51,245.81 93.03,245.81 103.54,245.94 114.05,245.48 124.56,245.42 135.08,245.94 145.59,245.94 156.10,245.55 166.62,245.61 177.13,245.87 187.64,245.68 198.15,245.55 208.67,245.87 219.18,245.68 229.69,246.00 240.21,245.87 250.72,245.68 261.23,245.48 271.74,245.94 282.26,245.87 292.77,245.87 303.28,245.94 313.79,245.87 324.31,245.74 334.82,245.87 345.33,245.55 355.85,245.94 366.36,245.55 376.87,245.81 387.38,245.68 397.90,245.74 408.41,245.55 418.92,245.94 429.44,245.55 439.95,245.87 450.46,245.87 460.97,245.81 471.49,245.87 482.00,245.48 492.51,245.61 503.03,245.87 513.54,228.57 524.05,42.00 534.56,48.93 545.08,55.35 555.59,54.44 566.10,46.41 576.62,71.22 587.13,245.42 597.64,245.81 608.15,245.42 618.67,245.94 629.18,245.87 639.69,245.68 650.21,245.61 660.72,245.29 671.23,245.81 681.74,245.48 692.26,245.68 702.77,245.48 713.28,245.55 723.79,245.61 734.31,245.94 744.82,245.42 755.33,245.74 765.85,245.68 776.36,245.81 786.87,245.68 797.38,245.68 807.90,245.74 818.41,245.68 828.92,245.48 839.44,245.74 849.95,245.55 860.46,245.55 870.97,245.87 881.49,245.87 892.00,245.42"/>
<polyline fill="none" stroke="#b91c1c" stroke-width="1.8" points="72.00,245.87 82.51,245.81 93.03,245.81 103.54,245.94 114.05,245.48 124.56,245.42 135.08,245.94 145.59,245.94 156.10,245.55 166.62,245.61 177.13,245.87 187.64,245.68 198.15,245.55 208.67,245.87 219.18,245.68 229.69,246.00 240.21,245.87 250.72,245.68 261.23,245.48 271.74,245.94 282.26,245.87 292.77,245.87 303.28,245.94 313.79,245.87 324.31,245.74 334.82,245.87 345.33,245.55 355.85,245.94 366.36,245.55 376.87,245.81 387.38,245.68 397.90,245.74 408.41,245.55 418.92,245.94 429.44,245.55 439.95,245.87 450.46,245.87 460.97,245.81 471.49,245.87 482.00,245.48 492.51,245.61 503.03,245.87 513.54,228.57 524.05,42.00 534.56,48.93 545.08,55.35 555.59,54.44 566.10,46.41 576.62,71.22 587.13,245.42 597.64,245.81 608.15,245.42 618.67,245.94 629.18,245.87 639.69,245.68 650.21,245.61 660.72,245.29 671.23,245.81 681.74,245.48 692.26,245.68 702.77,245.48 713.28,245.55 723.79,245.61 734.31,245.94 744.82,245.42 755.33,245.74 765.85,245.68 776.36,245.81 786.87,245.68 797.38,245.68 807.90,245.74 818.41,245.68 828.92,245.48 839.44,245.74 849.95,245.55 860.46,245.55 870.97,245.87 881.49,245.87 892.00,245.42"/>
</svg>
