<svg xmlns="http://www.w3.org/2000/svg" width="920" height="300" viewBox="0 0 920 300">
<rect width="100%" height="100%" fill="#ffffff"/>
<text x="72" y="24" font-family="Arial, sans-serif" font-size="16" font-weight="700" fill="#111827">WindowClientWidth row-group cardinality</text>
<text x="72" y="288" font-family="Arial, sans-serif" font-size="11" fill="#6b7280">page/row-group index</text>
<text x="18" y="144" transform="rotate(-90 18 144)" font-family="Arial, sans-serif" font-size="11" fill="#6b7280">distinct values</text>
<line x1="72" y1="246.00" x2="892" y2="246.00" stroke="#e5e7eb" stroke-width="1"/>
<text x="64" y="249.00" font-family="Arial, sans-serif" font-size="10" text-anchor="end" fill="#6b7280">241</text>
<line x1="72" y1="195.00" x2="892" y2="195.00" stroke="#e5e7eb" stroke-width="1"/>
<text x="64" y="198.00" font-family="Arial, sans-serif" font-size="10" text-anchor="end" fill="#6b7280">274.25</text>
<line x1="72" y1="144.00" x2="892" y2="144.00" stroke="#e5e7eb" stroke-width="1"/>
<text x="64" y="147.00" font-family="Arial, sans-serif" font-size="10" text-anchor="end" fill="#6b7280">307.50</text>
<line x1="72" y1="93.00" x2="892" y2="93.00" stroke="#e5e7eb" stroke-width="1"/>
<text x="64" y="96.00" font-family="Arial, sans-serif" font-size="10" text-anchor="end" fill="#6b7280">340.75</text>
<line x1="72" y1="42.00" x2="892" y2="42.00" stroke="#e5e7eb" stroke-width="1"/>
<text x="64" y="45.00" font-family="Arial, sans-serif" font-size="10" text-anchor="end" fill="#6b7280">374</text>
<line x1="72" y1="246" x2="892" y2="246" stroke="#9ca3af" stroke-width="1"/>
<line x1="72" y1="42" x2="72" y2="246" stroke="#9ca3af" stroke-width="1"/>
<circle cx="72" cy="266" r="4" fill="#2563eb"/>
<text x="80" y="270" font-family="Arial, sans-serif" font-size="11" fill="#374151">row group cardinality</text>
<polyline fill="none" stroke="#2563eb" stroke-width="1.8" points="72.00,192.32 82.51,118.69 93.03,213.79 103.54,167.77 114.05,153.97 124.56,118.69 135.08,187.71 145.59,164.71 156.10,143.23 166.62,192.32 177.13,160.11 187.64,135.56 198.15,175.44 208.67,138.63 219.18,163.17 229.69,178.51 240.21,155.50 250.72,167.77 261.23,161.64 271.74,190.78 282.26,167.77 292.77,117.16 303.28,183.11 313.79,127.89 324.31,184.65 334.82,160.11 345.33,178.51 355.85,176.98 366.36,155.50 376.87,172.38 387.38,196.92 397.90,207.65 408.41,184.65 418.92,192.32 429.44,218.39 439.95,132.50 450.46,190.78 460.97,213.79 471.49,149.37 482.00,172.38 492.51,183.11 503.03,207.65 513.54,132.50 524.05,143.23 534.56,134.03 545.08,88.02 555.59,157.04 566.10,213.79 576.62,195.38 587.13,123.29 597.64,124.83 608.15,138.63 618.67,94.15 629.18,132.50 639.69,138.63 650.21,121.76 660.72,121.76 671.23,146.30 681.74,137.10 692.26,120.23 702.77,132.50 713.28,81.88 723.79,112.56 734.31,134.03 744.82,71.14 755.33,146.30 765.85,163.17 776.36,141.70 786.87,112.56 797.38,124.83 807.90,91.08 818.41,109.49 828.92,129.43 839.44,42.00 849.95,91.08 860.46,118.69 870.97,123.29 881.49,115.62 892.00,246.00"/>
</svg>
